<svg width="470" height="317" xmlns="http://www.w3.org/2000/svg">

 <g>
  <title>Layer 1</title>
  <g>
   <g fill="#000000" transform="translate(0 346) scale(0.1 -0.1)">
    <path d="m1461.57941,3454.33301c-47,-2 -88,-6 -92,-10c-11,-11 -15,-337 -4,-340c6,-1 11,63 13,154c1,86 4,158 5,160c2,1 64,7 138,13c187,13 756,1 1110,-24c107,-7 326,-17 485,-20c160,-4 340,-13 400,-21c61,-8 125,-14 143,-14c17,0 32,-1 33,-2c0,-4 13,-1319 14,-1438l0,-85l-435,-2c-527,-3 -1164,-10 -1552,-19l-287,-6l-6,24c-3,12 -9,60 -13,106c-4,47 -11,81 -17,80c-5,-2 -9,-16 -8,-33c1,-16 5,-70 9,-119l6,-89l69,7c131,12 1036,25 1792,26c451,0 478,1 473,18c-10,33 -16,311 -21,877c-2,314 -4,593 -5,621l0,50l-192,17c-187,16 -270,21 -598,33c-85,3 -247,10 -360,15c-592,28 -796,32 -1100,21z"/>
    <path d="m2851.57941,3353.33301c0,-5 11,-11 25,-13c42,-5 33,-23 -12,-26c-43,-3 -43,-3 -43,-43c0,-25 4,-38 10,-34c6,4 8,10 5,15c-11,17 7,36 35,38c26,2 30,-1 30,-23c0,-14 5,-25 10,-25c6,0 10,9 10,20c0,13 7,20 19,20c15,0 19,-6 18,-26c-1,-15 3,-29 9,-31c16,-5 26,40 11,49c-8,5 -4,8 11,8c19,0 21,-4 16,-24c-3,-13 -1,-27 4,-30c13,-8 18,0 27,41l6,32l-58,3c-46,2 -59,7 -61,21c-3,13 3,17 27,17c17,0 31,5 31,10c0,6 -28,10 -65,10c-36,0 -65,-4 -65,-9z"/>
    <path d="m1830.57941,3335.33301c-1,-4 0,-20 1,-35c1,-22 -3,-28 -19,-28c-27,0 -27,-16 -1,-23c27,-7 25,-23 -5,-43c-14,-9 -25,-23 -25,-30c0,-16 16,-19 25,-4c12,20 21,9 17,-20c-3,-23 0,-30 13,-30c13,0 16,7 13,33c-3,29 -1,32 24,29c14,-2 29,2 33,7c3,6 17,11 31,11c25,0 25,0 -11,-37c-19,-20 -35,-40 -35,-45c0,-16 19,-8 38,17c26,33 32,32 32,-5c0,-16 5,-30 10,-30c6,0 10,12 10,27c0,21 3,24 12,15c7,-7 16,-12 20,-12c14,0 8,20 -12,40c-23,23 -19,40 11,40c10,0 19,7 19,15c0,11 -5,12 -25,5c-21,-8 -25,-7 -25,10c0,13 7,20 20,20c11,0 20,5 20,10c0,6 -9,10 -20,10c-13,0 -20,7 -20,19c0,13 -7,19 -24,19c-20,0 -26,-9 -42,-57c-23,-70 -20,-67 -44,-46c-26,23 -25,33 3,37c12,2 20,7 17,13c-3,5 -13,8 -22,7c-14,-3 -18,4 -18,27c0,26 -18,56 -21,34zm131,-43c0,-5 -5,-10 -11,-10c-5,0 -7,5 -4,10c3,6 8,10 11,10c2,0 4,-4 4,-10zm0,-50c0,-13 -7,-20 -20,-20c-23,0 -26,10 -8,28c18,18 28,15 28,-8z"/>
    <path d="m2045.57941,3321.33301c-3,-6 2,-16 11,-23c28,-20 31,-98 6,-146c-24,-46 -25,-50 -11,-50c15,0 46,71 49,113c5,66 -34,140 -55,106z"/>
    <path d="m3084.57941,3285.33301c-6,-27 -10,-49 -9,-51c5,-5 106,21 106,27c0,4 -18,5 -40,3c-25,-3 -40,0 -40,7c0,6 14,12 30,12c17,1 35,3 40,4c6,1 15,3 21,4c5,0 8,5 5,10c-3,5 -24,7 -46,4c-33,-5 -40,-3 -40,11c0,34 -17,14 -27,-31z"/>
    <path d="m1752.57941,3296.33301c-31,-39 -42,-91 -31,-136c11,-39 24,-53 39,-44c5,3 1,22 -9,42c-10,20 -16,43 -13,52c10,32 38,82 45,82c5,0 8,7 8,15c0,23 -16,18 -39,-11z"/>
    <path d="m2606.57941,3292.33301c-8,-13 -11,-12 68,-15c63,-3 86,6 51,19c-25,10 -112,7 -119,-4z"/>
    <path d="m2366.57941,3282.33301c-8,-12 -4,-13 67,-14c40,-1 58,3 58,12c0,15 -116,17 -125,2z"/>
    <path d="m2851.57941,3252.33301c0,-11 7,-20 15,-20c8,0 15,9 15,20c0,11 -7,20 -15,20c-8,0 -15,-9 -15,-20z"/>
    <path d="m2159.57941,3235.33301c-10,-2 -18,-9 -18,-14c0,-14 152,-7 157,8c4,11 -100,16 -139,6z"/>
    <path d="m2606.57941,3222.33301c-4,-6 20,-10 64,-10c41,0 71,4 71,10c0,6 -28,10 -64,10c-36,0 -68,-4 -71,-10z"/>
    <path d="m2851.57941,3202.33301c-6,-10 -10,-33 -10,-51c0,-27 3,-31 20,-26c13,3 28,-2 39,-15c14,-14 29,-19 57,-16c22,2 38,8 36,13c-2,6 -16,9 -32,7c-15,-2 -31,2 -35,7c-4,7 6,11 24,11c29,0 31,2 31,40c0,37 -2,39 -32,43c-63,9 -88,5 -98,-13zm50,-10c0,-5 -7,-10 -15,-10c-8,0 -15,5 -15,10c0,6 7,10 15,10c8,0 15,-4 15,-10zm50,6c0,-11 -19,-15 -25,-6c-3,5 1,10 9,10c9,0 16,-2 16,-4zm-60,-34c0,-13 -12,-22 -22,-16c-10,6 -1,24 13,24c5,0 9,-4 9,-8zm70,-2c0,-5 -9,-10 -20,-10c-11,0 -20,5 -20,10c0,6 9,10 20,10c11,0 20,-4 20,-10z"/>
    <path d="m3116.57941,3215.33301c-11,-2 -31,-6 -44,-9c-16,-3 -20,-9 -14,-15c6,-6 19,-6 37,1c50,19 102,7 66,-15c-5,-3 -10,-17 -10,-30c0,-28 48,-59 74,-49c26,10 18,24 -13,24c-39,0 -44,10 -26,59l14,41l-32,-1c-18,-1 -41,-3 -52,-6z"/>
    <path d="m1502.57941,3134.33301c-113,-58 -205,-129 -322,-248l-90,-92l-67,25c-168,61 -213,76 -297,98c-49,13 -137,31 -195,39c-58,9 -116,18 -130,20c-14,3 -41,5 -60,6l-35,1l43,22c37,19 55,37 35,37c-14,0 -113,-60 -113,-68c1,-8 76,-57 103,-68c33,-12 16,13 -19,30c-20,9 -34,19 -31,22c10,10 216,-17 332,-43c139,-31 415,-123 415,-140c0,-16 -125,-160 -229,-263c-83,-82 -137,-127 -191,-157c-93,-52 -210,-92 -292,-99l-63,-5l43,21c23,11 42,25 42,30c0,6 -2,10 -4,10c-9,0 -128,-72 -124,-75c18,-16 113,-65 122,-62c6,2 -10,15 -36,28c-56,27 -48,39 28,39c84,0 229,55 350,132c59,38 219,199 304,306c40,50 78,92 83,92c5,0 47,-9 93,-20c46,-11 128,-25 181,-30c118,-11 340,-13 346,-2c3,4 -68,8 -156,8c-129,1 -191,7 -302,28c-76,14 -143,30 -148,35c-9,9 186,199 247,240c111,73 216,131 241,131c8,0 15,5 15,10c0,18 -25,10 -119,-38z"/>
    <path d="m3115.57941,3171.33301c-3,-6 -17,-8 -30,-5c-24,6 -34,-9 -11,-17c8,-3 7,-10 -7,-26c-23,-26 -13,-41 12,-18c11,10 26,14 40,10c26,-6 30,12 5,22c-17,6 -17,7 0,16c18,11 23,29 8,29c-6,0 -13,-5 -17,-11z"/>
    <path d="m2381.57941,3166.33301c-8,-3 -21,-7 -28,-10c-7,-2 -11,-8 -7,-13c3,-6 18,-6 38,0c20,6 52,5 86,-1c55,-10 72,-7 55,9c-11,12 -123,23 -144,15z"/>
    <path d="m2682.57941,3153.33301c-105,-8 -104,-28 1,-25c67,2 84,5 86,18c2,9 0,15 -5,14c-4,-1 -41,-4 -82,-7z"/>
    <path d="m1721.57941,3043.33301c0,-5 66,-11 148,-15c81,-4 230,-11 332,-17c439,-25 1154,-28 1148,-4c-2,6 -10,9 -18,8c-44,-7 -657,-2 -850,7c-723,33 -760,34 -760,21z"/>
    <path d="m1361.57941,2940.33301c0,-70 13,-168 23,-168c6,0 7,28 3,73c-3,39 -6,84 -6,100c0,15 -4,27 -10,27c-5,0 -10,-15 -10,-32z"/>
    <path d="m2449.57941,2845.33301l-33,-58l-1,-148l-1,-149l31,6c83,14 218,28 223,22c3,-3 0,-26 -7,-51c-10,-37 -16,-44 -31,-40c-25,8 -24,-10 0,-37c44,-46 103,15 93,97c-2,22 -10,43 -16,47c-15,11 -108,9 -186,-2c-70,-10 -79,-8 -61,14c14,16 69,28 136,28c31,0 45,4 42,11c-4,12 -50,14 -122,6c-31,-3 -40,0 -40,11c0,11 17,18 57,24c52,8 58,12 72,45c8,20 18,53 22,75c8,46 -7,60 -45,40c-59,-31 -151,-4 -105,31c10,8 24,15 30,15c31,1 20,70 -11,70c-7,0 -28,-26 -47,-57zm122,-108c0,-18 -7,-22 -53,-30c-37,-7 -39,-6 -35,16c2,19 11,25 38,30c41,6 50,3 50,-16zm-20,-70c0,-8 -4,-15 -9,-15c-5,0 -23,-3 -40,-6c-24,-5 -31,-3 -31,9c0,16 18,24 58,26c13,1 22,-5 22,-14z"/>
    <path d="m3161.57941,2878.33301c0,-21 -6,-25 -32,-28c-18,-2 -32,-7 -30,-13c2,-5 17,-9 33,-7c28,2 30,0 27,-25c-2,-22 -9,-29 -30,-31c-16,-2 -28,-9 -28,-17c0,-11 8,-13 32,-8c27,5 30,4 25,-11c-4,-10 -7,-24 -7,-32c0,-10 -13,-14 -45,-14c-34,0 -45,-4 -45,-15c0,-11 7,-14 23,-10c12,3 67,9 122,13c91,6 100,9 100,27c0,25 -37,32 -55,10c-7,-8 -23,-15 -36,-15c-19,0 -24,5 -24,25c0,18 5,25 19,25c37,0 71,18 65,35c-8,19 -21,19 -41,0c-19,-19 -34,-10 -29,18c2,13 11,23 22,23c10,1 25,2 32,3c17,1 15,41 -2,41c-8,0 -18,-4 -21,-10c-11,-18 -25,-10 -25,15c0,20 -5,25 -25,25c-20,0 -25,-5 -25,-24z"/>
    <path d="m2021.57941,2846.33301c-6,-14 -10,-36 -10,-48c0,-20 -6,-24 -49,-29c-28,-3 -66,-3 -86,0c-35,6 -36,5 -30,-23c4,-16 11,-42 16,-58c5,-16 9,-45 9,-64l0,-35l71,6l71,6l-2,-82c-4,-104 -2,-127 9,-127c14,0 21,42 22,133l1,84l66,11c36,6 69,17 73,24c14,22 40,119 37,136c-4,20 -46,28 -61,13c-6,-6 -30,-11 -53,-11l-42,0l11,29c5,15 7,35 4,45c-10,25 -46,20 -57,-10zm130,-86c-1,-2 -7,-28 -14,-58c-11,-50 -15,-55 -47,-61c-18,-4 -35,-6 -36,-5c-2,2 0,30 3,64l7,62l43,0c24,0 44,-1 44,-2zm-140,-63c0,-30 1,-58 3,-62c1,-5 -17,-9 -40,-11l-42,-3l-6,45c-9,56 -3,73 27,79c58,11 58,11 58,-48z"/>
    <path d="m2925.57941,2827.33301c-12,-29 3,-42 51,-43c57,-3 56,12 -3,38c-37,17 -44,17 -48,5z"/>
    <path d="m2897.57941,2701.33301c4,-19 8,-35 9,-37c1,-1 28,5 59,15c71,23 74,43 7,43c-27,0 -56,3 -65,6c-13,5 -15,0 -10,-27z"/>
    <path d="m1370.57941,2666.33301c0,-5 0,-101 1,-214c0,-226 8,-340 22,-340c5,0 6,69 3,173c-4,94 -7,218 -8,274c-1,56 -5,105 -10,109c-4,4 -7,3 -8,-2z"/>
    <path d="m2980.57941,2580.33301c-17,-35 -34,-65 -38,-68c-4,-3 -21,-24 -39,-46c-26,-34 -29,-44 -18,-53c19,-16 62,2 71,28c3,12 12,27 19,34c7,7 23,38 34,70c41,110 21,134 -29,35z"/>
    <path d="m3217.57941,2627.33301c-6,-17 -71,-21 -81,-5c-3,6 -15,10 -27,10c-15,0 -18,-4 -14,-16c10,-25 -14,-133 -41,-183c-13,-24 -21,-46 -18,-49c9,-10 44,30 66,74c19,41 24,44 60,44c36,0 39,-2 39,-28c0,-15 -5,-33 -10,-38c-12,-12 2,-28 36,-38c20,-6 21,-2 28,110c3,63 4,120 1,125c-9,14 -32,11 -39,-6zm-6,-45c0,-5 -16,-10 -35,-10c-19,0 -35,5 -35,10c0,6 16,10 35,10c19,0 35,-4 35,-10zm-12,-42c-5,-15 -78,-24 -78,-10c0,16 13,22 48,22c22,0 32,-4 30,-12z"/>
    <path d="m2431.57941,2453.33301c0,-11 -4,-31 -10,-45c-11,-31 -35,-26 -44,10c-4,15 -14,24 -25,24c-15,0 -21,-10 -26,-41c-9,-51 4,-68 39,-49c15,7 38,10 55,7c18,-4 31,-2 31,3c0,13 47,13 55,0c15,-24 51,-10 68,25c21,44 21,61 1,69c-27,10 -33,7 -49,-24c-9,-18 -23,-30 -35,-30c-16,0 -20,7 -20,35c0,28 -4,35 -20,35c-13,0 -20,-7 -20,-19z"/>
    <path d="m3778.57941,2211.33301c-35,-19 -42,-39 -13,-39c8,0 19,-7 26,-15c17,-21 30,-19 30,4c0,17 7,18 88,14c108,-6 151,-25 176,-76c18,-37 18,-57 8,-480c-6,-243 -9,-444 -6,-446c2,-2 7,-2 10,1c8,9 18,890 10,921c-15,63 -84,95 -203,96c-72,1 -82,3 -85,20c-3,19 -4,19 -41,0z"/>
    <path d="m2655.57941,2158.33301c-33,-33 -55,-84 -52,-119c3,-30 6,-32 45,-35c34,-3 44,1 53,18c7,12 9,33 6,46c-5,19 -13,24 -36,24c-38,0 -38,9 0,45c16,15 27,32 24,37c-8,12 -16,9 -40,-16zm31,-111c0,-13 -8,-21 -24,-23c-28,-4 -46,11 -37,33c9,25 61,16 61,-10z"/>
    <path d="m3255.57941,2157.33301c-30,-31 -28,-57 6,-65c18,-5 24,-12 21,-26c-8,-38 -6,-67 7,-71c8,-3 12,6 12,26c0,17 7,48 16,70c19,49 16,71 -14,82c-18,7 -28,3 -48,-16zm56,-19c0,-15 -37,-32 -47,-22c-3,3 -3,12 0,21c8,19 47,20 47,1z"/>
    <path d="m3551.57941,2173.33301c0,-4 -12,-13 -26,-19c-14,-7 -22,-17 -19,-23c5,-7 12,-6 22,3c13,11 15,4 11,-50c-3,-54 -1,-62 15,-62c14,0 17,9 17,59c0,33 3,66 6,74c3,8 -2,17 -10,20c-9,4 -16,3 -16,-2z"/>
    <path d="m3112.57941,2155.33301c-20,-17 -20,-20 -6,-46c13,-25 13,-30 0,-44c-8,-8 -15,-25 -15,-38c0,-19 7,-25 34,-31c19,-3 39,-3 44,0c15,9 23,68 11,82c-8,10 -5,16 10,26c31,19 26,44 -10,57c-41,14 -43,14 -68,-6zm69,-23c0,-17 -36,-30 -48,-18c-19,19 -14,28 18,28c17,0 30,-4 30,-10zm-19,-73c-1,-4 -1,-14 -1,-22c0,-15 -31,-21 -43,-8c-9,8 23,45 36,40c4,-1 8,-6 8,-10z"/>
    <path d="m2871.57941,2153.33301c0,-5 12,-11 27,-13c38,-4 43,-35 9,-48c-32,-12 -33,-18 -1,-30c14,-5 25,-14 25,-19c0,-16 -39,-33 -68,-29c-19,2 -27,-2 -27,-12c0,-21 37,-24 80,-6c36,15 37,18 32,56c-3,22 -1,43 4,46c19,11 9,45 -17,54c-32,13 -64,13 -64,1z"/>
    <path d="m1603.57941,2132.33301c-6,-11 -12,-27 -12,-35c0,-21 36,-19 52,4c9,12 32,22 62,26c44,7 51,5 66,-15c22,-29 50,-21 50,15l0,25l-103,0c-91,0 -104,-2 -115,-20z"/>
    <path d="m2752.57941,2126.33301c-23,-29 -28,-83 -9,-102c17,-17 54,-15 72,4c22,21 20,74 -3,102c-25,29 -35,28 -60,-4zm50,-28c13,-27 -3,-66 -26,-66c-20,0 -29,43 -15,69c14,27 28,27 41,-3z"/>
    <path d="m2056.57941,2116.33301c-13,-14 -27,-44 -30,-67c-6,-35 -4,-43 15,-59c43,-35 100,-14 100,37c0,26 -25,45 -59,45c-26,0 -27,12 -1,35c11,10 20,22 20,27c0,16 -21,8 -45,-18zm62,-80c8,-22 -18,-45 -44,-38c-23,6 -37,29 -27,45c9,15 64,10 71,-7z"/>
    <path d="m2191.57941,2114.33301c-23,-23 -30,-39 -30,-69c0,-48 8,-59 44,-65c22,-4 35,0 52,17c34,34 39,69 17,107c-25,43 -47,46 -83,10zm64,-35c15,-41 -7,-79 -42,-75c-22,2 -28,8 -30,35c-2,22 3,38 18,53c26,26 42,22 54,-13z"/>
    <path d="m3379.57941,2131.33301c-23,-13 -34,-74 -18,-94c7,-8 29,-15 50,-15c42,0 62,26 56,73c-5,43 -47,61 -88,36zm64,-37c8,-35 -4,-53 -31,-50c-19,2 -27,10 -29,27c-7,44 51,65 60,23z"/>
    <path d="m1916.57941,2122.33301c-50,-19 -69,-86 -36,-119c45,-45 111,-8 111,61c0,56 -29,77 -75,58zm53,-57c2,-23 -3,-35 -19,-47c-30,-21 -59,-5 -59,32c0,36 18,54 50,50c20,-2 26,-9 28,-35z"/>
    <path d="m2457.57941,2113.33301c-12,-13 -16,-32 -14,-57c2,-32 8,-40 31,-48c59,-21 116,45 87,99c-11,20 -21,25 -50,25c-24,0 -43,-7 -54,-19zm82,-10c17,-2 15,-37 -4,-55c-20,-21 -63,-21 -71,0c-10,27 13,62 39,59c13,-1 29,-3 36,-4z"/>
    <path d="m1677.57941,2080.33301c-7,-13 -20,-40 -27,-61c-20,-57 -6,-72 66,-72c89,1 103,35 48,118c-30,43 -65,49 -87,15zm47,-63c0,-6 -7,-11 -16,-13c-12,-3 -15,1 -11,13c7,17 25,17 27,0z"/>
    <path d="m2998.57941,2095.33301c-15,-14 -6,-23 23,-23c20,0 30,5 30,15c0,15 -40,21 -53,8z"/>
    <path d="m1400.57941,2067.33301c-120,-24 -191,-71 -364,-239c-197,-191 -322,-266 -508,-301c-84,-16 -247,-21 -247,-7c0,5 18,16 40,26c22,10 40,22 40,27c0,14 -11,11 -73,-25l-57,-33l59,-36c62,-39 71,-42 71,-28c0,5 -13,14 -30,21c-16,7 -30,15 -30,19c0,3 46,7 103,7c122,2 225,27 330,80c118,60 172,101 316,239c197,189 269,232 407,242c41,3 74,10 74,14c0,12 -52,10 -131,-6z"/>
    <path d="m2331.57941,2068.33301c0,-10 8,-14 25,-12c33,4 33,20 0,24c-17,2 -25,-1 -25,-12z"/>
    <path d="m3585.57941,1703.33301c-42,-26 -92,-89 -104,-131c-21,-73 -6,-152 36,-194l27,-26l-27,-38c-14,-21 -26,-42 -26,-46c0,-4 -8,-20 -19,-34c-50,-71 -95,-382 -56,-382c9,0 15,-9 16,-22c3,-128 11,-315 14,-324c5,-17 64,-41 118,-48c40,-6 47,-5 47,9c0,14 7,16 40,10c26,-4 40,-3 40,4c0,6 -5,11 -11,11c-9,0 -9,4 0,14c6,7 14,42 17,77c3,35 8,73 9,84c2,11 4,55 4,98c1,70 3,77 21,77c17,0 20,7 20,44c0,85 8,105 49,112c68,11 123,37 163,77c33,33 39,44 30,57c-9,14 -3,25 28,55c38,37 45,60 14,48c-8,-3 -13,-12 -10,-19c4,-11 2,-11 -14,-2c-15,10 -23,9 -39,-6c-12,-11 -21,-24 -21,-30c0,-6 5,-5 12,2c7,7 18,12 25,12c10,0 10,-6 -3,-25c-16,-24 -18,-25 -35,-9c-11,10 -19,23 -19,31c0,16 0,16 -42,-2c-38,-15 -107,-10 -113,9c-2,6 -6,33 -9,59c-5,45 -4,48 21,58c33,12 78,62 98,106c8,18 15,57 15,88c0,37 4,55 13,55c8,1 6,5 -4,13c-9,7 -19,22 -23,34c-9,28 -70,81 -112,99c-50,21 -152,18 -190,-5zm246,-48c9,-10 23,-29 33,-42c16,-23 16,-26 -1,-44c-16,-19 -16,-19 6,-13c20,7 22,4 22,-35c0,-36 -2,-40 -15,-29c-11,9 -19,10 -27,2c-13,-13 0,-35 18,-28c25,10 23,-11 -5,-55c-31,-49 -68,-85 -77,-76c-3,3 -1,14 5,26c10,18 8,21 -24,27c-51,9 -65,0 -65,-41c0,-39 -5,-41 -64,-24c-46,13 -96,47 -96,66c0,8 7,27 15,43c15,28 14,30 -5,30c-13,0 -22,9 -26,26c-9,35 9,51 39,35c29,-16 62,-1 123,53c21,20 46,36 54,36c20,1 45,21 53,43c3,9 10,17 14,17c5,0 15,-8 23,-17zm-60,-288c0,-16 -26,-55 -37,-55c-17,0 -27,25 -19,45c5,13 56,23 56,10zm-176,-67c20,-39 20,-54 2,-38c-8,6 -30,10 -48,9c-36,-4 -40,11 -11,44c23,25 40,21 57,-15zm53,-22c12,-19 19,-37 16,-40c-14,-13 -31,-5 -37,18c-3,13 -9,31 -12,40c-11,28 10,17 33,-18zm23,14c0,-5 -4,-10 -10,-10c-5,0 -10,5 -10,10c0,6 5,10 10,10c6,0 10,-4 10,-10zm60,-6c0,-8 -5,-12 -10,-9c-6,4 -8,11 -5,16c9,14 15,11 15,-7zm-26,-10c9,-23 7,-54 -3,-54c-11,0 -21,25 -21,51c0,23 15,25 24,3zm43,-26c-3,-8 -6,-5 -6,6c-1,11 2,17 5,13c3,-3 4,-12 1,-19zm-148,-7c11,-11 32,-47 48,-80l28,-60l75,-3l75,-3l0,-40c0,-36 -3,-40 -30,-46c-16,-4 -56,-7 -88,-8c-106,-2 -158,42 -192,162c-16,55 -16,60 1,78c22,24 59,24 83,0zm-81,-146c11,-22 34,-53 51,-70c28,-26 41,-30 101,-33l70,-4l0,-53c0,-33 -5,-59 -14,-68c-20,-20 -125,-29 -209,-17c-107,15 -107,16 -107,61c0,45 32,200 57,274l17,50l7,-50c3,-28 15,-68 27,-90zm229,108c9,-31 6,-83 -6,-83c-9,0 -27,71 -23,93c5,25 19,21 29,-10zm-42,-31l6,-22l-26,24c-15,14 -24,30 -20,36c9,15 30,-5 40,-38zm215,0c0,-5 -11,-14 -25,-20c-14,-6 -25,-16 -25,-22c0,-5 -4,-10 -10,-10c-21,0 -9,30 18,44c31,18 42,19 42,8zm-217,-55c-8,-13 -33,14 -33,35c0,19 1,19 19,-3c11,-13 17,-28 14,-32zm115,26c3,-20 -1,-23 -28,-23c-25,0 -31,3 -26,16c3,9 6,20 6,26c0,21 45,3 48,-19zm92,-17c0,-9 8,-12 28,-8c26,5 26,4 10,-15c-10,-11 -18,-25 -18,-31c0,-13 -32,-32 -54,-32c-22,0 -21,45 2,75c19,27 32,32 32,11zm-358,-296l71,0l-8,-157c-8,-181 -23,-236 -27,-98l-2,90l-5,-85l-6,-85l-54,2c-30,2 -57,5 -60,9c-3,3 -8,80 -9,171c-3,152 -2,165 13,159c9,-3 48,-6 87,-6zm145,-22c-3,-13 -9,-79 -13,-148c-5,-79 -10,-112 -14,-90c-5,33 -6,34 -13,10c-4,-14 -7,-35 -7,-47c0,-14 -6,-23 -16,-23c-17,0 -17,8 2,248l6,72l30,0c26,0 29,-3 25,-22z"/>
    <path d="m3716.57941,1561.33301c-4,-6 -5,-12 -4,-14c7,-7 59,8 59,16c0,13 -47,11 -55,-2z"/>
    <path d="m3735.57941,1488.33301c-9,-24 12,-44 28,-28c10,10 8,16 -5,29c-15,15 -17,15 -23,-1z"/>
    <path d="m3611.57941,1443.33301c0,-5 7,-11 15,-15c8,-3 15,-1 15,3c0,5 -7,11 -15,15c-8,3 -15,1 -15,-3z"/>
    <path d="m4365.57941,1694.33301c-53,-30 -68,-46 -91,-95c-28,-57 -31,-158 -8,-205c18,-36 79,-92 100,-92c16,0 19,-20 9,-56c-6,-22 -134,-75 -233,-95c-29,-6 -69,-20 -88,-31l-34,-21l56,-51c56,-50 58,-51 122,-51c51,0 67,-4 74,-18c6,-9 21,-17 34,-17c24,0 25,-3 25,-65c0,-54 3,-66 20,-75c19,-10 20,-21 20,-165c0,-97 -4,-155 -10,-155c-5,0 -10,-5 -10,-11c0,-12 58,-8 94,7c16,6 17,4 11,-16c-7,-22 -6,-23 41,-18c27,3 68,13 90,23l41,19l7,74c3,41 6,110 6,153c0,75 1,79 25,85c29,7 28,-1 15,174c-9,128 -41,277 -68,318c-13,20 -13,25 0,40c21,24 58,116 58,143c0,74 -59,162 -133,198c-53,26 -130,27 -173,3zm153,-14c43,-19 71,-43 100,-85c22,-32 27,-49 27,-105c0,-70 -16,-109 -29,-69c-4,13 -1,28 5,36c20,24 4,45 -32,45c-26,0 -45,12 -91,55c-48,45 -63,54 -83,49c-15,-4 -24,-2 -24,5c0,6 -4,11 -10,11c-5,0 -10,-7 -10,-15c0,-24 -20,-17 -30,11c-15,38 -13,40 28,57c45,19 111,21 149,5zm-191,-73c6,-23 10,-24 62,-23c36,2 57,-2 60,-10c2,-7 9,-12 16,-12c6,0 29,-20 49,-45c33,-39 41,-44 59,-34c27,14 47,-3 28,-26c-10,-12 -10,-21 0,-44c15,-36 3,-61 -42,-89c-87,-54 -230,-16 -272,72c-23,49 -23,151 0,199c21,43 31,46 40,12zm279,-321c18,-45 20,-63 3,-46c-17,17 -49,15 -76,-4c-27,-18 -28,-8 -4,29c15,22 49,55 59,57c2,0 10,-16 18,-36zm-99,-39c-11,-23 -24,-35 -37,-35c-17,0 -18,3 -8,22c13,24 51,59 58,52c2,-2 -4,-19 -13,-39zm-91,12c-8,-13 -13,-32 -11,-43c2,-11 -2,-31 -10,-44c-9,-16 -14,-20 -15,-10c-4,44 19,120 37,120c13,0 13,-3 -1,-23zm27,-30c-15,-17 -17,-17 -20,-3c-5,24 19,51 29,34c5,-7 1,-20 -9,-31zm166,-30c5,-42 -24,-128 -55,-165c-30,-34 -90,-52 -179,-52l-44,0l0,49l0,50l43,5c23,3 53,7 67,8c19,2 31,16 52,58c31,63 53,82 88,78c19,-2 26,-10 28,-31zm-242,-13c-3,-9 -6,-31 -6,-50c0,-32 -2,-34 -34,-34c-29,0 -36,4 -45,32c-13,37 -11,39 37,54c51,16 55,16 48,-2zm90,-37c-3,-23 -5,-43 -5,-44c-1,-2 -8,-3 -16,-3c-20,0 -19,16 1,24c9,4 14,9 11,12c-3,4 -18,-3 -33,-15c-14,-11 -30,-18 -35,-15c-8,5 3,22 52,82c18,22 30,2 25,-41zm30,26c-10,-10 -19,5 -10,18c6,11 8,11 12,0c2,-7 1,-15 -2,-18zm183,-223c6,-67 6,-109 -1,-115c-13,-14 -282,-9 -309,5c-17,10 -20,19 -17,63l3,52l69,7c38,4 79,9 91,12c49,12 105,97 121,184c7,36 8,35 20,-33c7,-38 17,-117 23,-175zm-401,170c7,-18 7,-30 1,-30c-5,0 -9,9 -9,19c0,11 -4,23 -10,26c-5,3 -10,11 -10,16c0,19 18,-1 28,-31zm-123,-8c0,-9 6,-16 13,-14c19,3 50,-15 62,-38c9,-17 5,-22 -31,-40l-41,-21l-19,20c-10,11 -24,23 -31,28c-7,4 -21,18 -31,29c-17,21 -17,22 25,42c46,21 53,20 53,-6zm93,-1c3,-20 1,-23 -15,-16c-10,4 -28,10 -41,12c-18,4 -20,8 -11,20c19,23 63,12 67,-16zm74,-83c-2,-27 -8,-48 -13,-48c-10,0 -12,93 -2,104c13,13 20,-10 15,-56zm-34,14c2,-23 -2,-34 -13,-38c-22,-9 -45,14 -26,25c8,6 11,16 6,31c-6,18 -3,21 12,18c12,-2 19,-14 21,-36zm173,-279c0,-32 2,-100 5,-150l4,-93l-25,0c-24,0 -25,3 -26,63l-2,62l-12,-60c-13,-59 -13,-58 -14,88l-1,147l35,0l35,0l1,-57zm179,22c-1,-60 -21,-260 -28,-266c-4,-5 -28,-11 -54,-14l-48,-7l0,76c0,41 -4,78 -10,81c-6,4 -10,-22 -10,-71c0,-43 -3,-75 -6,-71c-5,4 -9,253 -5,288c1,4 37,6 81,5c73,-1 80,-3 80,-21z"/>
    <path d="m4287.57941,1534.33301c-2,-4 11,-8 30,-8c19,0 34,4 34,8c0,4 -13,8 -29,8c-17,0 -32,-4 -35,-8z"/>
    <path d="m4422.57941,1538.33301c12,-10 60,-16 54,-6c-3,5 -18,10 -32,10c-15,0 -24,-2 -22,-4z"/>
    <path d="m4298.57941,1459.33301c-9,-23 4,-29 19,-9c13,16 13,16 14,0c0,-10 5,-18 11,-18c6,0 9,8 7,18c-4,21 -43,28 -51,9z"/>
    <path d="m4421.57941,1451.33301c0,-17 3,-19 14,-10c11,10 17,8 25,-6c10,-16 11,-15 9,7c-4,34 -48,43 -48,9z"/>
    <path d="m4501.57941,1401.33301c0,-5 9,-9 20,-9c11,0 20,2 20,4c0,2 -9,6 -20,9c-11,3 -20,1 -20,-4z"/>
    <path d="m4371.57941,1340.33301c0,-9 30,-14 63,-10c44,7 31,21 -18,19c-25,-1 -45,-5 -45,-9z"/>
    <path d="m1204.57941,1241.33301c-20,-6 -33,-16 -33,-26c0,-9 -3,-14 -6,-10c-7,6 -144,-40 -159,-54c-5,-5 -37,-9 -71,-9c-75,0 -94,-6 -94,-31c0,-22 29,-40 62,-37c13,1 75,-13 138,-31c172,-49 214,-59 230,-60c8,0 47,-2 85,-5c81,-6 293,10 309,23c16,14 49,15 414,13c281,-2 332,-4 332,-16c0,-17 -31,-22 -183,-32c-84,-5 -101,-4 -117,11c-22,20 -37,13 -51,-22c-23,-62 29,-81 172,-63c52,6 121,14 154,17c111,10 143,35 93,71c-32,23 -19,32 47,32c66,0 70,2 113,54c10,12 34,15 113,15c113,0 129,7 129,57c0,46 -24,57 -150,62c-75,3 -107,9 -113,18c-7,12 -87,14 -465,14c-251,0 -529,4 -617,10c-194,11 -289,11 -332,-1zm109,-26c26,-24 25,-136 -2,-180c-17,-29 -23,-32 -52,-26c-18,3 -37,9 -41,13c-13,11 -14,200 -2,200c11,0 14,-23 14,-123c0,-52 4,-69 16,-73c23,-9 51,21 63,68c13,51 -9,118 -38,118c-11,0 -22,5 -25,10c-10,17 47,11 67,-7zm51,-71c-1,-70 -20,-142 -36,-142c-5,0 -7,6 -4,14c21,54 28,107 22,161c-5,50 -4,58 7,47c8,-9 12,-36 11,-80zm30,4c-2,-79 -17,-146 -34,-146c-6,0 -5,9 2,22c6,12 12,64 13,115c1,57 5,92 11,89c6,-2 9,-36 8,-80zm291,54c4,-5 7,-42 4,-84c-3,-60 -7,-78 -23,-90c-23,-17 -92,-26 -199,-26c-67,0 -77,2 -72,16c12,31 28,156 23,181l-5,25l132,-7c72,-4 135,-11 140,-15zm738,-3c11,-17 10,-111 -2,-142l-10,-26l-338,5c-185,2 -344,5 -353,5c-15,1 -16,7 -7,44c5,23 7,60 4,82l-5,40l352,2c266,2 353,-1 359,-10zm71,-29c11,-48 -11,-131 -37,-136c-16,-4 -18,0 -10,25c5,15 8,56 8,91c-1,53 1,62 14,60c9,-2 20,-19 25,-40zm113,25c17,-23 17,-75 0,-117c-12,-28 -20,-34 -57,-39c-24,-3 -45,-5 -46,-3c-1,1 2,20 8,41c6,22 9,61 7,87l-5,48l40,0c26,0 44,-6 53,-17zm-1446,-76c0,-35 -2,-66 -5,-69c-3,-3 -22,-2 -43,3c-135,30 -143,32 -140,46c3,14 147,81 176,83c8,0 12,-19 12,-63zm-210,-6c0,-5 -7,-12 -16,-15c-21,-8 -65,4 -58,15c7,12 74,12 74,0zm1487,-123c-3,-8 -6,-5 -6,6c-1,11 2,17 5,13c3,-3 4,-12 1,-19zm-333,-44c10,-13 23,-14 91,-5c140,18 279,25 271,13c-10,-17 -142,-35 -266,-36c-112,-1 -115,0 -118,22c-4,26 6,29 22,6z"/>
    <path d="m1432.57941,1128.33301c-17,-126 -24,-116 72,-110c160,11 182,26 174,113c-6,52 -17,60 -82,62c-27,0 -73,4 -101,8l-52,7l-11,-80z"/>
    <path d="m2224.57941,1155.33301c-29,-2 -53,-8 -53,-13c0,-6 49,-9 115,-7c84,1 115,5 115,15c0,12 -51,13 -177,5z"/>
    <path d="m2175.57941,1100.33301c-8,-12 10,-15 90,-17c44,0 88,-3 97,-6c10,-3 20,-1 24,4c3,6 -4,13 -17,15c-39,9 -189,12 -194,4z"/>
    <path d="m3942.57941,910.33301c-18,-170 -53,-297 -103,-381c-51,-85 -134,-160 -208,-188c-126,-48 -386,-51 -521,-6c-168,57 -361,205 -489,377c-39,53 -50,80 -30,80c19,0 10,15 -21,33c-43,24 -49,22 -49,-21c0,-44 8,-56 25,-42c9,7 24,-6 54,-49c84,-121 226,-248 383,-344c87,-54 199,-77 372,-78c231,0 303,20 406,118c74,70 117,141 149,248c38,129 73,375 54,375c-5,0 -15,-55 -22,-122z"/>
   </g>
  </g>
  <text style="cursor: move;" xml:space="preserve" text-anchor="start" font-family="Noto Sans JP" font-size="16" id="svg_1" y="52.71032" x="0.89433" stroke-width="0" stroke="#000" fill="#000000">例）</text>
  <text stroke="#000" xml:space="preserve" text-anchor="start" font-family="'Alumni Sans'" font-size="16" id="svg_2" y="127.4473" x="-2.26357" stroke-width="0" fill="#000000">１）</text>
  <text xml:space="preserve" text-anchor="start" font-family="Noto Sans JP" font-size="16" id="svg_3" y="199.02639" x="-2.26357" stroke-width="0" stroke="#000" fill="#000000">２）</text>
  <text xml:space="preserve" text-anchor="start" font-family="Noto Sans JP" font-size="16" id="svg_4" y="241.13174" x="52.47338" stroke-width="0" stroke="#000" fill="#000000">３）</text>
 </g>
</svg>
