<svg width="808" height="550" xmlns="http://www.w3.org/2000/svg">
 <g class="layer">
  <title>Layer 1</title>
  <path d="m219.1,0.5c0,0.5 -0.3,35.6 -0.6,78c-0.3,42.3 -0.7,81.6 -1,87.2c-0.2,5.8 0,10.5 0.6,10.8c0.5,0.4 0.9,-2.1 1,-5.7c0,-3.5 0.2,-8.3 0.4,-10.8c0.5,-6.5 1.6,-102.8 1.5,-127.5c-0.1,-16.8 -1.3,-36.9 -1.9,-32z" id="svg_2"/>
  <path d="m287.5,28l-5,0.5l-0.5,39.8c-0.4,35.3 -0.2,42.2 1.6,40.4c0.2,-0.2 0.5,-18.1 0.7,-39.8l0.2,-39.4l40.5,0.2c22.3,0.1 55.8,0.5 74.5,0.8c40.2,0.6 167,1.5 214.4,1.4l33.4,0l-0.7,44.8c-0.4,24.6 -0.8,48.2 -1,52.3c-0.2,4.1 -0.4,11.1 -0.5,15.5l-0.1,8l-9.7,0c-6.8,0 -9.7,0.4 -10,1.2c-0.4,1 1.9,1.3 9.4,1.3l9.8,0l1.1,4.5c0.7,3.3 0.7,4.8 0,5.3c-1.3,0.8 -221.7,0.6 -279.8,-0.2c-25,-0.4 -38.9,-0.2 -39.3,0.4c-0.4,0.6 1.8,1 5.7,1c3.5,0 32.6,0.4 64.8,0.8c32.2,0.4 101.6,0.7 154.3,0.7c91.8,0 103.3,0.4 91.1,2.8c-5.1,1 -184,1.1 -185.6,0c-1.7,-1 -129.8,-1.2 -129.8,-0.2c0,1 -3.7,1 62,1.4c32.2,0.2 69.1,0.8 82,1.3c33.7,1.4 168.2,0.8 173.9,-0.7l4.4,-1.2l-0.9,-5.7c-1.1,-7.1 -1.1,-32.3 -0.1,-88.7c0.5,-25.6 0.5,-44.5 0,-45.3c-0.7,-0.9 -11.4,-1.3 -46.9,-1.6c-25.2,-0.3 -46.6,-0.5 -47.4,-0.6c-0.8,-0.1 -27.4,-0.1 -59,-0.1c-31.6,0 -73.9,-0.2 -94,-0.5c-55.6,-0.8 -107.9,-1 -113.5,-0.4z" id="svg_6"/>
  <path d="m171,34.5c-8.5,1.3 -17.5,2.4 -20,2.4c-2.5,0.1 -8.8,0.8 -14,1.6c-5.2,0.8 -14,2.2 -19.5,3c-18.7,2.7 -34.1,5.3 -38.1,6.4c-2.1,0.5 -10.2,1.7 -17.9,2.6c-7.7,0.9 -16,2.1 -18.5,2.7c-2.5,0.6 -7.9,1.4 -12,1.8c-14.2,1.4 -24,3.5 -24,5.1c0,0.6 0.8,0.8 1.8,0.5c2.8,-0.9 16.5,-2.8 19.1,-2.7c1.4,0.1 5.2,-0.5 8.5,-1.3c3.4,-0.8 8.8,-1.7 12.1,-2.1l6.1,-0.6l5.5,6.3c3.1,3.5 9,10.3 13.1,15.3c12.8,15.2 14.7,17.2 14.8,15.3c0,-1 -2.8,-4.8 -6.1,-8.5c-3.4,-3.8 -9.5,-10.9 -13.5,-15.9c-4,-5 -8,-9.7 -8.9,-10.4c-0.8,-0.7 -1.5,-1.6 -1.5,-2c0,-0.4 3.7,-1.3 8.3,-2c4.5,-0.6 12.6,-2 18,-3.1c5.4,-1 10.2,-1.9 10.5,-1.9c1,0 0.5,126.1 -0.5,127.1c-0.5,0.5 -3.6,1.8 -6.9,2.9c-3.2,1.2 -6.8,2.5 -8,3.1c-1.2,0.6 -5,2.1 -8.5,3.4c-3.5,1.2 -11.9,4.4 -18.7,7c-6.7,2.6 -12.9,4.5 -13.6,4.2c-0.7,-0.3 -4.8,-4.9 -9.2,-10.4c-4.3,-5.4 -9.3,-11.3 -11.2,-13.2c-1.8,-1.9 -4.7,-5.4 -6.3,-7.8c-2.9,-4.2 -4.9,-5.5 -4.9,-3.2c0,1.2 7.1,10 12.4,15.4c1.6,1.6 4.8,5.5 7,8.5c2.3,3.1 5.4,6.9 6.9,8.5c3.4,3.7 3.4,4.3 0,5.6c-1.6,0.5 -5.5,2.3 -8.8,3.8c-8.4,4 -12.6,5.8 -15.2,6.6c-1.9,0.5 -3.3,2.5 -1.9,2.5c1.7,0 17.3,-6.5 31.2,-13.1c2.3,-1 4.6,-1.9 5.2,-1.9c1.2,0 15.1,-5.3 19.7,-7.5c3.9,-1.9 20.7,-8.3 26.5,-10.1c2.5,-0.8 5.4,-1.9 6.5,-2.4c2.7,-1.4 35.5,-12.7 43.5,-15c3.6,-1 13.9,-4.6 23,-8c9.1,-3.3 18,-6.7 19.9,-7.3c3,-1.1 3.4,-1.7 3.7,-5.2c0.7,-10.1 1.4,-36.9 1.9,-68.5c0.3,-19 0.8,-35.7 1,-37.3c0.5,-3.2 2,-3.2 -18.5,-0.2zm16,0.2c0,0.5 0.2,4.5 0.4,9c0.2,4.6 0,8.3 -0.4,8.3c-0.4,0 -1.5,-1 -2.3,-2.3c-0.9,-1.2 -3.8,-4.7 -6.6,-7.7l-5,-5.5l5.6,-0.7c3.1,-0.4 5.8,-1 6.1,-1.3c0.8,-0.8 2.2,-0.6 2.2,0.2zm-14.8,3.2c0.4,1.3 7.6,9.9 11.5,13.9c3.3,3.4 3.3,3.5 3.3,13.2c0,5.5 -0.4,10.2 -1,10.5c-0.5,0.3 -1,0.2 -1,-0.4c0,-1.7 -9.7,-13 -20.7,-24.1c-5.7,-5.8 -10.3,-11 -10.3,-11.5c-0.1,-1.7 17.6,-3.3 18.2,-1.6zm-20.2,2.2c0,0.6 1.7,2.8 3.8,4.9c10.6,10.8 20.2,21.2 24.6,26.8c2.7,3.4 5.3,6.2 5.9,6.2c1.6,0 -1.1,63.2 -2.8,64.9c-0.4,0.3 -3.9,1.7 -7.8,3.2c-4,1.4 -12.8,4.6 -19.7,7.1c-15.2,5.5 -34.2,11.8 -35.8,11.8c-0.6,0 -5.4,-5.1 -10.7,-11.4c-5.2,-6.3 -10.1,-11.6 -10.8,-11.9c-1,-0.4 -1.2,-3.8 -1.1,-13.8c0.1,-7.4 0.3,-13.5 0.3,-13.7c0.1,-0.1 4.1,4.2 9.1,9.6c4.9,5.5 10.5,11.1 12.4,12.6c7.6,5.8 4.8,1.9 -8,-11l-13.5,-13.7l-0.4,-11.3c-0.3,-6.3 -0.1,-11.4 0.3,-11.4c0.5,0 3.6,2.9 6.9,6.5c5.5,5.8 8.3,7.9 8.3,5.7c0,-0.4 -3.7,-4.3 -8.1,-8.7l-8,-8l0.3,-19c0.3,-16 0.5,-19 1.8,-19.2c0.8,0 7.4,-1.1 14.5,-2.2c29.9,-4.9 38.5,-5.8 38.5,-4zm-44.8,114c9.5,10.9 10.3,12 8.7,13c-0.8,0.5 -2.5,1.2 -3.9,1.5c-1.4,0.3 -4.5,1.2 -7,2c-8.2,2.8 -9.4,2.9 -8.7,1c0.4,-1 0.7,-7.9 0.7,-15.4l0.1,-13.7l2.7,3.1c1.5,1.8 4.8,5.6 7.4,8.5z" id="svg_7"/>
  <path d="m127.6,140.9c-0.8,1.2 1,4.1 2.5,4.1c1.3,0 1.1,-1.3 -0.4,-3.5c-1,-1.3 -1.6,-1.5 -2.1,-0.6z" id="svg_8"/>
  <path d="m269.4,115.8c-5.1,1.8 -13.1,7.1 -17.1,11.4c-4.7,5 -8.7,19.3 -6.4,22.8c0.8,1.1 0.3,2.2 -1.6,4.2c-2.4,2.5 -2.5,2.9 -1.3,5.9c0.9,2 2.6,3.7 4.7,4.5c2.6,1.1 3.3,2 3.3,4.2c0,1.6 -0.7,3.7 -1.5,4.8c-2.4,3.1 -1.9,4.7 1.3,3.9c1.5,-0.3 4,-1.3 5.6,-2.1c3.4,-1.6 6.2,-1.8 7.1,-0.4c0.3,0.5 -1.2,1.4 -3.4,2.1c-5.1,1.5 -6.7,4.8 -4.5,9.1c0.9,1.7 2.4,5.5 3.4,8.5l1.8,5.5l-4.3,4.2c-4.9,4.7 -7.1,10.5 -6.1,16c0.7,3.6 1.3,4.4 5,7c1.7,1.2 1.8,1.5 0.5,2.8c-4.1,4.1 -8.9,4.8 -11.9,1.8c-4.1,-4.1 -2.6,-8.7 10.4,-32.3c2.9,-5.4 3,-5.7 1.7,-5.7c-0.6,0 -1.6,1.1 -2.3,2.4c-0.7,1.3 -3.9,7.1 -7,12.8c-7,12.7 -8.4,19.6 -4.8,24c1.6,2.2 3,2.8 5.8,2.8c4.3,0 9.7,-3 10.6,-5.8c0.4,-1.1 1.8,-2.7 3.1,-3.6c1.4,-0.9 2.5,-2.4 2.5,-3.4c0,-0.9 0.7,-2.5 1.5,-3.6c1.3,-1.7 1.5,-1.7 2.7,1.2c1.3,3.2 12.4,12.6 13.8,11.7c1.8,-1.1 1.8,-11.6 0,-17.9c-2.1,-7.3 -11.9,-32.6 -13.1,-34c-2.1,-2.3 -1,-3.5 2.1,-2.3c2.1,0.8 3,1.8 3,3.3c0,1.2 1,2.8 2.2,3.6l2.1,1.4l-2.3,2.2c-2.4,2.2 -2.4,2.2 -0.2,2.2c1.1,0 2.6,-0.8 3.2,-1.8c1,-1.6 1,-1.6 2,0c1.6,2.7 5,2.2 8.6,-1.3l3.2,-3.1l4.4,2.2c5.2,2.6 9.1,7.5 15.9,20.1c2.8,5.2 7.9,13.2 11.3,17.9c8.1,11.1 7.9,10.7 6.7,12.7c-3.2,5.4 -3.5,5.6 -8.3,3.4c-5.4,-2.6 -12.8,-9.6 -17.3,-16.4c-3.2,-5 -3.3,-5.4 -2.2,-10.3c0.9,-4.3 0.7,-6.3 -0.7,-11.8c-1,-3.6 -2.2,-6.6 -2.7,-6.6c-1.2,0 -2,1.6 -1.1,2.4c0.4,0.4 1.4,3.3 2.3,6.4l1.6,5.7l-3.5,9.5l-3.4,9.5l1.2,8.9c1.3,9.8 1.6,9.3 -5.3,12.3c-2.4,1.1 -2.9,1 -4,-0.7c-1.7,-2.8 -4.7,-2.5 -7.3,0.7l-2.1,2.7l-8.7,-2.9c-4.8,-1.5 -9,-3.4 -9.3,-4.2c-0.3,-0.7 0.2,-3.4 1.1,-5.8c1.8,-4.6 1.8,-11.2 0.1,-10.7c-0.5,0.2 -0.9,1.6 -0.7,3.3c0.1,1.6 -0.5,4.6 -1.3,6.5c-0.8,2 -1.5,4.9 -1.5,6.4c0,1.5 -0.7,4.6 -1.5,6.9c-2.5,7.3 -3.4,19 -2.7,36.5l0.7,16.8l4,1.6c5.2,2 5,1.7 2.7,4.7c-1.2,1.4 -3,5.4 -4.1,8.8c-2.5,7.4 -6.3,26.5 -6.5,32.5c-0.1,4.3 0.7,6.2 1.9,4.3c0.3,-0.7 1.9,-0.4 4.1,0.7c3.2,1.5 3.8,1.5 6.2,0.1c2.5,-1.4 2.7,-2 2.4,-6.5c-0.3,-4 0.4,-6.7 3.2,-13.5l3.6,-8.4l-0.6,11.7c-0.9,16.3 -1,16.2 7.1,16.6c10.2,0.4 13.5,-2.8 7.9,-7.7c-2.5,-2.2 -2.6,-2.7 -2.1,-9c0.4,-3.6 1.8,-10.9 3.2,-16.1c1.4,-5.2 3.1,-11.6 3.7,-14.2c1.1,-4.1 1.6,-4.7 4.5,-5.3c3.7,-0.7 3.7,-0.6 5.9,-14.5c2.4,-14.6 2.5,-37.4 0.2,-41.8c-2.9,-5.6 -4.4,-17.5 -2.9,-23c1.3,-5 2.1,-6.4 2.8,-4.5c0.2,0.6 2.6,4 5.2,7.5c5.1,6.7 13.5,13.2 18.6,14.4c4.7,1 9.2,4.2 9.9,6.9c1,3.8 4.6,4.2 9.5,0.9c2.3,-1.4 4.1,-3.1 4.1,-3.6c0,-0.4 -1.1,-2.5 -2.4,-4.6c-2.6,-4.2 -5.9,-6.7 -10,-7.8c-1.4,-0.3 -2.6,-1.2 -2.6,-1.9c0,-0.6 -0.9,-2 -2.1,-3c-2.4,-2.3 -13.9,-19.5 -16.6,-25c-2.9,-6.1 -4.5,-8.6 -8.2,-13.3c-5.2,-6.7 -6.9,-7.9 -14.3,-10.8c-6.8,-2.6 -8.7,-4.4 -4.7,-4.4c1.2,0 4.8,-1.5 8.1,-3.3c4,-2.2 6.1,-2.8 6.6,-2.1c0.8,1.4 8.2,3.5 9.4,2.8c0.4,-0.3 0.1,-1.5 -0.7,-2.7c-2.9,-4.1 -3.7,-9.4 -2,-12.6c0.8,-1.7 1.5,-4.2 1.5,-5.6c0,-1.8 0.7,-2.8 2.5,-3.5c4.5,-1.7 4.2,-11 -0.3,-11c-1.3,0 -2.5,-1.6 -4.1,-5.5c-3.7,-8.9 -14.6,-16.8 -26.9,-19.4c-6.7,-1.4 -6.7,-1.4 -12.8,0.7zm26.6,7.3c9.3,5.6 13,12.4 13,24.2c0,9.8 -3,17 -9.3,22.1c-7,5.6 -8.6,6.2 -20.3,7.3c-6.4,0.5 -11,-1 -17.9,-6.2c-8.4,-6.3 -12.5,-25.3 -5.8,-27c4.2,-1 21.1,-11.8 27.1,-17.2c3.1,-2.9 6.6,-5.2 7.7,-5.3c1.1,0 3.6,1 5.5,2.1zm18.5,22.5c0,1.9 -0.6,3 -1.7,3.2c-1.4,0.3 -1.8,-0.3 -1.8,-2.6c0,-1.6 0.3,-3.2 0.7,-3.6c1.4,-1.3 2.8,0.1 2.8,3zm-63.1,13.8c0.7,3.8 0.7,3.8 -2.1,3.1c-4.7,-1.1 -6,-5.9 -2,-7.4c2.8,-1.1 3.3,-0.6 4.1,4.3zm14.3,20.3c0.6,1.6 -3.4,5.9 -4.6,4.8c-0.3,-0.3 0.1,-1 0.9,-1.5c1.9,-1.1 0.6,-2.4 -1.6,-1.6c-1,0.4 -1.4,1.2 -1,2.2c0.4,1 0.1,1.4 -0.6,1.2c-2.2,-0.8 -1.4,-4.2 1.2,-5.5c3.4,-1.7 4.9,-1.6 5.7,0.4zm18,0c0.6,1.6 -3.5,4.2 -5.8,3.6c-2.4,-0.7 -2.5,-4 -0.1,-4.5c2.9,-0.6 5.6,-0.2 5.9,0.9zm4.4,3.4c1.7,0.8 1.8,1.3 0.8,2.5c-2.2,2.7 -4.3,3.3 -6.3,1.8c-1.8,-1.3 -1.8,-1.4 0.5,-3.3c2.9,-2.4 2.5,-2.4 5,-1zm-16.1,10.2c0,0.4 0.9,2.6 1.9,5c2.8,6.1 7.1,18 7.1,19.5c0,2.8 -1.9,0.8 -3.8,-4.1c-1.1,-2.8 -3.4,-8.5 -5.1,-12.5c-4.5,-10.8 -6.2,-16.2 -5.4,-17.4c0.5,-1 5.2,7.3 5.3,9.5zm-6.2,-4.6c0.6,1.6 3.5,9.1 6.6,16.7c3,7.6 5.3,14.3 5,14.8c-1.4,2.3 -3.1,0.2 -4.7,-6c-2.7,-9.9 -3.5,-11.3 -6.6,-12.5c-2.3,-0.8 -3.3,-2.3 -5.1,-7.4c-1.2,-3.5 -2,-6.6 -1.7,-6.9c1,-1 2.5,0.5 3.1,3.3c0.8,3.6 3.8,9.3 4.8,9.3c1.1,0 1.1,-0.1 -2.1,-6.5c-1.7,-3.3 -2.8,-6.2 -2.5,-6.7c1,-1.5 2.2,-0.8 3.2,1.9zm2,16.5c2.4,2 -0.4,3.1 -3.2,1.3c-2.3,-1.5 -2.6,-1.5 -2.6,-0.2c0,0.9 0.9,1.9 2,2.2c1.1,0.3 2,1.3 2,2.1c0,1.2 -0.4,1.2 -2.1,0.4c-1.1,-0.7 -2.3,-0.9 -2.6,-0.6c-0.8,0.8 0.7,2.6 2.3,2.6c0.8,0 1.4,0.5 1.4,1.1c0,0.7 -1.1,0.8 -3.1,0.4c-2.4,-0.6 -3,-0.4 -2.7,0.6c0.3,0.8 1.4,1.5 2.6,1.7c2.8,0.4 2.8,1.8 0,2.6c-1.8,0.4 -2,0.8 -1,1.8c2,2 1.4,3.5 -1.5,4.1c-8.2,1.6 -9.3,-12.6 -1.6,-19.4c3.6,-3.1 6.9,-3.3 10.1,-0.7zm4.6,13c0.3,1.6 0.3,2.8 -0.2,2.8c-0.4,0 -1.7,-1.2 -2.9,-2.8c-1.6,-2.2 -1.8,-3.3 -1,-5.6l1,-2.9l1.2,2.9c0.6,1.6 1.5,4.1 1.9,5.6zm8.6,5.8c0,3.6 -2.5,4 -6.1,1l-2.4,-1.9l2.5,-0.1c1.4,0 3.2,-0.5 4,-1c2,-1.3 2,-1.4 2,2zm57.9,15.9c5.4,2.8 6.3,4.2 4.8,7.4c-1.5,3.3 -3.3,2.9 -3,-0.7c0.1,-1.7 -0.3,-2.6 -1.3,-2.6c-0.8,0 -1.4,0.8 -1.4,1.7c0,1.4 -0.2,1.5 -0.9,0.4c-0.5,-0.7 -1.4,-1.1 -1.9,-0.7c-0.6,0.4 -2,0.1 -3.1,-0.6c-1.9,-1.1 -1.9,-1.3 -0.3,-4c1.9,-3.3 2.2,-3.4 7.1,-0.9zm-70.4,12.8c6.2,1.8 12.5,2.6 12.5,1.6c0,-0.4 0.7,-1.7 1.5,-2.7c1.5,-1.9 1.5,-1.9 4,0.4c2.2,2.1 2.7,2.2 5.7,1c1.8,-0.7 4.1,-2 5,-2.8c1.6,-1.3 1.9,-1.2 3,1.4c2.3,5.5 2.2,22.5 -0.2,37.3c-1.3,7.5 -2.7,14.1 -3.2,14.8c-1.3,1.6 -8.6,3.1 -19.7,3.9c-7.4,0.6 -10.3,0.3 -15,-1.1l-5.9,-1.7l-0.7,-15.4c-0.7,-15.9 -0.3,-21.7 2.1,-31.9c2.3,-9.2 2.1,-8.9 4.7,-7.3c1.2,0.8 4,1.9 6.2,2.5zm71.5,-1.7c0,1.1 -0.4,2 -1,2c-0.5,0 -1,-0.2 -1,-0.4c0,-0.2 -0.3,-1.1 -0.6,-2c-0.4,-1.1 -0.1,-1.6 1,-1.6c0.9,0 1.6,0.8 1.6,2zm-50.6,60.7c-0.4,2.1 -1.3,5.3 -2.1,7.2c-1.3,3.2 -3.2,11 -5.5,22.5c-0.6,3.4 -0.6,5.7 0.1,7.3c1,2.2 0.9,2.3 -3.9,2.3l-5,0l0,-4.3c0.1,-11.7 4.4,-32.3 7.7,-36.6c0.2,-0.3 5.4,-1.5 8.6,-2c0.4,0 0.5,1.6 0.1,3.6zm-11.4,-1.2c0,0.5 -2.8,7 -10.6,24.9c-2.4,5.5 -4.4,11.5 -4.4,13.4c0,3.4 0,3.4 -3.7,2.7c-2.1,-0.4 -4.2,-0.9 -4.7,-1.2c-2.2,-1.4 3.1,-27.3 7,-34.4c3.2,-5.9 3.3,-5.9 10,-5.9c3.5,0 6.4,0.2 6.4,0.5zm-18.7,43.2c3.7,0.6 5,2.6 2.2,3.7c-1.8,0.7 -8.2,-2.3 -9,-4.3c-0.4,-0.9 0,-1.1 1.2,-0.6c1,0.4 3.5,0.9 5.6,1.2zm27,0.7c0.8,2 -2.3,2.9 -7,2c-5.7,-1 -6.3,-1.8 -1.8,-2.5c6.8,-1 8.3,-1 8.8,0.5z" id="svg_51"/>
  <path d="m295.2,132.2c-0.6,0.6 -1.2,1.9 -1.2,2.7c0,1.2 0.3,1.1 1.8,-0.2c1.1,-1 2.6,-1.4 4.1,-1c1.8,0.4 2.2,0.2 1.9,-0.8c-0.6,-1.8 -5,-2.3 -6.6,-0.7z" id="svg_52"/>
  <path d="m270.5,138c-1.9,2.1 -1.3,4.2 0.7,2.2c0.7,-0.7 2.3,-1.2 3.6,-1.2c1.4,0 2.2,-0.5 2,-1.3c-0.7,-2 -4.3,-1.9 -6.3,0.3z" id="svg_53"/>
  <path d="m298,147.5c0,1.8 0.5,2.5 2,2.5c1.5,0 2,-0.7 2,-2.5c0,-1.8 -0.5,-2.5 -2,-2.5c-1.5,0 -2,0.7 -2,2.5z" id="svg_54"/>
  <path d="m273.7,148.6c-1.2,1.2 -0.8,5.2 0.6,5.7c2.2,0.8 3.9,-0.8 3.5,-3.4c-0.3,-2.3 -2.7,-3.7 -4.1,-2.3z" id="svg_55"/>
  <path d="m291,153.9c0,0.6 0.4,1.2 0.9,1.5c0.5,0.3 0.7,1.5 0.4,2.6c-0.8,2.9 1.1,2.5 2.7,-0.6c1.2,-2.2 1.2,-2.7 0,-3.4c-1.9,-1.2 -4,-1.3 -4,-0.1z" id="svg_56"/>
  <path d="m262.9,163.2c-1.4,2.6 -0.2,3.7 1.4,1.3c1.3,-1.7 1.4,-1.7 2.1,0.1c0.6,1.6 0.9,1.6 1.6,0.4c1.5,-2.3 1.2,-2.7 -1.5,-3.3c-1.9,-0.3 -2.9,0.1 -3.6,1.5z" id="svg_57"/>
  <path d="m286,166.9c-2.2,4.3 -0.5,6.6 3.8,5c2.2,-0.8 2.7,-2.4 1.6,-5.3c-0.8,-2.2 -4.1,-2 -5.4,0.3zm3.4,2.2c-0.3,0.5 -1,0.7 -1.5,0.3c-0.5,-0.3 -0.7,-1 -0.3,-1.5c0.3,-0.5 1,-0.7 1.5,-0.3c0.5,0.3 0.7,1 0.3,1.5z" id="svg_58"/>
  <path d="m7,125.6c0,0.9 1.2,3.1 2.8,4.9c1.5,1.8 4.9,6.1 7.7,9.6c7.4,9.5 14.6,16.9 16.4,16.9c1,0 -0.3,-1.9 -3.5,-5.3c-6.2,-6.5 -13.8,-15.6 -18.8,-22.5c-4.1,-5.6 -4.6,-6 -4.6,-3.6z" id="svg_59"/>
  <path d="m592.6,135.5c-2.1,0.7 -4.2,1.7 -4.6,2.2c-1.7,2 -4,9.7 -4,13.8c0,5.4 2.2,7 8.5,6.3c2.5,-0.3 4.9,0 5.9,0.8c1.2,0.8 2.6,1 4.1,0.4c1.3,-0.5 5.4,-0.9 9.1,-0.9c8.6,0 11.5,-1.9 12.8,-8.3c1,-5.1 0.3,-8.9 -1.9,-11.2c-3.2,-3.2 -23.8,-5.4 -29.9,-3.1zm26.9,3.9c2.7,1.8 3.9,6.3 3,10.6c-1.1,5 -2.5,4.5 -2.5,-0.9c0,-3.9 -0.4,-5.3 -1.9,-6c-1,-0.6 -8,-1.3 -15.5,-1.7c-7.5,-0.4 -13.6,-1 -13.6,-1.5c0,-3.1 25.8,-3.5 30.5,-0.5zm-21.5,4.3c-0.1,0.5 -0.7,3.3 -1.4,6.3l-1.3,5.5l-4.4,0l-4.4,0l-0.3,-4.2c-0.5,-6.6 0.9,-8.3 6.8,-8.3c2.8,0 5,0.3 5,0.7zm8,1.6c0,1.3 -0.7,4.5 -1.6,7.1c-1.3,3.9 -2,4.7 -3.8,4.4c-1.9,-0.3 -2.1,-0.9 -1.9,-5.7c0.1,-4 0.6,-5.8 1.9,-6.8c2.9,-2.1 5.4,-1.6 5.4,1zm11.8,4.1c0.4,5.8 -0.4,6.6 -7.2,6.6c-4.5,0 -4.8,-0.1 -4.2,-2.3c0.3,-1.2 0.9,-3.9 1.2,-6l0.7,-3.8l4.6,0.3l4.6,0.3l0.3,4.9z" id="svg_60"/>
  <path d="m680.2,150.2c-3,1.9 -3.3,2.5 -2.7,5.2c0.4,1.7 0.8,5.1 0.8,7.6c0.2,3.7 0.6,4.7 2.7,5.7c3,1.5 7.4,1.7 6.5,0.3c-0.3,-0.6 -1.4,-1 -2.4,-1c-3.3,0 -4.5,-2.6 -3.5,-7.7c1.3,-6.7 3.7,-7.1 2.8,-0.5l-0.6,5.1l3.5,0.6l3.4,0.7l0.1,9.2c0,9.9 1.9,16.6 4.6,16.6c0.9,0 1.6,0.9 1.6,2c0,1.5 -0.6,1.9 -2.2,1.7c-1.5,-0.1 -2.6,0.5 -3.3,2c-1.1,2.5 -3.4,3 -5.3,1.1c-2.4,-2.4 -2.3,0.3 0.3,7.4c1.4,4 4,11.2 5.6,16c1.6,4.8 3.9,10.9 5,13.5c1.2,2.7 3.4,8.8 5.1,13.8c1.6,4.9 4.6,12.6 6.7,17c2.1,4.4 4.4,9.5 5.1,11.3c1.8,4.8 4.5,3.9 4.4,-1.3c-1,-31.9 -4.1,-81.5 -5.1,-82.5c-0.2,-0.3 -0.9,0.3 -1.4,1.3c-1.3,2.2 -2.7,2.2 -5.2,-0.1c-1.3,-1.1 -2.1,-1.3 -2.4,-0.6c-0.2,0.6 -1,2 -1.8,3c-2.3,3 -3.6,0 -3,-7.1c0.3,-3.7 0,-8.3 -0.9,-11.9c-2.2,-9.3 -0.8,-11.3 7.9,-10.9c14.4,0.8 70.5,1 75,0.3c4.6,-0.7 6.5,-1.5 8.3,-3.6c1.3,-1.4 2.6,-2.3 3,-2c1,1.1 -1.2,3.9 -4.7,6c-3,1.7 -6,1.8 -46.2,1.8c-24.6,0 -42.9,0.4 -42.9,0.9c0,0.5 0.9,0.9 2,0.9c1.3,0 2.2,0.9 2.6,2.6c0.5,2 1.1,2.4 2.8,2c1.1,-0.3 2.4,-0.6 2.8,-0.6c0.3,0 0.8,-0.8 1,-1.7c0.3,-1.6 3.4,-1.7 37.8,-1.8c33.4,-0.1 37.9,-0.3 40.8,-1.8c1.7,-1 3.2,-2.2 3.2,-2.8c0,-0.6 0.7,-0.9 1.5,-0.5c3.1,1.2 6.4,-1.1 7.1,-5c0.6,-3.2 0.3,-4 -1.6,-5.6c-2.8,-2.2 -7.8,-2.3 -10.9,-0.2c-1.9,1.4 -2.2,2.3 -1.8,5c0.5,3.1 0.4,3.4 -2.6,3.8c-8.5,1.3 -21.4,1.5 -46.5,0.9c-23.7,-0.5 -27.5,-0.8 -27.9,-2.2c-1.3,-3.4 -3.6,-5.1 -7.4,-5.1c-5.1,0 -8.5,1.4 -9.2,3.9c-0.4,1.6 -1,1.9 -3.3,1.2c-3.6,-0.9 -4.1,-2.7 -1,-3.5c5,-1.2 5.7,-8 1.3,-11.1c-2.9,-2 -5.6,-1.9 -9.5,0.7zm9.9,3c0.6,1.1 0.8,2.6 0.5,3.4c-0.8,2.2 -3.6,1.7 -3.6,-0.6c0,-3.1 -3,-3.7 -5.1,-1.2c-2.2,2.7 -2.9,2.8 -2.9,0.2c0,-1.4 1.1,-2.5 3.1,-3.4c3.8,-1.6 6.6,-1 8,1.6zm107.4,5.1c1.3,1 1.6,2.1 1.1,4c-0.8,3.5 -3.4,3.5 -3.8,-0.1c-0.2,-2.1 -0.8,-2.6 -2.3,-2.4c-1.1,0.2 -2.1,0.8 -2.3,1.3c-0.6,1.7 -2.2,0.9 -2.2,-1c0,-3 6.2,-4.1 9.5,-1.8zm-91,4.7c1.8,2 1.7,2 -2.6,2c-5,0 -6.1,0.6 -7.9,3.9c-1,2 -0.9,3.9 0.6,11.2c1.8,8.9 1.4,12 -1.1,8.5c-4.7,-6.4 -3.5,-24.8 1.7,-26.9c3.1,-1.3 7.6,-0.6 9.3,1.3zm2.5,10c0,1.2 -2.9,2 -3.5,1c-0.9,-1.5 0.4,-3 2,-2.3c0.8,0.3 1.5,0.9 1.5,1.3zm-6.7,29c0.4,0 1.2,-1.2 1.7,-2.6c0.9,-2.3 1.2,-2.4 3.1,-1.1c1.1,0.8 2.8,1.3 3.8,1c1.6,-0.4 1.8,0.9 2.5,16.4c0.4,9.2 1.1,19.7 1.6,23.3c0.5,3.6 1,11.8 1,18.2c0,10.6 -0.2,11.8 -1.8,11.8c-1,0 -2.4,-1.4 -3.4,-3.3c-2.7,-5.4 -6.8,-15.8 -6.8,-17.1c0,-0.7 -1.6,-5.2 -3.6,-10.2c-2.1,-4.9 -5.6,-14.3 -7.9,-20.9c-2.3,-6.6 -4.5,-12.9 -5,-13.9c-0.7,-1.7 -0.5,-1.8 1.7,-1.3c2.2,0.6 2.8,0.2 3.8,-2.3l1.2,-2.9l3.6,2.4c2,1.4 4,2.5 4.5,2.5zm14.5,73.1c0.4,4 -1.2,3 -2.2,-1.4c-0.5,-2.1 -0.3,-2.8 0.6,-2.5c0.7,0.3 1.4,2 1.6,3.9z" id="svg_61"/>
  <path d="m708.4,212.7c1.2,12.9 1.8,16.3 2.7,16.3c1.2,0 1.1,-2.2 -0.3,-13.6c-1.3,-10.8 -3.4,-13.1 -2.4,-2.7z" id="svg_62"/>
  <path d="m693.8,209.5c-1.1,1.1 6,23.5 7.5,23.5c1.3,0 0.8,-2.3 -2.7,-12c-1.8,-5.2 -3.5,-10.1 -3.7,-10.8c-0.3,-0.7 -0.7,-1 -1.1,-0.7z" id="svg_63"/>
  <path d="m702.5,216.2c0.3,1.8 1,6.4 1.6,10.3c0.5,3.8 1.6,9.5 2.4,12.5c0.7,3 1.6,7.7 2,10.5c0.8,5.5 1.3,6.8 2.4,6.1c0.4,-0.3 -1,-9 -3.1,-19.3c-2.1,-10.3 -3.8,-19.8 -3.8,-21.1c0,-1.2 -0.5,-2.2 -1,-2.2c-0.7,0 -0.9,1.3 -0.5,3.2z" id="svg_64"/>
  <path d="m342,151.2c0,0.8 -2.8,0.9 -10,0.5c-5.5,-0.3 -10.2,-0.2 -10.5,0.3c-1.2,2 22.8,2.7 78,2.2c16.5,-0.1 40.6,0.2 53.5,0.8c13.3,0.5 46.1,0.7 75.7,0.3c45.2,-0.5 52.1,-0.8 51.1,-2.1c-1,-1.2 -4.3,-1.3 -19.8,-0.7c-20.5,0.7 -86.5,0.8 -106,0.1c-10.5,-0.3 -76.5,-0.5 -89.5,-0.3c-10.9,0.3 -20.6,-0.4 -20,-1.3c0.3,-0.6 -0.1,-1 -0.9,-1c-0.9,0 -1.6,0.5 -1.6,1.2z" id="svg_65"/>
  <path d="m36,161c0,0.5 0.7,1 1.5,1c0.8,0 1.5,-0.5 1.5,-1c0,-0.6 -0.7,-1 -1.5,-1c-0.8,0 -1.5,0.4 -1.5,1z" id="svg_66"/>
  <path d="m316,165c0,1.3 1.1,1.3 3,0c1.2,-0.8 1.1,-1 -0.7,-1c-1.3,0 -2.3,0.4 -2.3,1z" id="svg_67"/>
  <path d="m180.5,165.5c-5.8,1.7 -18.3,5.9 -23.5,7.8c-3.6,1.4 -12.6,4.8 -20,7.6c-7.4,2.8 -16.6,6.3 -20.5,7.8c-7.9,3 -28,11.4 -34,14.3c-2.2,1 -5.3,2.2 -6.9,2.5c-1.6,0.3 -7.7,2.8 -13.5,5.4c-5.8,2.7 -14.9,6.3 -20.1,8.1c-5.2,1.8 -10.6,3.8 -12,4.5c-6.8,3.5 -18,7.5 -20.9,7.5c-1,0 -2.2,0.7 -2.5,1.6c-0.4,1.1 -0.1,1.4 1.2,1c0.9,-0.3 4.3,-1.2 7.5,-2.1c5.8,-1.7 13.4,-4.6 17,-6.6c3.1,-1.7 18.8,-7.1 19.3,-6.7c0.5,0.5 -1.7,1.5 -17.1,7.8c-14.5,6 -25.9,11.1 -26.9,12.1c-2.5,2.3 0.8,1.6 8,-1.7c14.4,-6.6 21.6,-9.4 21.1,-8.1c-0.2,0.6 -1.7,1.6 -3.3,2.2c-1.6,0.5 -3.2,1.4 -3.6,2c-0.9,1.3 1,3.5 3.1,3.5c0.9,0 2.1,0.4 2.6,0.9c0.6,0.5 2.1,1.1 3.5,1.3c2.1,0.3 1.6,0.7 -3.4,3.1c-3.2,1.5 -7.9,3.3 -10.5,4.1c-5.9,1.8 -18.2,8.2 -17.9,9.3c0.4,1 0.1,1.1 9,-3c4,-1.9 8.9,-4 10.9,-4.6c6,-1.9 41.2,-19.8 40.2,-20.4c-0.9,-0.6 -11.3,3.7 -15.4,6.4c-1.3,0.9 -3.4,1.9 -4.6,2.3c-2,0.6 -2.1,0.4 -1.6,-2.8c0.4,-2.8 0.1,-3.6 -1.6,-4.6c-1.2,-0.6 -3.1,-0.8 -4.1,-0.5c-1.1,0.4 -2,0.3 -2,-0.2c0,-0.4 3,-2 6.8,-3.5c3.7,-1.5 10.5,-4.3 15.2,-6.3c4.7,-2 9.2,-3.8 10.1,-4c0.9,-0.2 3.6,-1.2 6,-2.3c2.4,-1 7.8,-3.2 11.9,-4.7c4.1,-1.5 8.4,-3.1 9.5,-3.6c1.1,-0.5 4.5,-1.8 7.5,-3c3,-1.1 8.4,-3.2 12,-4.6c3.6,-1.4 9.7,-3.5 13.5,-4.8c3.9,-1.2 17.9,-6.6 31.3,-11.9c13.4,-5.3 24.7,-9.4 25.3,-9.1c1.1,0.7 1.2,7.5 0.1,9.1c-1.4,2.1 -9.1,6.3 -17.8,9.8c-10.3,4 -23,9.2 -25.9,10.5c-5.5,2.6 -11.3,4.8 -14,5.5c-3.2,0.7 -11.5,3.8 -18,6.7c-2.3,0.9 -5.9,2.2 -8,2.8c-4.7,1.3 -7.2,2.7 -6.3,3.6c0.6,0.7 9.6,-2.1 16.3,-4.9c1.7,-0.7 9.8,-3.8 18,-6.9c8.3,-3.1 18.8,-7.2 23.5,-9.2c9,-3.9 16.3,-6.9 22,-9c7.5,-2.8 11.8,-6.5 12.9,-11c1.1,-4.3 0.7,-7 -1.3,-9.1c-1.2,-1.1 -6.4,-2.4 -8.1,-1.9zm0,3.5c-0.3,0.5 -1.2,1 -1.8,1c-0.7,0 -4.6,1.4 -8.7,3.1c-11.2,4.6 -32.7,12.8 -39.5,15c-3.3,1.2 -10.9,4 -17,6.4c-6,2.4 -15.3,6 -20.5,8c-5.2,2 -10.8,4.2 -12.5,5c-1.6,0.7 -6.6,2.5 -11,4c-4.4,1.5 -9.2,3.4 -10.8,4.2c-1.5,0.7 -2.7,1.1 -2.7,0.8c0,-1 12.1,-6.5 19.4,-8.9c4.1,-1.4 8.8,-3.2 10.4,-4c1.6,-0.8 4.7,-2.2 6.8,-3c2.2,-0.7 8.4,-3.2 13.9,-5.5c5.5,-2.3 12.5,-5.1 15.5,-6.2c3,-1.1 7.6,-2.9 10.2,-4c2.6,-1 5.1,-1.9 5.7,-1.9c0.6,0 3.4,-1.1 6.3,-2.3c6.3,-2.9 20.4,-8.2 31.8,-12c2.6,-0.9 5.1,-0.7 4.5,0.3zm-136.5,62.8c0,2.1 -2.8,4.4 -5.1,4c-3.3,-0.4 -3.8,-4.1 -0.7,-5.5c2.3,-1 5.8,-0.1 5.8,1.5zm-10,2.3c0,0.5 -0.4,0.9 -1,0.9c-0.5,0 -1,-0.7 -1,-1.6c0,-0.8 0.5,-1.2 1,-0.9c0.6,0.3 1,1 1,1.6z" id="svg_68"/>
  <path d="m318,170c0,0.5 1.1,1 2.5,1c1.4,0 2.5,-0.5 2.5,-1c0,-0.6 -1.1,-1 -2.5,-1c-1.4,0 -2.5,0.4 -2.5,1z" id="svg_69"/>
  <path d="m167.8,178.1c-4.4,2.2 -4.9,4.5 -1.2,5.9c4,1.6 7.9,1.2 9.9,-1c1.5,-1.7 1.6,-2.4 0.7,-4.5c-1.4,-3 -4.1,-3.1 -9.4,-0.4zm7,2.1c-0.3,2.5 -3.4,3.6 -5.2,1.8c-0.8,-0.8 -0.6,-1.5 0.8,-2.6c2.9,-2.1 4.8,-1.8 4.4,0.8z" id="svg_70"/>
  <path d="m129.7,192.6c-0.3,0.3 -2.3,1.2 -4.4,1.9c-5.4,1.9 -5.1,4.4 1,6.3c3.9,1.2 5.2,1.3 7.1,0.2c2.8,-1.5 3.9,-4.6 2.5,-7.2c-0.9,-1.7 -4.9,-2.5 -6.2,-1.2zm4.6,2.6c1.2,3.5 -3,6 -6.3,3.8c-1.3,-0.9 -1.2,-1.3 0.9,-3c2.7,-2.3 4.7,-2.6 5.4,-0.8zm-8.6,2.4c-0.3,0.3 -1.2,0.4 -1.9,0.1c-0.8,-0.3 -0.5,-0.6 0.6,-0.6c1.1,-0.1 1.7,0.2 1.3,0.5z" id="svg_74"/>
  <path d="m278,193.9c0,1.1 0.4,2.2 0.8,2.5c1.4,0.9 3.5,-1.2 2.9,-2.8c-0.9,-2.3 -3.7,-2 -3.7,0.3z" id="svg_75"/>
  <path d="m279.7,201.1c-0.6,2.3 1.8,3.8 3.5,2.1c0.8,-0.8 0.8,-1.5 -0.2,-2.7c-1.7,-2 -2.7,-1.9 -3.3,0.6z" id="svg_79"/>
  <path d="m80.6,211.9c-2.8,1.9 -7.8,10 -13.6,21.8l-3,6.3l-4.4,0c-7.6,0 -14.6,2.1 -15.1,4.4c-0.2,1.2 -0.6,12.7 -1,25.6l-0.5,23.6l3.3,1.2c4.4,1.6 11.6,1.5 31.7,-0.3c18.3,-1.6 34.6,-3.8 40.1,-5.5l3.6,-1l0.7,-13.3c1.6,-32.8 1.7,-37.3 0.8,-38.6c-0.8,-1 -3.3,-1.4 -9.9,-1.3c-4.8,0 -9.4,0.2 -10.1,0.4c-0.7,0.2 -2.6,-2.6 -4.5,-6.7c-1.8,-3.9 -4,-8.1 -4.9,-9.5c-0.9,-1.4 -1.9,-3.6 -2.3,-5c-0.4,-1.4 -1.3,-2.8 -1.9,-3.2c-2,-1.3 -6,-0.8 -9,1.1zm7.8,1.8c0.5,1.1 0,2.2 -1.1,3.1c-2.3,1.7 -4.7,1.1 -5.1,-1.2c-0.7,-3.4 5,-5.1 6.2,-1.9zm0.6,11.9c3.5,12.3 3.6,11.2 -1.7,11.9c-2.7,0.3 -6.1,0.9 -7.7,1.2c-2.8,0.5 -2.9,0.5 -2.2,-3.3c0.4,-2.2 1.4,-6.2 2.2,-8.9c0.9,-2.8 1.7,-5.5 1.9,-6c0.1,-0.6 1.5,-1 3.1,-1c2.5,0.2 2.9,0.7 4.4,6.1zm-13.4,8.5c-2,6.7 -4,12.7 -4.6,13.3c-1.7,1.7 -2.4,-0.3 -1.3,-3.7c1,-2.8 6.3,-17.7 7.8,-21.6c0.3,-0.8 0.8,-1.1 1.1,-0.9c0.3,0.3 -1.1,6.1 -3,12.9zm21.7,-3.6c4.4,10.2 5.2,13.5 3.3,13.5c-0.7,0 -1.6,-1 -1.9,-2.3c-0.3,-1.2 -1.7,-5.6 -3.1,-9.7c-2.3,-6.7 -3.3,-11 -2.2,-9.9c0.2,0.2 2,4 3.9,8.4zm-26.4,4.1c-1.2,2.8 -2.4,4.3 -2.6,3.5c-0.3,-0.7 0.5,-3.6 1.8,-6.4c3,-6.4 3.7,-3.8 0.8,2.9zm22.5,-4.1c0.3,0.8 0.1,1.5 -0.4,1.5c-0.6,0 -1,-0.7 -1,-1.5c0,-0.8 0.2,-1.5 0.4,-1.5c0.2,0 0.6,0.7 1,1.5zm22.2,6.4c-0.3,0.5 -2.7,1.2 -5.2,1.6c-2.6,0.3 -5.3,0.9 -6,1.2c-0.8,0.3 -1.4,-0.1 -1.4,-1c0,-1 1.2,-1.7 3.3,-2c6.2,-0.8 9.8,-0.7 9.3,0.2zm5.5,25.7c-0.7,13.1 -1.4,24 -1.5,24.2c-0.2,0.2 -3.5,0.8 -7.2,1.3c-3.8,0.6 -10.8,1.7 -15.5,2.5c-9.6,1.6 -44,3.9 -46.1,3.2c-1,-0.4 -1.3,-3.1 -1.2,-10.4c0.1,-5.5 0.2,-15.9 0.3,-23.2l0.1,-13.2l8.1,0c6,0 8,-0.3 7.6,-1.3c-0.3,-0.9 -2.9,-1.1 -9.8,-0.9c-10.3,0.3 -10.9,-1.2 -0.9,-2.3c3,-0.3 7.2,-0.8 9.2,-1.1l3.7,-0.6l-0.2,4.3c-0.2,3.3 0.2,4.4 1.4,4.7c1.6,0.3 4.4,-1.7 5.1,-3.7c0.1,-0.6 3.9,-1.3 8.3,-1.6c4.4,-0.2 9.3,-0.8 10.9,-1.1c2.3,-0.5 3.3,-0.1 4.6,1.6c1.4,1.9 2,2.1 3.8,1.1c1.2,-0.7 2.2,-2 2.2,-3c0,-1.6 1.2,-2.1 6.8,-3.1c3.7,-0.6 7.4,-1.5 8.2,-2c0.8,-0.5 1.9,-0.5 2.4,0c0.4,0.4 0.3,11.1 -0.3,24.6zm-25.1,-22.8c0,0.9 -12.5,3.2 -17.6,3.2c-2.4,0 -3.4,-0.4 -3.2,-1.3c0.4,-1.1 4.3,-1.6 18.1,-2.5c1.5,-0.1 2.7,0.2 2.7,0.6zm-48.4,28.9c-0.3,12.6 -0.6,23.2 -0.6,23.7c0,0.6 -0.3,0.6 -0.9,0c-1.2,-1.2 -0.1,-46.4 1.1,-46.4c0.6,0 0.8,8.8 0.4,22.7z" id="svg_80"/>
  <path d="m82.1,256.5c-8.1,0.9 -12.8,1.8 -13.8,2.8c-1.1,1.1 -1.5,3.7 -1.5,9.6c0.1,13.3 -1,12.5 15.6,11.7c14.1,-0.6 21,-1.6 22.8,-3.4c0.5,-0.5 1,-5.6 1.1,-11.3l0.2,-10.4l-6,-0.1c-3.3,-0.1 -11.6,0.4 -18.4,1.1zm22.4,9.7c-0.4,5.1 -0.8,9.4 -0.9,9.5c-0.4,0.5 -12.2,3.3 -13.8,3.3c-1,0 -1.8,-0.5 -1.8,-1.1c0,-0.8 -0.4,-0.8 -1.4,0c-0.9,0.8 -4.3,1.1 -9.3,0.9l-7.8,-0.3l0,-9l0,-9l5,-1.1c7.4,-1.8 11.5,-1.7 11.5,0.1c0,0.8 0.5,1.5 1,1.5c0.6,0 1,-0.6 1,-1.4c0,-1.8 1.6,-2.2 10.4,-2.5l6.8,-0.2l-0.7,9.3z" id="svg_81"/>
  <path d="m86.5,264c-0.4,0.6 -0.3,1.6 0.3,2.2c0.6,0.6 1.2,0.6 1.7,-0.2c0.4,-0.6 0.3,-1.6 -0.3,-2.2c-0.6,-0.6 -1.2,-0.6 -1.7,0.2z" id="svg_82"/>
  <path d="m86,270.5c0,0.8 0.5,1.5 1,1.5c0.6,0 1,-0.7 1,-1.5c0,-0.8 -0.4,-1.5 -1,-1.5c-0.5,0 -1,0.7 -1,1.5z" id="svg_83"/>
  <path d="m86,273.9c0,0.6 0.5,1.3 1,1.6c0.6,0.3 1,-0.1 1,-0.9c0,-0.9 -0.4,-1.6 -1,-1.6c-0.5,0 -1,0.4 -1,0.9z" id="svg_84"/>
  <path d="m388.9,213.8c-0.2,0.5 -1.4,2.2 -2.6,3.8c-8.5,11 -13.8,18.2 -17.9,24.4c-4.3,6.6 -4.6,7.5 -3.8,10.8c0.8,3.5 1.2,3.7 5.2,4l4.2,0.3l-0.2,8.8l-0.2,8.8l-27.9,0.1c-15.4,0.1 -28.2,0.3 -28.4,0.6c-1.7,1.7 2.5,2 17.4,1.4c9.2,-0.3 21.8,-0.4 27.9,-0.1l11.1,0.6l0.1,24.1c0.1,13.2 0.2,26.4 0.2,29.3c0,4.1 0.4,5.2 1.7,5.5c1,0.2 1.8,1 1.9,1.8c0.1,0.8 0.2,2.5 0.2,3.6c0.2,2.6 4.3,3.9 7.3,2.4c1.1,-0.6 2.2,-2.4 2.5,-3.9l0.6,-2.9l48.2,-0.1c26.4,-0.1 50.2,-0.4 52.9,-0.7c4.6,-0.6 4.7,-0.6 4.7,2c0,2.3 0.4,2.6 3.3,2.6c3.9,0 5.7,-1.5 5.7,-4.7c0,-1.3 0.6,-2.3 1.3,-2.3c2.1,0 3.7,-23.5 3,-42.3l-0.6,-15.7l12.4,-0.2c6.8,-0.1 16.2,-0.3 20.9,-0.4c17.7,-0.5 107.5,-1.6 130.3,-1.7c16.3,0 23.6,-0.4 23.4,-1.1c-0.3,-0.8 -8.4,-1 -25.3,-0.9c-48.6,0.3 -117.2,1.2 -139.1,1.8l-22.3,0.6l0,-8.5l0,-8.5l2.8,0.2c2.5,0.2 2.7,-0.1 3,-3.7c0.3,-4 -1.6,-9.8 -5,-14.8c-1,-1.5 -2.4,-4.2 -3,-6c-0.9,-2.6 -7.8,-15.5 -9.5,-17.8c-0.2,-0.2 -15.1,-0.5 -33.1,-0.6c-18,-0.1 -41.8,-0.5 -52.8,-0.9c-12,-0.3 -20.3,-0.2 -20.5,0.3zm65.5,2.7c37.9,0.5 41.6,0.8 41.6,3.6c0,0.5 1.1,2.6 2.4,4.7c1.2,2 2.6,4.8 3.1,6.2c0.4,1.4 2.4,5.4 4.5,9c2.4,4.1 3.9,8.1 4.1,10.9l0.4,4.4l-12,0.3c-21.9,0.7 -113.9,0.5 -122.3,-0.2c-7.4,-0.6 -8.5,-0.9 -9.4,-2.9c-1.1,-2.5 -0.5,-4 4.7,-11.6c3.2,-4.7 12.6,-17.1 17.1,-22.8l2.8,-3.3l12,0.7c6.7,0.3 29.6,0.8 51,1zm-17.5,41.4c58.5,-0.1 67.3,0 67.8,0.5c0.8,0.8 0.5,67.6 -0.3,70.6c-0.9,3.3 -1.3,3.5 -5.9,4.2c-14.4,1.9 -106.6,2.9 -118.2,1.3l-4.2,-0.6l-0.3,-24.7c-0.2,-13.6 -0.2,-30.9 0,-38.5c0.3,-12.1 0.5,-13.8 1.9,-13.3c0.8,0.4 27.5,0.6 59.2,0.5zm63.9,78.8c-0.4,2 -3.5,3 -5,1.5c-1.5,-1.5 0,-3.2 2.8,-3.2c1.9,0 2.5,0.5 2.2,1.7zm-114.8,2.2c0,1 -0.6,2.4 -1.4,3c-2,1.7 -5.6,-0.3 -5.6,-2.9c0,-1.6 0.7,-2 3.5,-2c2.8,0 3.5,0.4 3.5,1.9z" id="svg_85"/>
  <path d="m369.4,248.2c-0.3,0.4 10.2,0.8 23.3,0.8c13.1,0.1 44.4,0.2 69.6,0.3c25.1,0.1 45.7,-0.1 45.7,-0.4c0,-1.7 -137.5,-2.5 -138.6,-0.7z" id="svg_86"/>
  <path d="m180.3,229.7c-1.1,1.6 -1.8,4.4 -1.7,6.9c0.1,5 3,10.2 4.7,8.5c0.7,-0.7 0.5,-1.6 -0.9,-3.2c-2.4,-2.6 -2.5,-9.1 -0.1,-11.6c1.9,-2.2 2.2,-3.3 0.7,-3.3c-0.5,0 -1.8,1.2 -2.7,2.7z" id="svg_87"/>
  <path d="m227.7,227.6c-0.3,0.3 0.3,2.3 1.4,4.2c2.4,4.5 2.4,4.9 0,9.5c-2.1,4.1 -1.1,6.1 1.3,2.5c2.3,-3.6 2.9,-7.4 1.6,-11.2c-1.1,-3.6 -3.2,-6 -4.3,-5z" id="svg_88"/>
  <path d="m613,231.7c0,0.5 0.7,1.7 1.5,2.7c0.8,1.1 1.5,3.6 1.5,5.6c0,2 -0.7,4.5 -1.5,5.6c-1.7,2.2 -1.9,3.4 -0.5,3.4c1.9,0 4.2,-5 4.2,-8.9c-0.1,-3.9 -2.5,-9.1 -4.3,-9.1c-0.5,0 -0.9,0.3 -0.9,0.7z" id="svg_90"/>
  <path d="m637.7,233.9c-0.9,1.6 -1.7,4.3 -1.7,6.1c0,3.9 2.6,9 4.5,9c1.2,0 1.1,-0.6 -0.5,-3.3c-2.4,-3.8 -2.6,-7.6 -0.5,-10.3c1.6,-2.1 2,-4.4 0.7,-4.4c-0.4,0 -1.5,1.3 -2.5,2.9z" id="svg_91"/>
  <path d="m685,232.2c0,0.7 0.7,2.2 1.5,3.2c0.8,1.1 1.5,3.4 1.5,5.1c0,1.7 -0.7,4 -1.5,5.1c-1.7,2.2 -1.9,3.4 -0.5,3.4c1.9,0 4.2,-5 4.2,-8.9c0,-2.2 -0.8,-5.1 -1.8,-6.5c-1.7,-2.8 -3.4,-3.4 -3.4,-1.4z" id="svg_92"/>
  <path d="m217.5,251c-0.4,2.2 -0.4,7.8 0,12.5c0.6,7.3 0.5,8.5 -0.8,8.5c-1.5,0 -9,4.5 -22.5,13.5c-10.1,6.7 -20.4,13.1 -25.7,16c-8.3,4.5 -22.9,14.1 -24.5,16c-2,2.5 0.5,2.3 3.5,-0.1c3.3,-2.7 10.3,-7.2 20.5,-13c3.6,-2 9.7,-5.8 13.7,-8.3c15.6,-10.1 19.8,-12.8 26.5,-16.9l6.9,-4.3l17.2,-0.2c10.9,-0.1 17.1,-0.6 16.9,-1.2c-0.1,-0.6 -5.6,-0.9 -14.6,-0.7l-14.4,0.2l-0.5,-4.2c-0.2,-2.4 -0.4,-8.2 -0.3,-13.1c0.1,-9.2 -0.8,-11.4 -1.9,-4.7z" id="svg_94"/>
  <path d="m700.2,272.1c0.2,0.6 0.8,1 1.3,1c0.5,0 1.1,-0.4 1.3,-1c0.2,-0.6 -0.4,-1.1 -1.3,-1.1c-0.9,0 -1.5,0.5 -1.3,1.1z" id="svg_95"/>
  <path d="m725.6,272.9c-0.7,1 3.3,2.3 4.7,1.4c1,-0.6 -1.1,-2.3 -3,-2.3c-0.6,0 -1.4,0.4 -1.7,0.9z" id="svg_96"/>
  <path d="m736.3,272.7c-4.6,1.7 2.4,2.2 31.8,2.3c18.2,0 33.5,0.2 33.9,0.5c0.5,0.3 1.1,0.1 1.5,-0.5c0.3,-0.6 0,-1.2 -0.7,-1.4c-1.9,-0.7 -65.1,-1.5 -66.5,-0.9z" id="svg_97"/>
  <path d="m307.7,275.6c-0.4,0.4 -0.4,1 -0.2,1.4c0.6,1 5.5,0 5.5,-1.1c0,-1 -4.3,-1.2 -5.3,-0.3z" id="svg_98"/>
  <path d="m60,307.2c0,0.7 0.7,2.2 1.5,3.2c2,2.6 1.9,7.1 -0.2,10.7c-2,3.3 -1,5.1 1.4,2.6c2.1,-2.1 2.8,-11.4 1.1,-14.6c-1.5,-2.8 -3.8,-4 -3.8,-1.9z" id="svg_99"/>
  <path d="m84.6,308.2c-3.3,5.1 -2.8,12.7 1,15.9c2.2,1.8 2.6,0.6 0.9,-2.7c-1.9,-3.7 -1.9,-9.5 0,-12c1.7,-2.2 1.9,-3.4 0.5,-3.4c-0.5,0 -1.6,1 -2.4,2.2z" id="svg_100"/>
  <path d="m131,306.7c0,0.3 0.8,1.5 1.8,2.6c1,1.2 1.7,3.5 1.7,6.2c0,2.7 -0.7,5 -1.7,6.2c-2,2.2 -2.3,3.3 -0.8,3.3c0.6,0 1.9,-1.5 3.1,-3.3c2.3,-3.7 2.1,-9.2 -0.5,-13.2c-1.5,-2.3 -3.6,-3.4 -3.6,-1.8z" id="svg_101"/>
  <path d="m113,335c-4.1,2.7 -9.1,5.8 -11,6.8c-5.4,3 -14.6,8.9 -16.3,10.6c-0.8,0.8 -6.1,4 -11.8,7.1c-5.7,3.1 -11.5,6.7 -12.9,7.9c-3.2,2.9 -8.2,5.9 -17,10.2c-3.9,1.9 -9.3,5.2 -12.1,7.4c-2.8,2.2 -6.3,4.3 -7.7,4.7c-1.5,0.3 -3.8,1.4 -5.2,2.3c-4.7,3 -6.5,4 -9.8,5.6c-3.9,1.8 -3.4,3.9 0.6,2.2c1.5,-0.7 3.4,-1.7 4.2,-2.4c0.8,-0.7 4.7,-2.7 8.5,-4.5c6.6,-3.1 12.7,-6.9 15,-9.3c0.6,-0.6 5.4,-3.3 10.8,-5.9c5.4,-2.7 11.3,-6.1 13,-7.6c3.2,-2.7 10.6,-7.4 16.2,-10.1c1.7,-0.8 5.4,-3.2 8.4,-5.4c4.9,-3.5 10.9,-7.3 30.9,-19.2c5.9,-3.5 7.7,-5.5 5,-5.3c-0.7,0 -4.7,2.3 -8.8,4.9z" id="svg_103"/>
  <path d="m164,343.6c0,0.3 0.9,1.7 2,3.1c2.6,3.3 2.5,6.7 -0.1,10.9c-1.7,2.9 -1.8,3.4 -0.5,3.4c2,0 4.6,-5 4.6,-9c0,-3.9 -2.6,-9 -4.5,-9c-0.8,0 -1.5,0.3 -1.5,0.6z" id="svg_104"/>
  <path d="m189.6,345.2c-2.4,3.4 -2.1,12 0.4,14.3c2.6,2.4 3.7,1.3 1.6,-1.7c-2,-2.8 -2.1,-8.8 -0.1,-11.4c0.8,-1 1.5,-2.2 1.5,-2.7c0,-1.5 -1.9,-0.6 -3.4,1.5z" id="svg_105"/>
  <path d="m236,343.9c0,0.5 0.7,1.4 1.5,2.1c2.6,2.2 2.9,7.6 0.7,11.5c-2.5,4.1 -1.1,5.8 1.5,1.8c2.2,-3.3 2.3,-10 0.4,-13.6c-1.4,-2.5 -4.1,-3.7 -4.1,-1.8z" id="svg_106"/>
  <path d="m225.6,361.9c-0.3,0.4 -3.6,1.1 -7.3,1.5c-10,1 -24,5 -26.9,7.7c-3,2.8 -3,5.5 0,15.5c3.9,12.7 9.4,24.6 12.5,27.1c1.9,1.5 10,1.7 15,0.3c2,-0.5 7,-1.7 11.1,-2.6c9.7,-2.1 12,-3.6 12,-7.5c0,-1.7 0.5,-3.9 1,-5c1.2,-2.2 0,-10.9 -2.3,-16.2c-0.8,-1.8 -1.9,-5.4 -2.6,-8.1c-0.6,-2.7 -2,-6.1 -3,-7.5c-1,-1.4 -2.1,-3.4 -2.4,-4.4c-0.7,-1.8 -6.1,-2.5 -7.1,-0.8zm6.2,3.6c1.6,3.4 1.5,3.5 -0.8,3.5c-1.3,0 -2.4,-1 -3,-2.6c-1.3,-3.3 -1.3,-3.4 0.8,-3.4c1.1,0 2.4,1.1 3,2.5zm-1.8,9.7c4.2,10 7,18.6 7,21.8c0,1.6 -3.3,2.6 -20,6.1c-7.3,1.5 -10.6,3.3 -11.4,6.1c-1,3 -2,0.5 -1.2,-2.7c0.4,-1.5 1.5,-2.7 2.9,-2.9c5.1,-1.1 27.2,-6 27.4,-6.1c0.2,-0.1 -4.6,-13.8 -7.8,-22c-1.3,-3.3 -2.4,-6.5 -2.4,-7c-0.1,-1.3 -2.2,-1.1 -16.9,1.6c-11.4,2.1 -15.6,4 -15.6,6.9c0,0.5 0.9,0.1 1.9,-0.9c1.1,-1.1 3.7,-2.4 5.8,-3c5.2,-1.3 22.5,-4.3 22.8,-3.9c0.6,0.6 3.8,8.6 7.1,17.6c2.5,6.7 3,9.4 2.1,9.7c-0.6,0.3 -6.5,1.6 -13.1,3c-12.9,2.8 -15.6,3.8 -15.6,6c0,2.8 -1.5,1.5 -3.3,-2.8c-6.2,-14.1 -9.6,-26.8 -7.9,-29.3c1.4,-2.1 6.7,-4.1 15.2,-5.7c4.7,-0.9 9.4,-1.9 10.5,-2.1c7.7,-1.5 7.8,-1.4 12.5,9.6zm6.3,-0.5c0.9,5.6 0.9,5.8 -0.7,6.1c-0.9,0.2 -2.2,-1.4 -3.5,-4.4c-1.2,-2.5 -2.1,-4.8 -2.1,-5c0,-0.2 1.3,-0.4 2.9,-0.4c2.5,0 2.9,0.4 3.4,3.7zm3.2,10.9c1.6,3.9 1.9,8.5 0.9,14.7c-0.6,3.3 -0.8,3.5 -1.9,2c-0.9,-1.2 -1,-2.2 -0.3,-3c0.6,-0.8 0.3,-3.6 -1.1,-8.8c-2.5,-9 -2.5,-8.5 -0.6,-8.5c0.8,0 2.2,1.6 3,3.6zm-5.2,16.1c-0.7,0.2 -1.9,0.2 -2.5,0c-0.7,-0.3 -0.2,-0.5 1.2,-0.5c1.4,0 1.9,0.2 1.3,0.5zm-5.9,1.4c-0.5,0.9 0.3,1 3,0.5c2.3,-0.4 3.6,-0.3 3.6,0.4c0,0.5 -0.1,1 -0.2,1c-1.9,0.2 -23.9,4.1 -25.5,4.6c-1.5,0.4 -2.3,0.2 -2.3,-0.5c0,-1.4 2.2,-2.3 5.9,-2.6c10.4,-0.8 9.8,-0.6 7.1,-1.4c-2.1,-0.7 -1.7,-0.9 3,-1.8c3,-0.6 5.6,-1.1 5.8,-1.2c0.2,0 0,0.4 -0.4,1zm9.6,1.4c0,0.8 0,1.8 0,2.2c0.1,0.9 -17.2,5.1 -24.2,5.8c-3.2,0.3 -5.8,0.2 -5.8,-0.2c0,-0.8 7.1,-2.5 22.3,-5.4c3.8,-0.7 5.7,-1.5 5.7,-2.5c0,-0.8 0.5,-1.4 1,-1.4c0.6,0 1,0.7 1,1.5z" id="svg_108"/>
  <path d="m195,378.6c0,1.1 0.7,2.9 1.5,4c1.4,1.8 1.5,1.7 0.9,-1.1c-0.8,-3.7 -2.4,-5.7 -2.4,-2.9z" id="svg_109"/>
  <path d="m198.2,387.7c1.3,2.6 2.7,6.2 3.4,8.7c0.5,1.6 1.4,3.1 2,3.3c0.6,0.2 0,-2.6 -1.4,-6.2c-1.4,-3.6 -3,-6.5 -3.5,-6.5c-0.4,0 -0.7,0.3 -0.5,0.7z" id="svg_110"/>
  <path d="m238,364.8c0,0.9 14,2.3 21.5,2.1c1.7,0 13.1,0.3 25.5,0.8l22.5,0.8l-0.1,5.2c-0.1,4 -0.9,6.3 -3.3,9.9c-1.7,2.6 -3.1,5.3 -3.1,6c0,0.7 -0.4,1.4 -0.8,1.6c-1.2,0.4 -8.4,10.1 -17.6,23.6c-4.3,6.2 -8.2,11 -8.7,10.7c-1.2,-0.8 -1.2,-7.5 0.1,-7.5c0.5,0 2.7,-2.6 4.9,-5.8c2.2,-3.1 6.3,-8.9 9.1,-12.7c11.5,-16 17.9,-25.9 18,-27.8c0,-1.7 -2.1,-0.5 -3,1.8c-0.5,1.4 -4.2,7 -8.2,12.6c-7,9.7 -10.7,14.9 -17.7,25.2c-5.1,7.4 -5,7.4 -27.1,7.1c-10.7,-0.2 -28.7,-0.3 -40,-0.4c-11.3,0 -23.2,-0.5 -26.5,-1c-9.9,-1.5 -30.7,-2 -30.2,-0.6c0.6,1.7 30.5,3.3 74.8,4c21.7,0.3 40.2,0.5 41.2,0.6c1,0 1.7,0.8 1.7,1.8c0,1 0.6,2.4 1.3,3.1c1,1.1 -0.2,1.2 -6.7,0.7c-10.8,-1 -95.9,-3.5 -96.8,-3c-0.4,0.3 -4.6,0.2 -9.2,-0.2l-8.4,-0.7l-1,-3.8l-0.9,-3.7l14.1,-14.4c17.7,-17.9 20.9,-21.5 20.4,-22.9c-0.2,-0.6 -1.9,0.6 -3.8,2.8c-7.2,8.1 -9.1,10.1 -20.9,21.7l-12.2,12l0.7,4.5c0.9,6.1 0.9,6.1 5.5,6.1l3.9,0l0,15.1c0,10.7 0.3,15 1.1,14.7c0.8,-0.3 1.2,-5.1 1.3,-14.8l0.1,-14.5l17.5,-0.1c9.6,-0.1 22.5,0.3 28.5,0.7c6.1,0.4 20.5,1.1 32,1.4c11.6,0.3 23.1,0.8 25.6,1.1l4.7,0.6l0.6,7.9c0.4,4.3 0.6,10.9 0.5,14.6c-0.1,3.8 0.2,6.9 0.7,7c0.5,0.2 0.9,-6.3 0.9,-14.7c0,-12.7 0.2,-15 1.5,-15c3.5,-0.1 5.3,-2.3 22.7,-28.3c2.4,-3.7 5,-6.7 5.6,-6.7c0.7,0 0.8,8.5 0.3,28.5c-0.3,15.8 -0.2,28.5 0.2,28.5c1.3,0 2.2,-18 2.2,-42.1c0,-11.6 0.4,-21 0.9,-21.4c0.5,-0.3 2.1,-2.6 3.5,-5.1c2.7,-4.8 3.4,-11.5 1.6,-14.4c-1,-1.5 0.2,-1.5 -54.7,-3.5c-10.3,-0.4 -16.3,-0.3 -16.3,0.3z" id="svg_111"/>
  <path d="m374.2,370.8c-1,1.5 -2.4,4 -3.2,5.7c-0.8,1.6 -4,7.3 -7,12.5c-3.1,5.2 -7.8,14 -10.4,19.5c-4,8.5 -4.7,10.6 -4.1,14c0.9,5.7 1.9,6.5 8.6,6.5l5.8,0l0.3,13.2c0.2,9.7 0.6,13.2 1.6,13.6c1,0.3 1.2,-0.7 0.8,-4.5c-0.3,-2.6 -0.8,-8.7 -1,-13.6l-0.5,-8.7l14.7,-0.1c17.6,-0.2 22.3,-0.2 74,0l40.3,0.1l-0.5,5.2c-0.9,9.3 -1,16.8 -0.3,17.4c1.3,1.3 2.1,-4.9 2.6,-19.4c0.1,-3 0.3,-3.2 4,-3.2c2.1,0 4.4,-0.6 5,-1.4c2.1,-2.5 3.1,-7.8 2.1,-11.1c-0.5,-1.6 -2.1,-8.4 -3.6,-15c-1.4,-6.6 -3.9,-15.9 -5.5,-20.7c-1.6,-4.8 -2.9,-9.4 -2.9,-10.3c0,-1.1 -1.1,-1.5 -3.7,-1.6c-2.1,0 -28.9,-0.2 -59.5,-0.4l-55.8,-0.4l-1.8,2.7zm92.9,0.2l25.7,0l0.5,2.2c0.3,1.3 1.7,5.6 3.1,9.6c1.4,4 4.1,14.3 6,22.8c4.4,19.3 4.3,20 -4.6,20.8c-3.5,0.4 -37.6,0.5 -75.8,0.3l-69.5,-0.3l-0.9,-3.5c-0.7,-2.9 -0.4,-4.5 1.9,-9.5c4.8,-10.2 8.6,-17.5 13.4,-25.3c2.6,-4.2 5.3,-9 6,-10.8c1.8,-4.3 3.9,-6.1 8.1,-6.5c1.9,-0.3 16.3,-0.3 32,-0.2c15.7,0.2 40,0.3 54.1,0.4z" id="svg_112"/>
  <path d="m354,418.3c0,0.9 16.1,1.3 74.5,1.5c46.3,0.2 74.5,0 74.5,-0.6c0,-1.8 -10.9,-2.1 -79.7,-2.1c-54.4,-0.1 -69.3,0.2 -69.3,1.2z" id="svg_113"/>
  <path d="m575.4,368.7l-15.2,0.4l-0.6,3.1c-1.2,6.3 -0.6,10.3 2.2,14.3c2.5,3.8 2.7,4.7 2.9,15.5c0.1,7.3 0.5,11.6 1.2,11.8c0.7,0.2 1.1,-2.8 1.1,-9.5l0,-9.8l2.6,4.5c1.5,2.5 4.6,7.4 6.9,11c2.4,3.6 4.4,6.9 4.6,7.5c0.3,0.5 1.5,2.7 2.8,4.8c1.8,2.9 3.3,4 6.7,4.8l4.4,1.1l0,10c0,7.1 0.3,9.9 1.2,9.6c0.7,-0.3 1.1,-3.8 1.2,-10.3l0.1,-9.8l20.5,0.3c11.3,0.2 34.6,0.3 51.9,0.1l31.4,-0.4l-0.6,8.2c-0.4,6.6 -0.2,8.1 0.9,8.1c1.1,0 1.4,-1.8 1.4,-8.1l0,-8.2l3.9,0.7c2.2,0.3 4.6,0.9 5.5,1.2c2.7,1 2.1,-9 -1,-15.6c-2.6,-5.6 -12.9,-22.5 -15,-24.7c-0.7,-0.7 -3.8,-5.3 -6.9,-10.3c-3.2,-4.9 -6.5,-9.1 -7.4,-9.4c-0.9,-0.2 -18.9,-0.4 -40.1,-0.4c-21.2,0 -41.4,-0.2 -45,-0.4c-3.6,-0.3 -13.3,-0.3 -21.6,-0.1zm63.5,2.8c40.4,0.4 43.6,0.6 44.5,2.2c0.5,1 5.1,7.9 10.1,15.3c5.1,7.4 10.9,16.6 13,20.5c2,3.8 4.1,7.4 4.5,8c0.5,0.5 1,2.7 1.1,4.8l0.4,3.8l-43,-0.2c-23.7,-0.1 -45.2,-0.2 -48,-0.2c-2.7,0.1 -11,-0.1 -18.4,-0.4l-13.3,-0.5l0.6,-3.9c0.5,-3.3 0,-5.1 -3,-10.9c-2,-3.9 -3.9,-7 -4.3,-7c-0.4,0 -2.1,-2.4 -3.8,-5.3c-6.3,-10.6 -14.3,-25.2 -14.3,-25.9c0,-0.7 26.1,-1.7 29,-1c0.8,0.2 21,0.5 44.9,0.7zm-65.5,20.5c2.1,3.6 5.3,8.6 7.1,11.2c5.8,8 8.7,14.6 8,18c-0.7,3 -0.7,3 -4.8,-3.8c-2.3,-3.8 -5.8,-9.3 -7.9,-12.3c-2.1,-3 -3.8,-5.8 -3.8,-6.3c0,-0.5 -2.3,-4.3 -5,-8.5c-5.7,-8.7 -6.5,-10.9 -5.6,-15.8l0.7,-3.6l3.8,7.3c2,4 5.4,10.2 7.5,13.8z" id="svg_114"/>
  <path d="m610.8,417.8c-24.2,0.4 -21.8,2.2 3,2.2c10.8,0 31,0.3 44.7,0.6c48.9,1 51.5,1 51.2,-0.1c-0.2,-0.5 -3,-1 -6.3,-1.1c-49.9,-0.9 -73.4,-1.4 -74.5,-1.7c-0.8,-0.1 -8.9,-0.1 -18.1,0.1z" id="svg_115"/>
  <path d="m748.7,368.7c-3,0.5 -4.7,3.4 -4.7,8.1c0,1.5 1.6,5.6 3.5,9.2l3.5,6.5l0.1,16.8c0,9.2 -0.3,20.1 -0.7,24.2c-0.6,6.3 -0.4,7.5 0.8,7.5c1.3,0 1.6,-3.2 1.7,-22.7c0.1,-12.5 0.3,-22.9 0.5,-23c0.3,-0.4 13.9,17.3 16.8,21.7c0.8,1.4 3.4,4.5 5.6,6.9c3.2,3.4 4.7,4.2 6.6,3.9l2.4,-0.5l-0.5,17c-0.4,10.3 -0.3,16.8 0.3,16.4c0.5,-0.3 1.1,-5.4 1.2,-11.4c0.2,-5.9 0.7,-13.3 1,-16.3l0.7,-5.5l8.3,-0.9c4.5,-0.5 8.2,-1.3 8.2,-1.7c0,-0.5 -5.4,-0.6 -11.9,-0.2l-12,0.6l1,-3.4c1.1,-3.3 1.2,-3.4 6.1,-3c6.7,0.4 15.8,-0.8 15.8,-2.1c0,-0.8 -2.9,-0.9 -9.2,-0.5c-5.1,0.4 -9.8,0.3 -10.3,-0.1c-1.9,-1.4 -12.2,-14.8 -17.8,-23.2c-8.9,-13.4 -13.1,-18.9 -14.4,-19c-2,0 -1.6,0.9 2.5,5.9c2.1,2.5 6.8,9.2 10.5,14.8c3.6,5.5 7.2,10.7 7.9,11.5c0.7,0.7 2.8,3.2 4.6,5.5c2.8,3.6 3.2,4.7 2.6,7.8c-0.3,1.9 -0.9,3.5 -1.3,3.5c-0.6,0 -14.4,-18 -24.8,-32.4c-6.1,-8.4 -7.9,-13 -6.5,-16.7c1.4,-3.5 4.8,-3.9 33.8,-3.9c14.9,0 23.4,-0.4 23.4,-1c0,-1 -49,-1.2 -55.3,-0.3z" id="svg_116"/>
  <path d="m534.4,414.5c-1,1.6 -1.4,3.4 -1,5c0.5,2.1 -0.1,3.2 -3.2,6.3c-2.6,2.4 -4.7,5.8 -6.2,9.8c-1.5,4.2 -3.6,7.5 -6.6,10.5c-5.1,5 -5.6,8.1 -1.9,10.5c1.9,1.2 2.3,2.2 1.9,4c-0.4,1.7 0,3.1 1.1,4.5c1.6,1.7 1.7,2.2 0.5,4.5c-1.2,2.2 -1.2,2.9 0.3,5.2c0.9,1.5 2.4,4.2 3.3,5.9c2,3.8 5.8,4.9 13.5,4c4.8,-0.6 4.9,-0.6 4.9,2.2c0,2.4 -0.6,3.1 -4.3,4.5c-5.8,2.2 -16.2,9 -19.8,12.9c-3.1,3.4 -8.9,16.2 -8.9,19.6c0,2.6 -1.5,2.8 -2.4,0.3c-0.3,-0.9 -1.9,-4.1 -3.5,-7l-3,-5.3l2.5,-5.7c2.4,-5.5 2.8,-9.9 0.9,-9.5c-0.6,0.1 -1.8,0.5 -2.7,0.8c-1.4,0.5 -1.8,0.2 -1.8,-1.2c0,-3.1 -4.2,-8.6 -7.3,-9.4c-2.2,-0.6 -3,-0.3 -4,1.4c-0.8,1.5 -2.2,2.2 -4.2,2.2c-2.2,0 -3,0.5 -3,1.7c0,1 -0.9,2.4 -2,3.2c-1.9,1.4 -1.9,1.5 -0.2,3.3c0.9,1.1 1.7,2.9 1.7,4.2c0,1.6 0.8,2.3 2.9,2.7c2.7,0.6 2.9,0.9 2.4,4c-0.4,2.6 -0.1,4 1.4,5.7c1.1,1.2 2.4,4 2.8,6.1c1.1,6.4 5.3,15.8 8.5,19.3c1.6,1.7 4.9,3.9 7.4,4.8c4.1,1.6 4.6,1.6 7.9,0c1.9,-0.9 5.1,-4 7.3,-7c2.1,-3 4.2,-5.5 4.6,-5.5c0.3,0 0.4,1.8 0.1,3.9c-0.7,4.8 0.5,13.1 1.8,13.1c0.5,0 0.9,-4 0.8,-9.1l-0.1,-9.2l5.1,-7.5c2.8,-4.1 4.9,-7.8 4.5,-8.1c-0.6,-0.6 -2.8,1.8 -8.2,9.3c-1.8,2.5 -3.9,4.6 -4.6,4.6c-2.5,0 -13.6,-5.5 -13.6,-6.7c0,-2.2 6.9,-15.7 9.4,-18.4c1.3,-1.4 6.1,-4.7 10.5,-7.4l8.2,-4.7l12.8,-0.4c10.5,-0.3 13.1,-0.1 14.1,1.1c0.7,0.8 1.8,1.5 2.6,1.5c3,0 8.4,6.4 12.8,15.3c6,12.1 6.1,13.8 1.6,15.3c-4.4,1.5 -5,1.1 -5,-3.4c0,-5.6 -1.1,-11.2 -2.3,-11.2c-0.6,0 -0.7,1.6 -0.3,4.3c0.8,4.4 0.8,25.9 0.1,31.5c-0.3,1.7 -0.1,3.2 0.4,3.2c0.9,0 2.1,-9.5 2.1,-16.5c0,-3.9 0.2,-4.2 3.5,-5.2l3.5,-1.1l0,11.4c0,6.9 0.4,11.4 1,11.4c0.6,0 1,-4.6 1,-11.9c0,-6.9 0.4,-12.2 1,-12.6c1.8,-1.1 1,-4.5 -3.3,-13.8c-5.2,-11 -8.9,-15.5 -16.3,-19.7c-5.3,-2.9 -5.5,-3.2 -5.2,-6.7c0.3,-3.2 0.7,-3.8 3.4,-4.5c2.1,-0.5 4.2,-2.4 6.7,-6c2,-2.9 4.9,-6.1 6.6,-7.1c4.2,-2.5 9.1,-12.6 9.1,-18.9c0,-4 -0.5,-5.4 -3.4,-8.5c-1.8,-2.1 -3.8,-5.4 -4.5,-7.3c-0.6,-1.9 -1.9,-4.4 -2.9,-5.5c-4.5,-5.3 -15.8,-10.6 -22.7,-10.7c-2.2,0 -6.2,-1.1 -8.8,-2.4c-6.3,-3.1 -9.2,-3.1 -11.3,0.1zm12.6,10.1c0,0.8 2.2,3.7 5,6.6c5.6,5.9 5.4,8.2 -0.6,5.2c-2.7,-1.4 -4,-2.9 -4.9,-5.7c-0.7,-2.1 -2.1,-4.7 -3,-5.7c-1,-1.1 -1.5,-2.6 -1.1,-3.6c0.6,-1.5 0.8,-1.5 2.6,0.1c1.1,1 2,2.4 2,3.1zm-8.5,4.6c0.7,3.7 0.6,3.8 -2.2,3.8c-3.4,0 -4.4,0.7 -3.6,2.6c0.3,0.9 1.4,1.1 3.4,0.7c1.8,-0.3 2.9,-0.1 2.9,0.6c0,0.6 0.4,1.1 1,1.1c0.5,0 2.6,1.1 4.6,2.5c2,1.4 4.7,2.5 5.9,2.5c3.8,0 7.2,3.5 7.8,8c0.6,5 1,5.5 4.8,5.6c5.5,0.3 5.9,0.4 5.9,2.3c0,2.4 -1.8,3.8 -5.5,4.3c-2.7,0.3 -3,0.7 -3.7,5c-0.3,2.6 -1.3,5.7 -2.1,6.8c-1.7,2.4 -1.1,6 0.9,6c0.8,0 1.4,1 1.4,2.5c0,2.4 -0.3,2.5 -5.4,2.5c-2.9,0 -6.8,0.3 -8.5,0.6c-2.8,0.6 -3.1,0.4 -3.1,-1.9c0,-3.3 -1,-3.9 -5.1,-2.7c-1.9,0.6 -5.5,0.7 -8.2,0.4c-4,-0.6 -4.8,-1 -5.3,-3.3c-0.4,-1.4 -1.6,-3.6 -2.7,-4.9c-2.1,-2.2 -1.8,-2.6 1.6,-2.2c4.7,0.4 6.5,-5.6 2,-6.6c-4.9,-1 -5.3,-1.3 -5.3,-3.4c0,-1.3 0.7,-2 2,-2c1.1,0 2,-0.7 2,-1.5c0,-0.9 -0.6,-1.5 -1.2,-1.4c-2,0.4 -6.6,-2.2 -7.3,-4c-0.4,-1 0.8,-2.8 3.4,-5.2c2.5,-2.3 5,-6.2 6.7,-10c2.9,-7.1 5.5,-10.8 8.7,-12.6c2.7,-1.4 3.4,-0.8 4.2,3.9zm-13,38.8c0.3,0.5 -0.3,1 -1.4,1c-1.2,0 -2.1,-0.5 -2.1,-1c0,-0.6 0.6,-1 1.4,-1c0.8,0 1.8,0.4 2.1,1zm-31.5,24.5c1.2,1.9 2,5 2,7.4c0,4.7 1.1,5.2 3,1.6c0.7,-1.4 1.7,-2.5 2.2,-2.5c1.2,0 0.2,3.2 -2.8,8.8l-2.3,4.4l2.4,3.6c1.4,2 2.5,4 2.5,4.5c0,0.4 1.2,2.5 2.6,4.7c1.7,2.6 2.4,4.6 1.9,5.9c-0.9,3 1.3,2.7 2.5,-0.3c1.3,-3.6 2.2,-3.7 7.8,-0.9l5.1,2.5l-1.6,2.7c-3.1,5 -7.7,9.1 -10,9.1c-3.1,0 -8.3,-2.7 -10.6,-5.4c-3.2,-3.9 -6.5,-11 -7.7,-17.1c-0.6,-3.3 -1.9,-6.6 -2.8,-7.3c-1.1,-0.8 -1.7,-2.8 -1.7,-5.4c0,-3.6 -0.3,-4.3 -2.4,-4.8c-1.4,-0.3 -2.7,-1.2 -2.9,-1.9c-0.3,-0.9 0.2,-1.1 1.7,-0.6c3,0.9 2.7,-1.3 -0.4,-2.5c-3.6,-1.4 -3.1,-3.1 0.6,-2.3c2.5,0.5 3.1,0.3 2.7,-0.8c-0.2,-0.8 -1.4,-1.5 -2.6,-1.7c-1.2,-0.2 -2.2,-0.7 -2.2,-1.2c0,-2 2,-1.8 5.5,0.5c4.3,3 6.3,2.4 4.1,-1.1c-0.9,-1.3 -1.6,-2.8 -1.6,-3.3c0,-1.9 3,0.1 5,3.4zm66,-3.6c0,2 -7.7,2.8 -12.8,1.4c-1.8,-0.4 -2,-0.8 -1,-1.4c1.8,-1.2 13.8,-1.1 13.8,0z" id="svg_117"/>
  <path d="m531.6,442.6c-0.3,0.9 -0.6,2.9 -0.6,4.5c0,4 2.9,3.9 3.7,-0.1c0.5,-2.8 0.7,-2.9 2.3,-1.5c3.4,3 4.3,0.8 1,-2.5c-2.4,-2.4 -5.6,-2.6 -6.4,-0.4z" id="svg_118"/>
  <path d="m540,455c0,0.5 1.1,1 2.5,1c1.4,0 2.5,-0.5 2.5,-1c0,-0.6 -1.1,-1 -2.5,-1c-1.4,0 -2.5,0.4 -2.5,1z" id="svg_119"/>
  <path d="m750.6,442.8c-0.3,0.6 -0.1,1.4 0.5,1.7c1.5,1 2.5,-0.3 1.2,-1.6c-0.7,-0.7 -1.3,-0.7 -1.7,-0.1z" id="svg_120"/>
  <path d="m658,443.7c-6.3,0.6 -19.4,3.5 -22.3,5c-3.1,1.5 -5,5.4 -4.5,9.1l0.3,2.4l-13.1,-0.1l-13,-0.2l-1.2,2.6c-2.1,4.6 -1.5,13.7 1.3,19l2.6,4.8l-1.1,18.6c-1.1,18.1 -2.1,29.6 -3.5,40c-0.4,3.2 -0.3,5.1 0.3,5.1c1.5,0 2.1,-3.7 3.2,-18c0.5,-6.9 1.4,-18.7 2,-26.4c0.6,-7.6 0.9,-14.6 0.6,-15.5c-0.4,-1.1 -0.2,-1 0.9,0.3c0.8,1.1 1.5,2.4 1.5,2.8c0,0.5 2,4.2 4.5,8.2c2.5,4.1 4.5,7.9 4.5,8.5c0,0.6 0.4,1.1 0.9,1.1c0.5,0 1.8,1.6 3,3.5c1.1,1.9 2.4,3.5 2.8,3.4c0.4,-0.1 1.9,-0.1 3.1,0l2.4,0.1l-0.6,16c-0.4,10.6 -0.3,16 0.4,16c0.6,0 1,-3.4 1.1,-8.3c0,-4.5 0.1,-11.6 0.2,-15.7l0.2,-7.5l60.8,0.1c33.4,0.1 61.1,0.4 61.4,0.8c0.4,0.3 0,5.4 -0.7,11.3c-2.2,18.2 -2.2,19.3 -1.2,19.3c0.5,0 1.7,-7 2.7,-15.5l1.9,-15.5l3.8,0c3.2,0 4,-0.4 4.8,-2.6c2.2,-5.7 1.2,-9.6 -3.9,-15.2c-6.2,-6.8 -7.5,-5.3 -1.4,1.7c4.2,4.8 4.5,5.5 4,9.2c-0.3,2.3 -0.8,4.3 -1,4.6c-1,0.9 -132.3,-0.2 -135.9,-1.2c-1.5,-0.4 -3,-1.5 -3.3,-2.4c-0.3,-1 -1.3,-2.6 -2.3,-3.7c-4.2,-4.6 -19.2,-33.6 -19.2,-37.2c0,-1.5 0.3,-4.4 0.6,-6.5l0.7,-3.8l12.7,0.2l12.8,0.2l0.6,2.8c0.6,3.1 8.9,20.4 15,31.2c2.7,4.8 4.5,6.9 6.3,7.3c3.2,0.8 14.8,0 32.1,-2.3c12.4,-1.6 14.6,-2.3 12.2,-3.8c-1.5,-0.9 -1.2,-7.2 0.4,-10.3c1.3,-2.6 1.1,-3.4 -4.4,-14.5l-5.8,-11.7l24.9,0c22.5,0 24.9,0.2 25.8,1.7c0.5,1 1.3,1.5 1.6,1.1c1.2,-1.2 -0.3,-3.8 -2.7,-4.7c-2.2,-0.8 -41.9,-0.5 -48.5,0.3c-2.3,0.3 -3.3,0 -3.7,-1.2c-0.3,-0.9 -2,-4.4 -3.8,-7.7c-2.6,-4.8 -3.9,-6.1 -6.3,-6.6c-3.2,-0.7 -11.7,-0.8 -17.5,-0.2zm14.4,1.9c4.6,0.7 4.8,0.9 7.8,6.8c1.7,3.3 4.2,7.8 5.7,10.1c3,4.6 10.1,18.8 9.6,19.3c-0.2,0.2 -8.1,0.6 -17.7,0.8c-12,0.4 -18.2,1 -20.2,2c-3.1,1.5 -4.3,1.8 -3.3,0.7c0.4,-0.3 -1.7,-5.2 -4.6,-10.7c-7.9,-15 -11.9,-21.7 -12.4,-21.2c-0.4,0.3 0.8,2.9 4.6,9.6c2.1,3.8 3.7,7 6.8,13.5c1.9,3.8 3.8,7.7 4.3,8.7c0.5,0.9 0.5,2.9 0,4.7c-0.5,1.8 -0.5,4.4 0.1,6.3c1.2,4.3 1.1,5.4 -0.2,4.1c-1.5,-1.5 -2.1,-2.6 -11.2,-20.3c-7.6,-15 -7.8,-15.4 -7.5,-21.8l0.3,-6.5l6.4,-2.4c5.3,-2 11.8,-3 25.2,-4.2c0.9,0 3.7,0.2 6.3,0.5zm24,40.2c-0.4,0.9 -1,4.2 -1.3,7.2l-0.6,5.5l-10,1.1c-5.5,0.6 -14.1,1.4 -19.1,1.8l-9.1,0.7l-0.7,-3.2c-1.3,-6.6 -0.7,-10.8 1.7,-12.1c2.5,-1.3 11.8,-2.2 28.6,-2.5c10.4,-0.3 11.2,-0.1 10.5,1.5z" id="svg_121"/>
  <path d="m651.5,448.5c-0.5,0.2 -2.9,0.9 -5.2,1.5c-2.6,0.6 -4.3,1.7 -4.3,2.5c0,2 3.2,8.5 4.2,8.5c0.5,0 -0.1,-1.9 -1.3,-4.1c-1.4,-2.8 -1.7,-4.5 -1,-5.2c1.7,-1.7 27.4,-2.9 30,-1.3c1.2,0.8 6.5,11.5 6,12.1c-0.4,0.3 -7,1.1 -14.7,1.7c-13.3,1.1 -14.2,1.1 -16.2,-0.7c-1.1,-1 -2.2,-1.6 -2.5,-1.3c-0.3,0.2 0.5,1.4 1.8,2.5c2.1,1.9 2.6,1.9 17.6,0.6c8.5,-0.7 15.7,-1.6 16,-1.9c0.3,-0.3 -1.2,-3.9 -3.3,-8l-3.8,-7.4l-11.1,0.1c-6.2,0 -11.6,0.2 -12.2,0.4z" id="svg_122"/>
  <path d="m667.8,473.7c-1.6,0.2 -2.8,0.9 -2.8,1.5c0,0.6 1.2,0.8 3.1,0.4c1.7,-0.3 5.3,-0.6 8,-0.6c2.7,0 4.9,-0.5 4.9,-1c0,-1 -7.6,-1.1 -13.2,-0.3z" id="svg_123"/>
  <path d="m673,478l-7.5,0.6l8.3,0.2c4.9,0.1 8.2,-0.2 8.2,-0.8c0,-0.6 -0.3,-0.9 -0.7,-0.8c-0.5,0.1 -4.2,0.4 -8.3,0.8z" id="svg_124"/>
  <path d="m106,458.7c-0.8,0.3 -3.9,3.1 -6.8,6.2c-3,3.1 -10.8,11.2 -17.5,18.1c-22.5,23.1 -24.7,26.4 -22.1,33c1.5,3.8 1.8,4 6,4l4.4,0l0.1,5.2c0,2.9 0,9.7 -0.1,15c-0.1,6.3 0.3,9.8 0.9,9.8c1.1,0 1.8,-12.2 1.3,-23.8c-0.2,-4.5 0.1,-6.2 1,-6.2c3,-0.1 65.5,0 92.5,0.2c33.9,0.3 30.2,-1.4 30.4,14.3c0.1,5.5 0.5,11.3 0.9,13c0.5,1.7 0.7,-3.5 0.5,-12.3l-0.2,-15.2l5.2,0c4.9,0 5.5,-0.3 9.8,-4.8c5.5,-5.6 13.3,-15.8 20.2,-26.4c5,-7.7 7.3,-9.8 6.1,-5.6c-0.3,1.3 -0.9,16.8 -1.2,34.5c-0.5,24 -0.4,32.3 0.5,32.3c0.8,0 1.1,-4.9 1.2,-16.8c0.1,-15.9 0.3,-23.9 1.3,-46.9c0.4,-9.7 0.6,-10.5 3.5,-14.2c4.3,-5.5 4,-11.4 -0.7,-12.6c-3,-0.7 -135,-1.5 -137.2,-0.8zm137.1,2.8c4.3,1.4 2.8,4.4 -17.4,33.7c-6.8,9.9 -15.8,20.7 -17.4,20.7c-2,0.1 -1,-4.1 1.5,-6.9c2.3,-2.5 6,-7.5 15.7,-21.5c2.8,-4 6.3,-8.8 7.8,-10.6c6.4,-7.7 9.6,-12.4 8.6,-12.8c-0.6,-0.2 -1.5,0.3 -2,1c-1,1.6 -4.2,5.8 -8.4,10.8c-3.6,4.3 -6.3,8.1 -13.3,18.6c-3,4.4 -6.9,9.7 -8.8,11.7l-3.4,3.7l-71.5,-0.2c-59,-0.2 -71.5,0 -71.5,1.1c0,1.1 6.3,1.3 34.3,1.1c18.8,-0.1 50.7,-0.2 70.8,-0.1l36.7,0.2l0.6,2.6c0.4,1.5 0.5,2.8 0.3,3c-0.5,0.5 -19,0.5 -94.2,0.1l-49,-0.3l-1.2,-2.4c-0.7,-1.4 -1,-3.4 -0.6,-4.5c0.8,-2.8 8.3,-11.5 22,-25.6c6.6,-6.8 14.7,-15.2 17.9,-18.5l5.9,-6.1l67.3,0.3c37,0.2 68.2,0.6 69.3,0.9z" id="svg_125"/>
  <path d="m352.9,460.4c-3.3,5.1 -8.6,17.1 -16.6,37.5c-3.9,10 -4.4,12 -3.8,16.3l0.7,4.8l4.1,0.2c2.3,0.1 5.1,0.2 6.2,0.2c1.8,0.1 2.1,1 2.6,11.1c0.4,6.1 0.7,12.9 0.8,15.2c0,2.4 0.6,4.3 1.2,4.3c1,0 0.8,-9.3 -0.3,-23c-0.1,-0.8 0,-2.7 0,-4.1l0.2,-2.7l21.8,0c85.2,-0.1 84.2,-0.1 84.2,-1.7c0,-1.4 -6.8,-1.5 -59,-1.3c-64.4,0.3 -60.9,0.6 -61,-5.3c0,-4.3 17.4,-46.5 20.6,-49.8c1,-1.1 4.1,-1.5 12.9,-1.5c6.3,0 11.7,0.3 12,0.6c0.4,0.3 -0.5,2.8 -1.8,5.5c-1.3,2.6 -3,6.5 -3.6,8.5c-1,3 -1.8,3.8 -3.7,3.8c-2.8,0 -4.4,2.7 -6.9,11.8c-2.1,7.5 -1.4,8.8 5.5,10.3c2.3,0.5 4.9,1.6 5.7,2.4c1.9,2 9.2,2 9.9,0c0.4,-0.8 1.2,-1.5 2,-1.5c0.8,0 1.4,-0.4 1.4,-0.8c0,-0.5 1.2,-1.5 2.7,-2.3c1.5,-0.8 3.6,-2.2 4.6,-3.2c2.2,-2.2 3.6,-1.5 3,1.7c-0.7,3.3 2.1,4.6 11.2,5.3l7.2,0.6l2.7,-3.9c3.7,-5.5 3.5,-9 -0.6,-10.7c-4.8,-1.9 -14.1,-4 -16.3,-3.6c-1.1,0.3 -2.2,1.7 -2.7,3.7c-0.7,2.5 -1.4,3.2 -3.3,3.2c-1.4,0 -2.5,0.4 -2.5,1c0,0.5 -0.6,1 -1.3,1c-0.7,0 -2.8,1.2 -4.7,2.8c-4.5,3.5 -8.8,5.7 -9.7,4.9c-0.3,-0.4 0,-1.3 0.9,-2c2.4,-1.9 5.9,-14.6 4.6,-16.7c-0.8,-1.2 -0.6,-3 0.5,-6.6c0.9,-2.7 1.9,-7.4 2.3,-10.4l0.6,-5.5l49.2,0.2c27,0.2 51.4,0.5 54.3,0.9l5.2,0.5l2.2,10c1.3,5.9 2.7,9.9 3.4,9.9c0.9,0 0.6,-2.8 -1.1,-10.1c-1.3,-5.6 -2.6,-10.5 -2.9,-10.9c-1,-1.6 -19.8,-2.1 -81.1,-2.4c-62,-0.3 -62.1,-0.3 -63.5,1.8zm29.5,4.3c-0.4,1.6 -2,5.7 -3.5,9.2c-1.6,3.5 -2.9,6.5 -2.9,6.7c0,0.2 1.1,0.4 2.5,0.4c2.3,0 2.5,0.3 1.9,2.7c-1.7,6.9 -1.9,7.1 -6.9,6.3c-3.4,-0.5 -5,-0.3 -6.1,0.7c-2,2 -1.7,4.4 0.6,5c2.6,0.7 2.6,3.3 0,3.3c-2.8,0 -4.1,-3 -2.9,-7.1c1.9,-6.4 4.3,-10.3 6.9,-10.9c1.7,-0.4 2.9,-1.8 4,-4.6c0.8,-2.2 2.4,-6.3 3.5,-9.2c2.1,-5.5 4,-7.1 2.9,-2.5zm3.6,-0.6c0,0.5 -0.4,0.9 -1,0.9c-0.5,0 -1,-0.7 -1,-1.6c0,-0.8 0.5,-1.2 1,-0.9c0.6,0.3 1,1 1,1.6zm-5.9,14.2c-1.3,1.3 -1.5,-0.1 -0.4,-3c0.7,-1.7 0.8,-1.7 1.1,0.1c0.2,1 -0.1,2.3 -0.7,2.9zm0.4,14.8c-2.4,7.1 -3.2,5.3 -0.9,-2c1.1,-3.3 2,-5.4 2.2,-4.6c0.2,0.9 -0.4,3.8 -1.3,6.6zm35.2,-3c4.1,1.7 4.3,2 3.1,4.1c-0.7,1.3 -1.4,2.4 -1.4,2.6c-0.1,0.2 -2,-0.5 -4.3,-1.4c-2.3,-0.9 -4.4,-1.4 -4.7,-1.1c-0.7,0.7 6.2,3.7 8.3,3.7c1.3,0 1.3,0.3 0.2,1.6c-1.1,1.3 -2.5,1.5 -7.8,0.9c-3.5,-0.4 -7,-0.9 -7.8,-1.2c-2.1,-0.8 -1.5,-3.3 1.2,-4.3c2.7,-1 3.5,-5 1,-5c-0.8,0 -1.5,-0.7 -1.5,-1.5c0,-1.3 0.9,-1.4 4.7,-0.9c2.5,0.3 6.6,1.4 9,2.5zm-45.6,3.2c-1.3,1.3 -2.6,0.3 -1.6,-1.2c0.3,-0.6 1.1,-0.8 1.7,-0.5c0.6,0.4 0.6,1 -0.1,1.7zm33.1,-0.8c0,0.5 -0.5,1.1 -1.1,1.3c-0.6,0.2 -1.1,-0.4 -1.1,-1.3c0,-0.9 0.5,-1.5 1.1,-1.3c0.6,0.2 1.1,0.8 1.1,1.3zm-27.5,3.1c0.1,4 -1.1,3.5 -2.1,-0.9c-0.4,-1.9 -0.2,-2.7 0.7,-2.7c0.8,0 1.3,1.3 1.4,3.6zm-2.7,1.4c0,0.5 -0.4,1 -1,1c-0.5,0 -1,-0.5 -1,-1c0,-0.6 0.5,-1 1,-1c0.6,0 1,0.4 1,1z" id="svg_126"/>
  <path d="m408.4,491.7c0.3,0.4 2.2,1.2 4.1,1.9c4.1,1.4 5.9,-0.1 2,-1.6c-3,-1.1 -7.2,-1.3 -6.1,-0.3z" id="svg_127"/>
  <path d="m270,464.1c0,0.5 0.5,0.7 1,0.4c0.6,-0.3 1,-0.8 1,-1.1c0,-0.2 -0.4,-0.4 -1,-0.4c-0.5,0 -1,0.5 -1,1.1z" id="svg_128"/>
  <path d="m607.5,466c-0.4,0.7 0.2,2.5 1.4,4.1c1.1,1.5 2.1,3.3 2.1,3.8c0,0.5 1.8,3.6 3.9,6.9c2.2,3.2 5.3,8.8 7,12.4c1.7,3.5 3.4,6.8 3.8,7.1c1.3,1.3 3.2,7.9 2.6,9.3c-0.2,0.7 -0.1,1.9 0.3,2.5c0.5,0.9 1,0.6 1.6,-1l0.8,-2.2l25.2,0.5c48.9,1.1 86.8,1.3 86.8,0.4c0,-0.4 -3.5,-0.9 -7.7,-0.9c-4.3,-0.1 -23.3,-0.3 -42.3,-0.5c-19,-0.2 -37,-0.5 -40,-0.7c-3,-0.1 -9.2,-0.4 -13.8,-0.5c-6.9,-0.2 -8.4,-0.5 -8.9,-2c-1.3,-3.8 -10.6,-22.4 -11.9,-23.7c-0.8,-0.8 -3,-4.4 -5,-8.2c-4.2,-8 -4.9,-8.9 -5.9,-7.3z" id="svg_129"/>
  <path d="m722.2,474.7c3.9,7.6 4,8.3 1.7,12.9c-2.5,5.3 -2,6.6 1,2.8c2.6,-3.3 2.9,-10.9 0.5,-14.2c-1.4,-2 -4.1,-3.2 -3.2,-1.5z" id="svg_130"/>
  <path d="m746.5,477c-2.2,4.2 -1.9,10.2 0.6,13.4c1.1,1.4 2.5,2.3 3,2c0.6,-0.4 0.3,-1.4 -0.7,-2.5c-2.3,-2.6 -2.4,-10.1 -0.1,-12.6c2.1,-2.4 2.2,-3.3 0.2,-3.3c-0.8,0 -2.1,1.3 -3,3z" id="svg_131"/>
  <path d="m793,474.7c0,0.3 0.7,1.5 1.6,2.5c2.1,2.3 2.2,9 0,12.2c-0.9,1.5 -1.2,2.7 -0.6,3.1c0.5,0.3 1.9,-0.9 3,-2.7c2.5,-3.9 2.2,-10.8 -0.5,-13.8c-1.8,-2 -3.5,-2.6 -3.5,-1.3z" id="svg_132"/>
  <path d="m513,486.9c0,0.5 0.7,1.1 1.5,1.5c0.8,0.3 1.5,1.5 1.5,2.7c0,1.1 0.5,1.9 1.2,1.7c1.7,-0.6 1.8,-3.6 0.1,-5.3c-1.6,-1.6 -4.3,-2 -4.3,-0.6z" id="svg_134"/>
  <path d="m505,488.8c0,0.4 0.9,1.3 2,2c1.5,0.9 1.9,1.9 1.4,3.7c-0.4,1.5 -0.2,2.5 0.5,2.5c1.8,0 1.4,-7.7 -0.5,-8.4c-2.1,-0.8 -3.4,-0.8 -3.4,0.2z" id="svg_135"/>
  <path d="m458.2,495c-1.7,2.8 -1.6,11.5 0.3,13c2.1,1.7 3.2,0.4 1.7,-2c-1.6,-2.7 -1.5,-7.2 0.3,-9.6c1.8,-2.4 1.9,-3.4 0.2,-3.4c-0.7,0 -1.8,0.9 -2.5,2z" id="svg_136"/>
  <path d="m467.2,497c-1.5,2.5 -1.5,5 0.2,7.2c2.2,3 3.9,2.2 2.2,-1.1c-1.3,-2.5 -1.3,-3.1 -0.1,-4.7c1.8,-2.4 1.9,-3.4 0.2,-3.4c-0.7,0 -1.8,0.9 -2.5,2z" id="svg_137"/>
  <path d="m338.7,509.8c-0.9,0.2 -1.7,0.7 -1.7,1.1c0,0.9 44.6,2.5 45.9,1.6c1.3,-0.8 48.5,-0.8 56.9,0c6,0.6 7.2,0.5 7.2,-0.7c0,-1.3 -3.3,-1.6 -19,-2.2c-10.4,-0.4 -19.4,-0.5 -19.9,-0.2c-0.8,0.5 -38.7,0.7 -58.7,0.3c-4.9,-0.1 -9.8,-0.1 -10.7,0.1z" id="svg_138"/>
  <path d="m744.7,509.7c-0.4,0.6 3.2,1.3 9.4,1.7c9.1,0.6 12,0.4 10.8,-0.8c-1,-1 -19.7,-1.8 -20.2,-0.9z" id="svg_139"/>
  <path d="m463.2,511.1c0.2,0.6 0.8,1 1.3,1c0.5,0 1.1,-0.4 1.3,-1c0.2,-0.6 -0.4,-1.1 -1.3,-1.1c-0.9,0 -1.5,0.5 -1.3,1.1z" id="svg_140"/>
  <path d="m458.5,519c-0.8,1.3 2,2.4 4.1,1.6c0.8,-0.3 1.2,-1 0.9,-1.6c-0.8,-1.3 -4.2,-1.3 -5,0z" id="svg_141"/>
  <text fill="#000000" font-family="Serif" font-size="18" id="svg_142" stroke-width="0" text-anchor="middle" x="398" xml:space="preserve" y="105">わすれ　ないで</text>
  <text fill="#000000" font-family="Serif" font-size="18" id="svg_143" stroke-width="0" text-anchor="middle" transform="matrix(1 0 0 1 0 0)" x="563.43" xml:space="preserve" y="105">ください。</text>
  <text fill="#000000" font-family="Monospace" font-size="20" id="svg_144" stroke-width="0" text-anchor="middle" transform="matrix(1 0 0 1 0 0)" x="398" xml:space="preserve" y="75">Wasurenaide</text>
  <text fill="#000000" font-family="Monospace" font-size="20" id="svg_145" stroke-width="0" text-anchor="middle" x="563.43" xml:space="preserve" y="75">kudasai</text>
  <text fill="#000000" font-family="Monospace" font-size="20" id="svg_146" stroke-width="0" text-anchor="middle" x="213" xml:space="preserve" y="212">例）</text>
  <text fill="#000000" font-family="Monospace" font-size="20" id="svg_147" stroke-width="0" text-anchor="middle" x="205" xml:space="preserve" y="243">b</text>
  <text fill="#000000" font-family="Monospace" font-size="20" id="svg_148" stroke-width="0" text-anchor="middle" x="601" xml:space="preserve" y="248">４</text>
  <text fill="#000000" font-family="Monospace" font-size="20" id="svg_149" stroke-width="0" text-anchor="middle" x="153" xml:space="preserve" y="359">１</text>
  <text fill="#000000" font-family="Monospace" font-size="20" id="svg_150" stroke-width="0" text-anchor="middle" x="47" xml:space="preserve" y="322">２</text>
  <text fill="#000000" font-family="Monospace" font-size="20" id="svg_151" stroke-width="0" text-anchor="middle" x="710" xml:space="preserve" y="490">３</text>
 </g>
</svg>
