<?xml version="1.0" ?><!-- Uploaded to: SVG Repo, www.svgrepo.com, Generator: SVG Repo Mixer Tools -->
<svg width="800px" height="800px" viewBox="0 0 64 64" data-name="Layer 1" id="Layer_1" xmlns="http://www.w3.org/2000/svg"><defs><style>.cls-1{fill:#190933;}</style></defs><title/><path class="cls-1" d="M14,17.73a.56.56,0,0,0,.27-.08.5.5,0,0,0,.15-.69A5.49,5.49,0,0,1,22,9.37a.5.5,0,0,0,.69-.15.51.51,0,0,0-.15-.7,6.5,6.5,0,0,0-9,9A.54.54,0,0,0,14,17.73Z"/><path class="cls-1" d="M19,19.5a5.24,5.24,0,0,1-1.71-.28.52.52,0,0,0-.64.32.5.5,0,0,0,.32.63,6.39,6.39,0,0,0,2,.33A6.51,6.51,0,0,0,25.5,14a6.39,6.39,0,0,0-.33-2,.5.5,0,0,0-.63-.32.52.52,0,0,0-.32.64A5.24,5.24,0,0,1,24.5,14,5.51,5.51,0,0,1,19,19.5Z"/><path class="cls-1" d="M19,16.5A2.5,2.5,0,1,0,16.5,14,2.5,2.5,0,0,0,19,16.5Zm0-4A1.5,1.5,0,1,1,17.5,14,1.5,1.5,0,0,1,19,12.5Z"/><path class="cls-1" d="M56.25,26.57a.49.49,0,0,0-.68.18L52,33.05l-1.55-2.33a.5.5,0,1,0-.84.56l2,3a.51.51,0,0,0,.42.22h0a.49.49,0,0,0,.41-.25l4-7A.49.49,0,0,0,56.25,26.57Z"/><path class="cls-1" d="M61,38H59.82A3,3,0,0,0,60,37V17a3,3,0,0,0-3-3H49a3,3,0,0,0-3,3v1a1,1,0,0,0-1,1v2a1,1,0,0,0,1,1V37a3,3,0,0,0,.18,1H31.5V32H32a1,1,0,0,0,1-1h2a3,3,0,0,0,3-3V3a3,3,0,0,0-3-3H3A3,3,0,0,0,0,3V28a3,3,0,0,0,3,3H14a29.9,29.9,0,0,1-1.64,7H3a3,3,0,0,0-1,5.82V61a3,3,0,0,0,6,0V52H25a3,3,0,0,0,3-3V44h2.5v8a11.5,11.5,0,0,0,23,0V44H56V61a3,3,0,0,0,6,0V43.82A3,3,0,0,0,61,38ZM48,17a1,1,0,0,1,1-1h8a1,1,0,0,1,1,1v.3h-.5a1.92,1.92,0,0,0-1.49.76c-.28.3-.43.44-.76.44h-4.5c-.33,0-.48-.14-.76-.44a1.92,1.92,0,0,0-1.49-.76H48Zm0,20V18.3h.5c.33,0,.48.14.76.44a1.92,1.92,0,0,0,1.49.76h4.5a1.92,1.92,0,0,0,1.49-.76c.28-.3.43-.44.76-.44H58V37a1,1,0,0,1-1,1H49A1,1,0,0,1,48,37Zm1,3h2a1,1,0,0,0,1,1h.5v1h-21V40ZM30.5,38H25.69a29.9,29.9,0,0,1-1.64-7H29a1,1,0,0,0,1,1h.5ZM36,28a1,1,0,0,1-1,1H20.48a2.48,2.48,0,0,0,1-2A2.53,2.53,0,0,0,21,25.5H36ZM19,25.5A1.5,1.5,0,1,1,17.5,27,1.5,1.5,0,0,1,19,25.5ZM3,2H35a1,1,0,0,1,1,1V24.5H2V3A1,1,0,0,1,3,2ZM2,28V25.5H17A2.53,2.53,0,0,0,16.5,27a2.48,2.48,0,0,0,1,2H3A1,1,0,0,1,2,28Zm14,3H22a29.5,29.5,0,0,0,1.53,7H14.43A29.5,29.5,0,0,0,16,31ZM6,51v6.5H4V44H6ZM5,62a1,1,0,0,1-1-1V58.5H6V61A1,1,0,0,1,5,62ZM26,49a1,1,0,0,1-1,1H8V44H26Zm1-7H3a1,1,0,0,1,0-2H30.5v2ZM52.5,52a10.5,10.5,0,0,1-21,0V44h21ZM60,57.5H58V44h2ZM59,62a1,1,0,0,1-1-1V58.5h2V61A1,1,0,0,1,59,62Zm2-20H53.5V41H54a1,1,0,0,0,1-1h6a1,1,0,0,1,0,2Z"/><path class="cls-1" d="M17,48.5A1.5,1.5,0,1,0,15.5,47,1.5,1.5,0,0,0,17,48.5Zm0-2a.5.5,0,1,1-.5.5A.5.5,0,0,1,17,46.5Z"/></svg>