<?xml version="1.0" encoding="UTF-8"?>
<svg width="100px" height="100px" viewBox="0 0 100 100" xmlns="http://www.w3.org/2000/svg" xmlns:xlink="http://www.w3.org/1999/xlink" version="1.1">
 <!-- Generated by Pixelmator Pro 2.0.3 -->
 <path id="book2" d="M60.34 99.1 C48.64 99.54 36.613 99.253 24.895 99.1 23.13 98.639 21.469 98.078 19.741 97.581 19.516 96.298 18.003 96.296 17.318 95.464 17.455 91.205 17.14 86.991 17.318 82.739 17.418 80.369 17.725 78.067 17.623 75.773 17.523 73.528 17.202 71.361 17.015 69.105 15.89 55.535 17.076 41.32 17.015 26.993 17.766 24.21 17.136 20.048 18.534 17.907 20.248 17.507 20.034 19.025 20.956 19.422 24.074 17.189 30.19 17.948 34.587 16.998 L43.069 16.998 C44.354 16.782 45.672 17.111 46.704 17.907 46.445 15.02 47.152 13.102 47.616 10.937 49.907 9.999 53.698 10.56 56.096 9.727 57.747 9.832 59.559 9.776 61.372 9.722 65.499 9.596 69.627 9.47 71.853 11.242 72.745 13.28 72.467 16.481 72.764 19.116 75.412 18.877 78.042 18.474 80.639 17.907 83.939 17.74 86.107 17.44 87.607 19.422 87.74 22.183 86.724 23.792 86.392 26.086 L86.392 34.569 C88.58 49.369 87.628 66.035 87.303 82.133 86.935 84.016 88.756 83.71 88.817 85.162 88.902 86.462 87.892 86.662 88.217 88.192 88.258 89.768 88.781 90.859 88.817 92.434 88.858 93.689 88.129 94.167 87.607 94.856 87.807 96.165 87.085 96.556 86.697 97.282 85.294 97.553 83.879 97.753 82.456 97.882 81.699 98.134 81.267 98.713 80.336 98.793 80.036 99.506 78.588 99.065 78.214 99.702 76.292 99.662 74.308 99.754 72.332 99.846 70.683 99.922 69.04 99.999 67.446 99.999 65.045 100.076 62.646 99.773 60.34 99.1 Z M65.491 92.736 L74.882 92.736 C76.129 91.965 76.197 90.014 77.607 89.405 78.044 87.819 79.65 87.405 80.337 86.071 81.014 85.786 81.63 85.375 82.154 84.861 82.896 84.593 83.902 84.587 83.972 83.648 83.43 66.516 83.186 49.084 81.548 33.054 78.079 31.07 74.73 28.963 75.49 22.754 75.135 22.734 74.779 22.734 74.424 22.754 73.754 22.883 73.06 22.777 72.458 22.454 71.939 23.192 72.765 24.615 72.458 26.089 L72.458 39.721 C72.622 40.895 71.918 41.2 72.158 42.448 71.858 45.178 73.018 49.37 70.944 50.324 68.207 50.032 67.336 47.879 65.189 46.991 63.97 44.982 62.056 43.666 60.645 41.842 59.473 41.882 59.445 43.071 58.525 43.356 57.861 43.918 57.152 44.424 56.404 44.869 55.592 46.636 54.682 48.356 53.679 50.022 53.028 50.686 52.737 51.705 51.857 52.141 51.41 52.299 51.095 52.59 50.648 52.749 50.866 53.457 50.323 53.407 49.78 53.357 49.565 53.325 49.346 53.325 49.131 53.357 48.174 52.902 48.206 51.457 48.231 50.024 47.976 48.625 47.873 47.203 47.924 45.782 47.992 42.782 47.16 40.691 47.324 37.604 46.913 32.154 46.862 26.348 46.716 20.639 45.483 21.192 44.122 21.399 42.78 21.239 37.34 20.324 31.503 21.419 26.117 21.544 24.482 21.222 22.864 20.818 21.27 20.331 21.251 20.144 21.222 19.973 20.97 20.031 L20.97 23.362 C21.937 27.748 21.912 33.124 21.876 38.513 21.717 39.686 22.418 39.992 22.176 41.238 21.899 54.077 22.304 66.919 23.387 79.714 23.012 82.364 23.058 85.441 22.176 87.593 21.615 88.444 21.62 89.861 20.362 90.016 20.592 91.659 19.881 92.363 20.062 93.952 22.53 94.199 23.719 93.166 25.816 93.046 38.355 93.708 53.626 94.973 65.49 92.732 Z M83.667 88.797 C82.314 89.973 80.732 90.915 79.73 92.435 L84.575 92.435 C84.749 91.053 84.04 90.547 84.275 89.101 84.221 88.895 84.023 88.761 83.812 88.787 83.764 88.786 83.715 88.788 83.667 88.793 Z M68.52 41.54 C68.479 40.521 68.58 39.501 68.82 38.509 68.631 37.487 69.211 35.695 68.52 35.174 67.997 37.33 65.728 40.277 68.52 41.535 Z M56.702 38.2 C56.789 38.286 57.165 38.056 57.007 37.9 56.992 37.888 56.973 37.881 56.954 37.883 56.825 37.88 56.571 38.068 56.702 38.2 Z M68.821 15.176 C64.461 20.911 60.416 26.879 56.702 33.052 57.445 33.245 58.026 33.824 58.221 34.566 57.59 34.644 58.138 35.896 57.613 36.079 57.613 36.533 56.486 37.319 57.313 37.597 58.192 36.464 59.209 35.446 60.342 34.566 61.389 31.977 63.211 30.166 64.281 27.599 65.099 26.562 65.809 25.445 66.4 24.265 66.97 23.927 67.045 23.091 67.612 22.75 67.651 21.875 68.904 22.225 68.823 21.234 69.121 19.331 69.221 17.403 69.123 15.479 69.108 15.318 69.086 15.165 68.909 15.165 68.879 15.165 68.85 15.169 68.821 15.175 Z M68.221 26.989 C67.221 29.733 65.335 31.579 64.282 34.262 64.833 34.922 64.572 36.399 65.493 36.688 66.128 35.529 67.071 33.319 68.824 34.262 L68.824 27.292 C68.773 27.087 68.577 26.952 68.367 26.978 68.317 26.978 68.267 26.982 68.218 26.989 Z M53.374 29.416 C53.565 30.334 52.986 32.023 53.679 32.442 54.318 30.66 55.66 29.582 56.404 27.898 57.531 26.465 58.544 24.946 59.434 23.354 60.672 22.071 61.35 20.226 62.766 19.112 63.328 17.15 65.066 16.37 65.795 14.57 L62.462 14.57 C59.154 19.238 56.342 24.407 53.371 29.416 Z M78.821 23.658 C78.706 25.749 79.757 27.731 81.551 28.81 81.651 26.691 82.109 24.925 82.157 22.75 81.775 22.777 81.391 22.777 81.008 22.75 80.781 22.74 80.553 22.73 80.335 22.73 79.519 22.731 78.843 22.868 78.818 23.658 Z M52.466 19.721 C52.528 21.273 52.196 23.221 53.074 23.961 53.774 22.037 55.227 20.861 56.099 19.112 57.057 18.758 57.156 17.54 57.922 16.994 58.286 16.047 59.222 15.676 59.434 14.569 L56.099 14.569 C54.86 16.256 53.743 18.071 52.463 19.721 Z M52.766 15.478 C52.81 15.122 53.303 14.791 52.766 14.569 52.725 14.928 52.226 15.258 52.765 15.479 Z M11.261 98.489 C9.677 98.19 8.208 97.456 7.019 96.368 6.196 95.268 6.155 93.4 5.203 92.431 4.503 75.959 5.31 57.989 3.688 42.442 3.54 33.299 2.75 24.801 3.081 15.176 3.357 14.4 3.459 13.572 3.381 12.752 3.24 11.8 4.196 11.952 4.291 11.238 3.964 8.144 5.36 5.119 7.927 3.361 8.846 3.266 9.775 3.369 10.652 3.661 11.304 3.3 12.029 3.092 12.773 3.054 15.053 2.99 17.428 3.023 19.804 3.054 25.209 3.128 30.615 3.202 34.889 2.142 40.547 2.142 45.656 1.597 50.947 1.232 56.818 1.314 62.687 1.011 68.518 0.325 69.457 0.275 70.399 0.275 71.338 0.325 72.828 0.48 74.334 0.377 75.789 0.02 76.397 0.051 77.055 0.033 77.713 0.015 79.548 -0.036 81.385 -0.085 82.152 0.933 82.145 1.641 82.673 1.822 82.452 2.745 82.379 4.896 80.282 5.02 78.513 5.475 77.703 5.5 76.852 5.486 76.001 5.475 74.307 5.366 72.606 5.468 70.938 5.78 64.032 5.8 57.29 6.692 50.338 6.386 45.386 6.169 40.321 5.922 35.191 6.086 32.403 6.775 28.88 6.73 25.357 6.686 22.572 6.571 19.781 6.674 17.012 6.993 15.004 6.719 12.977 6.619 10.952 6.693 10.289 7.456 9.682 8.267 9.137 9.118 9.294 10.879 8.795 13.295 9.437 14.57 10.802 16.842 16.217 15.061 16.407 18.509 16.279 19.659 15.601 20.675 14.588 21.234 13.905 21.321 13.211 21.272 12.547 21.092 11.928 20.926 11.285 20.872 10.647 20.933 10.148 20.494 9.493 20.275 8.831 20.326 8.374 19.971 8.09 19.45 7.314 19.418 7.57 22.798 8.185 25.818 8.223 29.418 8.971 28.175 9.582 26.854 10.045 25.478 11.314 24.83 10.984 22.585 13.374 23.057 14.106 24.328 12.712 25.72 12.163 26.691 12.013 28.356 11.229 29.391 10.949 30.932 9.732 33.349 10.174 37.425 8.832 39.717 9.974 39.574 9.869 37.678 10.949 36.99 11.023 36.363 11.369 35.8 11.895 35.45 12.421 35.1 13.074 34.999 13.681 35.172 14.481 37.846 12.2 39.921 11.86 42.444 11.23 43.568 10.819 44.802 10.649 46.079 10.014 46.698 8.831 47.902 9.739 49.109 10.28 49.922 10.56 47.934 11.255 47.897 11.691 47.327 11.931 46.555 13.074 46.686 12.089 51.858 9.988 55.92 9.74 61.833 10.546 62.6 10.561 60.873 11.256 60.622 11.7 59.955 12.056 59.201 13.376 59.408 12.931 63.208 11.165 65.681 10.047 68.808 L10.047 73.655 C11.024 72.611 11.24 70.808 12.47 70.019 13.005 68.906 13.724 67.419 15.801 67.595 16.501 70.162 14.251 72.269 13.682 74.563 12.262 76.373 11.426 78.771 10.047 80.622 L10.047 83.956 C10.136 84.675 10.862 83.618 10.947 83.348 11.039 82.731 11.768 82.756 11.858 82.137 12.745 81.711 12.903 80.558 14.585 80.924 15.16 83.169 13.185 85.074 12.466 86.986 11.566 89.016 10.266 90.646 9.736 93.045 11.712 92.395 11.315 89.371 14.279 89.71 15.159 91.134 14.092 92.858 13.679 93.951 14.469 94.575 16.21 94.251 16.706 95.166 17.145 96.261 17.033 97.499 16.406 98.498 15.763 98.958 14.979 99.178 14.191 99.121 13.18 99.124 12.18 98.908 11.26 98.489 Z M77.004 16.689 C76.79 15.57 78.298 16.169 78.518 15.478 79.214 15.524 79.914 15.476 80.597 15.334 81.806 15.134 82.936 14.943 83.668 15.782 83.827 17.253 82.029 16.768 81.243 17.294 80.683 17.229 80.116 17.229 79.556 17.294 79.201 17.32 78.847 17.346 78.518 17.346 77.792 17.351 77.193 17.224 77.003 16.689 Z M13.687 14.269 C13.466 10.988 13.687 6.641 17.015 7.904 17.065 9.672 16.489 10.81 16.715 12.751 17.627 13.351 19.033 13.465 18.836 15.175 18.47 15.744 17.83 16.076 17.154 16.046 15.805 15.948 14.553 15.307 13.686 14.269 Z M76.7 12.752 C77.89 11.487 80.5 11.469 82.761 11.238 83.148 11.756 84.199 11.613 84.274 12.448 83.982 13.632 82.735 14.048 81.318 14.048 79.688 14.058 78.087 13.609 76.7 12.752 Z M74.881 9.723 C74.846 8.371 76.354 8.57 77.003 7.904 77.652 7.893 78.299 7.846 78.943 7.763 80.801 7.563 82.677 7.363 83.364 8.815 83.416 10.63 81.656 10.63 79.893 10.63 79.737 10.63 79.582 10.63 79.428 10.63 79.057 10.648 78.692 10.659 78.339 10.659 76.871 10.661 75.602 10.466 74.881 9.723 Z" fill="#000000" fill-opacity="1" stroke="none"/>
 <defs>
  <text id="string" transform="matrix(1.0 0.0 0.0 1.0 28.0 67.0)" y="12.0" fill="#000000" x="1.0" font-family="YuGo-Medium, YuGothic" font-size="14" text-decoration="none">あいう</text>
 </defs>
 <use id="あいう" xlink:href="#string"/>
</svg>
