<?xml version="1.0" encoding="UTF-8"?>
<!-- Generated by Pixelmator Pro 3.6.12 -->
<svg width="292" height="171" viewBox="0 0 292 171" xmlns="http://www.w3.org/2000/svg">
    <g id="g1">
        <path id="path1" fill="#000000" stroke="none" d="M 89 0.933334 C 82.466667 1.066666 68.599998 2.266663 58.333336 3.333328 L 32.73333 6.133331 C 26.200001 6.800003 25.666668 7.066666 24.200001 11.600006 C 22.466667 17.199997 23.400002 55.066666 26.200001 82.666664 L 27.666668 100 C 28.733334 114.26667 31.133331 132.266663 33 139.333328 L 37.133331 158.800003 C 37.666664 160.533325 36.199997 161.066666 29.400002 161.733337 C 11.533333 163.466675 0.333332 165.600006 0.333332 167.46666 C 0.333332 170 2.599998 170.933334 5.400002 169.46666 C 9.133335 167.46666 32.466667 165.46666 63 164.666672 L 111.666672 163.199997 C 162.066666 161.600006 192.46666 161.466675 203 162.666672 L 245 165.46666 C 261.933319 166.266663 279 167.333328 283 168 C 287 168.53334 290.866669 168.53334 291.399994 168 C 293.399994 166.266663 290.333344 165.46666 278.600006 164.53334 C 272.333344 164 266.466675 163.199997 265.666656 162.666672 C 264.466675 161.866669 264.333344 158 265.399994 146.533325 L 269.533325 100 C 271 82.800003 272.866669 65.599998 273.666656 62 C 275.799988 51.600006 277.933319 15.733337 276.600006 14.399994 C 275.799988 13.600006 270.866669 11.866669 265.533325 10.399994 C 233.799988 1.866669 223.266663 0.800003 157.666672 0.666672 C 126.46666 0.53334 95.666672 0.666672 89 0.933334 Z M 165.399994 3.866669 C 188.866669 4 204.333328 4.53334 204.333328 5.199997 C 204.333328 6 200.733337 6.399994 196.199997 6.399994 C 187.53334 6.266663 185.666672 7.46666 185.666672 12.933334 C 185.666672 16.933334 186.333328 17.199997 199.53334 18.133331 L 211 19.066666 L 211 13.46666 C 211 8.933334 210.46666 7.733337 208.066666 6.800003 C 203.266663 4.933334 207.933334 3.866669 215 5.066666 L 221 6.133331 L 220.600006 21.333328 C 220.46666 29.733337 219.800003 37.066666 219.266663 37.600006 C 218.733337 38.133331 215.53334 38.133331 212.333328 37.600006 L 206.333328 36.53334 L 206.199997 30.399994 C 205.933334 22.53334 205.133331 21.333328 199.666672 21.333328 C 194.333328 21.333328 193 24 195.266663 30.133331 C 197.53334 36.666672 195.266663 38.666672 185.53334 38.666672 C 181.133331 38.666672 177.53334 38 177.53334 37.333328 L 176.333328 12.133331 L 171.399994 10.800003 C 168.600006 10 164.333328 9.333328 161.800003 9.333328 C 159.399994 9.333328 155.133331 8.800003 152.46666 8 C 149.800003 7.333328 138.066666 6.266663 126.333328 5.733337 C 111.933334 5.066666 107 4.53334 111 4 C 114.333328 3.46666 119.133331 3.333328 121.666672 3.46666 L 165.399994 3.866669 Z M 100.333328 7.46666 L 143 10.666672 C 165.133331 12.133331 168.866669 12.800003 167.53334 14.800003 C 165.133331 18.666672 158.333328 19.199997 99.666672 19.333328 C 66.73333 19.46666 36.73333 20 33.26667 20.666672 L 26.866665 21.600006 L 27.266666 16.666672 C 27.400002 14 28.066666 11.46666 28.599998 11.066666 L 42.066666 9.066666 C 74.199997 5.46666 72.199997 5.46666 100.333328 7.46666 Z M 244.333344 9.333328 C 262.066681 12.399994 272.200012 15.333328 273.933319 17.866669 C 274.333344 18.53334 274.200012 20.53334 273.533325 22.266663 C 272.866669 24.133331 272.333344 28.933334 272.333344 33.066666 C 272.333344 37.199997 271.399994 49.333328 270.333344 60 L 266.333344 98.666664 C 262.066681 140.399994 261.666656 144.933334 261.266663 153.199997 L 261 161.733337 L 227.266663 160 C 219.399994 160 219 159.866669 219.53334 156.933334 C 219.933334 155.333328 220.46666 139.466675 221 121.733337 C 221.399994 103.866669 222.199997 86.533333 222.866669 83.066666 C 223.533325 79.466667 224.333344 61.066666 224.466675 42 C 224.733337 22.933334 225 6.933334 225.266663 6.53334 C 225.399994 6 228.200012 6.266663 231.266663 6.800003 L 244.333344 9.333328 Z M 201.399994 10.133331 C 209.933334 11.199997 211.266663 14.666672 203.133331 14.666672 C 195.266663 14.666672 189.666672 13.199997 189.666672 11.199997 C 189.666672 9.066666 191.266663 8.933334 201.399994 10.133331 Z M 173.800003 25.600006 L 173.666672 55.333336 C 173.53334 77.199997 173.399994 77.466667 164.199997 84.133331 L 160.733337 86.533333 L 161 22.133331 L 164.066666 20.53334 C 165.800003 19.733337 167.933334 18.266663 168.733337 17.46666 C 172.333328 13.866669 173.666672 16 173.800003 25.600006 Z M 66.866669 23.333328 C 87.933334 21.46666 157.53334 22.933334 157.666672 25.199997 C 157.933334 28.53334 157.933334 49.333328 157.800003 66.400002 C 157.666672 85.73333 157.53334 86.933334 155 87.599998 C 151.266663 88.533333 151.666672 92 155.399994 92 C 158.866669 92 166.866669 86.666664 172.600006 80.533333 C 175.666672 77.199997 176.199997 75.333336 176.600006 67.333336 C 177 58.400002 177.133331 58 180.333328 57.73333 L 219.666672 56.933334 L 220.066666 61.73333 C 220.333328 64.533333 219.933334 66.666664 219.133331 66.666664 C 218.333328 66.666664 217.666672 65.866669 217.666672 64.800003 C 217.666672 60.800003 207.53334 61.599998 205.399994 65.73333 L 203.133331 70.26667 C 202.600006 71.599998 200.066666 72.933334 197.53334 73.333336 C 193.133331 74 193 74.133331 193.266663 80.26667 C 193.399994 86 193.133331 86.533333 189.53334 87.866669 C 185.666672 89.199997 185.133331 90.26667 183.666672 101.066666 C 183.266663 104.26667 181.800003 108.133331 180.333328 109.599998 C 178.866669 111.199997 177.266663 115.333336 176.866669 118.933334 C 176.333328 122.533333 175.666672 125.199997 175.399994 124.800003 C 175 124.400002 173.800003 120.133331 172.866669 115.199997 C 171.399994 108.533333 171.399994 105.866669 172.46666 104.533333 C 174.46666 102.133331 176.199997 102.133331 179.266663 104.933334 C 181.666672 107.066666 182.333328 106 180.866669 102.133331 C 179.800003 99.466667 176.733337 99.466667 170.733337 101.866669 C 161.933334 105.599998 161.933334 105.866669 166.46666 125.333328 C 167.800003 130.800003 168.866669 140.533325 169 146.933334 L 169 158.666672 L 110.333328 159.333328 C 66.466667 160.399994 69.133331 160.533325 68.199997 157.199997 C 65.800003 148.800003 68.599998 134.399994 72.73333 133.600006 C 73.800003 133.333328 75.400002 131.466675 76.333336 129.333328 C 77.133331 127.333328 79 125.333328 80.199997 124.933334 C 81.533333 124.666672 83 122.533333 83.400002 120.133331 L 84.599998 114.933334 C 84.866669 114.400002 82.333336 113.73333 79 113.333336 C 73.533333 112.666664 73 112.26667 72.333336 108.666664 C 71.400002 103.599998 65.933334 100.666664 59.533333 101.866669 C 53.800003 103.066666 52.199997 107.73333 55.533333 113.866669 C 57.26667 117.199997 57.400002 118.933334 56.333336 122.666672 C 54.466667 129.199997 54.333336 140.266663 56.199997 143.733337 C 57 145.199997 57.666664 148.933334 57.666664 151.866669 C 57.666664 154.800003 58.333336 157.600006 59 158 C 59.800003 158.533325 60.333336 156.933334 60.333336 154.133331 C 60.333336 151.600006 61 149.066666 61.800003 148.666672 C 63.800003 147.333328 64.066666 147.866669 64.466667 154.666672 L 65 160.666672 L 41 160.666672 L 39.400002 150.666672 L 46.599998 150.666672 C 56.199997 150.666672 55.800003 147.333328 46.199997 147.199997 C 37.400002 147.066666 36.73333 146.800003 39 145.333328 C 40.066666 144.533325 42.466667 144.266663 44.333336 144.666672 C 46.199997 145.066666 48.599998 144.800003 49.666664 144 C 51 143.199997 51.133331 142.666672 50.066666 142.666672 C 47.933334 142.666672 47.666664 131.199997 49.666664 130 C 50.466667 129.600006 51 128.533325 51 127.733337 C 51 126.800003 48.333336 126.533333 43.133331 127.066666 C 37.133331 127.599998 35 127.333328 34.466667 125.866669 C 33.400002 123.199997 35.533333 122.400002 43.400002 122.666672 C 53 122.933334 53 122.933334 49.800003 120.266663 C 47 118 45.933334 111.466667 47.133331 104.666664 C 47.666664 102.400002 46.866669 102 41.533333 101.599998 L 35.400002 101.199997 L 36.066666 110.400002 C 36.466667 116.533333 36.199997 120 35.133331 120.533333 C 34.199997 121.199997 33.666664 120.266663 33.666664 118.266663 C 33.666664 116.533333 33 113.199997 32.199997 110.800003 C 31 107.599998 31.133331 106.133331 32.466667 104.400002 C 33.933334 102.666664 33.933334 102.133331 32.73333 101.73333 C 31.800003 101.333336 31 100.533333 31 99.866669 C 31 98.933334 41.666664 98.533333 59.400002 98.666664 L 104.333328 98.666664 L 104.333328 89.333336 C 104.333328 82.666664 103.800003 80 102.600006 80 C 101.399994 80 101 82.26667 101 87.599998 C 101 93.599998 100.600006 95.333336 99 95.333336 C 96.46666 95.333336 95.399994 84.666664 97.666672 82 C 98.46666 81.066666 98.600006 79.866669 97.933334 79.466667 C 97.399994 79.199997 82.333336 78.400002 64.599998 77.866669 L 32.466667 76.933334 L 33.400002 82.133331 C 34.866669 90.933334 34.466667 95.333336 32.333336 95.333336 C 30.733334 95.333336 30.333332 93.199997 30.066666 85.066666 L 29.933334 74.933334 L 36.73333 74.400002 C 43.400002 73.866669 71 74.933334 95.800003 76.800003 L 108.066666 77.73333 L 110.333328 150 L 91.933334 150 C 74.599998 150 69.533333 150.933334 77 152.800003 C 81.400002 153.866669 112.199997 152.666672 115.399994 151.333328 C 116.733337 150.800003 120.866669 146.399994 124.600006 141.466675 L 131.266663 132.666672 L 129.266663 86.133331 C 129 79.333336 131.399994 76.133331 132.866669 81.066666 C 133.399994 82.533333 135 84 136.600006 84.533333 C 140.199997 85.333336 140.066666 85.466667 141.133331 80.26667 C 142.066666 75.466667 139.800003 74.26667 138.46666 78.933334 C 137.933334 81.199997 137.399994 81.599998 136.199997 80.400002 C 133.666672 77.866669 136.600006 71.333336 140.46666 71.333336 C 142.866669 71.333336 143.800003 72.26667 144.46666 75.333336 C 146.066666 82.933334 145.666672 94.666664 143.800003 97.73333 C 142.199997 100 142.066666 102.533333 143 110 L 144.333328 121.066666 C 144.333328 122 145 122.400002 145.666672 122 C 146.46666 121.599998 147 116.266663 147 110.26667 L 147.266663 88.666664 C 147.53334 82.800003 147.399994 75.866669 147 73.333336 C 146.46666 69.466667 146.866669 68.400002 149.399994 67.333336 C 151.933334 66.26667 152.333328 65.066666 152.333328 59.333336 C 152.333328 55.73333 151.800003 51.866669 151.266663 50.933334 C 150.333328 49.600006 136.600006 49.199997 89.26667 48.933334 C 49.400002 48.800003 28.466667 48.266663 28.599998 47.333328 C 29 45.733337 31.800003 45.600006 100.733337 44.53334 L 153.666672 43.733337 L 153.666672 36 C 153.666672 30 153.133331 28.133331 151.399994 27.46666 C 149.399994 26.666672 36.466667 26.266663 30.466667 27.066666 C 29.133335 27.199997 27.666668 26.53334 27.400002 25.600006 C 27 24.399994 29.266666 24 35.933334 23.866669 C 40.866669 23.866669 46.199997 23.333328 47.666664 22.800003 C 49.133331 22.133331 51.400002 22.266663 52.866669 23.066666 C 54.466667 23.866669 59.800003 24 66.866669 23.333328 Z M 202.866669 25.733337 C 204.600006 27.866669 203.53334 29.333328 200.199997 29.333328 C 197.399994 29.333328 195.800003 27.333328 197 25.333328 C 198.199997 23.46666 201.133331 23.733337 202.866669 25.733337 Z M 59.666664 35.46666 C 59.666664 39.733337 59.133331 42 58.066666 42 C 57.133331 42 56.333336 41.600006 56.333336 40.933334 L 56.333336 33.866669 C 56.333336 29.600006 56.866669 28 58.066666 28.266663 C 59 28.666672 59.666664 31.333328 59.666664 35.46666 Z M 67.800003 29.066666 C 68.599998 29.600006 69.533333 32.266663 69.933334 35.066666 C 70.333336 39.066666 69.933334 40.53334 67.933334 41.600006 C 64.333336 43.46666 63.400002 41.600006 64.066666 34.266663 C 64.599998 28 65.133331 27.199997 67.800003 29.066666 Z M 78.73333 35.066666 C 79.133331 41.066666 79 41.333328 75.800003 41.333328 C 72.599998 41.333328 72.333336 40.800003 72.333336 35.600006 C 72.333336 29.199997 73.133331 27.733337 76.333336 28.266663 C 77.666664 28.53334 78.466667 30.53334 78.73333 35.066666 Z M 87.133331 28.933334 L 87.666664 35.600006 C 88.066666 40.933334 87.800003 41.333328 84.866669 41.333328 C 82.066666 41.333328 81.666664 40.666672 81.666664 36.266663 C 81.666664 33.46666 82.333336 30.53334 83.26667 29.600006 C 85.133331 27.733337 87 27.46666 87.133331 28.933334 Z M 96.066666 35.066666 C 96.46666 40.666672 96.199997 41.333328 93.800003 41.333328 C 91.400002 41.333328 91 40.53334 91 35.600006 C 91 32.399994 91.400002 29.333328 91.933334 28.800003 C 94.066666 26.800003 95.666672 29.199997 96.066666 35.066666 Z M 103.666672 34.800003 C 103.666672 39.46666 103.133331 40.800003 101.133331 41.066666 C 99.133331 41.46666 98.733337 41.066666 99.399994 38.53334 C 99.933334 36.800003 100.333328 33.600006 100.333328 31.600006 C 100.333328 29.066666 100.866669 28 102.066666 28.399994 C 103 28.666672 103.666672 31.199997 103.666672 34.800003 Z M 32.066666 30.933334 C 33 31.866669 33.666664 34.800003 33.666664 37.600006 C 33.666664 42.133331 33.26667 42.666672 30.333332 42.666672 C 27.266666 42.666672 27 42.133331 27 36.933334 C 27 29.46666 28.599998 27.46666 32.066666 30.933334 Z M 43 36.399994 C 43.800003 42.53334 43.666664 42.666672 40.066666 42.666672 C 36.599998 42.666672 36.333336 42.266663 36.333336 36.933334 C 36.333336 30.53334 37.133331 29.066666 40.333336 29.600006 C 41.666664 29.866669 42.599998 32.133331 43 36.399994 Z M 52.333336 36 C 52.333336 42.266663 52.066666 42.666672 49 42.666672 C 45.933334 42.666672 45.666664 42.133331 45.666664 36.933334 C 45.666664 30.53334 46.333336 29.333328 49.933334 29.333328 C 51.933334 29.333328 52.333336 30.399994 52.333336 36 Z M 113 35.333328 C 113 39.866669 112.600006 40.666672 110.066666 41.066666 C 107.266663 41.46666 107 40.933334 107 36.266663 C 107 30.53334 107.933334 29.066666 111 29.600006 C 112.333328 29.866669 113 31.600006 113 35.333328 Z M 122.333328 36 C 122.333328 41.066666 121.933334 42 119.666672 42 C 117.399994 42 117 40.933334 116.600006 35.600006 C 116.199997 29.46666 116.333328 29.199997 119.266663 29.600006 C 121.933334 30 122.333328 30.800003 122.333328 36 Z M 130.333328 30.399994 C 131.133331 30.933334 131.800003 33.46666 131.666672 36 C 131.666672 40 131.133331 40.666672 128.199997 41.066666 C 124.866669 41.46666 124.733337 41.066666 124.866669 36.399994 C 125 31.866669 126.199997 29.333328 128.333328 29.333328 L 130.333328 30.399994 Z M 140.066666 35.333328 C 140.600006 41.066666 139.133331 43.199997 135.800003 41.866669 C 133.933334 41.199997 133.666672 40 134.333328 36.133331 C 135.399994 30.266663 136.199997 29.066666 138.066666 29.733337 C 139 30 139.800003 32.53334 140.066666 35.333328 Z M 149.399994 30.933334 C 150.333328 31.866669 151 34.53334 151 36.933334 C 151 40.933334 150.600006 41.333328 147 41.333328 C 142.866669 41.333328 143 41.866669 144.199997 30.266663 C 144.333328 28.800003 147.666672 29.199997 149.399994 30.933334 Z M 204.333328 35.333328 C 204.333328 37.46666 201.266663 38.800003 199.133331 37.46666 C 197.800003 36.666672 197.933334 35.866669 199.666672 34.133331 C 202.066666 31.866669 204.333328 32.399994 204.333328 35.333328 Z M 220.333328 47.600006 L 220.333328 54 L 176.333328 54.666664 L 176.333328 50.133331 C 176.333328 41.066666 175.800003 41.333328 199.133331 41.333328 L 220.333328 41.333328 L 220.333328 47.600006 Z M 56.333336 54.666664 C 56.333336 57.73333 55.800003 58.666664 53.666664 58.666664 C 50.599998 58.666664 50.066666 54.800003 52.599998 52.26667 C 55.133331 49.733337 56.333336 50.399994 56.333336 54.666664 Z M 64.866669 52.800003 C 66.466667 56.933334 65.666664 58.666664 62.333336 58.666664 C 59.666664 58.666664 59 58 59 55.599998 C 59 50.53334 63.26667 48.53334 64.866669 52.800003 Z M 91 52.533333 C 93.400002 55.599998 92.066666 60.666664 88.73333 61.066666 C 86.066666 61.466667 85.666664 60.933334 85.666664 56.933334 C 85.666664 50.666672 87.800003 48.800003 91 52.533333 Z M 33.666664 55.199997 C 33.666664 57.066666 33.133331 58.933334 32.333336 59.333336 C 28.200001 61.866669 32.866669 62.666664 52.73333 62.666664 C 74.73333 62.666664 116.066666 66 118.066666 67.866669 C 118.600006 68.533333 117.53334 70 115.53334 71.333336 C 112.199997 73.466667 109.666672 73.599998 77.800003 72.133331 C 59 71.333336 40.199997 71.066666 36.066666 71.599998 L 28.466667 72.400002 L 28.599998 62.133331 C 28.599998 53.066666 28.866665 52 31.133331 52 C 32.866669 52 33.666664 52.933334 33.666664 55.199997 Z M 41.400002 55.73333 C 41.800003 58 41.133331 58.666664 39.133331 58.666664 C 37 58.666664 36.333336 57.866669 36.333336 55.199997 C 36.333336 50.800003 40.73333 51.199997 41.400002 55.73333 Z M 48.599998 52.800003 C 49 53.199997 49.133331 54.666664 48.73333 56.133331 C 47.666664 59.866669 44.333336 59.333336 44.333336 55.333336 C 44.333336 52.26667 46.73333 50.800003 48.599998 52.800003 Z M 75 55.333336 C 75 58 74.333336 58.666664 71.666664 58.666664 C 69 58.666664 68.333336 58 68.333336 55.333336 C 68.333336 52.666664 69 52 71.666664 52 C 74.333336 52 75 52.666664 75 55.333336 Z M 82.466667 56.133331 C 82.199997 58.400002 81.533333 60.533333 81.133331 60.933334 C 79.666664 62.400002 77.666664 59.599998 77.666664 55.866669 C 77.666664 52.800003 78.199997 52 80.466667 52 C 82.73333 52 83 52.666664 82.466667 56.133331 Z M 101 57.199997 C 101 62 98.733337 63.866669 95.933334 61.599998 C 94.599998 60.400002 94.066666 55.466667 94.866669 52.26667 C 95 52 96.333328 52 98.066666 52.26667 C 100.46666 52.533333 101 53.466667 101 57.199997 Z M 110.333328 58 C 109.933334 63.73333 109.266663 64.533333 105.933334 63.466667 C 103.933334 62.800003 103.266663 61.333336 103.266663 58 C 103.266663 53.866669 103.666672 53.333336 106.866669 53.333336 C 110.333328 53.333336 110.600006 53.73333 110.333328 58 Z M 122.066666 54.933334 C 122.600006 56.133331 123.133331 56.26667 123.933334 55.199997 C 124.600006 54.400002 129.933334 53.599998 136.733337 53.466667 C 147.933334 53.333336 148.333328 53.466667 148.333328 56.26667 C 148.333328 58.533333 147.933334 58.800003 146.733337 57.599998 C 145 55.866669 136.600006 55.466667 134.199997 57.066666 C 133.399994 57.599998 132.333328 59.333336 131.800003 61.066666 L 130.866669 64 L 128.333328 61.066666 C 125.933334 58.133331 125.666672 58.133331 121.800003 60.26667 C 118.199997 62.26667 117.53334 62.26667 115.666672 60.533333 C 114.600006 59.333336 113.666672 57.333336 113.666672 55.866669 C 113.666672 54 114.600006 53.333336 117.53334 53.333336 C 119.666672 53.333336 121.800003 54.133331 122.066666 54.933334 Z M 144.066666 60.26667 C 146.866669 63.066666 145.933334 66.533333 142.199997 67.466667 C 137.53334 68.666664 132.333328 63.866669 135 60.800003 C 137 58.26667 141.800003 58 144.066666 60.26667 Z M 128.066666 64.26667 C 128.866669 65.199997 129.800003 68.26667 130.333328 71.199997 C 131.133331 75.333336 131 76.26667 129.53334 75.73333 C 128.46666 75.333336 127.399994 73.73333 127.266663 71.866669 C 127 70.133331 125.666672 67.599998 124.199997 66.26667 L 121.666672 63.333336 C 121.666672 61.866669 126.733337 62.800003 128.066666 64.26667 Z M 215.666672 70 C 215.666672 74.666664 211.933334 75.866669 207.933334 72.800003 C 204.333328 70 207.133331 65.066666 212.066666 65.599998 C 215.133331 65.866669 215.666672 66.666664 215.666672 70 Z M 135 70.800003 C 135 71.466667 134.46666 72 133.666672 72 C 133 72 132.333328 71.066666 132.333328 69.866669 C 132.333328 68.800003 133 68.26667 133.666672 68.666664 C 134.46666 69.066666 135 70 135 70.800003 Z M 125.800003 90.800003 L 128.600006 130.133331 L 122.866669 138.399994 C 117.266663 146.266663 112.733337 149.333328 114.199997 144.266663 C 114.46666 143.066666 114.333328 132.933334 113.666672 122 L 111 77.599998 L 116.066666 74.533333 C 118.733337 72.800003 121.266663 70.933334 121.53334 70.26667 C 123.133331 66.400002 124.733337 74.133331 125.800003 90.800003 Z M 220.333328 77.333336 C 220.333328 80.26667 219.800003 82.666664 219 82.666664 C 217.53334 82.666664 217.133331 74.26667 218.600006 72.933334 C 220.066666 71.333336 220.333328 71.866669 220.333328 77.333336 Z M 204.600006 81.466667 C 204.066666 88.933334 201.666672 91.73333 198.733337 88.400002 C 196.066666 85.333336 194.600006 79.066666 196.333328 78 C 197.133331 77.466667 197.666672 78.933334 197.666672 81.333336 C 197.666672 84.133331 198.199997 85.333336 199.399994 84.933334 C 200.199997 84.666664 200.866669 82.933334 200.600006 80.933334 C 200.066666 76.800003 201.266663 74.26667 203.399994 75.066666 C 204.46666 75.333336 204.866669 77.866669 204.600006 81.466667 Z M 214.866669 81.333336 C 216.866669 87.199997 213.933334 92.800003 211.800003 87.199997 C 211.399994 86.133331 210.46666 85.466667 209.800003 85.866669 C 209 86.400002 209.133331 88.26667 210.066666 90.533333 C 211.266663 94 210.866669 95.066666 205.53334 102.133331 C 199.266663 110.400002 197.266663 111.333336 196.600006 106.26667 C 196.333328 103.866669 197 102.800003 199 102.26667 C 200.733337 101.866669 201.933334 100.133331 202.46666 97.466667 C 203 95.199997 203.800003 93.333336 204.333328 93.333336 C 205 93.333336 205.800003 90.800003 206.333328 87.599998 C 208.199997 76.933334 212.199997 73.866669 214.866669 81.333336 Z M 43 86.800003 C 43 94.400002 42.866669 94.800003 40.066666 94.400002 C 37.400002 94 37 93.066666 36.599998 87.066666 C 36.199997 80.800003 36.333336 80.133331 39.26667 79.599998 L 42.73333 78.800003 L 43 86.800003 Z M 53.666664 82.533333 C 54.066666 84.400002 54.199997 87.866669 53.933334 90.26667 C 53.400002 94.133331 52.866669 94.666664 49.533333 94.666664 C 45.800003 94.666664 45.666664 94.400002 45.666664 88.26667 C 45.666664 81.599998 47.533333 78.26667 50.866669 78.933334 C 51.933334 79.199997 53.26667 80.800003 53.666664 82.533333 Z M 62.73333 87.466667 C 63.133331 94.666664 62.866669 95.73333 60.466667 96.400002 C 57.133331 97.199997 56.333336 95.199997 56.333336 85.73333 C 56.333336 78.933334 56.599998 78.533333 59.400002 78.933334 C 62.066666 79.333336 62.333336 80.133331 62.73333 87.466667 Z M 70.466667 81.466667 C 71 82.26667 71.400002 85.73333 71.533333 89.199997 C 71.533333 94.533333 71.26667 95.333336 69 95.333336 C 66.866669 95.333336 66.199997 94.26667 65.933334 89.466667 C 65.666664 86.26667 65.800003 82.800003 66.199997 81.866669 C 67 79.599998 69.133331 79.466667 70.466667 81.466667 Z M 79 87.866669 C 79.800003 95.199997 78.199997 98.666664 75.26667 95.73333 C 73.533333 94 73 82.400002 74.599998 80.800003 C 76.73333 78.666664 78.333336 81.333336 79 87.866669 Z M 85.933334 89.333336 C 86.199997 94.133331 85.800003 95.333336 83.933334 95.73333 C 82.066666 96.133331 81.666664 95.199997 81.666664 89.599998 C 81.666664 78.933334 85.133331 78.666664 85.933334 89.333336 Z M 93.800003 88.533333 C 94.333336 93.333336 94.066666 95.066666 92.599998 95.73333 C 90.066666 96.666664 88.333336 93.599998 88.333336 87.866669 C 88.333336 78.666664 92.599998 79.199997 93.800003 88.533333 Z M 217.933334 104.26667 C 216.600006 105.599998 209.666672 103.333336 209.666672 101.466667 C 209.666672 100.800003 211.133331 99.066666 212.866669 97.73333 C 214.600006 96.400002 216.46666 93.73333 217.133331 92 C 218.199997 89.199997 218.46666 89.866669 218.733337 95.866669 C 219 99.866669 218.600006 103.599998 217.933334 104.26667 Z M 198.733337 94.800003 C 199.266663 99.199997 196.733337 101.333336 192.066666 100.400002 C 189.133331 99.866669 188.333328 98.933334 188.333328 96.133331 C 188.333328 91.333336 189.399994 90.400002 194.333328 90.933334 C 197.53334 91.199997 198.46666 92 198.733337 94.800003 Z M 192.600006 107.866669 C 193.266663 110.133331 194.600006 112.533333 195.800003 112.933334 C 198.46666 113.866669 195.666672 117.333328 192.199997 117.333328 C 190.333328 117.333328 189.399994 116.133331 188.733337 113.199997 C 188.333328 110.933334 187.133331 108.800003 186.066666 108.400002 C 184.600006 107.73333 184.600006 107.199997 186.46666 105.199997 C 189.53334 101.73333 191.266663 102.533333 192.600006 107.866669 Z M 43.800003 112.800003 C 43.933334 118.933334 43.666664 120 41.800003 119.733337 C 40.333336 119.466667 39.400002 117.333328 38.866669 113.333336 C 37.933334 106.533333 38.199997 105.333336 41.400002 105.333336 C 43.26667 105.333336 43.666664 106.800003 43.800003 112.800003 Z M 66.199997 106.666664 C 70.466667 108.26667 70.599998 111.199997 66.866669 113.866669 C 62.73333 116.800003 57.666664 114.133331 57.666664 109.066666 C 57.666664 104.933334 60.066666 104.26667 66.199997 106.666664 Z M 215.399994 107.599998 C 215.933334 108 215.133331 109.199997 213.800003 110.26667 C 210.199997 112.800003 205 110.400002 207.933334 107.599998 C 209 106.400002 214.333328 106.400002 215.399994 107.599998 Z M 169.666672 113.73333 C 169.666672 119.333328 174.333328 131.866669 176.600006 132.533325 C 180.46666 133.466675 179.399994 136.266663 175.53334 135.733337 C 172.600006 135.466675 171.666672 134.266663 170.199997 129.333328 C 167.800003 121.066666 166.333328 106.666664 168.199997 109.333336 C 169 110.400002 169.666672 112.400002 169.666672 113.73333 Z M 187 118.533333 C 187 121.866669 183.666672 126.666672 181.266663 126.666672 C 179.800003 126.666672 180.866669 113.199997 182.46666 110.533333 C 183.666672 108.533333 186.866669 114.133331 187 118.533333 Z M 217.399994 126.266663 C 217.133331 137.733337 216.600006 140.666672 215 141.066666 C 213.53334 141.333328 212.866669 139.866669 212.600006 135.066666 C 212.46666 131.600006 212.066666 128.666672 211.800003 128.399994 C 211.53334 128.133331 207 127.466667 201.800003 127.066666 C 192.600006 126.266663 192.333328 126.400002 191.133331 129.866669 C 190.199997 132 188.733337 133.333328 187.133331 133.333328 C 183.266663 133.333328 182.733337 131.333328 185.800003 128.533325 C 187.399994 127.066666 189.133331 124.666672 189.800003 122.933334 C 190.866669 120 195.666672 118.800003 196.600006 121.199997 C 196.866669 122 199.800003 122.800003 203.399994 123.199997 L 209.666672 124 L 212.600006 118 C 214.199997 114.666664 216.066666 112 216.733337 112 C 217.399994 112 217.666672 118.400002 217.399994 126.266663 Z M 209.399994 115.333336 C 211.133331 117.066666 207.933334 120 204.333328 120 C 200.866669 120 200.333328 119.466667 200.333328 116.533333 C 200.333328 113.333336 200.733337 113.066666 204.600006 113.866669 C 206.866669 114.26667 209.133331 114.933334 209.399994 115.333336 Z M 72.333336 118.800003 C 72.333336 119.466667 71.800003 120 71 120 C 70.333336 120 69.666664 119.066666 69.666664 117.866669 C 69.666664 116.800003 70.333336 116.266663 71 116.666672 C 71.800003 117.066666 72.333336 118 72.333336 118.800003 Z M 81 117.333328 C 82.333336 119.599998 79.133331 122.400002 76.333336 121.733337 C 72.333336 120.666672 72.866669 116 76.866669 116 C 78.73333 116 80.599998 116.666672 81 117.333328 Z M 66.199997 119.599998 C 67.800003 124.800003 66.199997 140.133331 63.800003 142.399994 C 61.666664 144.533325 61.400002 144.533325 59.533333 142 C 57 138.800003 57.666664 122.533333 60.333336 119.333328 C 62.599998 116.666672 65.26667 116.800003 66.199997 119.599998 Z M 74.73333 126.266663 C 74.066666 129.600006 71 130 71 126.800003 C 71 125.199997 71.800003 124 73.133331 124 C 74.333336 124 75 124.933334 74.73333 126.266663 Z M 37.666664 132.800003 C 37.666664 133.866669 37.133331 134.666672 36.333336 134.666672 C 35.666664 134.666672 35 133.466675 35 131.866669 C 35 130.399994 35.666664 129.600006 36.333336 130 C 37.133331 130.399994 37.666664 131.733337 37.666664 132.800003 Z M 45 135.866669 C 45.133331 141.199997 43 144.399994 40.73333 142.133331 C 39.26667 140.666672 39.26667 132.800003 40.73333 130.933334 C 43.133331 128 44.866669 130 45 135.866669 Z M 205 130.933334 L 206.46666 150.800003 L 193 150 L 193.133331 141.866669 C 193.266663 130.666672 193.933334 129.333328 199.666672 129.333328 C 202.333328 129.333328 204.600006 130.133331 205 130.933334 Z M 211 134.666672 C 211 135.333328 210.46666 136 209.666672 136 C 209 136 208.333328 135.333328 208.333328 134.666672 C 208.333328 133.866669 209 133.333328 209.666672 133.333328 C 210.46666 133.333328 211 133.866669 211 134.666672 Z M 189.666672 138.133331 C 189.666672 139.600006 188.600006 140 186.066666 139.733337 C 180.866669 139.199997 180.46666 136 185.53334 136 C 188.333328 136 189.666672 136.666672 189.666672 138.133331 Z M 180.600006 141.600006 C 181.800003 143.600006 182.333328 147.066666 181.933334 151.466675 C 181.399994 158 181.133331 158.399994 177.53334 158.933334 C 175.266663 159.333328 173.266663 159.066666 172.866669 158.399994 C 172.46666 157.733337 172.46666 153.066666 173 147.866669 C 173.800003 140.266663 174.333328 138.666672 176.333328 138.666672 C 177.666672 138.666672 179.53334 140 180.600006 141.600006 Z M 187 148.800003 C 187 151.333328 186.46666 153.199997 185.933334 152.800003 C 184.866669 152.133331 185.399994 144 186.46666 144 C 186.733337 144 187 146.133331 187 148.800003 Z M 214.733337 147.333328 C 210.866669 150.933334 209.666672 151.333328 209.666672 149.466675 C 209.666672 147.466675 213.666672 144 216.066666 144 C 217.800003 144 217.53334 144.800003 214.733337 147.333328 Z M 217.399994 155.466675 C 217.266663 159.333328 216.733337 160 214.066666 160 C 210.733337 160 209.933334 156.533325 212.333328 152 C 214.46666 148 217.666672 150.133331 217.399994 155.466675 Z M 195.933334 154.533325 C 196.733337 153.733337 199.666672 153.333328 202.46666 153.600006 C 206.733337 153.866669 207.800003 154.533325 208.066666 157.066666 C 208.46666 160 208.199997 160.133331 204.333328 159.333328 L 194.866669 158.133331 C 188.866669 157.866669 187.666672 156.933334 188.866669 153.866669 C 189.666672 151.866669 189.933334 151.866669 192.066666 153.866669 C 193.800003 155.333328 194.866669 155.600006 195.933334 154.533325 Z"/>
        <path id="path2" fill="#000000" stroke="none" d="M 132.333328 90.400002 C 132.333328 93.199997 133.266663 96.666664 134.333328 98.133331 C 135.666672 99.866669 136.199997 104.133331 136.333328 112.26667 C 136.333328 118.800003 136.866669 124 137.53334 124 C 138.199997 124 139 119.066666 139.266663 113.066666 C 139.53334 104.800003 139 100 137 93.73333 C 135.53334 89.199997 133.933334 85.333336 133.399994 85.333336 C 132.733337 85.333336 132.333328 87.599998 132.333328 90.400002 Z"/>
        <path id="path3" fill="#000000" stroke="none" d="M 75.666664 102.533333 C 73.800003 104.26667 75.666664 105.333336 80.866669 105.333336 L 86.599998 105.333336 L 87.533333 113.599998 C 88.066666 119.199997 87.800003 122.133331 86.866669 122.800003 C 83.666664 124.666672 87.133331 126.133331 95.53334 126.400002 L 104.333328 126.666672 L 104.333328 115.199997 C 104.333328 107.333336 103.800003 103.73333 102.733337 103.333336 C 100.066666 102.533333 76.333336 101.73333 75.666664 102.533333 Z M 94.73333 114.400002 C 95 121.199997 94.73333 122.666672 93 122.666672 C 91.933334 122.666672 91 121.599998 91 120.133331 L 90.199997 111.333336 C 89.400002 105.599998 89.533333 105.066666 91.800003 105.599998 C 93.933334 106 94.333336 107.466667 94.73333 114.400002 Z M 101.666672 114 C 101.666672 120.133331 101.133331 122.666672 99.933334 122.666672 C 98.866669 122.666672 98.199997 120 98.066666 114 C 97.933334 107.199997 98.199997 105.333336 99.800003 105.333336 C 101.266663 105.333336 101.666672 107.333336 101.666672 114 Z"/>
        <path id="path4" fill="#000000" stroke="none" d="M 82.066666 129.066666 C 79.400002 129.466675 79 130.266663 79 136 C 79 141.466675 78.599998 142.533325 76.066666 143.199997 C 69.666664 144.933334 77.133331 146.399994 92.333336 146.133331 L 107.666672 146 L 106.46666 129.866669 C 105.800003 129.333328 84.466667 128.666672 82.066666 129.066666 Z M 85.933334 136.266663 C 86.599998 142.266663 85.533333 144.933334 83.133331 143.466675 C 81.533333 142.399994 81.133331 133.066666 82.599998 131.600006 C 84.466667 129.600006 85.400002 130.933334 85.933334 136.266663 Z M 94.199997 132.800003 C 94.599998 134 95 136.933334 95 139.466675 C 95 143.066666 94.466667 144 92.466667 144 C 91.133331 144 89.533333 143.066666 89.133331 141.866669 C 88.066666 139.066666 88.066666 132.666672 89.26667 131.600006 C 90.73333 130 93.400002 130.666672 94.199997 132.800003 Z M 103.266663 136 L 103.53334 141.600006 C 103.800003 144.800003 99.399994 144.266663 98.46666 141.066666 C 96.866669 135.066666 97.53334 132 100.333328 132 C 102.333328 132 103 132.933334 103.266663 136 Z"/>
    </g>
</svg>
