<?xml version="1.0" encoding="UTF-8"?>
<!-- Generated by Pixelmator Pro 3.6.12 -->
<svg width="287" height="182" viewBox="0 0 287 182" xmlns="http://www.w3.org/2000/svg">
    <g id="g1">
        <path id="path1" fill="#000000" stroke="none" d="M 128.333328 2.333328 C 119.133331 3.133331 109.26667 4.866669 106.333336 5.933334 C 98.866669 9 91.933334 12.600006 89.933334 14.600006 C 88.866669 15.53334 87 17 85.533333 17.666672 C 77.400002 22.066666 52.066666 42.46666 37.533333 56.333328 C 25.799999 67.400002 24.333332 71.533333 30.200001 75.533333 C 33.400002 77.533333 37.666668 77.26667 37.666668 74.866669 C 37.666668 74.199997 38.599998 73.666664 39.666668 73.666664 C 41.266666 73.666664 41.666668 76.066666 41.666668 86.866669 C 41.666668 94.199997 42.200001 103 43 106.599998 L 49.133335 149.666672 L 51.666668 173 L 0.733334 177.53334 L 0.333333 179.800003 C 0.333333 181.266663 1 181.666672 2.6 181 C 5.666667 179.933334 33.933334 178.066666 77.533333 176.333328 C 96.199997 175.53334 111.933334 174.600006 112.599998 174.199997 C 113.26667 173.800003 152.733337 173.53334 200.333328 173.53334 C 255.399994 173.53334 287 173.133331 287 172.333328 C 287 171 283.399994 170.866669 260.066681 170.600006 C 253.266663 170.466675 249.666656 169.933334 249.666656 169 L 253.666656 140.866669 L 256.333344 115.26667 C 257.133331 107.666664 257.933319 94.199997 258.066681 85.26667 L 258.333344 69 L 265.666656 67.666664 C 269.666656 66.866669 273.799988 65.800003 274.600006 65.26667 C 277.533325 63.400002 276.466675 58.333328 272.333344 52.46666 C 264.866669 42.333328 233.53334 12.333328 230.333328 12.333328 C 229.399994 12.333328 225.399994 10.199997 221.53334 7.53334 C 215.133331 3.266663 213.266663 2.733337 201.133331 1.666672 C 183.133331 0.066666 148.866669 0.333328 128.333328 2.333328 Z M 210.066666 5.53334 C 210.733337 6.199997 210.199997 7 208.866669 7.399994 C 206.066666 8.333328 146.866669 11.399994 145 10.866669 C 144.199997 10.600006 139.133331 10.866669 133.53334 11.399994 C 125.399994 12.199997 122.46666 11.933334 118.199997 10.066666 L 113 7.800003 L 140.333328 4.46666 C 152.199997 3 208.333328 3.800003 210.066666 5.53334 Z M 118.066666 13.666672 L 132.199997 21 C 135.399994 22.866669 138.866669 24.333328 139.933334 24.333328 C 140.866669 24.333328 142.066666 25.133331 142.46666 26.199997 C 142.866669 27.133331 146.066666 29.266663 149.800003 31 C 153.399994 32.733337 156.333328 34.866669 156.333328 35.800003 C 156.333328 36.600006 158.600006 38.46666 161.399994 39.800003 C 167.399994 42.866669 175.933334 48.866669 182.733337 54.733337 C 185.399994 57 188.733337 59.400002 190.066666 59.800003 C 191.266663 60.199997 192.333328 61 192.333328 61.666664 C 192.333328 62.333336 194.46666 64.066666 197 65.666664 C 202.199997 68.866669 203 71 199 71 C 195.933334 71 184.733337 63.133331 173.53334 53 C 159.266663 40.199997 147.800003 32.600006 126.600006 21.800003 C 113.933334 15.399994 107.400002 14.066666 101.933334 16.866669 C 96.866669 19.53334 70.599998 40.333328 63.400002 47.53334 L 53 57 C 50.200001 59.133331 45 63.800003 41.266666 67.400002 C 34.333332 73.800003 32.066666 74.599998 31.266666 70.599998 C 30.733334 68.199997 33.933334 64.866669 52.466667 48.333328 C 73 29.800003 101.666664 9.933334 108.066666 9.666672 C 109 9.666672 113.400002 11.399994 118.066666 13.666672 Z M 219.666672 11 C 225.666672 13.266663 222.199997 14.600006 207.399994 15.399994 C 163.53334 17.933334 143.666672 19.266663 141.266663 20.199997 C 138.733337 21.133331 129.666672 18.066666 129.666672 16.199997 C 129.666672 15.133331 142.199997 14.066666 177.666672 12.333328 L 207.666672 10.333328 C 210.333328 9.399994 216.333328 9.666672 219.666672 11 Z M 231.666672 17.933334 C 233.53334 18.733337 234.866669 20.066666 234.600006 20.866669 C 233.933334 23 227 23.933334 197 25.53334 C 181.666672 26.46666 165.800003 27.800003 162.066666 28.600006 C 155.933334 29.933334 154.46666 29.800003 150.333328 27.53334 C 147.800003 26.199997 145.666672 24.733337 145.666672 24.199997 C 145.666672 23 156.600006 21.666672 166.333328 21.666672 C 170.866669 21.666672 177.800003 21 181.800003 20.333328 C 185.800003 19.53334 197.133331 18.46666 207 17.800003 L 226.600006 16.46666 C 227.53334 16.46666 229.800003 17 231.666672 17.933334 Z M 128.600006 27 C 146.066666 35.933334 160.066666 45.399994 171 55.800003 C 174.333328 59 180.866669 64.73333 185.53334 68.466667 L 194.199997 75.533333 L 205.53334 75.26667 C 211.800003 75.133331 225 73.800003 234.866669 72.333336 C 244.733337 70.866669 253.133331 70.066666 253.533325 70.466667 C 254.333344 71.26667 253.799988 99.26667 252.866669 100.199997 C 252.600006 100.466667 247.933319 96.066666 242.600006 90.466667 C 231.399994 79 232.199997 79.26667 211.133331 81.666664 C 194.46666 83.533333 195 83.133331 195 92.599998 C 195 97.133331 194.46666 104.466667 193.666672 108.866669 L 191.53334 131.399994 C 191.133331 139.266663 190.333328 145.666672 189.800003 145.666672 C 189.266663 145.666672 187.53334 142.466675 185.933334 138.600006 C 184.333328 134.866669 181.399994 129.933334 179.53334 127.933334 L 176.066666 124.199997 L 143.666672 125 L 144.066666 129 C 144.333328 131.133331 145.133331 133.133331 145.800003 133.399994 C 147.933334 134.199997 147.266663 143 145 143 C 143.933334 143 143 142.333328 143 141.666672 C 143 140.866669 142.066666 140.333328 140.866669 140.333328 C 139.800003 140.333328 139.133331 140.866669 139.53334 141.533325 C 139.933334 142.066666 135 143 128.600006 143.533325 L 114.333336 144.733337 C 112.599998 144.866669 111.800003 144.333328 112.199997 143 L 113.26667 133.266663 C 113.800003 128.066666 114.599998 125.666672 115.800003 125.666672 C 116.866669 125.666672 117.666664 126.466667 117.666664 127.533333 C 117.666664 129 119 129.266663 123 128.733337 C 127.399994 128.066666 128.333328 128.333328 128.333328 130.199997 C 128.333328 131.800003 129.666672 132.333328 134.199997 132.333328 C 140.866669 132.333328 140.733337 132.466675 142.333328 117.666664 C 143.133331 110.866669 142.866669 109.800003 138.46666 103.26667 C 135.800003 99.26667 133.666672 94.73333 133.666672 93.133331 C 133.666672 88.73333 129.933334 84.066666 127 85 C 122.866669 86.333336 122.866669 83.533333 127 80.466667 C 133.133331 76.066666 135.399994 70.466667 134.733337 61.533333 C 134.066666 52.866669 129 43.666672 123.666672 41.666672 C 121.800003 41 120.333328 39.53334 120.333328 38.333328 C 120.333328 35.933334 118.199997 35.666672 117.133331 37.933334 C 116.466667 39.266663 116.199997 39.266663 115.533333 37.933334 C 114.466667 35.666672 112.333336 35.933334 112.333336 38.333328 C 112.333336 41 110.066666 40.866669 108.466667 37.933334 C 107.133331 35.800003 107.133331 35.800003 107 37.933334 C 107 39.266663 104.866669 41.266663 102.199997 42.46666 C 94.866669 45.933334 90.73333 53.266663 90.466667 63.26667 C 90.333336 73 93.666664 79.133331 100.73333 82.199997 C 105.133331 84.066666 104.73333 84.599998 97.400002 86.199997 C 94.73333 86.866669 93.533333 88.066666 93 90.73333 C 91.800003 95.933334 88.599998 103 87.26667 103 C 85.800003 103 79 113.400002 79 115.800003 C 79 116.73333 80.599998 118.066666 82.73333 118.466667 C 86.866669 119.533333 88.333336 121.133331 88.333336 125 C 88.333336 127.400002 89.26667 127.666672 96.333336 127.800003 C 102.599998 127.933334 104.333336 127.666672 104.333336 126.066666 C 104.333336 124.733337 105.133331 124.333328 106.466667 124.866669 L 109.800003 125.666672 C 111.533333 125.666672 111.26667 134.866669 109.26667 140.600006 C 107.133331 146.866669 106.199997 147.800003 104.066666 146.066666 C 101.800003 144.199997 83.666664 143.933334 80.466667 145.666672 C 78.866669 146.466675 77.533333 146.466675 77.133331 145.800003 C 76.199997 144.333328 79.400002 129.933334 81.533333 125.933334 L 83 122.466667 C 83 121.133331 77.800003 121.666664 77 123 C 76.599998 123.666672 72.73333 124.333328 68.466667 124.333328 C 60.066666 124.333328 58.466667 125.400002 54.333332 133.399994 C 53.133335 135.933334 51.666668 137.533325 51.266666 137 C 49.400002 135.133331 47.133335 115 46.200001 92.333336 L 45.266666 69 L 68.066666 48.733337 C 71.133331 45.666672 75.933334 41.399994 78.73333 39.399994 L 98.599998 23.53334 C 107 17.53334 111.133331 18.066666 128.600006 27 Z M 243 27 C 244.066666 27.666672 244.46666 28.733337 243.800003 29.266663 C 242.866669 30.199997 218.866669 33.266663 187.666672 36.199997 L 170.333328 38.199997 C 166.199997 38.866669 164.333328 38.46666 161.666672 36.46666 C 159.800003 35 158.866669 33.399994 159.399994 32.866669 C 159.933334 32.333328 170.066666 31 182.066666 30.066666 L 216.333328 27.133331 C 234.733337 25.53334 240.733337 25.53334 243 27 Z M 251.133331 34.866669 C 255.133331 38.199997 254.733337 38.333328 235.666672 40.333328 C 227.666672 41.133331 218.866669 42.333328 216.333328 43.133331 C 213.800003 43.800003 204.199997 44.866669 195.133331 45.666672 C 181 46.733337 178.333328 46.600006 175.53334 44.733337 C 171.53334 42.199997 171.399994 40.333328 175.399994 40.333328 C 182.46666 40.333328 221.266663 36.066666 234.333328 33.800003 C 245 31.933334 247.799988 32.199997 251.133331 34.866669 Z M 260.333344 43.666672 C 263.799988 47.399994 263.399994 47.800003 253 48.866669 C 237.666672 50.333328 199.666672 55.133331 196.733337 55.800003 C 193 56.733337 182.733337 52.600006 183.399994 50.46666 C 183.666672 49.666672 189.800003 48.600006 197.800003 48.066666 C 209.933334 47.266663 222.733337 45.53334 246.333328 41.800003 C 256.733337 40.066666 257 40.199997 260.333344 43.666672 Z M 123.399994 45.800003 C 129 48.733337 129.933334 52.333328 125.133331 52.333328 C 123.266663 52.333328 121.399994 53 120.866669 53.800003 C 120.333328 54.733337 121.666672 55.133331 124.866669 54.866669 C 130.600006 54.333328 132.333328 56.199997 132.333328 62.73333 C 132.333328 68.066666 129.800003 73.133331 125.133331 77.666664 C 121.800003 80.73333 121.266663 80.73333 115.400002 79.26667 C 112.066666 78.333336 109 77.933334 108.466667 78.466667 C 108.066666 79 108.466667 79.666664 109.400002 79.933334 C 111.533333 80.73333 111.400002 83 109.133331 83 C 105.933334 83 100.199997 77.533333 101 75.133331 C 101.533333 73.533333 100.466667 72.333336 97.400002 70.866669 C 94.599998 69.666664 93 67.933334 92.73333 65.666664 C 92.199997 61.800003 97.26667 49.666672 100.333336 47.666672 C 105 44.600006 118.866669 43.53334 123.399994 45.800003 Z M 268.066681 52.600006 C 270.600006 55.133331 270.066681 57.933334 267.266663 57.133331 C 266.066681 56.733337 263 56.866669 260.600006 57.666672 C 258.066681 58.333328 246.46666 59.800003 234.600006 61 C 222.733337 62.199997 211.133331 63.800003 208.733337 64.466667 C 205.399994 65.533333 203.53334 65.400002 200.333328 63.666664 C 193.133331 59.933334 194.866669 59.26667 220.333328 55.800003 C 235 53.800003 255.399994 51.53334 262.466675 51.133331 C 264.600006 51.133331 267.133331 51.666672 268.066681 52.600006 Z M 271 61.400002 C 271 63.400002 253.133331 67 236.46666 68.333336 L 213 70.466667 C 208.066666 71.133331 205.666672 70.866669 205.666672 69.933334 C 205.666672 68.199997 209.800003 67.400002 244.333328 63 L 256.333344 61.133331 C 260.333344 60.199997 271 60.333336 271 61.400002 Z M 241.133331 94.199997 C 247.266663 100.333336 252.333344 105.666664 252.333344 106.199997 C 252.333344 106.599998 247.266663 107 241.133331 107 C 230.333328 107 226.733337 105.800003 221.666672 100.333336 L 213.399994 93.800003 C 201.53334 84.866669 201.933334 84.599998 225.53334 83.26667 C 229.53334 83 231.266663 84.199997 241.133331 94.199997 Z M 120.866669 89 C 122.066666 90.73333 123 93.400002 123 94.866669 C 123 96.333336 123.666672 97.933334 124.333328 98.333336 C 125.133331 98.73333 125.666672 103 125.666672 107.666664 C 125.666672 112.333336 126.333328 116.599998 127 117 C 128.600006 117.933334 128.733337 116.866669 128.333328 105.933334 C 128.066666 96.866669 129.53334 95.400002 133.133331 101.26667 L 137.933334 108.73333 C 141.133331 113.26667 140.199997 120.333336 136.333328 120.333336 C 135.133331 120.333336 133.266663 121.26667 132.333328 122.333336 C 131.399994 123.400002 129.800003 124.333328 128.866669 124.333328 C 127.800003 124.333328 127 124.866669 127 125.666672 C 127 127.266663 120.733337 127.400002 119.800003 125.800003 C 119.399994 125.133331 121.666672 123.933334 125 123.133331 C 128.333328 122.333336 131 121 131 120.199997 C 131 118.199997 119.399994 119.933334 115.533333 122.333336 C 113.666664 123.533333 112.066666 123.666672 110.466667 122.73333 C 109.26667 122.066666 107.26667 121.800003 106.199997 122.199997 C 105 122.599998 104.066666 121.666664 103.533333 119.26667 C 102.066666 113.400002 96.599998 103.400002 94.333336 102.466667 C 93.133331 102.066666 92.599998 101.133331 93 100.333336 C 94.466667 98.066666 98.866669 98.866669 100.333336 101.666664 C 102.466667 105.533333 104.333336 103.666664 104.333336 97.666664 C 104.333336 94.866669 104.866669 91 105.666664 89.133331 C 106.73333 86.066666 107.666664 85.666664 112.866669 85.666664 C 117.533333 85.666664 119.133331 86.333336 120.866669 89 Z M 129.666672 90.866669 C 129.666672 94.333336 127.53334 95.533333 126.46666 92.866669 C 125.133331 89.533333 125.53334 88.333336 127.666672 88.333336 C 128.733337 88.333336 129.666672 89.533333 129.666672 90.866669 Z M 207 92.599998 L 218.866669 102.199997 C 225.399994 107.26667 225.666672 107.666664 225.53334 113.533333 C 225.399994 116.866669 224.866669 121.400002 224.333328 123.666672 C 223.53334 126.733337 223.266663 125.800003 223.133331 119 C 223 110.333336 222.866669 110.199997 217.133331 105.26667 L 210.46666 100.333336 C 210.066666 100.333336 208.46666 99.133331 207 97.666664 C 205.53334 96.199997 203.133331 95 201.666672 95 C 199.666672 95 199 94.066666 199 91.666664 C 199 87.26667 201 87.400002 207 92.599998 Z M 102.066666 90.466667 C 103.26667 91.666664 100.066666 97.800003 98.466667 97.26667 C 97.666664 97 96.866669 95.133331 96.599998 93.26667 C 96.199997 90.466667 96.73333 89.666664 98.73333 89.666664 C 100.066666 89.666664 101.533333 90.066666 102.066666 90.466667 Z M 203.800003 104.599998 L 203.133331 111.26667 C 203.133331 112.599998 202.46666 113.666664 201.666672 113.666664 C 200.199997 113.666664 199.800003 102.599998 201.266663 101.26667 C 203.266663 99.26667 204.333328 100.599998 203.800003 104.599998 Z M 93 109.666664 C 93.666664 112.466667 93.133331 113.26667 89.666664 114.866669 C 83.26667 117.666664 81.800003 115 86.333336 109 C 90.199997 103.933334 91.666664 104.066666 93 109.666664 Z M 211.666672 112.599998 C 211 122.199997 208.333328 122.73333 208.333328 113.26667 C 208.333328 109.400002 208.733337 105.666664 209.133331 105.26667 C 211.133331 103.26667 212.199997 106.199997 211.666672 112.599998 Z M 197.933334 110.73333 C 197.53334 113.800003 198.46666 115.133331 204.333328 119.666664 L 215.53334 128.600006 C 218.866669 131.266663 220.333328 131.800003 221.399994 130.733337 C 222.333328 129.800003 223.266663 129.533325 223.666672 129.933334 C 224.199997 130.333328 223.800003 139.266663 223 149.800003 C 221.53334 168.600006 220.46666 171.800003 216.600006 170.333328 C 215.53334 169.933334 211.53334 169.666672 207.53334 169.666672 C 201.800003 169.666672 200.066666 169.133331 199.53334 167.266663 L 196.199997 159.533325 C 193.666672 154.066666 192.733337 143 194.733337 143 C 195.399994 143 196.333328 144.466675 197.133331 146.333328 C 199.266663 152.199997 211.399994 165.666672 214.46666 165.666672 C 217.53334 165.666672 217.800003 164.600006 219.800003 146.199997 C 220.600006 139.399994 220.46666 139.266663 214.46666 133.533325 C 211 130.466675 206.199997 126.333328 203.666672 124.599998 C 199.666672 121.800003 198.733337 121.533333 196.866669 123.133331 C 194.866669 124.733337 194.733337 124.199997 195.399994 117.400002 C 195.933334 111 197 107 198.199997 107 L 197.933334 110.73333 Z M 216.333328 115.133331 C 216.333328 119.933334 215.800003 121.666664 214.733337 121.26667 C 213.800003 121 213.133331 119.933334 213.399994 119.133331 L 214.199997 113.26667 C 215 108.066666 214.866669 108.333336 215.666672 108.333336 C 216.066666 108.333336 216.333328 111.400002 216.333328 115.133331 Z M 252.066681 111.666664 C 253.266663 112.73333 249.533325 149.666672 247.666656 155.533325 C 246.600006 159.133331 245.666672 163.800003 245.666672 165.800003 C 245.666672 170.333328 243 171.399994 232.199997 170.733337 L 225 170.333328 L 229.53334 111.666664 C 229.666672 110.466667 250.866669 110.466667 252.066681 111.666664 Z M 221.666672 119.800003 C 221.666672 124.066666 221.133331 125.666672 220.066666 125.266663 C 219 125 218.46666 122.866669 218.600006 120.199997 C 218.866669 113.800003 218.866669 113.666664 220.333328 113.666664 C 221.133331 113.666664 221.666672 116.466667 221.666672 119.800003 Z M 99 118.333336 C 101.133331 120.866669 99.800003 122.599998 95.133331 123.266663 C 90.866669 123.933334 89.133331 121.933334 90.466667 118.333336 C 91.533333 115.800003 96.866669 115.800003 99 118.333336 Z M 137.666672 126.199997 C 137.666672 128.333328 135.133331 129.533325 132.600006 128.600006 C 131.399994 128.199997 131.266663 127.533333 132.46666 126.199997 C 134.46666 123.800003 137.666672 123.800003 137.666672 126.199997 Z M 196.333328 130.333328 C 196.333328 135.666672 194.333328 136.733337 193.933334 131.533325 C 193.666672 128.199997 194.46666 125.666672 195.800003 125.666672 C 196.066666 125.666672 196.333328 127.800003 196.333328 130.333328 Z M 201.53334 134.600006 C 201.266663 139.666672 200.866669 144.199997 200.46666 145 C 199.266663 147.266663 198.333328 140.466675 198.733337 133 C 199.399994 122.199997 201.933334 123.800003 201.53334 134.600006 Z M 71.533333 128.066666 C 71.933334 128.733337 71.26667 131.800003 70.199997 135 C 69.133331 138.066666 68.066666 143.666672 67.933334 147.133331 L 67.666664 153.533325 L 85 154.466675 C 107 155.666672 110.333336 155.666672 125.666672 153.800003 C 132.600006 152.866669 141.399994 152.066666 145 151.933334 L 151.666672 151.666672 L 151.266663 156.199997 C 150.866669 159.399994 151.666672 161.533325 153.933334 163.933334 C 158.866669 169.266663 161.133331 170.066666 166.066666 167.800003 L 176.600006 163.133331 C 185.53334 159.133331 186.600006 156.466675 182.066666 149.399994 C 177.399994 142.199997 176.733337 141.666672 171.266663 141.666672 C 167.933334 141.666672 166.600006 142.466675 165.399994 145 C 164.46666 147.133331 163.133331 148.199997 161.933334 147.666672 C 161 147.266663 159 147.666672 157.666672 148.333328 C 154.199997 150.199997 152.866669 147.399994 151.933334 135.933334 L 151.133331 127 L 175 127 L 179.399994 133.933334 C 181.800003 137.800003 186.066666 145.800003 189 151.666672 C 196.199997 166.600006 196.866669 168.199997 196.199997 168.866669 C 195.666672 169.533325 166.066666 170.333328 97.800003 171.800003 C 77 172.199997 59.133331 172.866669 58.199997 173.266663 C 55.933334 174.066666 55.666664 173.266663 53.799999 156.600006 L 52.200001 142.866669 L 57 135 C 61.400002 127.800003 62.333336 127 66.333336 127 C 68.866669 127 71.133331 127.533333 71.533333 128.066666 Z M 75.800003 136.066666 C 74.599998 140.466675 73.666664 145.266663 73.666664 146.866669 C 73.666664 148.600006 72.866669 149.666672 71.533333 149.666672 C 69.800003 149.666672 69.533333 148.733337 70.333336 144.866669 C 70.73333 142.199997 71.933334 138.199997 73 135.800003 L 75.666664 129.133331 C 76.066666 127.800003 76.73333 127 77.133331 127.266663 C 77.533333 127.666672 76.866669 131.666672 75.800003 136.066666 Z M 206.733337 140.333328 C 206.46666 146.199997 205.933334 151 205.399994 151 C 203.53334 151 202.733337 143.933334 203.666672 136.733337 C 205 125.666672 207.266663 128.199997 206.733337 140.333328 Z M 211.53334 138.600006 L 208.600006 158.333328 L 208.46666 150.866669 C 208.333328 142.199997 209.53334 135 211.133331 135 C 211.800003 135 211.933334 136.600006 211.53334 138.600006 Z M 215.666672 155.933334 C 214.333328 167.133331 212.066666 164.466675 213 152.600006 C 213.53334 147 214.199997 141.399994 214.733337 140.333328 C 216.066666 137.266663 216.600006 148.066666 215.666672 155.933334 Z M 176.066666 146.466675 C 179.933334 149.133331 179.800003 152.866669 175.53334 155.666672 C 173.666672 156.866669 172.066666 157.666672 171.933334 157.399994 L 169.266663 152.600006 C 167.266663 149.133331 167.133331 147.800003 168.333328 146.333328 C 170.46666 143.800003 172.333328 143.800003 176.066666 146.466675 Z M 147.666672 147 C 148.066666 147.666672 148.066666 148.333328 147.399994 148.333328 C 137.933334 148.600006 114.199997 151.399994 112.866669 152.466675 C 111.800003 153.399994 109 153.666672 106.066666 153.133331 L 89.933334 151.133331 C 83.800003 150.466675 78.333336 149.533325 77.933334 149 C 77.400002 148.466675 85.133331 148.199997 95 148.333328 C 104.866669 148.466675 118.466667 147.933334 125 147.266663 C 142.066666 145.533325 146.733337 145.533325 147.666672 147 Z M 166.066666 153.800003 C 168.733337 156.866669 168.199997 160.333328 165.133331 160.333328 C 162.333328 160.333328 155 155.933334 155 154.199997 C 155 150.066666 162.733337 149.800003 166.066666 153.800003 Z M 180.333328 157.399994 C 180.333328 159.133331 178.733337 160.333328 177.399994 159.533325 C 176.066666 158.733337 177.266663 156.333328 179.133331 156.333328 C 179.800003 156.333328 180.333328 156.866669 180.333328 157.399994 Z M 160.333328 162.333328 C 163.133331 165.666672 160.46666 166.466675 157.399994 163.266663 C 155 160.866669 154.866669 160.333328 156.600006 160.333328 C 157.666672 160.333328 159.399994 161.266663 160.333328 162.333328 Z M 168.333328 163.533325 L 166.333328 164.866669 C 165.266663 165.266663 164.333328 165 164.333328 164.333328 C 164.333328 163.533325 165.266663 163 166.333328 163 C 167.399994 163 168.333328 163.266663 168.333328 163.533325 Z"/>
        <path id="path2" fill="#000000" stroke="none" d="M 58.466667 99.26667 C 57.26667 100.866669 56.333336 103 56.333336 103.933334 C 56.333336 106.466667 59 106.066666 59.933334 103.26667 C 60.333336 102.066666 61.933334 99.933334 63.533333 98.73333 L 66.333336 96.333336 L 63.400002 96.333336 C 61.800003 96.333336 59.533333 97.666664 58.466667 99.26667 Z"/>
        <path id="path3" fill="#000000" stroke="none" d="M 68.333336 102.199997 C 67.533333 103.26667 67 105.533333 67.400002 107.26667 L 67.933334 110.333336 L 69 107.400002 C 69.533333 105.800003 70.866669 104.199997 71.933334 103.800003 C 73 103.400002 73.400002 102.466667 73 101.666664 C 71.800003 99.800003 70.333336 100.066666 68.333336 102.199997 Z"/>
        <path id="path4" fill="#000000" stroke="none" d="M 85.133331 131.399994 C 83.400002 132.733337 85.26667 133 93.933334 133.133331 C 101.26667 133.266663 103.666664 132.866669 101 132.199997 C 92.599998 130.199997 87.133331 129.933334 85.133331 131.399994 Z"/>
        <path id="path5" fill="#000000" stroke="none" d="M 122.733337 133.266663 C 123.666672 133.666672 124.866669 133.533325 125.266663 133.133331 C 125.800003 132.733337 125 132.333328 123.53334 132.466675 C 122.066666 132.466675 121.666672 132.866669 122.733337 133.266663 Z"/>
        <path id="path6" fill="#000000" stroke="none" d="M 137 135 C 133 136.066666 133 136.066666 138.066666 136.199997 C 141.133331 136.333328 142.866669 135.800003 142.333328 135 L 141.266663 133.800003 L 137 135 Z"/>
        <path id="path7" fill="#000000" stroke="none" d="M 90.066666 135.800003 C 91.400002 137.266663 101.666664 138.733337 102.333336 137.666672 C 102.73333 137.133331 101.133331 136.333328 98.866669 135.800003 C 93.533333 134.733337 89 134.733337 90.066666 135.800003 Z"/>
        <path id="path8" fill="#000000" stroke="none" d="M 123 139 C 123 139.666672 123.666672 140.333328 124.333328 140.333328 C 125.133331 140.333328 125.666672 139.666672 125.666672 139 C 125.666672 138.199997 125.133331 137.666672 124.333328 137.666672 C 123.666672 137.666672 123 138.199997 123 139 Z"/>
        <path id="path9" fill="#000000" stroke="none" d="M 81.800003 140.866669 L 93.666664 142.066666 C 101.800003 142.600006 103.533333 142.466675 99.666664 141.666672 C 94.333336 140.466675 80.73333 139.933334 81.800003 140.866669 Z"/>
        <path id="path10" fill="#000000" stroke="none" d="M 117.400002 141.266663 C 118.333336 141.666672 119.53334 141.533325 119.933334 141.133331 C 120.46666 140.733337 119.666672 140.333328 118.199997 140.466675 C 116.73333 140.466675 116.333336 140.866669 117.400002 141.266663 Z"/>
        <path id="path11" fill="#000000" stroke="none" d="M 101 55 C 100.466667 55.800003 102.066666 56.333328 104.866669 56.333328 C 107.533333 56.333328 109.666664 55.666672 109.666664 55 C 109.666664 54.199997 107.933334 53.666672 105.800003 53.666672 C 103.533333 53.666672 101.400002 54.199997 101 55 Z"/>
        <path id="path12" fill="#000000" stroke="none" d="M 121.266663 65.133331 C 119.399994 67.133331 120.46666 69.666664 123.133331 69.666664 C 125 69.666664 125.666672 69 125.399994 67.400002 C 125 65 122.733337 63.800003 121.266663 65.133331 Z"/>
        <path id="path13" fill="#000000" stroke="none" d="M 105.26667 66.466667 C 103.800003 67.933334 105.666664 69.666664 108.466667 69.666664 C 110.066666 69.666664 111 69 110.73333 67.933334 C 110.066666 66.066666 106.599998 65.133331 105.26667 66.466667 Z"/>
    </g>
</svg>
