<?xml version="1.0" encoding="UTF-8"?>
<!-- Generated by Pixelmator Pro 3.6.12 -->
<svg width="297" height="203" viewBox="0 0 297 203" xmlns="http://www.w3.org/2000/svg">
    <g id="g1">
        <path id="path1" fill="#000000" stroke="none" d="M 227 1.46666 C 178.199997 4.666672 168.46666 5.066666 141 4.266663 C 130.46666 4 122.066666 4.399994 119.666672 5.199997 C 116.466667 6.399994 94.866669 6.800003 84.333336 5.866669 C 80.599998 5.600006 69 7.733337 67.400002 9.066666 C 65.26667 10.666672 65.133331 39.733337 67.133331 59.866669 C 68.066666 70 68.199997 74.666672 67.133331 75.733337 C 66.199997 76.666672 65.400002 76 64.466667 73.600006 C 62.599998 68.666672 59 67.199997 54.333332 69.333328 L 37 77.600006 C 33.666668 79.466667 19.533333 86 9.266666 90.533333 C 5.133333 92.400002 1.266666 94.800003 0.866667 95.866669 C 0.466666 96.933334 1.666667 101.599998 3.666667 106.26667 L 10.866667 124.666664 C 14.200001 133.466675 19.666666 144.533325 33.933334 171.199997 L 38.866665 179.733337 C 39.400002 180.266663 42.733334 178.800003 46.200001 176.666672 C 49.799999 174.399994 53 172.933334 53.533333 173.333328 L 57 179.733337 C 58.466667 182.800003 60.333336 185.199997 61 185.199997 L 70.866669 183.199997 L 71.666664 202.666672 L 109.666664 202.399994 C 130.600006 202.266663 151.933334 201.733337 157 201.333328 C 177.133331 199.733337 182.066666 199.46666 215.133331 198.53334 C 245.666672 197.733337 249.666656 197.866669 252.466675 199.866669 C 256.733337 202.800003 262.466675 202.53334 266.733337 199.199997 C 270.066681 196.666672 270.333344 195.733337 269.933319 188.133331 L 269.399994 179.733337 L 274.600006 178.933334 C 277.399994 178.399994 283 178 287.133331 178 C 292.866669 178 294.866669 177.466675 295.533325 175.866669 C 296.600006 173.066666 296.600006 119.466667 295.533325 114.133331 L 294.733337 110 L 261.933319 110 L 261.266663 105.599998 C 260.866669 103.333336 260.466675 86.933334 260.333344 69.333328 C 260.200012 51.733337 259.799988 35.199997 259.533325 32.666672 L 258.866669 16 C 258.733337 9.333328 258.066681 3.199997 257.266663 2.266663 C 256.066681 0.800003 243.933334 0.399994 227 1.46666 Z M 254.200012 16.266663 L 255 38.133331 C 255 48.53334 254.733337 49.733337 252.733337 49.333328 L 249.399994 48.800003 C 248.733337 48.666672 248.333344 47.46666 248.333344 46 C 248.333344 44.53334 247.933319 43.333328 247.399994 43.333328 C 246.733337 43.333328 245.266663 41.733337 243.933334 40 C 241.666672 36.800003 241.666672 36.53334 244.333328 31.46666 C 247.666656 24.800003 247.666656 23.333328 244.46666 23.333328 C 242.733337 23.333328 241.399994 24.800003 240.333328 28 C 238.866669 32.53334 238.733337 32.53334 231.266663 32.266663 L 223.666672 32 L 223.933334 35.866669 C 224.199997 38.53334 223.399994 40.399994 221.666672 41.600006 C 219.53334 43.066666 219.266663 44 220.333328 46 C 222.46666 50 221.933334 51.333328 218.333328 51.333328 C 216.46666 51.333328 215 50.53334 215 49.600006 C 215 48.53334 213.53334 46.399994 211.666672 44.666672 C 209.800003 42.933334 208.333328 40.800003 208.333328 39.733337 C 208.333328 38.666672 206.733337 38 204.333328 38 C 201.800003 38 200.333328 38.666672 200.333328 39.866669 C 200.333328 40.800003 199.53334 42.266663 198.600006 43.066666 C 197.266663 44.133331 195.933334 43.600006 193.133331 40.666672 C 189.266663 36.399994 189.266663 32.933334 193.266663 28.399994 C 196.199997 25.066666 194.600006 21.46666 191 23.333328 C 188.733337 24.53334 187.800003 24.266663 185.933334 22.133331 C 184.199997 20 183.133331 19.733337 181.666672 20.666672 C 179.933334 21.866669 180.199997 22.53334 183.399994 25.46666 C 186.199997 27.866669 187 29.333328 186.199997 31.066666 L 183.53334 41.600006 C 183.133331 44.800003 183.53334 46 184.866669 46 C 185.933334 46 187.266663 45.333328 187.666672 44.53334 C 188.333328 43.733337 189.399994 44.133331 190.600006 45.866669 C 192.600006 48.800003 201.666672 50 201.666672 47.333328 C 201.666672 46.53334 202.600006 46 203.800003 46 C 206.066666 46 210.333328 49.733337 209.266663 50.800003 C 208.866669 51.199997 198.733337 51.733337 186.733337 52 L 148.733337 53.333328 C 134.199997 54.266663 132.333328 54.133331 132.333328 52.266663 C 132.333328 51.066666 133 49.733337 133.666672 49.333328 C 134.46666 48.933334 135 47.600006 135 46.53334 C 135 43.866669 138.199997 40.666672 140.866669 40.666672 C 142.066666 40.666672 143.666672 39.46666 144.600006 38.133331 C 145.399994 36.800003 147 35.866669 147.933334 36.266663 C 148.866669 36.666672 150.600006 36.133331 151.800003 35.199997 C 153.53334 33.866669 154.066666 33.866669 155 35.333328 C 156.199997 37.199997 154.600006 40.800003 150.46666 45.733337 C 148.333328 48 148.199997 49.066666 149.399994 50.266663 C 152.066666 52.933334 155.399994 49.866669 158.333328 42.133331 C 161.666672 33.600006 164.333328 33.199997 164.333328 41.333328 C 164.333328 45.333328 165 47.600006 166.199997 48.133331 C 168.46666 49.066666 176.333328 45.199997 176.333328 43.199997 C 176.333328 42.399994 177.53334 42.133331 178.866669 42.666672 C 182.600006 43.866669 183.266663 41.46666 180.199997 38.266663 C 176.866669 34.53334 172.333328 34.399994 172.333328 37.866669 C 172.333328 40.933334 170.199997 42.666672 169 40.666672 C 168.46666 39.866669 169.399994 36.800003 170.866669 34 C 172.733337 30.266663 173.133331 28.666672 171.933334 28.53334 C 168.199997 28.133331 164.866669 29.066666 162.600006 31.066666 C 159.666672 33.600006 157.800003 32 156.46666 25.866669 C 155.666672 21.600006 151.933334 18 150.199997 19.733337 C 149.666672 20.266663 149.933334 22.266663 150.866669 24.133331 C 152.199997 27.199997 152.066666 28 149.53334 30.399994 C 147.800003 32 146.46666 32.53334 145.800003 31.600006 C 145.399994 30.800003 143.266663 29.733337 141.266663 29.333328 C 139 28.666672 137 27.066666 136.199997 25.066666 C 134.600006 20.933334 131.53334 21.866669 132.066666 26.266663 C 132.733337 31.199997 130.066666 32.133331 129 27.333328 C 128.066666 23.199997 126.46666 22.133331 125.266663 25.066666 C 124.46666 27.333328 125.666672 38.399994 127 39.733337 C 127.53334 40.399994 128.866669 39.866669 130.066666 38.800003 L 132.733337 36.666672 C 133.933334 36.666672 131.933334 44.133331 130.066666 46.266663 C 129 47.46666 128.333328 49.46666 128.600006 50.800003 C 129 53.066666 127.666672 53.333328 115 53.600006 C 107.26667 53.866669 97.133331 54.399994 92.333336 54.933334 C 87.533333 55.333328 83.133331 55.600006 82.333336 55.333328 L 76.333336 54.800003 C 71.800003 54.666672 71.666664 54.53334 70.73333 48 C 70.199997 44.266663 69.800003 34.53334 69.933334 26.266663 L 70.066666 11.333328 L 73.800003 11.333328 C 75.800003 11.333328 79 10.800003 80.866669 10 C 82.866669 9.333328 84.333336 9.199997 84.333336 10 C 84.333336 11.46666 118.199997 10.800003 123.266663 9.199997 C 125.266663 8.53334 135.133331 8.399994 145.266663 8.800003 C 155.399994 9.333328 167.53334 9.46666 172.333328 9.066666 C 199.933334 7.066666 213.800003 6.399994 232.46666 6.133331 L 253.266663 6 L 254.200012 16.266663 Z M 237.266663 39.866669 C 241.133331 44.266663 243.399994 48.666672 242.333328 49.733337 C 241.133331 50.933334 228.333328 51.199997 228.333328 50 C 228.333328 49.46666 229.800003 48.399994 231.666672 47.600006 C 235.133331 46 235 42.800003 231.53334 41.46666 C 228.866669 40.399994 229.266663 36.666672 232.066666 36.666672 C 233.399994 36.666672 235.800003 38.133331 237.266663 39.866669 Z M 255.533325 82.26667 L 256.333344 109.73333 L 223 110.533333 C 222.600006 110.400002 222.600006 104.800003 223 98 C 223.399994 91.199997 223.266663 85.066666 222.733337 84.26667 C 222.333328 83.599998 220.46666 82.800003 218.733337 82.533333 L 205 80.800003 C 199.133331 80 179.133331 79.199997 160.600006 79.066666 C 132.733337 78.800003 126.600006 79.199997 125 80.800003 C 123.53334 82.26667 123 87.066666 122.866669 101.73333 L 122.733337 120.800003 L 115.26667 124.133331 C 111.133331 125.866669 107.133331 127.199997 106.466667 126.800003 C 105.666664 126.533333 103.933334 123.066666 102.466667 119.199997 C 101.133331 115.199997 98.466667 108.666664 96.466667 104.666664 C 94.466667 100.666664 91.666664 94.26667 90.333336 90.400002 C 89 86.533333 87.133331 83.199997 86.333336 82.800003 C 85.533333 82.533333 82.466667 83.066666 79.666664 84.133331 L 74.199997 85.599998 L 73 60.800003 L 136.333328 58.666672 C 191.133331 57.333328 250.066681 55.199997 251 54.399994 L 253.133331 54.266663 C 254.466675 54.53334 255 61.866669 255.533325 82.26667 Z M 61.666664 76 C 62.333336 77.866669 63.533333 79.333336 64.333336 79.333336 C 65.133331 79.333336 65.400002 80 64.866669 80.800003 C 64.333336 81.866669 61.400002 82 56.199997 81.466667 C 51.933334 80.933334 47.400002 81.066666 46.066666 81.866669 L 41.133335 83.866669 C 39.533333 84.400002 38.866665 85.599998 39.400002 87.333336 C 40.066666 90.133331 37.266666 91.199997 35.666668 88.666664 C 35.133335 87.73333 33.933334 87.73333 32.200001 88.666664 C 30.333332 89.73333 29.799999 90.933334 30.466667 93.333336 C 31.400002 97.066666 29.133335 98 27.799999 94.533333 C 26.066666 89.866669 9.666666 95.199997 9.666666 100.400002 C 9.666666 101.599998 11.533333 106.533333 13.799999 111.199997 C 17.799999 119.466667 18.066668 119.599998 22.066668 118.666664 L 28.200001 117.599998 C 29.266666 117.466667 31.266666 120.400002 32.866665 124.666664 L 51.933334 168.399994 L 40.599998 175.333328 C 40.066666 175.199997 38.466667 172.666672 37 169.600006 L 25.266666 147.066666 C 20.333334 137.733337 16.333334 129.333344 16.333334 128.399994 C 16.333334 127.466667 15.533333 125.199997 14.6 123.333336 L 9.799999 111.599998 C 8.066668 107.066666 6.066667 102.933334 5.533334 102.533333 C 2.466666 100.666664 4.6 96.800003 10.066668 94.26667 L 30.333332 84.533333 C 57.133331 71.46666 59.666664 70.800003 61.666664 76 Z M 207.399994 84.933334 C 211.53334 85.866669 215 86.933334 215 87.333336 C 214.866669 87.73333 209.666672 90.533333 203.266663 93.73333 C 196.866669 96.800003 188.066666 101.599998 183.666672 104.26667 C 179.399994 106.933334 174.199997 109.066666 172.333328 109.066666 C 168.333328 109.066666 156.866669 102 149 94.800003 C 146.066666 92.133331 142.066666 89.066666 140.066666 87.866669 C 135.800003 85.599998 135.266663 83.866669 138.733337 82.800003 C 142.866669 81.599998 199.53334 83.333336 207.399994 84.933334 Z M 63 85.73333 C 65.533333 85.466667 67.666664 86 67.933334 86.933334 C 68.599998 88.800003 61.400002 92.666664 49.533333 96.533333 C 44.733334 98.133331 39.533333 100.26667 38.200001 101.333336 C 36.866665 102.400002 34.599998 103.333336 33.400002 103.333336 C 29.533333 103.333336 30.733334 99.73333 35 98.133331 C 37.266666 97.466667 39 96.26667 39 95.599998 C 39 95.066666 42.066666 93.466667 45.799999 92.133331 C 50.200001 90.533333 53 88.533333 53.933334 86.533333 C 55 84.26667 55.933334 83.73333 57 84.666664 C 57.933334 85.466667 60.599998 85.866669 63 85.73333 Z M 52.333332 85.199997 C 52.333332 85.599998 51.799999 86.26667 51 86.666664 C 50.333332 87.066666 49.666668 86.800003 49.666668 86.133331 C 49.666668 85.333336 50.333332 84.666664 51 84.666664 C 51.799999 84.666664 52.333332 84.933334 52.333332 85.199997 Z M 134.46666 88.133331 C 141.666672 94.533333 159.666672 108 164.199997 110.533333 C 170.866669 114 177.266663 112.666664 190.066666 105.199997 L 215.266663 90.800003 C 217.133331 89.599998 219 89.066666 219.399994 89.599998 C 219.666672 90.133331 219.53334 100.26667 219.133331 112 L 218.333328 133.333344 L 195.666672 133.733337 C 183.266663 134 169.933334 133.733337 166.066666 133.333344 C 159.266663 132.533325 159.133331 132.399994 156.866669 126.26667 C 153.666672 117.73333 149.666672 112.800003 145.800003 112.800003 C 144.066666 112.666664 139.399994 114.26667 135.53334 116.133331 C 131.666672 118 127.933334 119.333336 127.399994 118.933334 C 126.866669 118.533333 126.46666 110.666664 126.733337 101.466667 C 127.133331 82.933334 127.666672 82.133331 134.46666 88.133331 Z M 45.666668 87.333336 C 45.666668 88 44.733334 88.666664 43.533333 88.666664 C 42.466667 88.666664 41.933334 88 42.333332 87.333336 C 42.733334 86.533333 43.666668 86 44.466667 86 C 45.133335 86 45.666668 86.533333 45.666668 87.333336 Z M 87.666664 94.26667 C 89 98.133331 91.533333 104.26667 93.400002 108 C 95.133331 111.599998 97.800003 118.133331 99.26667 122.533333 C 101.400002 128.933334 101.533333 130.533325 100.066666 131.466675 C 96.866669 133.466675 95.133331 132.666656 94.199997 128.933334 C 93.666664 126.933334 92.466667 124.666664 91.533333 124 C 90.599998 123.199997 89.666664 120.666664 89.400002 118.133331 C 89.133331 115.599998 88.199997 113.333336 87.26667 112.933334 C 84.73333 112.133331 86.73333 123.333336 89.800003 126.800003 C 94.466667 131.866669 91.800003 136.533325 82.599998 138.666656 C 79.400002 139.600006 78.866669 139.199997 78.199997 135.466675 C 77.666664 133.199997 76.866669 131.333344 76.333336 131.333344 C 75.666664 131.333344 74.866669 129.466675 74.333336 127.333336 C 73.800003 125.066666 72.866669 123.333336 72.199997 123.333336 C 70.066666 123.333336 70.866669 128.800003 73.666664 132.266663 C 75.133331 134.133331 76.333336 136.666656 76.333336 138 C 76.333336 139.199997 77.533333 141.333344 79 142.666672 C 80.333336 143.866669 82.333336 147.199997 83.133331 149.866669 C 84.066666 152.533325 86.199997 156.533325 87.933334 158.933334 C 89.666664 161.199997 91.26667 164.800003 91.400002 166.800003 C 91.666664 170.399994 91 170.933334 79.666664 175.466675 C 66.333336 180.933334 60.333336 181.866669 60.333336 178.533325 C 60.333336 177.333328 59.400002 174.800003 58.333336 172.933334 C 55.26667 167.333328 47.400002 149.733337 46.333332 146 C 45.400002 142.933334 42.333332 136 34.066666 118.400002 C 32.200001 114.533333 31 110.400002 31.533333 109.333336 C 32.599998 106.400002 36.333332 106.933334 36.333332 110 C 36.333332 113.466667 43.933334 128.666656 45.666668 128.666656 C 46.333332 128.666656 47.266666 128 47.666668 127.199997 C 48.200001 126.533333 50.066666 125.199997 51.933334 124.533333 C 54.599998 123.466667 55.133331 122.533333 54.733334 119.599998 L 53 113.599998 C 52.333332 111.866669 52.733334 111.333336 54.733334 111.333336 C 56.199997 111.333336 57.666664 110.400002 58.199997 109.333336 C 58.599998 108.26667 60.333336 107.333336 62.066666 107.333336 C 65.666664 107.333336 69 104.133331 67.666664 102 C 66.599998 100.26667 60.333336 100.26667 60.333336 102 C 60.333336 102.666664 58.599998 103.333336 56.333336 103.333336 C 53.666668 103.333336 52.333332 104 52.333332 105.333336 C 52.333332 106.933334 51.799999 107.066666 49.799999 106.133331 C 48.200001 105.199997 45.799999 105.199997 42.866665 106 L 38.200001 106.933334 C 36.866665 105.73333 41.400002 103.333336 53.666668 98.800003 C 61.400002 96 69.133331 92.666664 70.866669 91.599998 C 74.333336 89.466667 79.800003 87.599998 83.133331 87.466667 C 84.466667 87.333336 86.066666 89.866669 87.666664 94.26667 Z M 36.333332 93.333336 C 36.333332 94.400002 35.400002 95.333336 34.333332 95.333336 C 32.200001 95.333336 31.666668 93.73333 33.266666 92.26667 C 34.733334 90.666664 36.333332 91.199997 36.333332 93.333336 Z M 26.733334 98.933334 C 27.533333 101.066666 27.799999 105.333336 27.266666 108.666664 C 26.333332 114.26667 26.066666 114.666664 22.066668 115.066666 C 18.6 115.466667 17.666666 114.933334 17.666666 113.199997 C 17.666666 112 16.333334 108.933334 14.733334 106.26667 C 11.533333 101.066666 12.466667 98 17.799999 96.533333 C 23.666668 94.800003 25.266666 95.333336 26.733334 98.933334 Z M 50.200001 114.533333 L 52.733334 119.73333 L 49.799999 122.26667 C 46.066666 125.199997 45 124.666664 41.533333 117.73333 C 38.200001 111.199997 39 108.400002 43.933334 108.933334 C 46.733334 109.199997 48.333332 110.666664 50.200001 114.533333 Z M 144.866669 119.599998 L 137.800003 142 C 136.333328 146 135.133331 150.399994 135 151.600006 C 135 155.066666 132.866669 155.600006 124.600006 154 C 117.666664 152.666672 96.199997 146.133331 88.333336 143.066666 C 85.133331 141.733337 85.133331 141.600006 87.666664 140.533325 L 129 123.199997 C 131.933334 122.133331 134.600006 120.933334 135 120.400002 C 135.933334 119.199997 141.800003 116.800003 144.066666 116.800003 C 145.266663 116.666664 145.53334 117.599998 144.866669 119.599998 Z M 157.666672 136.133331 C 159 137.733337 166.46666 153.333328 169 160 C 169.266663 160.666672 166.066666 162.933334 161.933334 164.800003 L 138.199997 175.333328 C 137.266663 175.333328 131.133331 178.133331 115.800003 185.466675 C 110.866669 187.866669 108.73333 188.266663 107.400002 187.199997 C 106.466667 186.399994 105.666664 185.066666 105.666664 184.399994 C 105.666664 183.733337 103.933334 180.666672 101.933334 177.600006 C 99.800003 174.533325 96.466667 168.533325 94.599998 164.266663 C 92.599998 160 89.800003 154.800003 88.333336 152.666672 C 86.73333 150.399994 85.800003 148.133331 86.199997 147.466675 C 87 146.266663 96.333336 148.399994 97.666664 150 C 98.466667 151.066666 130.733337 159.333328 133.800003 159.333328 C 135.399994 159.333328 137.53334 154.800003 141.666672 142.266663 C 150.46666 115.866669 149.266663 117.466667 153 126.400002 C 154.600006 130.666656 156.866669 134.933334 157.666672 136.133331 Z M 270.333344 127.333336 C 270.333344 130.533325 270.066681 130.666656 257.666656 131.600006 C 250.733337 132 244.600006 132.133331 244.066666 131.866669 C 243.133331 131.199997 242.46666 126.133331 243.399994 125.866669 L 251.666656 125.066666 C 256.066681 124.666664 259.933319 124.133331 260.333344 123.73333 C 260.600006 123.466667 263 123.333336 265.666656 123.599998 C 269.666656 124 270.333344 124.533333 270.333344 127.333336 Z M 221 145.199997 L 221.666672 164.533325 C 222.333328 179.066666 222.600006 179.333328 237.666672 179.333328 C 250.200012 179.333328 251 179.733337 251 186.800003 L 251 192.666672 L 215.666672 193.46666 C 205 194.666672 151.53334 196.800003 116.066666 197.46666 L 76.599998 198.133331 L 76.066666 190.666672 C 75.533333 181.866669 76.333336 180.800003 87 176.800003 L 94.466667 174 C 95.133331 174 102.866669 187.466675 103.533333 189.600006 C 105.133331 194.53334 105.533333 194.266663 136.333328 180.666672 L 158.600006 170.533325 C 163.933334 168 169.133331 166 170.199997 166 C 171.266663 166 172.600006 164.800003 173 163.333328 C 173.800003 160.800003 172.066666 155.866669 165.53334 142.933334 L 163 137.866669 L 221 138.399994 L 221 145.199997 Z M 276.866669 140.133331 C 278.466675 144.266663 275.533325 146.666672 268.733337 146.800003 L 261.533325 147.199997 C 261.133331 147.199997 261.399994 150.933334 262.066681 155.199997 C 263.666656 165.600006 262.866669 167.600006 257.399994 167.066666 L 253 166.666672 L 253.799988 147.466675 L 246.066666 147.066666 C 238.866669 146.666672 238.333328 146.399994 238.333328 143.333328 C 238.333328 140 238.46666 140 251.666656 139.199997 C 276.466675 137.866669 275.933319 137.866669 276.866669 140.133331 Z"/>
        <path id="path2" fill="#000000" stroke="none" d="M 207.399994 20.800003 C 203.666672 23.199997 203.133331 24.133331 203.800003 27.066666 C 205.133331 32.399994 205.399994 32.666672 209.933334 32.666672 C 212.866669 32.666672 214.066666 33.46666 214.600006 35.333328 C 215.666672 39.600006 219.800003 38.133331 219.266663 33.600006 C 219.133331 31.600006 219.53334 29.866669 220.333328 29.866669 L 223.399994 29.46666 C 227.800003 29.066666 222.733337 21.733337 216.46666 19.600006 C 211.133331 17.733337 212.46666 17.46666 207.399994 20.800003 Z"/>
        <path id="path3" fill="#000000" stroke="none" d="M 104.866669 21.866669 C 102.466667 23.333328 100.333336 25.199997 99.933334 26.266663 C 99.400002 27.46666 98.73333 27.199997 97.133331 25.066666 C 93 19.46666 76.199997 20.133331 74.333336 26.133331 C 73 30 73.26667 37.199997 74.866669 42.666672 C 76.066666 47.066666 77.133331 48.399994 80.866669 49.733337 C 84.866669 51.199997 85.933334 51.066666 89.666664 48.800003 C 92.066666 47.333328 95.133331 44.53334 96.466667 42.399994 C 98.066666 40 99 39.46666 99 40.800003 C 99 44.53334 103.666664 47.46666 109.800003 47.600006 C 117.933334 47.733337 121.666672 43.199997 121.666672 33.46666 C 121.666672 25.199997 119.133331 21.333328 113 20.133331 C 110.333336 19.600006 107.666664 20.133331 104.866669 21.866669 Z M 92.066666 27.600006 C 94.199997 29.733337 94.066666 35.199997 92.066666 39.600006 C 90.466667 42.933334 87.533333 44.666672 83.400002 44.666672 C 77.533333 44.666672 75.400002 31.733337 80.599998 28.133331 C 84.199997 25.600006 89.800003 25.333328 92.066666 27.600006 Z M 116.066666 32.399994 C 116.599998 39.199997 114.73333 42 109.800003 42 C 105.133331 42 103 39.733337 103 34.800003 C 103 29.333328 106.599998 25.733337 111.533333 26.266663 C 115.400002 26.666672 115.666664 27.066666 116.066666 32.399994 Z"/>
        <path id="path4" fill="#000000" stroke="none" d="M 175.933334 22.933334 C 174.333328 24.399994 175 29.600006 176.866669 31.199997 C 179.53334 33.333328 180.733337 30.933334 179.666672 26 C 178.866669 22.133331 177.666672 21.066666 175.933334 22.933334 Z"/>
        <path id="path5" fill="#000000" stroke="none" d="M 70.599998 96.26667 C 69.133331 97.599998 69.533333 101.73333 71.26667 102.800003 C 72.866669 103.866669 76.333336 100 76.333336 97.066666 C 76.333336 95.333336 72.066666 94.666664 70.599998 96.26667 Z"/>
        <path id="path6" fill="#000000" stroke="none" d="M 79 100 C 79 101.199997 79.666664 102 80.466667 101.73333 C 81.26667 101.466667 81.933334 100.666664 81.933334 100 C 81.933334 99.333336 81.26667 98.533333 80.466667 98.26667 C 79.666664 98 79 98.800003 79 100 Z"/>
        <path id="path7" fill="#000000" stroke="none" d="M 83 132.666656 C 83 133.333344 83.666664 134 84.466667 134 C 85.133331 134 85.400002 133.333344 85 132.666656 C 84.599998 131.866669 83.933334 131.333344 83.533333 131.333344 C 83.26667 131.333344 83 131.866669 83 132.666656 Z"/>
        <path id="path8" fill="#000000" stroke="none" d="M 68.333336 145.600006 C 68.333336 147.199997 69 148.666672 69.800003 148.933334 C 70.599998 149.199997 71.400002 151.466675 71.533333 154.133331 C 71.933334 159.866669 76.333336 170.133331 77.933334 169.199997 C 79.666664 168.133331 79.133331 163.733337 77 162 C 75.800003 161.066666 75 158.133331 75 155.199997 C 75 151.733337 73.933334 148.933334 71.666664 146.399994 C 68.599998 142.800003 68.466667 142.800003 68.333336 145.600006 Z"/>
    </g>
</svg>
