<?xml version="1.0" encoding="UTF-8"?>
<!-- Generated by Pixelmator Pro 3.6.12 -->
<svg width="292" height="176" viewBox="0 0 292 176" xmlns="http://www.w3.org/2000/svg">
    <g id="g1">
        <path id="path1" fill="#000000" stroke="none" d="M 152.066666 1.53334 C 147.53334 1.933334 143.399994 2.866669 142.733337 3.399994 C 142.199997 4.066666 141.666672 11.800003 141.666672 20.733337 L 141.666672 37 L 125 37.933334 C 71.133331 40.866669 54.599998 41.933334 51 43 L 35.666668 46.333328 C 29.533333 47.399994 23.933332 48.866669 23.4 49.399994 C 22.866667 49.933334 23 55.133331 23.666666 61 L 27.666668 102.333336 C 29.133335 119.133331 31.266666 138.733337 32.333332 145.800003 C 33.400002 152.866669 34.333332 161 34.333332 163.933334 C 34.333332 169.266663 34.333332 169.266663 28.200001 170.199997 C 24.733334 170.600006 18.333334 171 13.799999 171 C 9.266666 171 4.333333 171.399994 2.6 171.800003 C -1.4 172.866669 -0.333333 175.800003 3.8 175.266663 C 36.866665 171 172.600006 168.333328 254.066681 170.46666 C 281.933319 171.133331 291.666656 171 291.666656 169.800003 C 291.666656 168.866669 287.533325 168.333328 278.466675 168.333328 C 271.133331 168.333328 264.866669 167.933334 264.600006 167.399994 C 264.200012 166.733337 264.466675 159.666672 265.133331 151.666672 C 267.399994 123.800003 268.866669 94.199997 269.666656 59.666664 L 270.600006 24.866669 L 261.399994 18.066666 C 245.666672 6.333328 235.800003 3.800003 199 1.800003 C 172.333328 0.199997 165.53334 0.199997 152.066666 1.53334 Z M 211.666672 6.199997 L 234.333328 8.46666 L 233 59.400002 L 220.066666 58.333336 C 201.266663 56.866669 146.866669 57.133331 109 58.866669 C 70.333336 60.73333 37.666668 63.26667 36.200001 64.599998 C 35.666668 65.26667 33.533333 65.666664 31.400002 65.666664 C 28.066666 65.666664 27.666668 65.133331 27.400002 61 L 27.133335 54.066666 C 27 52.46666 28.466667 51.399994 31.666668 50.733337 L 41.666668 48.46666 C 47.266666 46.866669 81.666664 43.800003 121.666672 41.266663 L 145.666672 39.666672 L 145.666672 6.333328 L 150.333328 5.399994 C 155.53334 4.46666 198.066666 5 211.666672 6.199997 Z M 255 18.46666 C 266.333344 26.333328 268.200012 28.600006 267.133331 34.066666 C 266.733337 36.46666 265.799988 56.466667 265 78.466667 C 264.333344 100.333336 263 129.399994 262.200012 142.866669 L 260.466675 167.266663 L 231.266663 165.666672 L 232.066666 136.066666 C 232.600006 119.666672 233.53334 98.73333 234.333328 89.400002 C 235.133331 80.066666 236.066666 63 236.333328 51.399994 L 238.600006 10.066666 L 242.866669 11.53334 C 245.133331 12.199997 250.600006 15.399994 255 18.46666 Z M 213.53334 61.533333 L 233.266663 61.666664 L 230.333328 98.333336 C 228.46666 114.466667 227.666672 129.933334 227.666672 148.600006 L 227.666672 165.666672 L 213.666672 165.666672 C 203.53334 165.666672 199.399994 165.133331 199.133331 164.066666 L 197.133331 150.333328 C 196.199997 143.666672 194.333328 135.666672 192.866669 132.466675 C 189.666672 125.133331 189.666672 123.800003 193.266663 118.866669 C 197.800003 112.866669 197.666672 98.73333 193.133331 92.599998 C 188.333328 86.333336 184.333328 84.199997 175.800003 83.400002 C 169.800003 82.866669 167 83.26667 162.866669 85.400002 C 156.866669 88.466667 154.066666 91.26667 154.600006 93.666664 C 154.866669 94.866669 152.199997 97.400002 149.266663 98.466667 L 150.333328 108.333336 C 151.666672 118.199997 156.333328 127 160.066666 127 C 164.600006 127.133331 164.866669 129.133331 161.666672 135.666672 C 159.800003 139.133331 158.333328 143.533325 158.333328 145.133331 C 158.333328 146.866669 157.800003 148.600006 157 149 C 156.333328 149.399994 155.666672 153.399994 155.666672 157.800003 L 155.666672 165.800003 L 142.066666 165.399994 C 132.199997 165.133331 128.46666 164.600006 128.600006 163.399994 C 128.866669 162.466675 128.333328 160.066666 127.53334 158.066666 C 126.600006 155.666672 126.600006 153.533325 127.53334 151.666672 L 129.53334 146.600006 C 130.199997 144.466675 130.600006 144.466675 133.933334 146.199997 C 136.066666 147.266663 139.399994 147.800003 141.399994 147.399994 C 144.600006 146.733337 145 146.066666 145 141.533325 C 145 135.266663 143.266663 134.333328 135.399994 135.933334 C 132.199997 136.600006 127.399994 137 124.600006 136.600006 C 120.599998 136.199997 119.666664 135.533325 119.666664 133.133331 C 119.533333 128.466675 114.73333 119 112.333336 119 C 110.466667 119 110.599998 119.933334 113.533333 125.133331 L 117 132.333328 C 117 134.866669 111.400002 131.666672 109.666664 128.199997 C 106.066666 121.400002 107.26667 115.800003 114.066666 107.666664 C 117 104.066666 117.26667 102.866669 116.73333 93.933334 C 116.333336 87.533333 115.400002 83.666664 114.199997 82.866669 C 111.133331 80.866669 110.199997 81.533333 111.133331 85 C 111.800003 87.666664 111.26667 88.466667 108.466667 89.666664 C 104.599998 91.133331 103.933334 93.400002 107.133331 94.599998 C 108.466667 95.133331 109.800003 94.599998 110.599998 93.26667 C 114.333336 86.466667 115.800003 96.199997 112.199997 104.199997 C 109.26667 110.73333 105.133331 113.400002 96.599998 114.466667 L 89.26667 115.400002 L 85.800003 109.800003 C 83.666664 106.599998 82.333336 102.466667 82.333336 99.533333 C 82.333336 94.866669 82.199997 94.73333 78.333336 95.400002 C 74.599998 96.199997 74.333336 95.933334 74.333336 92.333336 C 74.333336 90.199997 75 88.066666 75.666664 87.666664 C 77.933334 86.333336 77.133331 81.133331 74.466667 79.400002 C 71 77.26667 69.800003 78.866669 72.599998 81.933334 C 74.599998 84.199997 74.466667 84.333336 70.199997 84.333336 L 65.666664 84.466667 L 68.73333 86.866669 C 70.73333 88.599998 71.666664 90.866669 71.666664 94.066666 C 71.666664 100.333336 73.800003 105.800003 77.400002 108.73333 L 80.333336 111.133331 L 77.133331 113.26667 C 75.400002 114.466667 72.599998 117.800003 70.866669 120.466667 C 68.466667 124.333328 66.599998 125.800003 62.73333 126.466667 C 59.933334 127 54.599998 128.733337 50.733334 130.466675 C 47 132.199997 43.133335 133.666672 42.466667 133.666672 C 40.200001 133.666672 40.733334 140.199997 43.799999 153.666672 L 46.599998 165.800003 L 57.133331 165 C 65.26667 164.466675 67.400002 164.733337 67 165.933334 C 66.599998 166.866669 64.066666 167.666672 61.26667 167.666672 L 38.599998 169.666672 L 37.266666 158.600006 C 35 141 31.533333 107.666664 30.200001 90.333336 L 28.466667 72.866669 C 27.133335 69.26667 30.599998 68.333336 51.666668 66.866669 C 63.800003 66.066666 74.599998 64.866669 75.800003 64.199997 C 77 63.666664 93.533333 62.73333 112.466667 62.199997 L 147.399994 61 L 213.53334 61.533333 Z M 182.600006 88.199997 C 184.46666 88.866669 187.666672 91.666664 189.666672 94.199997 C 199.133331 106.73333 189.666672 127 174.199997 127 C 170.733337 127 170.46666 126.733337 171.53334 124.466667 C 173.53334 120.733337 171.53334 119.933334 168.199997 123.133331 C 164.600006 126.466667 161.53334 125.266663 156.600006 118.599998 C 154.199997 115.400002 153.399994 112.333336 153.133331 106.599998 L 153 98.73333 L 157 99.666664 C 161.399994 100.599998 161.800003 100.199997 159.399994 96.333336 C 158.066666 94.333336 158.199997 93.400002 160.199997 91.133331 C 164.600006 86.333336 174.199997 85 182.600006 88.199997 Z M 86.199997 121.266663 L 92.866669 131.266663 C 96.199997 135.399994 96.333336 136.333328 93.666664 136.333328 C 92.599998 136.333328 89.400002 134.199997 86.466667 131.666672 C 80.73333 126.466667 79.666664 126.066666 79.666664 129.133331 C 79.666664 133 87.666664 138.733337 96.466667 140.866669 C 101.133331 142.066666 106.466667 143 108.333336 143 C 111.400002 143 111.666664 143.399994 111.666664 149.133331 L 111.666664 155.399994 L 100.333336 154.733337 C 94.066666 154.466675 88.199997 153.399994 87.400002 152.600006 C 86.466667 151.666672 84.73333 151 83.533333 151 C 82.199997 151 79.666664 149.133331 77.800003 146.733337 C 73.933334 141.800003 71.400002 142.733337 74.333336 148.066666 C 77.666664 153.933334 85.400002 156.866669 99.400002 157.399994 L 111.666664 157.933334 L 111.666664 166.733337 L 95.400002 167.666672 C 71 169 71.26667 169.133331 69.800003 160.333328 C 67.533333 147.533325 68.466667 131.800003 72.066666 124.333328 C 73.666664 121 79.533333 115.133331 81.400002 115 C 81.933334 115 84.199997 117.800003 86.199997 121.266663 Z M 104.599998 123.666672 C 104.73333 127 104.599998 129.666672 104.199997 129.666672 L 101.666664 125.666672 C 100.199997 122.733337 98.599998 121.666672 95.933334 121.666672 C 93.933334 121.666672 91.400002 121 90.333336 120.333328 C 88.866669 119.400002 89.933334 119.133331 94.066666 119.266663 C 97.133331 119.400002 100.066666 119 100.599998 118.599998 C 102.866669 116.199997 104.333336 118.199997 104.599998 123.666672 Z M 100.866669 130.199997 C 103.533333 134.466675 107 137 109.400002 136.600006 C 109.933334 136.466675 110.333336 137.266663 110.333336 138.333328 C 110.333336 140.733337 105 141 102.199997 138.600006 C 99.933334 136.733337 93 127.533333 93 126.466667 C 93 126.066666 94.199997 125.666672 95.533333 125.666672 C 97 125.666672 99.26667 127.533333 100.866669 130.199997 Z M 187.666672 129 C 189.800003 131.533325 194.333328 148.733337 195.266663 157.800003 L 195.933334 165.399994 L 183 165 L 182.600006 152.600006 C 182.333328 143.666672 181.800003 140.333328 180.46666 140.333328 C 179.266663 140.333328 178.866669 143.399994 178.866669 152.600006 L 179 165 L 168.600006 165 L 168.866669 153 C 169.133331 143.666672 168.866669 141.399994 167.53334 142.600006 C 166.600006 143.533325 165.933334 148.600006 165.800003 154.866669 L 165.666672 165.666672 L 161.933334 165.666672 C 158.46666 165.666672 158.199997 165.399994 158.866669 161.266663 L 160.333328 149.666672 C 160.866669 145 162.46666 140.466675 164.733337 137 C 169.399994 130.066666 169.933334 129.666672 176.600006 129.666672 C 179.666672 129.666672 182.600006 129 183 128.333328 C 184.199997 126.466667 185.800003 126.733337 187.666672 129 Z M 65.533333 143.933334 L 65.26667 159.533325 L 61.666664 160.733337 C 59.800003 161.399994 57.800003 161.666672 57.400002 161.133331 C 56.599998 160.333328 54.333332 145.266663 53.933334 137.800003 C 53.666668 133.933334 54.333332 133 58.333336 130.866669 C 60.866669 129.399994 63.533333 128.333328 64.333336 128.333328 C 65.26667 128.333328 65.666664 133.933334 65.533333 143.933334 Z M 50.866665 142.600006 L 52.599998 156.600006 C 53.133335 161.800003 53 163 51.400002 163 C 50.066666 163 49 161.133331 48.466667 157.266663 L 45.533333 145.266663 C 43.133335 138.066666 43.799999 135 47.533333 135 C 49.533333 135 50.200001 136.333328 50.866665 142.600006 Z M 142.199997 141.266663 C 142.600006 141.533325 142.066666 142.466675 141.266663 143.266663 C 140.066666 144.466675 139.666672 144.466675 139.666672 143.266663 C 139.666672 142.199997 138.46666 141.933334 136.333328 142.466675 C 134.46666 142.866669 131.933334 142.866669 130.733337 142.333328 C 128.600006 141.399994 128.733337 141.133331 131.666672 140.333328 C 134.733337 139.399994 140.733337 139.933334 142.199997 141.266663 Z M 125 145.666672 C 125 150.866669 124.866669 151 120.333336 151 C 115.800003 151 115.666664 150.733337 115.666664 146.199997 C 115.666664 142.466675 116.066666 141.533325 117.666664 142.066666 C 118.73333 142.600006 119.933334 142.333328 120.333336 141.666672 C 120.866669 140.866669 122.066666 140.333328 123.133331 140.333328 C 124.46666 140.333328 125 141.933334 125 145.666672 Z M 124.733337 160.600006 C 125.133331 165.533325 125.133331 165.666672 120.466667 165.666672 C 115.800003 165.666672 115.666664 165.533325 115.666664 160.199997 C 115.666664 155 115.800003 154.866669 120.066666 155.266663 C 123.933334 155.666672 124.333328 156.066666 124.733337 160.600006 Z"/>
        <path id="path2" fill="#000000" stroke="none" d="M 180.333328 9.933334 L 180.066666 14.333328 C 180.333328 16.46666 179.399994 17.133331 175.666672 17.666672 C 171.666672 18.199997 171 19 170.199997 23 C 169 28.866669 169.53334 29.666672 175 29.666672 C 179.133331 29.666672 179.53334 30.066666 179.933334 33.933334 C 180.333328 38.066666 180.600006 38.333328 185.666672 38.333328 C 190.600006 38.333328 190.866669 38.066666 191 34.333328 C 191 30.600006 191.266663 30.333328 196.333328 30.333328 C 201.399994 30.333328 201.666672 30.199997 202.46666 25 C 203 22.066666 203 19.266663 202.600006 18.733337 C 202.066666 18.199997 199.266663 17.666672 196.333328 17.399994 C 191.133331 17 191 16.866669 191.399994 12.600006 C 191.800003 8.46666 191.800003 8.333328 186.333328 8.333328 C 183.266663 8.333328 180.733337 9 180.333328 9.933334 Z"/>
        <path id="path3" fill="#000000" stroke="none" d="M 76.466667 70.866669 C 75.666664 72.199997 78.199997 80.333336 79.400002 80.333336 L 82.466667 78.199997 C 85.133331 75.800003 95.133331 74.199997 100.066666 75.533333 C 101.933334 75.933334 103.666664 77.533333 104.066666 78.866669 C 104.466667 80.73333 105.533333 81.26667 107.533333 80.73333 C 111 79.800003 111.26667 76.333336 107.666664 76.333336 C 106.333336 76.333336 104.599998 75.400002 103.933334 74.333336 C 102.199997 71.133331 93.933334 70.333336 87.666664 72.866669 C 81 75.533333 79.666664 75.533333 79.666664 73.133331 C 79.666664 70.73333 77.400002 69.133331 76.466667 70.866669 Z"/>
        <path id="path4" fill="#000000" stroke="none" d="M 89 83.666664 C 88.066666 84.866669 87.666664 86.066666 88.199997 86.599998 C 89.400002 87.800003 95.800003 84.199997 94.866669 82.73333 C 93.800003 81 90.866669 81.533333 89 83.666664 Z"/>
        <path id="path5" fill="#000000" stroke="none" d="M 96.066666 94.199997 C 91.666664 96.333336 92.199997 99 97 99 C 100.333336 99 101 98.466667 101 95.666664 C 101 92.066666 100.466667 91.933334 96.066666 94.199997 Z"/>
        <path id="path6" fill="#000000" stroke="none" d="M 100.466667 106.599998 C 99 108.066666 99.666664 109.666664 101.666664 109.666664 C 102.73333 109.666664 103.666664 109.133331 103.666664 108.466667 C 103.666664 106.73333 101.533333 105.533333 100.466667 106.599998 Z"/>
        <path id="path7" fill="#000000" stroke="none" d="M 155.666672 109.533333 C 155.666672 113.666664 157.133331 116.333336 159.266663 116.333336 C 160.733337 116.333336 161.133331 115.533333 160.46666 113.26667 L 159.666672 108.599998 C 159.666672 107.800003 158.733337 107 157.666672 107 C 156.600006 107 155.666672 108.199997 155.666672 109.533333 Z"/>
    </g>
</svg>
