<?xml version="1.0" encoding="UTF-8"?>
<!-- Generated by Pixelmator Pro 3.6.12 -->
<svg width="288" height="173" viewBox="0 0 288 173" xmlns="http://www.w3.org/2000/svg">
    <g id="g1">
        <path id="path1" fill="#000000" stroke="none" d="M 98.666664 2.133331 C 96.400002 2.666672 86.533333 3.066666 76.533333 3.199997 C 60.933334 3.333328 35.599998 5.733337 24.533333 8 C 21.866665 8.666672 20.799999 9.733337 20.400002 12.399994 C 19.733334 17.46666 22.799999 90.133331 24.533333 108.666664 L 30.400002 162.666672 C 30.533333 164.666672 29.733334 165.466675 27.333332 165.600006 L 12.4 166.666672 C 1.866667 167.46666 0.666667 167.866669 0.666667 170.266663 C 0.666667 172.266663 1.2 172.666672 3.066668 172 C 10 169.199997 86.666664 166 164.666672 165.333328 C 200.800003 165.066666 233.733337 164.133331 239.333328 163.333328 C 244.799988 162.533325 257.733337 162 268 162.133331 C 280.533325 162.266663 286.799988 161.733337 287.066681 160.800003 C 287.466675 159.733337 283.333344 159.333328 274 159.333328 L 260.533325 159.333328 L 264 116 C 267.200012 81.333336 267.200012 80 269.200012 48.666672 C 270.133331 32.133331 270.799988 18.266663 270.533325 17.733337 C 270.133331 17.199997 266.533325 14.933334 262.266663 12.666672 C 250.799988 6.399994 234.53334 3.333328 204.666672 1.866669 C 177.333328 0.53334 105.333336 0.800003 98.666664 2.133331 Z M 126 8.933334 C 148.53334 16.933334 167.600006 17.333328 185.199997 10.133331 C 192 7.46666 197.600006 6 200.53334 6.266663 L 205.333328 6.666672 L 201.066666 9.066666 C 196.53334 11.46666 195.199997 14 198.399994 14 C 199.46666 14 201.333328 12.666672 202.800003 11.199997 C 206 7.600006 212.266663 4.800003 215.46666 5.600006 C 218.399994 6.399994 218.800003 8.666672 216.133331 8.666672 C 213.46666 8.666672 204.666672 14 204.666672 15.46666 C 204.666672 17.46666 207.199997 16.800003 212.666672 13.199997 C 217.46666 10 220.666672 9.733337 220.666672 12.666672 C 220.666672 13.46666 218.53334 14.800003 216 15.866669 C 213.46666 16.933334 211.333328 18.53334 211.333328 19.199997 C 211.333328 21.066666 214.933334 21.066666 216 19.333328 C 216.399994 18.53334 217.333328 18 218.133331 18 C 219.866669 18 219.600006 22.53334 217.733337 24.399994 C 216.53334 25.600006 216.53334 26.399994 217.46666 27.066666 C 218.266663 27.600006 218.53334 31.333328 218 36.666672 L 217.333328 45.199997 L 208.666672 48.133331 C 198 51.733337 178.53334 53.333328 160.666672 52 C 146.399994 50.933334 142.399994 48.666672 154.800003 48.666672 C 159.733337 48.666672 162 48.133331 161.733337 47.199997 C 161.333328 46.133331 156.933334 45.46666 149.866669 45.199997 C 143.733337 45.066666 134.133331 43.600006 128.666672 42.133331 C 123.199997 40.666672 118.399994 39.866669 118 40.133331 C 117.066666 41.199997 122.133331 44.666672 123.333328 44 C 124 43.600006 126.399994 44.266663 128.800003 45.46666 L 133.333328 47.46666 L 113.333336 43.866669 C 96 40.800003 67.066666 40 55.73333 42.399994 C 50.400002 43.600006 44.133335 45.46666 41.733334 46.53334 C 34.266666 50 26 52.399994 25.333332 51.333328 C 24.799999 50.53334 38.666668 44.800003 49.200001 41.333328 C 50.800003 40.933334 51.333336 40.133331 50.533333 39.333328 C 49.333332 38.133331 32.266666 43.46666 29.066666 46.266663 C 28.133335 47.066666 26.400002 47.199997 25.066666 46.800003 C 23.200001 46 23.066666 45.600006 24.799999 44.133331 C 27.200001 42 42.400002 35.333328 45.066666 35.333328 C 48.533333 35.333328 51.333336 33.866669 51.333336 32 C 51.333336 30.53334 49.200001 30.933334 42.266666 33.199997 C 37.200001 34.933334 31.333332 37.333328 28.933334 38.53334 C 24.933334 40.53334 22.133335 39.600006 23.866665 36.800003 C 25.066666 34.933334 41.866665 27.333328 44.799999 27.333328 C 46.266666 27.333328 47.333332 26.399994 47.333332 25.333328 C 47.333332 23.199997 44 22.53334 42.666668 24.53334 C 42.266666 25.199997 40 26.266663 37.733334 26.666672 C 35.333332 27.199997 31.866665 28.800003 29.866665 30.266663 C 26.400002 32.800003 23.333332 32.666672 23.333332 29.866669 C 23.333332 29.199997 24.933334 28 26.933334 27.199997 L 34.533333 23.866669 C 36.799999 22.800003 40.799999 21.600006 43.599998 21.066666 C 46.400002 20.666672 49.066666 19.733337 49.466667 19.199997 C 50.933334 16.800003 41.066666 18.133331 33.333332 21.333328 C 24.400002 25.066666 23.333332 25.199997 23.333332 23.199997 C 23.333332 21.333328 36.666668 15.600006 43.333332 14.53334 C 48.799999 13.600006 52.133331 11.333328 48 11.333328 C 44.400002 11.333328 29.466667 15.46666 28.133335 16.800003 C 25.866665 18.800003 23.333332 18.133331 23.333332 15.46666 C 23.333332 12.800003 25.733334 12 44.666668 8.399994 C 52.400002 6.933334 106.133331 4.933334 114 5.866669 C 116.53334 6.133331 122 7.46666 126 8.933334 Z M 184 6 C 184.399994 6.666672 184 7.333328 182.933334 7.333328 C 181.866669 7.333328 177.199997 8.53334 172.666672 10 C 168.133331 11.46666 161.866669 12.666672 158.800003 12.666672 C 152.666672 12.666672 132.800003 7.866669 130.800003 5.866669 C 130 5.199997 139.733337 4.666672 156.266663 4.666672 C 172.800003 4.666672 183.46666 5.199997 184 6 Z M 232.133331 7.46666 C 244.799988 9.733337 257.866669 14.133331 263.200012 18 L 266.666656 20.399994 L 265.600006 42.800003 C 264.266663 73.73333 260.799988 118.800003 259.200012 125.333328 C 258.533325 128.266663 257.600006 137.066666 257.200012 144.933334 L 256.399994 159.333328 L 215.46666 161.066666 L 218.53334 99.333336 C 220.399994 53.733337 221.866669 25.199997 222.800003 21.600006 L 223.199997 13.333328 C 223.199997 9.333328 223.46666 6 223.733337 6 L 232.133331 7.46666 Z M 102.666664 45.866669 L 113.333336 48 C 125.733337 49.600006 124.666672 46.266663 124.666672 81.333336 C 124.666672 99.199997 124.133331 112.800003 123.46666 113.333336 C 122.800003 113.73333 120.133331 113.066666 117.600006 111.866669 C 108.666664 107.599998 100.666664 112.933334 100.666664 122.933334 C 100.666664 126.400002 101.333336 129.066666 102.400002 129.333328 C 103.599998 129.866669 104 134.399994 104 146 L 104 162 L 93.199997 162 C 87.333336 162 79.066666 162.666672 74.933334 163.466675 C 70.800003 164.266663 66.533333 164.666672 65.199997 164.133331 C 63.333336 163.466675 63.466667 162.933334 66.400002 160.666672 L 76.133331 153.199997 C 81.866669 148 94.666664 139.066666 98.400002 137.600006 C 100.800003 136.666672 101.466667 134.666672 99.466667 133.466675 C 98.133331 132.666672 81.599998 143.866669 72.400002 151.866669 C 57.866669 164.533325 58.26667 164.266663 46 164.800003 L 34.666668 165.333328 L 31.466667 142.666672 C 30.666668 137.466675 30.133335 131.199997 30.266666 128.666672 C 30.400002 124.933334 30.533333 124.666672 30.933334 127.599998 C 31.333332 130 32.799999 131.600006 35.466667 132.666672 C 40.666668 134.933334 45.200001 133.466675 62.533333 124.266663 C 78.400002 116 78.933334 114.933334 76.800003 96.800003 C 76 89.73333 75.866669 83.066666 76.666664 79.333336 C 78.400002 70.666664 78.26667 59.199997 76.26667 55.333336 C 74.800003 52.53334 73.599998 52 69.333336 52.133331 C 64 52.266663 47.733334 57.866669 37.066666 63.199997 L 31.599998 66 L 30.666668 78.26667 C 30.133335 85.066666 30 97.73333 30.266666 106.26667 C 30.533333 114.933334 30.400002 122 29.866665 122 C 29.333332 122 28.533333 114.666664 28.133335 105.599998 L 25.733334 75.066666 C 24.933334 67.199997 24.666668 59.866669 25.066666 58.800003 C 26.266666 55.73333 48.933334 47.066666 62 44.666672 C 69.199997 43.46666 97.066666 44.266663 102.666664 45.866669 Z M 137.600006 48.133331 C 137.199997 48.53334 136 48.666672 135.066666 48.266663 C 134 47.866669 134.399994 47.46666 135.866669 47.46666 C 137.333328 47.333328 138.133331 47.733337 137.600006 48.133331 Z M 145.066666 49.600006 C 144.133331 49.866669 142.266663 49.866669 141.066666 49.600006 C 139.733337 49.199997 140.53334 48.933334 142.666672 48.933334 C 144.933334 48.933334 145.866669 49.199997 145.066666 49.600006 Z M 217.333328 56.933334 C 216.399994 64.533333 216 72.400002 215.46666 89.466667 L 215.333328 95.599998 L 206.666672 94.666664 C 195.46666 93.466667 195.199997 95.73333 206.133331 98.133331 L 214.266663 100 L 212.666672 160.666672 L 207.866669 160.666672 C 203.733337 160.666672 203.199997 160.266663 204.133331 158.399994 C 204.800003 157.066666 205.333328 149.600006 205.333328 141.866669 C 205.333328 130.800003 205.866669 127.066666 207.733337 124.266663 C 210.666672 119.866669 210.53334 118.133331 207.333328 114.26667 C 205.46666 112 203.600006 111.333336 200 111.599998 C 193.199997 112 189.46666 116.400002 190.266663 122.933334 L 191.733337 130 C 192.399994 131.199997 191.46666 133.333328 189.46666 135.466675 C 184.666672 140.666672 184.399994 145.333328 188.666672 146.666672 C 190.133331 147.066666 191.333328 148.533325 191.333328 149.733337 C 191.333328 150.933334 192.266663 153.733337 193.333328 155.866669 C 194.933334 158.800003 195.066666 160 193.866669 160.800003 C 192.933334 161.333328 182.666672 161.600006 170.933334 161.466675 L 149.600006 161.333328 L 147.733337 156.133331 C 146.53334 152.533325 146.399994 150.399994 147.333328 149.466675 C 148 148.800003 148.666672 145.733337 148.666672 142.666672 C 148.666672 138.800003 148 136.800003 146 135.600006 C 143.199997 133.866669 142.133331 126 144.666672 126 C 145.46666 126 146 127.199997 146 128.533325 C 146 130 146.666672 131.600006 147.333328 132 C 148.133331 132.533325 148.666672 130.533325 148.666672 127.066666 C 148.666672 123.866669 149.333328 120.533333 150.133331 119.733337 C 151.199997 118.666672 151.066666 116.933334 149.866669 113.466667 C 148.399994 109.333336 148.399994 108.133331 150.133331 104.933334 C 151.333328 102.933334 152.133331 100.400002 152 99.333336 L 151.600006 95.599998 C 151.46666 94.800003 150.133331 94 148.666672 94 C 147.199997 94 146 93.333336 146 92.666664 C 146 91.73333 148.666672 91.466667 154 92.133331 C 160.933334 92.933334 162 92.666664 162 90.800003 C 162 89.199997 160.53334 88.666664 155.733337 88.533333 C 152.133331 88.533333 144.53334 87.73333 138.666672 86.933334 L 128 85.333336 L 128 66.666664 L 143.066666 67.199997 C 144.800003 67.333336 146 68.133331 146 69.333336 C 146 70.933334 145.46666 71.066666 143.600006 70.133331 C 142.133331 69.333336 139.333328 68.933334 137.199997 69.066666 C 134 69.333336 133.199997 70 132.933334 73.199997 C 132.266663 78.26667 133.333328 78.933334 141.866669 80.133331 L 149.066666 81.066666 L 147.600006 68.400002 L 151.866669 69.066666 C 158 70 159.866669 68.400002 160 62 L 160 56.666664 L 180 56.26667 C 191.066666 56 200.933334 55.333336 202 54.533333 C 203.600006 53.600006 213.866669 49.866669 217.866669 48.800003 C 218.133331 48.666672 217.866669 52.399994 217.333328 56.933334 Z M 138.266663 52.666672 C 142.53334 52.666672 147.066666 53.199997 148.399994 53.866669 L 152.800003 55.73333 C 154.266663 56.26667 154.666672 57.599998 154.266663 61.199997 C 153.600006 67.199997 150.53334 66.800003 150.800003 60.800003 C 151.066666 56.133331 149.066666 55.066666 148.399994 59.599998 C 148 62.800003 147.600006 62.933334 134 61.73333 C 129.066666 61.333336 128 60.666664 128 58.533333 C 128 57.199997 127.46666 55.199997 126.933334 54.26667 C 125.333328 52 127.199997 49.333328 129.066666 51.199997 C 129.866669 52 134 52.666672 138.266663 52.666672 Z M 74 85.333336 C 74 100.666664 73.466667 113.866669 72.933334 114.666664 C 71.066666 117.333336 41.733334 131.600006 40.666668 130.533325 C 39.066666 128.933334 38.133335 100.800003 39.466667 99.866669 C 40.933334 99.066666 42.533333 105.466667 41.466667 108 C 41.066666 109.066666 41.333332 110 42 110 L 44.266666 110.26667 C 44.933334 110.533333 45.066666 108.400002 44.933334 105.599998 C 44.533333 102 44.933334 100.666664 46.400002 100.666664 C 47.333332 100.666664 48.666668 101.066666 49.200001 101.599998 C 49.733334 102.133331 52.400002 102.400002 55.333336 102.133331 L 60.400002 101.866669 L 60.133331 109.866669 C 59.866669 114.400002 60 118.266663 60.26667 118.533333 C 60.533333 118.800003 63.066666 117.73333 66 116.400002 L 71.333336 113.73333 L 71.333336 87.066666 C 71.333336 61.066666 71.333336 60.400002 68.666664 61.066666 C 67.199997 61.466667 65.599998 61.199997 65.199997 60.533333 C 64.26667 58.933334 56.800003 60 54.933334 61.866669 C 54.133331 62.666664 52.26667 63.333336 50.800003 63.466667 C 49.200001 63.599998 50 64.133331 52.666664 64.800003 C 55.466667 65.466667 59.466667 65.333336 62.533333 64.533333 C 65.333336 63.73333 67.866669 63.333336 68 63.599998 C 68.533333 64.133331 68.933334 80.933334 68.800003 100.400002 C 68.666664 110.800003 68.26667 114.133331 67.066666 113.73333 C 66 113.333336 65.333336 110.800003 65.199997 107.599998 C 65.199997 103.73333 64.26667 101.066666 62.133331 98.800003 C 60 96.533333 59.466667 94.800003 60 92.26667 L 62.666664 75.333336 C 63.466667 71.066666 63.199997 70.533333 59.333336 68.933334 C 55.066666 66.933334 49.466667 67.599998 46.799999 70.400002 C 43.466667 73.73333 41.200001 82.666664 43.466667 84 C 44.133335 84.533333 44.666668 85.866669 44.666668 87.066666 C 44.666668 88.26667 46.266666 90.666664 48.400002 92.26667 C 52 95.333336 52 95.333336 49.333332 97.333336 C 47.866665 98.533333 45.466667 99.199997 44.133335 99.066666 C 42 98.800003 41.466667 97.466667 41.333332 92.666664 C 40 65.466667 40 65.599998 42 64.666664 C 46.133335 62.666664 56.133331 58.26667 58 57.73333 C 59.066666 57.333336 63.199997 57.066666 66.933334 57.199997 L 74 57.333336 L 74 85.333336 Z M 36.666668 100 C 36.666668 115.866669 36.133335 128.666672 35.466667 128.666672 C 33.733334 128.666672 32.933334 123.599998 33.466667 115.333336 L 33.866665 89.599998 C 34 78.400002 34.533333 71.333336 35.333332 71.333336 C 36.133335 71.333336 36.666668 81.73333 36.666668 100 Z M 60.400002 74.933334 C 60 78 59.466667 78.533333 55.333336 78.533333 C 52.800003 78.533333 50 79.333336 49.200001 80.400002 C 47.599998 82.666664 44.666668 81.466667 44.666668 78.666664 C 44.666668 75.73333 51.599998 71.466667 56.400002 71.333336 C 60.400002 71.333336 60.800003 71.599998 60.400002 74.933334 Z M 146 74.533333 C 146 77.333336 144.266663 78 140 76.933334 C 133.866669 75.199997 134.266663 72.666664 140.53334 72.666664 C 144.399994 72.666664 146 73.199997 146 74.533333 Z M 58 82 L 58 84 C 58 84.400002 57.73333 84.533333 57.599998 84.26667 C 57.333336 84.133331 56.133331 84.800003 54.933334 85.866669 C 52.133331 88.133331 53.333336 90.400002 56.800003 89.333336 C 59.599998 88.400002 60.26667 90.26667 57.599998 92.400002 C 55.73333 94 52.666664 92.133331 50.26667 88 C 49.200001 85.866669 49.333332 84.800003 50.933334 83.066666 C 53.199997 80.533333 58 79.866669 58 82 Z M 140.933334 90.933334 C 144.933334 91.73333 144.800003 94 140.666672 94 C 139.333328 94 137.866669 94.933334 137.46666 96.133331 C 136.266663 99.466667 136.53334 105.73333 138 106.666664 C 140 107.866669 139.600006 113.066666 137.333328 116.26667 C 135.46666 118.800003 135.46666 119.333328 137.333328 120.266663 C 138.399994 120.933334 139.733337 124.133331 140.133331 127.599998 C 140.933334 133.466675 140.800003 133.866669 136.933334 135.866669 C 134.399994 137.199997 132.53334 139.333328 132 141.733337 C 131.199997 145.600006 132.800003 151.733337 135.066666 153.199997 C 136 153.733337 135.866669 155.466675 134.933334 158 C 133.600006 161.600006 132.933334 161.866669 128 161.600006 L 122.666672 161.199997 L 121.866669 150 C 121.333328 143.733337 120.53334 137.066666 120 135.066666 C 119.333328 132.666672 119.866669 129.466675 121.199997 125.866669 C 122.399994 122.933334 123.066666 119.866669 122.53334 119.199997 C 122.133331 118.533333 123.066666 116.933334 124.666672 115.599998 C 127.199997 113.599998 127.600006 111.73333 127.866669 102.666664 C 128 90.133331 128.933334 88.133331 133.866669 89.333336 L 140.933334 90.933334 Z M 57.333336 98.133331 C 57.333336 99.066666 56.26667 100.133331 55.066666 100.400002 C 52.666664 100.800003 51.73333 98 53.599998 96.133331 C 54.933334 94.800003 57.333336 96 57.333336 98.133331 Z M 148.399994 99.466667 C 148.933334 103.466667 143.46666 106.933334 140.800003 104.26667 C 138.666672 102.133331 139.066666 98.26667 141.733337 96.800003 C 145.333328 94.666664 148 95.73333 148.399994 99.466667 Z M 146.53334 110.933334 C 147.46666 114.133331 145.600006 122.666672 144 122.666672 C 142.53334 122.666672 141.46666 113.333336 142.53334 110.533333 C 143.46666 108 145.733337 108.26667 146.53334 110.933334 Z M 116.800003 115.333336 C 119.866669 117.066666 120.133331 122.266663 117.199997 126.666672 C 114.800003 130.399994 111.866669 130.800003 106.666664 128.399994 C 103.73333 127.066666 103.199997 126.133331 103.599998 122.133331 C 104.133331 115.466667 110.666664 112.133331 116.800003 115.333336 Z M 205.733337 118.800003 C 206.266663 122.266663 201.199997 128.666672 198 128.666672 C 193.46666 128.666672 190.933334 120.266663 194.266663 116.933334 C 195.199997 116 198.133331 115.333336 200.666672 115.599998 C 204.266663 115.866669 205.46666 116.666664 205.733337 118.800003 Z M 202 133.866669 C 204.133331 137.866669 203.600006 152.933334 201.199997 156 C 199.199997 158.666672 199.199997 158.666672 197.199997 156.133331 C 194 151.733337 195.333328 131.333328 198.800003 131.333328 C 199.733337 131.333328 201.199997 132.533325 202 133.866669 Z M 117.199997 136.800003 C 117.600006 139.066666 118 145.733337 118 151.466675 L 118 162 L 113.466667 162 C 108.133331 162 106.133331 159.866669 109.066666 157.600006 C 110.933334 156 115.333328 144.533325 115.333328 141.066666 C 115.333328 140.133331 114.53334 139.333328 113.599998 139.333328 C 112.400002 139.333328 111.333336 142 110.533333 146.666672 C 109.066666 156.133331 106.533333 155.600006 106.933334 146 C 107.466667 134.266663 108.133331 132.666672 112.533333 132.666672 C 115.733337 132.666672 116.53334 133.333328 117.199997 136.800003 Z M 192.666672 139.866669 C 192.666672 143.466675 190.666672 145.466675 189.333328 143.333328 C 188.266663 141.600006 189.733337 136.666672 191.46666 136.666672 C 192.133331 136.666672 192.666672 138.133331 192.666672 139.866669 Z M 146 142.399994 C 146 147.866669 142.399994 151.600006 138.266663 150.533325 C 131.333328 148.666672 134.53334 138 142 138 C 145.600006 138 146 138.399994 146 142.399994 Z M 144.666672 156.533325 C 146.800003 160.666672 146.266663 161.600006 142 161.600006 C 138.800003 161.600006 138 160.933334 138 158.666672 C 138 153.466675 142.266663 152.133331 144.666672 156.533325 Z"/>
        <path id="path2" fill="#000000" stroke="none" d="M 98.666664 13.199997 C 95.73333 14.133331 92 15.733337 90.400002 16.666672 C 88.133331 18.133331 86.800003 18.133331 84 16.933334 C 78.400002 14.399994 69.466667 14.933334 66.666664 18 C 64.400002 20.53334 64.400002 20.666672 67.73333 21.866669 C 69.599998 22.666672 71.866669 24.933334 72.933334 26.933334 C 75.466667 32.53334 83.466667 35.866669 93.73333 35.600006 C 103.599998 35.46666 106.26667 34 102.933334 30.266663 C 100.933334 28 100.933334 27.600006 104.666664 23.066666 C 112.400002 13.733337 109.866669 9.600006 98.666664 13.199997 Z M 105.466667 15.46666 C 106.533333 17.333328 103.466667 19.46666 100 18.933334 C 97.866669 18.666672 97.199997 19.600006 96.933334 23.066666 C 96.533333 27.199997 96.133331 27.46666 92.26667 27.066666 C 89.066666 26.800003 88 26 88 24 C 88 22.133331 90.133331 20.266663 95.333336 17.733337 C 103.73333 13.600006 104.133331 13.46666 105.466667 15.46666 Z M 83.73333 20.266663 C 84.400002 20.666672 84.666664 22 84.26667 23.333328 C 83.066666 27.866669 85.73333 30 92.666664 30 C 99.066666 30 101.466667 31.600006 97.333336 33.199997 C 91.199997 35.46666 76.133331 28.800003 74 22.800003 L 72.666664 18.399994 C 72.666664 17.733337 82.26667 19.46666 83.73333 20.266663 Z"/>
        <path id="path3" fill="#000000" stroke="none" d="M 119.600006 16.933334 C 121.066666 21.333328 150.800003 28.266663 160.399994 26.53334 C 168.399994 25.066666 164.266663 23.333328 151.066666 22.666672 C 141.199997 22.133331 136.399994 21.333328 130.53334 18.666672 C 122.266663 14.933334 118.800003 14.399994 119.600006 16.933334 Z"/>
        <path id="path4" fill="#000000" stroke="none" d="M 176.666672 22.933334 C 170.53334 26.133331 169.600006 30 175.199997 30 C 178 30 179.333328 30.800003 180 32.800003 C 180.53334 34.266663 183.333328 37.199997 186.266663 39.46666 C 192.266663 43.733337 199.066666 44.399994 207.333328 41.600006 C 211.199997 40.266663 212 39.333328 211.600006 36.666672 L 210.933334 30.266663 C 210.53334 26.266663 205.46666 23.866669 195.866669 22.933334 C 191.46666 22.53334 186.53334 21.866669 184.666672 21.333328 C 182.666672 20.933334 179.46666 21.46666 176.666672 22.933334 Z M 186.133331 24.666672 C 188.133331 25.866669 188.666672 27.333328 188.399994 31.333328 C 188.133331 34.266663 187.600006 36.666672 187.066666 36.666672 C 186.399994 36.666672 186 36.133331 186 35.46666 C 186 34.800003 184.133331 32.266663 181.866669 29.866669 C 178.800003 26.666672 178.266663 25.333328 179.600006 24.53334 C 181.866669 23.066666 183.066666 23.066666 186.133331 24.666672 Z M 207.199997 28 C 208.53334 29.333328 205.600006 30.800003 202.133331 30.53334 C 199.199997 30.399994 198 30.933334 198 32.266663 C 198 33.600006 196.933334 34 194.399994 33.733337 C 190 33.199997 189.199997 31.066666 192.133331 28 C 194 26.266663 195.733337 26 200.53334 26.666672 L 207.199997 28 Z M 208.266663 36.266663 C 208.933334 38 201.733337 40.666672 196.666672 40.666672 C 194.666672 40.666672 192.266663 39.733337 191.333328 38.666672 C 189.866669 36.933334 190.399994 36.666672 194.800003 36.53334 C 197.733337 36.53334 201.199997 36 202.666672 35.333328 C 205.866669 34 207.600006 34.266663 208.266663 36.266663 Z"/>
        <path id="path5" fill="#000000" stroke="none" d="M 118.666672 24.666672 C 117.866669 26 122.53334 28.266663 129.333328 29.600006 C 131.46666 30.133331 134.800003 31.199997 136.666672 32.266663 C 141.066666 34.53334 162.399994 34.666672 161.733337 32.399994 C 161.333328 31.46666 157.600006 30.666672 151.866669 30.53334 C 143.733337 30.266663 124.133331 26.133331 120.666672 24 C 120 23.600006 119.199997 23.866669 118.666672 24.666672 Z"/>
        <path id="path6" fill="#000000" stroke="none" d="M 119.333328 33.866669 C 119.333328 34.53334 121.600006 35.733337 124.399994 36.666672 L 134.666672 39.733337 C 141.866669 41.866669 159.600006 41.866669 160.266663 39.600006 C 160.800003 38.399994 158.53334 38 151.733337 38 C 143.866669 38 129.46666 35.733337 121.866669 33.333328 C 120.399994 32.800003 119.333328 33.066666 119.333328 33.866669 Z"/>
        <path id="path7" fill="#000000" stroke="none" d="M 95.333336 54.800003 C 89.066666 56.666664 83.199997 59.066666 82.400002 60.26667 C 80 63.333336 80.133331 84.666664 82.400002 87.866669 C 84.133331 90.26667 84.666664 90.26667 94.800003 87.333336 C 100.533333 85.599998 106.26667 83.466667 107.333336 82.533333 C 108.400002 81.73333 110.533333 80.666664 112 80.400002 C 115.333328 79.866669 117.199997 71.866669 116 62.133331 C 114.666672 50 113.333336 49.46666 95.333336 54.800003 Z M 112.666664 67.199997 C 112.666664 72.933334 112 76.800003 111.066666 77.73333 C 108.933334 79.333336 89.599998 86 88.933334 85.333336 C 88.666664 85.066666 88.400002 81.599998 88.400002 77.466667 C 88.400002 73.333336 87.73333 70 87.199997 70 C 85.599998 70 85.73333 65.066666 87.333336 64 C 88.666664 63.199997 90.666664 68.933334 90.26667 72.933334 C 90.26667 74.26667 91.333336 75.333336 93.066666 75.599998 C 94.933334 75.866669 95.866669 76.933334 95.866669 78.400002 C 95.599998 81.066666 96.133331 81.199997 101.866669 79.199997 C 104.933334 78.133331 106 76.933334 106 74.666664 C 106 71.066666 108.133331 69.066666 109.066666 71.599998 C 109.466667 72.533333 109.866669 72 109.866669 70.26667 C 110 68.133331 109.333336 67.333336 107.73333 67.599998 C 106.400002 67.866669 105.199997 66.933334 104.933334 65.466667 C 104.533333 63.466667 104.933334 63.066666 107.199997 63.73333 C 109.066666 64.133331 110 63.73333 110 62.533333 C 110 60.133331 109.333336 60.133331 100.800003 62.800003 C 96.933334 63.866669 93.466667 64.533333 93.199997 64.26667 C 92.26667 63.466667 94.133331 59.333336 95.199997 59.866669 C 95.599998 60.133331 99.333336 59.599998 103.333336 58.800003 C 107.333336 57.866669 111.066666 57.333336 111.73333 57.599998 C 112.26667 57.866669 112.666664 62.26667 112.666664 67.199997 Z M 96.666664 67.199997 C 96.666664 68.933334 93.199997 71.466667 92.26667 70.400002 C 90.400002 68.666664 91.466667 66 94 66 C 95.466667 66 96.666664 66.533333 96.666664 67.199997 Z M 86 77.466667 C 86 81.066666 85.466667 83.199997 84.666664 82.666664 C 84 82.26667 83.333336 79.466667 83.333336 76.533333 C 83.333336 73.73333 84 71.333336 84.666664 71.333336 C 85.466667 71.333336 86 74.133331 86 77.466667 Z M 102.400002 76.133331 C 101.866669 77.466667 101.199997 77.73333 100.400002 76.933334 C 98.800003 75.333336 100.26667 72.26667 102 73.333336 C 102.666664 73.73333 102.800003 75.066666 102.400002 76.133331 Z"/>
        <path id="path8" fill="#000000" stroke="none" d="M 90.26667 80.800003 C 90.533333 81.73333 91.599998 82.800003 92.533333 83.066666 C 93.599998 83.466667 94.133331 82.933334 93.73333 81.866669 C 93.466667 80.933334 92.400002 79.866669 91.466667 79.599998 C 90.400002 79.199997 89.866669 79.73333 90.26667 80.800003 Z"/>
        <path id="path9" fill="#000000" stroke="none" d="M 101.066666 88.666664 C 93.866669 90.26667 90 93.599998 90 98 C 90 100.133331 90.533333 102.26667 91.333336 102.666664 C 92 103.066666 96 101.73333 100.26667 99.73333 C 106.933334 96.400002 108 95.466667 108.400002 91.599998 C 108.800003 87.066666 108.533333 86.800003 101.066666 88.666664 Z M 104.666664 93.066666 C 104.666664 94 102.666664 95.599998 100.400002 96.666664 L 95.066666 99.066666 C 94.400002 99.333336 94 98.400002 94 96.933334 C 94 95.199997 95.333336 93.73333 97.73333 92.933334 C 102.800003 91.066666 104.666664 91.066666 104.666664 93.066666 Z"/>
        <path id="path10" fill="#000000" stroke="none" d="M 56.666664 131.333328 C 51.199997 133.466675 50.666664 134.133331 50.26667 138.666672 C 49.866665 143.600006 49.866665 143.733337 53.866669 142.933334 C 59.466667 141.733337 64.666664 138.133331 66.133331 134.266663 C 68.400002 128.266663 66.26667 127.599998 56.666664 131.333328 Z M 63.333336 134 C 63.333336 135.333328 56.400002 139.333328 54 139.333328 C 51.333336 139.333328 52.666664 136.800003 56.400002 134.800003 C 60.666664 132.399994 63.333336 132.133331 63.333336 134 Z"/>
        <path id="path11" fill="#000000" stroke="none" d="M 174.399994 59.73333 C 174 60.400002 173.733337 67.199997 173.733337 74.800003 C 173.733337 86.933334 173.333328 88.666664 171.46666 88.666664 C 170.133331 88.666664 167.333328 90.666664 164.933334 93.066666 C 161.333328 96.800003 160.666672 98.400002 160.666672 104.133331 L 160.666672 110.666664 L 169.333328 112.400002 C 183.333328 115.066666 184.133331 114.800003 188.666672 107.599998 C 192.53334 101.466667 193.866669 93.599998 191.333328 92 C 189.199997 90.666664 183.600006 92.800003 183.866669 94.933334 C 184 97.199997 179.866669 100.400002 178.53334 98.933334 C 178 98.400002 178.53334 96.933334 179.600006 95.73333 C 181.866669 93.066666 188.666672 78.933334 188.666672 76.800003 C 188.666672 76.133331 187.199997 73.73333 185.333328 71.599998 C 182.800003 68.533333 182.133331 66.666664 182.800003 63.599998 C 183.600006 60 183.199997 59.599998 179.46666 59.066666 C 177.066666 58.666664 174.933334 59.066666 174.399994 59.73333 Z M 179.46666 64 C 179.333328 66 176.266663 65.599998 175.600006 63.599998 C 175.199997 62.400002 175.866669 61.866669 177.199997 62.26667 C 178.53334 62.400002 179.46666 63.199997 179.46666 64 Z M 180.933334 74.400002 C 180.666672 77.199997 181.199997 80.400002 182.133331 81.466667 C 183.333328 83.066666 183.333328 84.133331 182 86.666664 C 178.933334 92.400002 177.066666 90.666664 176.266663 81.066666 C 175.46666 70.933334 176.133331 68.400002 179.199997 68.933334 C 180.800003 69.333336 181.199997 70.666664 180.933334 74.400002 Z M 176.399994 96.26667 C 176.800003 98.933334 176.266663 99.333336 172.133331 99.333336 C 166.800003 99.333336 165.066666 97.466667 167.46666 94.533333 C 170 91.466667 175.866669 92.666664 176.399994 96.26667 Z M 190 98.133331 C 190 99.066666 188.666672 101.866669 187.066666 104.533333 L 184 109.333336 L 183.600006 105.73333 C 183.333328 103.73333 183.866669 100.933334 184.666672 99.333336 C 186.133331 96.533333 190 95.599998 190 98.133331 Z M 180.133331 103.466667 C 182.133331 105.066666 181.46666 110.666664 179.199997 110.666664 C 178.133331 110.666664 177.199997 109.333336 176.933334 107.599998 C 176.666672 105.866669 175.46666 104.533333 173.866669 104.400002 L 169.733337 104.133331 C 168.933334 104 168 104.800003 167.733337 105.599998 C 167.333328 106.666664 168.266663 107.333336 169.866669 107.333336 C 171.46666 107.333336 172.666672 107.866669 172.666672 108.400002 C 172.666672 108.933334 170.53334 109.199997 168 108.933334 C 164.266663 108.533333 163.333328 107.866669 163.333328 105.466667 C 163.333328 103.73333 163.600006 102.133331 164 101.73333 C 165.066666 100.666664 178.399994 102.133331 180.133331 103.466667 Z"/>
        <path id="path12" fill="#000000" stroke="none" d="M 130.666672 56.666664 C 131.066666 57.333336 132.399994 58 133.46666 58 C 134.53334 58 135.066666 57.333336 134.666672 56.666664 C 134.266663 55.866669 132.933334 55.333336 131.866669 55.333336 C 130.800003 55.333336 130.266663 55.866669 130.666672 56.666664 Z"/>
        <path id="path13" fill="#000000" stroke="none" d="M 48 107.333336 C 47.599998 108 47.866665 108.666664 48.533333 108.666664 C 49.333332 108.666664 50 108 50 107.333336 C 50 106.533333 49.733334 106 49.466667 106 C 49.066666 106 48.400002 106.533333 48 107.333336 Z"/>
        <path id="path14" fill="#000000" stroke="none" d="M 53.333336 110 L 54.933334 115.599998 C 56.133331 119.466667 52 118.400002 50.26667 114.533333 C 47.866665 109.599998 45.866665 111.866669 46.799999 118.400002 L 48 124.400002 C 48.799999 125.333328 58 120.400002 57.866669 118.933334 C 57.866669 118.133331 56.666664 114.933334 55.199997 112 C 53.73333 108.933334 52.933334 108.133331 53.333336 110 Z"/>
        <path id="path15" fill="#000000" stroke="none" d="M 41.733334 114.666664 C 41.200001 115.199997 41.066666 117.466667 41.466667 119.866669 C 42.666668 126.400002 43.200001 127.599998 44.666668 126.666672 C 45.599998 126.133331 45.733334 125.199997 44.799999 124.266663 C 44.133335 123.333328 43.333332 120.666672 43.066666 118.266663 C 42.799999 115.73333 42.266666 114.133331 41.733334 114.666664 Z"/>
    </g>
</svg>
