<?xml version="1.0" encoding="UTF-8"?>
<!-- Generated by Pixelmator Pro 3.6.12 -->
<svg width="808" height="470" viewBox="0 0 808 470" xmlns="http://www.w3.org/2000/svg">
    <g id="g1">
        <path id="path1" fill="#000000" stroke="none" d="M 198.133331 0 C 197.199997 2.533325 197.066666 21.333344 197.866669 21.333344 C 199.600006 21.333344 200.133331 15.066681 199.200012 6.666656 C 198.799988 2.666656 198.266663 -0.399994 198.133331 0 Z"/>
        <path id="path2" fill="#000000" stroke="none" d="M 179.333328 3.466675 L 181.46666 13.333344 C 183.46666 22.133331 185.199997 25.333344 186.933334 23.466675 C 188 22.399994 181.866669 2.666656 180.399994 2.666656 C 179.866669 2.666656 179.333328 2.933319 179.333328 3.466675 Z"/>
        <path id="path3" fill="#000000" stroke="none" d="M 163.333328 10.799988 C 163.333328 11.600006 164.399994 13.866669 165.733337 15.733337 L 170 23.200012 C 172 27.066681 174.800003 28.933319 176.266663 27.466675 C 176.666672 27.066681 176.133331 25.600006 175.066666 24.399994 C 174 23.066681 171.333328 19.200012 169.333328 15.600006 C 166 9.733337 163.333328 7.600006 163.333328 10.799988 Z"/>
        <path id="path4" fill="#000000" stroke="none" d="M 202 14.533325 C 202 15.333344 204.133331 16 207.066681 16 C 210 16 215.733337 17.200012 219.866669 18.666656 C 243.466675 26.666656 257.866669 42.533325 262 64.933319 C 264 76.133331 263.866669 76.399994 260 73.866669 C 256.133331 71.333344 250.666656 72 245.333344 75.466675 C 240.133331 78.933319 243.333344 80.266663 249.466675 77.333344 C 254.399994 74.799988 255.200012 74.799988 258.933319 76.666656 L 263.066681 78.666656 L 260.133331 89.066681 C 256.399994 102.133331 253.866669 106.799988 245.866669 116.133331 C 237.733337 125.600006 228 131.066681 222.533325 129.333344 C 212.533325 126.133331 195.46666 121.333344 194 121.333344 C 192.933334 121.333344 192.53334 123.066681 192.933334 126.666656 C 193.333328 131.333344 193.066666 132 190.666672 132 C 186.800003 131.866669 172.933334 125.333344 165.733337 120.133331 C 158.53334 114.933319 154.133331 109.200012 149.333328 98.266663 C 146.53334 92 146 88.533325 146 78.799988 C 146 60.799988 151.46666 47.200012 163.866669 34.399994 C 167.866669 30.399994 169.46666 27.866669 168.399994 27.200012 C 166.399994 25.866669 154.666672 38.933319 150.53334 47.066681 C 140.933334 66.266663 139.46666 82.666656 146 98.533325 C 148.133331 103.733337 151.066666 109.733337 152.53334 111.866669 L 155.199997 115.600006 L 150.933334 119.733337 C 147.066666 123.466675 145.600006 124 139.066666 124 C 133.733337 124 130.800003 124.666656 128.266663 126.666656 C 126.399994 128.133331 122.933334 129.333344 120.399994 129.466675 C 103.46666 129.733337 63.066666 140.933319 61.199997 146 C 60.666664 147.333344 59.599998 147.466675 57.199997 146.666656 C 52.666664 144.933319 43.599998 148.666656 42.533333 152.666656 C 41.466667 157.066681 42.533333 173.466675 45.866669 201.333344 L 55.866669 288 C 56.400002 292.533325 56.26667 292.799988 47.066666 297.333313 C 31.199997 305.200012 9.333336 319.866669 11.066666 321.600006 C 12.133331 322.666687 15.066666 321.466675 22 316.93335 L 38.400002 307.06665 C 44.800003 303.06665 78.53334 285.733337 86.933334 282.266663 C 100.933334 276.399994 139.066666 264.399994 159.199997 259.733337 C 163.199997 258.799988 166.666672 257.200012 167.066666 256.266663 C 168.133331 252.933334 159.333328 254.666672 128 264 L 103.066666 271.06665 L 103.733337 255.199997 C 104.933334 228.133331 110 202.399994 118.399994 181.333344 L 125.333328 163.600006 C 127.333328 157.733337 130.399994 154.533325 132.133331 156.266663 C 132.399994 156.666656 131.866669 161.333344 130.800003 166.799988 L 122.53334 212.266663 C 122 213.866669 123.600006 215.066681 128.266663 216.666656 L 142 222 C 151.46666 226 166 231.600006 169.066666 232.53334 C 170.933334 233.199997 171.199997 234.266663 170.53334 238.53334 C 169.866669 242.666672 170.399994 245.199997 172.666672 249.600006 C 176.53334 257.333313 181.199997 260.93335 189.866669 262.799988 C 196.666672 264.399994 197.333328 264.399994 204.133331 260.799988 C 208.133331 258.666687 211.333344 256.666687 211.333344 256.133331 L 212.399994 253.600006 C 213.600006 251.866669 216.399994 252.666672 228.266663 258.133331 C 232.933319 260.266663 239.333344 258.799988 239.333344 255.733337 C 239.333344 252.133331 232.533325 244.133331 226.533325 240.666672 C 220.933319 237.333328 220.533325 236.800003 222.399994 235.333328 C 225.066681 233.333328 225.333344 230.266663 222.933319 228.266663 C 222 227.466675 215.200012 225.466675 208 223.866669 C 196.53334 221.466675 193.733337 221.200012 187.733337 222.666656 C 183.866669 223.466675 178.933334 225.733337 176.800003 227.466675 L 172.933334 230.666672 L 150.666672 222 C 138.53334 217.200012 128 213.333344 127.199997 213.333344 C 126.53334 213.333344 126 212.666656 126 211.733337 C 126 209.866669 130.800003 182.266663 133.333328 170 L 137.600006 148.533325 C 138 147.466675 137.600006 146.666656 136.800003 146.666656 C 136 146.666656 135.066666 148.133331 134.53334 150 C 133.46666 154.266663 132.53334 154.133331 127.333328 149.333344 C 123.46666 145.733337 123.066666 144.666656 123.733337 139.733337 C 125.199997 128.933319 135.46666 123.866669 146.666672 128.533325 C 158.53334 133.600006 156.666672 151.466675 144 153.866669 C 137.600006 155.066681 137.866669 157.866669 144.399994 156.933319 C 151.46666 155.733337 158 148.133331 158 141.066681 C 158 135.066681 156.266663 130.933319 152.133331 127.733337 L 149.333328 125.466675 L 152.53334 122.133331 C 156.266663 118.133331 158.266663 117.866669 160.666672 120.666656 C 163.066666 123.600006 177.333328 131.333344 185.333328 134 C 189.066666 135.333344 195.600006 136.666656 200 137.200012 C 210.133331 138.266663 210.533325 138.933319 213.333344 164.266663 C 215.333344 183.200012 215.200012 196.399994 212.799988 211.600006 C 211.733337 218.266663 212 220 214 220 C 216.133331 220 218.133331 192.399994 217.200012 175.200012 C 216.399994 159.733337 216.533325 157.200012 218.533325 155.333344 C 220.533325 153.333344 220.799988 153.466675 222 156.666656 C 222.666656 158.533325 223.333344 161.866669 223.333344 163.866669 C 223.333344 168.399994 232.666656 223.200012 236 238.266663 C 236.399994 240 237.600006 241.333328 238.799988 241.333328 C 240.133331 241.333328 240.666656 240.53334 240.133331 238.933334 C 237.600006 230.53334 232.533325 204 229.200012 181.333344 L 225.333344 158.666656 C 223.866669 151.200012 223.866669 149.333344 225.600006 145.066681 C 226.799988 142.266663 227.200012 138.533325 226.799988 136.666656 C 226.133331 134.133331 226.533325 133.066681 228.266663 132.533325 C 241.866669 128.399994 255.466675 113.066681 262 94.533325 C 266.399994 82 266.399994 63.466675 261.866669 52 C 254 32 231.733337 15.333344 211.066681 13.733337 C 204.799988 13.200012 202 13.466675 202 14.533325 Z M 208.533325 128.533325 C 211.733337 129.733337 215.466675 130.666656 216.799988 130.666656 C 222.399994 130.666656 218.799988 133.200012 212.133331 134 C 201.333344 135.333344 195.333328 132.933319 195.333328 127.200012 C 195.333328 123.866669 195.866669 123.866669 208.533325 128.533325 Z M 121.066666 138.799988 C 120.399994 144.399994 120.800003 146.133331 123.199997 149.466675 L 126.133331 153.466675 L 113.866669 184 C 106.933334 200.399994 98.399994 249.866669 99.733337 264.93335 C 100.399994 271.06665 100.133331 273.333313 98.933334 273.333313 C 98 273.333313 92.399994 275.466675 86.266663 278.266663 C 80.266663 280.93335 75.066666 282.799988 74.666672 282.533325 L 73.46666 266.533325 C 73.066666 258.266663 72.266663 248 71.46666 244 C 70.666672 240 69.466667 222.799988 68.666664 206 C 68 189.066681 66.400002 169.333344 65.333336 162 C 63.466667 149.066681 63.466667 148.533325 66 146.533325 C 68.533333 144.399994 82.399994 139.600006 93.333328 137.066681 C 109.46666 133.333344 115.066666 132.266663 118.266663 132.133331 C 121.866669 132 121.866669 132.133331 121.066666 138.799988 Z M 221.200012 147.466675 C 218.133331 153.066681 215.333344 154.399994 215.200012 150.266663 C 215.200012 148.666656 214.399994 145.200012 213.466675 142.666656 L 211.733337 138 L 217.200012 136.533325 C 222.666656 135.200012 222.666656 135.200012 223.066681 139.066681 C 223.333344 141.333344 222.399994 145.066681 221.200012 147.466675 Z M 58.800003 150.399994 C 61.73333 152.266663 64 172.666656 66 212.666656 C 66.800003 228 67.866669 243.333328 68.533333 246.666672 C 69.333336 250 70.133331 259.866669 70.53334 268.799988 L 71.333328 284.799988 L 59.599998 290.533325 L 58.800003 287.600006 C 58.400002 286 58 282 58 278.666687 C 58 275.333313 57.066666 267.200012 56.133331 260.666687 C 55.066666 254 53.466667 241.46666 52.666664 232.666672 C 51.333336 218.133331 49.866669 205.333344 46 174 C 44 157.466675 44.26667 153.866669 47.599998 151.466675 C 50.800003 149.200012 56.26667 148.666656 58.800003 150.399994 Z M 209.733337 227.466675 C 221.066681 229.733337 223.066681 230.800003 220.133331 233.199997 C 218.666656 234.53334 216.666656 234.133331 210.133331 231.333328 C 201.066681 227.600006 200.666656 227.466675 200.666656 229.333328 C 200.666656 230 203.466675 231.866669 206.933319 233.333328 C 220.133331 239.066666 235.333344 250.399994 235.333344 254.266663 C 235.333344 256.93335 232.266663 256.399994 222.799988 252 C 216.933319 249.199997 214 247.066666 213.733337 245.333328 C 213.200012 241.600006 210.666656 242.53334 211.066681 246.266663 C 211.733337 250.666672 209.066681 254.399994 203.333344 257.333313 C 193.199997 262.533325 182.53334 259.600006 176.53334 249.866669 C 172.800003 243.733337 173.600006 235.866669 178.800003 230.53334 C 184.133331 224.933319 192.933334 224 209.733337 227.466675 Z"/>
        <path id="path5" fill="#000000" stroke="none" d="M 98.53334 142.799988 C 98.133331 143.600006 98.399994 144.933319 99.199997 145.733337 C 100.266663 146.799988 100.666672 146.399994 100.666672 144.266663 C 100.666672 141.066681 100 140.533325 98.53334 142.799988 Z"/>
        <path id="path6" fill="#000000" stroke="none" d="M 82.666672 146.799988 C 80.399994 147.333344 76.933334 149.733337 74.800003 151.733337 C 71.733337 155.066681 71.199997 156.666656 71.600006 161.333344 C 72.133331 169.200012 74.666672 169.600006 74.666672 161.866669 C 74.666672 156.666656 75.333328 155.200012 78.666672 152.666656 C 80.800003 150.933319 84.666672 149.333344 87.199997 149.066681 C 89.733337 148.799988 92 147.866669 92.399994 146.933319 C 92.933334 145.066681 88.800003 144.933319 82.666672 146.799988 Z"/>
        <path id="path7" fill="#000000" stroke="none" d="M 54.666664 154.666656 C 54.133331 155.466675 52.666664 155.733337 51.333336 155.333344 C 48.400002 154.399994 46.26667 157.200012 48.666664 158.666656 C 51.199997 160.133331 57.333336 158.133331 57.73333 155.600006 C 58.26667 153.066681 56 152.533325 54.666664 154.666656 Z"/>
        <path id="path8" fill="#000000" stroke="none" d="M 590.666687 29.333344 C 578.266663 33.066681 576.400024 34 569.599976 40 C 556.133362 51.866669 548.799988 67.733337 547.733337 87.466675 C 547.06665 98.266663 547.333313 100.799988 550.666687 110.533325 C 552.666687 116.399994 554.799988 121.333344 555.200012 121.333344 C 555.733337 121.333344 557.200012 123.466675 558.666687 126.133331 C 561.733337 131.866669 571.200012 139.600006 581.599976 144.799988 L 589.866638 148.933319 C 590.133362 149.200012 589.733337 150.133331 588.799988 151.200012 C 587.733337 152.399994 585.599976 152.799988 582.133362 152.399994 C 575.200012 151.466675 568.666687 154.799988 564.266663 161.600006 C 560.666687 167.200012 559.599976 173.733337 561.866638 177.200012 C 562.93335 178.933319 561.466675 185.200012 555.866638 201.333344 C 551.733337 213.200012 544.799988 236.800003 544 241.333328 C 543.599976 243.866669 542.799988 246.933334 542 248 C 540.799988 250 540 250 514 244.800003 C 504 242.800003 453.600006 237.333328 445.066681 237.333328 L 440.666656 237.333328 L 440.666656 221.466675 C 440.666656 212.266663 440.133331 205.200012 439.333344 204.666656 C 438.533325 204.133331 438 209.733337 438 220.666656 L 438 237.600006 L 434.399994 236.800003 C 426.399994 235.199997 354.799988 233.199997 335.066681 234 L 314.133331 234.800003 L 351.866669 146.266663 C 353.066681 143.600006 353.466675 141.333344 352.933319 141.333344 C 352.266663 141.333344 350.799988 143.600006 349.600006 146.266663 L 312 234.399994 L 305.333344 235.199997 C 301.733337 235.600006 294.533325 236 289.600006 236 C 276.133331 236 243.333344 240.800003 243.333344 242.800003 C 243.333344 244.933334 245.733337 244.933334 259.333344 243.199997 C 272.399994 241.333328 307.466675 238.800003 308.399994 239.46666 C 309.066681 239.866669 303.466675 254.800003 302.133331 256.666687 C 301.466675 257.333313 300 261.200012 298.666656 264.93335 C 296.133331 272.133331 294.533325 273.06665 290 270.666687 C 287.466675 269.333313 287.466675 269.200012 290 266.666687 C 291.466675 265.200012 292.666656 263.466675 292.666656 262.799988 C 292.666656 261.06665 281.466675 260 276.666656 261.333313 C 273.466675 262.266663 271.333344 262 268.399994 260.533325 C 264.399994 258.399994 260.933319 258.666687 253.733337 261.600006 C 250.666656 262.666687 250 263.866669 250 267.333313 C 250 270.799988 249.333344 271.866669 246.933319 272.399994 C 241.466675 273.733337 213.600006 283.866669 206.799988 287.06665 L 188.266663 295.333313 C 181.733337 298.133331 175.066666 301.600006 173.199997 302.93335 C 166.133331 308.533325 172.133331 314.399994 180.399994 310.133331 C 185.733337 307.466675 189.199997 307.466675 184.266663 310.133331 C 180.133331 312.399994 179.600006 317.600006 183.600006 318.399994 C 184.800003 318.666687 199.200012 312.266663 215.600006 304.266663 L 271.733337 277.200012 L 277.866669 280.266663 C 283.200012 282.799988 283.600006 283.333313 280.933319 283.733337 C 279.200012 284 276 283.600006 273.733337 282.799988 C 269.866669 281.466675 267.333344 281.733337 268.933319 283.466675 C 269.333344 283.866669 273.200012 284.93335 277.333344 286 C 283.866669 287.466675 285.733337 287.466675 291.466675 285.600006 C 298 283.466675 298 283.466675 298 277.600006 C 298 272.266663 301.333344 262.799988 308.666656 247.199997 L 311.333344 240.399994 C 311.333344 236.800003 370.399994 236.666672 417.733337 240.266663 C 437.466675 241.733337 438 241.733337 438 244.800003 C 438 247.199997 437.066681 247.866669 432.933319 248.666672 C 421.466675 250.53334 415.333344 258.266663 422.533325 261.466675 C 425.866669 263.06665 428.666656 267.733337 428.666656 271.866669 C 428.666656 274.799988 423.333344 279.466675 420.533325 278.93335 C 416.799988 278.266663 407.466675 285.466675 404.666656 291.333313 C 401.466675 298 401.333344 302.799988 404.133331 311.06665 C 406.933319 319.466675 413.600006 323.333313 429.466675 326.133331 C 445.200012 328.93335 456.133362 328.799988 470.666687 325.600006 C 495.06665 320.133331 504.93335 314.399994 506.799988 304.533325 C 508.133362 297.466675 505.06665 288.666687 499.733337 284 C 493.599976 278.533325 491.333313 280.266663 497.333313 285.866669 C 502.400024 290.666687 504.666687 295.466675 504.666687 301.333313 C 504.666687 306.666687 497.200012 312.399994 484.799988 316.666687 C 470.799988 321.466675 447.600006 322.666687 430.133331 319.466675 C 414.666656 316.533325 409.333344 314.133331 406.666656 308.533325 C 402.533325 299.866669 405.333344 291.733337 414.533325 284.666687 C 419.866669 280.666687 421.733337 280.799988 419.466675 285.06665 C 417.600006 288.399994 417.600006 291.333313 419.333344 297.466675 C 422 307.06665 429.333344 311.466675 439.866669 309.733337 C 452.799988 307.733337 457.733337 292.399994 450.666656 276.533325 C 446.666656 267.600006 446.533325 265.466675 449.600006 260.266663 C 452.666656 254.933334 450.399994 249.600006 444.666656 248.53334 C 441.466675 247.866669 440.666656 246.933334 440.666656 244.399994 L 440.666656 241.066666 L 453.066681 242 C 479.333313 243.733337 507.06665 247.199997 522.799988 250.800003 C 528.666687 252.133331 539.866638 254.133331 547.466675 255.333328 C 555.06665 256.533325 563.200012 258.133331 565.333313 258.799988 L 586.533325 264.133331 C 606.666687 268.93335 615.599976 271.866669 646.666687 283.600006 L 680 296 C 718.799988 309.466675 760.533325 329.06665 784.666687 345.06665 C 797.733337 353.733337 800.666687 355.06665 800.666687 352 C 800.666687 347.600006 744.799988 316.799988 716 305.466675 L 700 298.666687 C 699.333313 298.133331 696.666687 297.200012 694.400024 296.666687 C 692 296.266663 690 295.333313 690 294.666687 C 690 292.93335 700.533325 252 703.200012 243.333328 C 714 208.666656 723.866638 168.933319 722.799988 164.666656 C 721.733337 160.266663 717.866638 158.533325 708.93335 158.399994 C 704.799988 158.266663 700.400024 157.466675 699.333313 156.666656 C 694.533325 152.666656 658 144 646.533325 144 C 640.799988 144 640.799988 142.266663 646.666687 138.666656 C 654.93335 133.600006 666.666687 116.533325 669.200012 106 C 673.466675 88.666656 672.133362 74.533325 665.06665 59.333344 C 661.599976 51.866669 650.266663 38.666656 647.333313 38.666656 C 644.666687 38.666656 646.133362 36 649.733337 34.133331 C 654.533325 31.733337 663.733337 30.266663 668.400024 31.200012 C 673.06665 32.266663 678.133362 36.666656 681.866638 42.666656 C 686.533325 50.399994 685.200012 66.799988 678.666687 82.666656 C 669.466675 105.066681 670.666687 113.333344 682.93335 113.333344 C 690 113.333344 695.333313 109.200012 695.333313 103.866669 C 695.333313 99.200012 691.200012 94.666656 686.666687 94.666656 C 682.93335 94.666656 678.533325 100.133331 679.866638 103.333344 C 680.666687 105.600006 688.666687 106.133331 688.666687 104 C 688.666687 103.200012 687.466675 102.666656 686 102.666656 C 684.533325 102.666656 683.333313 101.866669 683.333313 100.799988 C 683.333313 95.733337 690.799988 97.066681 692.133362 102.266663 C 693.866638 109.066681 682.533325 113.600006 677.333313 108.399994 C 674.666687 105.733337 675.333313 96.799988 678.799988 90.133331 C 686.799988 74.266663 690.133362 51.733337 685.733337 42.666656 C 683.06665 36.933319 677.200012 31.333344 672.266663 29.466675 C 664.666687 26.533325 650.799988 28.533325 646.133362 33.200012 C 644.400024 34.933319 643.06665 35.333344 641.866638 34.533325 C 640.799988 33.866669 635.333313 31.866669 629.599976 30 C 616.93335 26 602.533325 25.733337 590.666687 29.333344 Z M 618 30.666656 C 618 31.333344 616 32 613.466675 32 C 608.266663 32 600.666687 34.399994 600.666687 36.133331 C 600.666687 37.733337 600.93335 37.733337 612.533325 35.333344 C 617.866638 34.133331 623.599976 33.733337 625.200012 34.266663 C 626.666687 34.799988 628.93335 35.066681 630 34.799988 C 632.533325 34.266663 642 37.466675 642 38.799988 C 642 39.333344 638.533325 40.533325 634.400024 41.466675 C 624.799988 43.466675 621.466675 46 630 44.799988 C 648 42.266663 647.866638 42.266663 651.06665 45.200012 C 652.666687 46.799988 654 48.533325 654 49.066681 C 654 49.600006 650.133362 51.333344 645.333313 52.666656 C 640.533325 54.133331 636.666687 55.733337 636.666687 56.266663 C 636.666687 57.866669 639.200012 57.600006 648.93335 54.799988 L 657.866638 52.266663 L 660.93335 58.133331 C 664.400024 65.066681 664.266663 65.200012 652.93335 68.666656 C 648.533325 70.133331 646.266663 71.466675 647.06665 72.266663 C 647.866638 73.066681 651.466675 72.399994 656.666687 70.666656 C 661.200012 69.066681 665.200012 68 665.333313 68.266663 L 666.266663 74 C 666.666687 79.200012 666.533325 79.333344 659.733337 82.533325 C 655.866638 84.399994 652.666687 86.266663 652.666687 86.933319 C 652.666687 88.666656 654.93335 88.133331 662 84.799988 L 668.666687 81.600006 L 668.666687 89.466675 C 668.666687 97.066681 668.533325 97.466675 663.200012 101.200012 C 660.266663 103.466675 657.06665 105.466675 656.266663 105.733337 C 655.06665 106.133331 655.06665 106.799988 656.133362 107.866669 C 657.200012 109.066681 658.400024 108.666656 661.200012 106.533325 C 663.200012 104.933319 665.06665 104 665.466675 104.266663 C 666.400024 105.333344 662.400024 115.333344 658.93335 120.799988 C 641.599976 147.466675 606.533325 155.466675 578.400024 139.200012 L 567.599976 131.733337 C 566.93335 131.600006 564 127.733337 561.06665 123.333344 C 555.599976 115.066681 552 105.200012 550.666687 94.399994 C 549.866638 87.066681 552.666687 72.266663 556.533325 63.600006 L 559.333313 56.799988 C 559.333313 54 576.400024 37.333344 579.200012 37.333344 C 580.533325 37.333344 584 36.133331 587.06665 34.666656 C 595.200012 30.666656 618 27.733337 618 30.666656 Z M 660 149.200012 C 678.133362 152 692.93335 156 697.200012 159.333344 C 699.466675 161.066681 699.599976 162 698.266663 168.266663 L 673.599976 278.93335 C 672.666687 283.06665 671.599976 286.799988 671.200012 287.200012 C 670.799988 287.733337 668.533325 287.333313 666.133362 286.533325 C 662 285.06665 661.733337 284.666687 662.533325 280.133331 C 666.133362 259.466675 664.400024 216 659.466675 198 C 657.466675 190.933319 657.333313 189.066681 658.799988 187.866669 C 659.733337 187.066681 661.466675 184 662.666687 180.933319 C 664.400024 176.133331 664.533325 174.533325 663.06665 169.466675 C 661.599976 164.799988 660.266663 163.066681 656.133362 160.933319 C 653.333313 159.466675 649.333313 158.266663 647.333313 158.266663 C 644.666687 158.266663 643.06665 156.933319 640.533325 152.799988 C 636 145.066681 636 144.933319 639.466675 145.733337 L 660 149.200012 Z M 637.06665 152.799988 L 640.666687 158.933319 L 636.799988 160.399994 C 629.599976 163.066681 626 174.666656 629.06665 185.600006 C 630.133362 189.466675 634.799988 191.733337 636.93335 189.600006 C 637.866638 188.666656 637.333313 188 635.466675 187.333344 C 631.466675 186.133331 629.200012 177.733337 631.200012 171.600006 C 633.466675 164.799988 636.93335 162.266663 645.06665 161.600006 C 651.06665 161.066681 652.666687 161.466675 655.866638 164.133331 C 665.200012 172.266663 660 188 646.93335 191.200012 C 644.799988 191.733337 643.466675 192.799988 643.733337 193.733337 C 644 194.666656 645.200012 195.066681 646.133362 194.799988 L 652.266663 192.933319 C 654.799988 191.333344 656.400024 195.866669 658.533325 209.600006 C 661.733337 229.600006 662.266663 244.133331 660.666687 263.06665 C 658.799988 285.333313 659.06665 284.666687 653.866638 282 C 651.599976 280.799988 646.400024 278.666687 642.266663 277.333313 L 614.133362 266.799988 L 618 258.799988 C 625.466675 243.46666 645.333313 180.533325 643.200012 179.200012 C 642.533325 178.799988 641.733337 179.333344 641.466675 180.266663 L 638.266663 190.666656 C 627.866638 224.266663 622.266663 241.066666 617.06665 252.800003 L 611.200012 266.266663 L 560.93335 252.666672 C 560.133362 252 562.93335 225.200012 564.799988 214.266663 C 567.599976 198 578.133362 171.866669 587.333313 158.399994 L 593.06665 150 L 605.866638 150.399994 C 614 150.666656 621.06665 150.133331 625.333313 148.933319 L 632.666687 146.799988 C 633.06665 146.799988 635.06665 149.466675 637.06665 152.799988 Z M 583.866638 155.733337 C 584.133362 156.266663 582.400024 160 579.866638 164 C 577.333313 168 575.333313 171.600006 575.333313 172.133331 L 571.06665 183.333344 L 567.733337 179.466675 C 565.200012 176.399994 564.666687 174.533325 564.93335 169.600006 C 565.333313 164.133331 566 162.933319 571.06665 159.066681 C 576.533325 154.933319 582.400024 153.333344 583.866638 155.733337 Z M 717.733337 163.600006 L 720.533325 166 L 714.799988 190 C 711.599976 203.200012 706 224.266663 702.266663 236.666672 C 698.533325 249.199997 693.466675 266.799988 691.200012 276 L 686.666687 293.06665 C 686.400024 293.333313 683.733337 292.799988 680.666687 291.866669 L 675.06665 290.133331 L 675.866638 284.133331 C 676.266663 280.799988 677.866638 272.93335 679.333313 266.666687 L 697.333313 187.333344 C 703.06665 160.799988 702.799988 161.333344 709.333313 161.333344 C 712.799988 161.333344 716.133362 162.266663 717.733337 163.600006 Z M 568.533325 183.866669 C 570.133362 184.933319 570 185.866669 568.133362 190.666656 C 563.733337 201.600006 559.466675 225.600006 557.599976 248.666672 C 557.333313 252.53334 557.06665 252.666672 552 252.266663 L 545.866638 251.199997 C 544.266663 250.266663 549.866638 228.266663 556.133362 210.666656 L 562.133362 192.266663 C 565.06665 182.399994 565.333313 181.866669 568.533325 183.866669 Z M 447.066681 253.066666 C 448.533325 254.933334 448.399994 255.600006 446.399994 257.06665 C 443.733337 259.06665 430.399994 258.399994 426.266663 256.133331 C 424.266663 255.066666 424.533325 254.666672 428 253.46666 L 434.666656 250.666672 C 438.266663 248.933334 444.933319 250.133331 447.066681 253.066666 Z M 437.066681 260.399994 C 439.066681 260.399994 440.666656 260.93335 440.666656 261.600006 C 440.666656 263.200012 432.533325 262.666687 427.333344 260.666687 L 422.666656 258.799988 L 437.066681 260.399994 Z M 266.533325 262.133331 C 270 263.466675 268.933319 264.93335 263.866669 266 C 258.399994 266.93335 254.533325 264.799988 258 262.666687 C 260.266663 261.200012 263.600006 260.93335 266.533325 262.133331 Z M 280 264 C 279.600006 264.666687 278.533325 265.333313 277.866669 265.333313 C 277.066681 265.333313 274 266.399994 270.933319 267.866669 L 179.866669 307.466675 C 179.066666 307.866669 178 307.06665 177.733337 305.600006 C 177.199997 303.466675 180.133331 301.733337 197.199997 294.266663 C 208.266663 289.333313 224 282.93335 232 280.133331 L 274 264.666687 C 279.733337 262.399994 281.066681 262.266663 280 264 Z M 287.333344 265.466675 C 287.333344 266.266663 279.733337 270.533325 270.399994 274.93335 L 222.133331 298.133331 C 204.933319 306.533325 190.666672 313.06665 190.266663 312.799988 C 188.53334 310.93335 192.133331 308 203.466675 302 C 215.600006 295.733337 284.266663 264.133331 286.399994 264 C 286.933319 264 287.333344 264.666687 287.333344 265.466675 Z M 444.933319 267.333313 C 444.666656 268.93335 446 273.466675 448 277.466675 C 451.866669 285.06665 452.533325 291.600006 450.133331 297.866669 C 448 303.06665 447.333344 301.866669 448.533325 295.200012 L 449.600006 289.733337 L 436.399994 289.866669 C 421.600006 290 421.200012 290.399994 425.466675 300.799988 C 427.333344 305.200012 427.333344 305.600006 425.600006 304.266663 C 424.533325 303.333313 422.933319 299.733337 422 296.266663 C 420.266663 288.93335 422.266663 282.799988 428.133331 277.333313 C 430.933319 274.666687 431.466675 273.200012 430.933319 269.333313 L 430.399994 264.666687 L 438 264.533325 C 445.200012 264.266663 445.600006 264.533325 444.933319 267.333313 Z M 256.666656 268.133331 C 256.666656 268.799988 255.733337 269.333313 254.666656 269.333313 C 253.600006 269.333313 252.666656 268.399994 252.666656 267.333313 C 252.666656 266.133331 253.466675 265.733337 254.666656 266.133331 C 255.733337 266.666687 256.666656 267.466675 256.666656 268.133331 Z M 293.200012 274.799988 C 294.533325 276 286.399994 280 284.133331 279.333313 L 279.066681 278.133331 C 274.133331 277.06665 274.399994 275.600006 279.733337 273.06665 C 284 271.06665 289.866669 271.866669 293.200012 274.799988 Z M 295.333344 280 C 295.333344 282 290.133331 284.266663 286.933319 283.733337 C 284.399994 283.200012 284.533325 282.93335 288.666656 281.06665 C 294.266663 278.399994 295.333344 278.266663 295.333344 280 Z M 444.133331 306 C 441.200012 308.266663 431.866669 308.666687 430.666656 306.666687 C 430.133331 305.866669 431.333344 305.733337 433.866669 306.133331 C 436 306.533325 438.799988 306.266663 440.266663 305.466675 C 441.600006 304.666687 443.600006 304.133331 444.666656 304.133331 C 446.133331 304.133331 446 304.533325 444.133331 306 Z M 175.866669 308.133331 C 175.46666 308.799988 174.53334 309.06665 173.866669 308.533325 C 173.199997 308.133331 172.933334 307.200012 173.46666 306.533325 C 173.866669 305.866669 174.800003 305.600006 175.46666 306.133331 C 176.133331 306.533325 176.399994 307.466675 175.866669 308.133331 Z M 187.333328 314 C 187.333328 315.06665 186.399994 316 185.333328 316 C 181.866669 316 182.933334 313.333313 187.066666 312.133331 L 187.333328 314 Z M 430.399994 322 C 436.133331 323.06665 445.466675 324.133331 451.066681 324.133331 C 459.599976 324.266663 460.400024 324.533325 455.866638 325.200012 C 448.666656 326.399994 426.666656 324.399994 421.466675 322 C 416 319.600006 418 319.600006 430.399994 322 Z"/>
        <path id="path9" fill="#000000" stroke="none" d="M 569.06665 53.200012 C 566 55.733337 565.06665 58.666656 567.200012 58.666656 C 567.866638 58.666656 569.06665 57.733337 570 56.666656 C 571.866638 54.399994 577.06665 54 580.799988 56 C 582.666687 57.066681 583.333313 56.933319 583.333313 55.600006 C 583.333313 53.600006 577.866638 50.666656 574.266663 50.666656 C 573.06665 50.799988 570.666687 51.866669 569.06665 53.200012 Z"/>
        <path id="path10" fill="#000000" stroke="none" d="M 610.400024 58.266663 C 606.533325 59.733337 609.06665 61.333344 613.866638 60.533325 C 618.133362 59.866669 619.466675 60.133331 621.466675 62.533325 C 624.266663 65.733337 626 66.133331 626 63.466675 C 626 59.066681 616.266663 55.866669 610.400024 58.266663 Z"/>
        <path id="path11" fill="#000000" stroke="none" d="M 566.93335 83.733337 C 565.599976 85.066681 564.666687 86.799988 564.666687 87.600006 C 564.666687 88.399994 563.866638 89.333344 563.06665 89.733337 C 561.733337 90.133331 561.733337 90.666656 563.200012 92.399994 C 565.733337 95.600006 567.333313 95.200012 567.333313 91.600006 C 567.333313 87.200012 570.400024 83.333344 573.200012 84.399994 C 574.666687 85.066681 575.333313 86.933319 575.333313 90.799988 C 575.333313 94.533325 575.866638 96 577.06665 95.600006 C 579.06665 94.933319 578.666687 85.866669 576.533325 83.200012 C 574.400024 80.533325 569.466675 80.933319 566.93335 83.733337 Z"/>
        <path id="path12" fill="#000000" stroke="none" d="M 609.466675 86.933319 C 607.06665 90.666656 606.266663 95.733337 607.866638 96.266663 C 608.666687 96.533325 609.733337 94.666656 610.266663 92.266663 C 612.533325 83.866669 618.266663 85.200012 618.266663 94.133331 C 618.266663 101.333344 619.06665 102 622.799988 98 C 626.533325 94 626.666687 93.333344 624.133362 93.333344 C 623.06665 93.333344 621.866638 91.733337 621.333313 89.733337 C 620.93335 87.733337 619.733337 85.600006 618.93335 85.066681 C 615.866638 83.066681 611.333313 84 609.466675 86.933319 Z"/>
        <path id="path13" fill="#000000" stroke="none" d="M 583.599976 104.266663 C 581.200012 106.666656 581.733337 108.799988 585.200012 110.399994 C 588.266663 111.733337 588.400024 111.600006 588.266663 107.200012 C 588.133362 102.533325 586.400024 101.466675 583.599976 104.266663 Z"/>
        <path id="path14" fill="#000000" stroke="none" d="M 622 111.333344 C 622 112.399994 622.666687 113.333344 623.333313 113.333344 C 624.133362 113.333344 624.666687 112.399994 624.666687 111.333344 C 624.666687 110.266663 624.133362 109.333344 623.333313 109.333344 C 622.666687 109.333344 622 110.266663 622 111.333344 Z"/>
        <path id="path15" fill="#000000" stroke="none" d="M 626.93335 111.333344 C 625.733337 114.399994 628.400024 115.066681 630 112 C 631.06665 109.866669 631.06665 109.333344 629.466675 109.333344 C 628.533325 109.333344 627.333313 110.266663 626.93335 111.333344 Z"/>
        <path id="path16" fill="#000000" stroke="none" d="M 576.93335 120.266663 C 577.200012 122.399994 578.799988 123.866669 582 124.933319 C 586.93335 126.666656 603.200012 126.933319 608.400024 125.600006 C 611.733337 124.533325 612 121.733337 608.666687 122.399994 L 602.400024 123.466675 C 595.733337 124.799988 583.866638 122.799988 580.533325 119.866669 C 576.799988 116.666656 576.400024 116.666656 576.93335 120.266663 Z"/>
        <path id="path17" fill="#000000" stroke="none" d="M 670 158.799988 C 670 160.266663 670.666687 161.066681 671.333313 160.666656 C 672.133362 160.266663 672.666687 158.933319 672.666687 157.866669 C 672.666687 156.799988 672.133362 156 671.333313 156 C 670.666687 156 670 157.200012 670 158.799988 Z"/>
        <path id="path18" fill="#000000" stroke="none" d="M 678 160 C 678 160.666656 679.333313 161.333344 681.06665 161.333344 C 686.799988 161.333344 689.333313 164.533325 689.200012 171.600006 C 689.200012 175.066681 688.666687 179.600006 688.266663 181.600006 C 687.466675 184.399994 687.733337 185.333344 689.200012 185.333344 C 690.133362 185.333344 691.333313 184 691.866638 182.266663 C 692.93335 178.133331 692.799988 164.933319 691.599976 163.066681 C 689.466675 159.733337 678 157.200012 678 160 Z"/>
        <path id="path19" fill="#000000" stroke="none" d="M 686 192 C 686 192.666656 686.533325 193.333344 687.200012 193.333344 C 688 193.333344 688.93335 192.666656 689.333313 192 C 689.733337 191.200012 689.200012 190.666656 688.133362 190.666656 C 686.93335 190.666656 686 191.200012 686 192 Z"/>
        <path id="path20" fill="#000000" stroke="none" d="M 706 165.200012 C 706 166.799988 714.799988 169.733337 717.06665 168.933319 C 718 168.533325 717.200012 167.733337 715.333313 167.066681 C 708.666687 164.399994 706 163.866669 706 165.200012 Z"/>
        <path id="path21" fill="#000000" stroke="none" d="M 428.533325 279.600006 C 427.200012 279.866669 426 281.333313 425.600006 282.799988 C 424.666656 286.533325 430.133331 288.399994 439.200012 287.600006 C 448.399994 286.666687 450.399994 284.666687 446.133331 281.200012 C 443.200012 278.799988 434.533325 278 428.533325 279.600006 Z"/>
        <path id="path22" fill="#000000" stroke="none" d="M 199.733337 73.466675 C 195.866669 75.333344 194 77.200012 194 78.933319 C 194 81.333344 194.266663 81.333344 198.133331 78.133331 C 203.200012 73.866669 208.266663 72.399994 211.466675 74.533325 C 214.666656 76.399994 215.333344 76.399994 215.333344 74.133331 C 215.333344 69.866669 207.466675 69.600006 199.733337 73.466675 Z"/>
        <path id="path26" fill="#000000" stroke="none" d="M 205.733337 97.066681 C 199.866669 97.733337 199.333344 105.333344 205.200012 105.333344 C 208.666656 105.333344 211.333344 102.933319 211.333344 99.866669 C 211.333344 96.933319 210.266663 96.399994 205.733337 97.066681 Z"/>
        <path id="path27" fill="#000000" stroke="none" d="M 244.133331 100.799988 C 241.066681 103.866669 242.133331 106 246.799988 106 C 250 106 250.666656 105.466675 250.666656 102.666656 C 250.666656 98.666656 247.200012 97.600006 244.133331 100.799988 Z"/>
        <path id="path28" fill="#000000" stroke="none" d="M 165.733337 106 C 164.933334 107.866669 164.666672 109.733337 165.199997 110.399994 C 166.399994 111.466675 170 106.933319 170 104.399994 C 170 101.466675 167.333328 102.533325 165.733337 106 Z"/>
        <path id="path29" fill="#000000" stroke="none" d="M 172.266663 104.933319 C 171.733337 105.333344 171.333328 106.933319 171.333328 108.399994 C 171.333328 110.533325 171.733337 110.666656 173.333328 109.333344 C 174.399994 108.399994 175.333328 106.799988 175.333328 105.866669 C 175.333328 103.866669 173.733337 103.333344 172.266663 104.933319 Z"/>
        <path id="path36" fill="#000000" stroke="none" d="M 222.666656 117.866669 C 220.533325 119.466675 220.266663 120.266663 221.466675 122.266663 C 223.466675 125.466675 227.866669 126 230.533325 123.200012 C 235.600006 118.266663 228.533325 113.466675 222.666656 117.866669 Z M 228.666656 120 C 228.666656 120.666656 227.333344 121.333344 225.733337 121.333344 C 223.200012 121.333344 223.066681 121.066681 224.666656 120 C 227.200012 118.266663 228.666656 118.266663 228.666656 120 Z"/>
        <path id="path41" fill="#000000" stroke="none" d="M 466.133362 269.200012 C 463.200012 271.06665 459.466675 282 460.93335 284.533325 C 461.733337 286 461.466675 287.600006 460.133362 289.600006 C 458.799988 291.466675 458 295.466675 458 299.600006 C 458 306.133331 458.266663 306.93335 462.400024 309.333313 C 467.466675 312.533325 470.93335 312.666687 476.133362 310.133331 L 483.733337 306.799988 C 487.06665 305.466675 487.333313 304.93335 487.333313 297.600006 C 487.333313 293.333313 486.666687 289.200012 485.733337 288.266663 C 484.799988 287.333313 484.266663 284.266663 484.533325 281.466675 C 484.799988 276.266663 482.93335 270.93335 480.133362 269.06665 C 478.133362 267.600006 468.400024 267.733337 466.133362 269.200012 Z M 478.533325 271.733337 C 479.866638 274 476.799988 276.399994 472.666687 276.266663 C 467.866638 276.133331 465.200012 274.399994 466.533325 272.133331 C 467.599976 270.399994 477.466675 270.133331 478.533325 271.733337 Z M 482 278.93335 C 482 280.399994 474 281.600006 469.333313 280.799988 C 461.466675 279.333313 463.200012 277.866669 472.799988 278 C 477.866638 278 482 278.399994 482 278.93335 Z M 477.333313 283.06665 C 481.06665 281.866669 482 282 482 283.333313 C 482 284.266663 479.866638 285.466675 477.333313 285.866669 C 471.333313 287.06665 463.333313 285.600006 463.333313 283.333313 C 463.333313 282 464.266663 281.866669 468 283.06665 C 471.333313 284 474 284 477.333313 283.06665 Z M 471.200012 290.133331 C 472.533325 291.333313 469.466675 293.333313 467.200012 292.666687 C 464 291.600006 461.866638 292.799988 462.799988 295.200012 C 463.200012 296.266663 464.799988 296.666687 466.93335 296.266663 C 469.333313 295.866669 470.133362 296.133331 469.466675 297.200012 C 468.93335 298 468 298.399994 467.333313 298 C 466.666687 297.600006 465.866638 297.866669 465.333313 298.666687 C 464.93335 299.333313 465.466675 300 466.666687 300 C 468.133362 300 468.666687 300.666687 468.133362 302 C 466.93335 305.200012 468.533325 307.733337 471.466675 307.06665 C 474.400024 306.266663 474.799988 304.533325 472.400024 303.600006 C 470.133362 302.93335 472.666687 295.333313 475.06665 295.333313 C 476 295.333313 477.333313 294.399994 478.133362 293.333313 C 479.200012 291.866669 479.733337 291.733337 480.266663 292.93335 C 480.533325 293.866669 481.733337 294.666687 482.666687 294.666687 C 485.06665 294.666687 486.266663 298.399994 484.666687 301.200012 C 483.06665 304.399994 471.866638 309.600006 468.133362 309.06665 C 466.400024 308.799988 465.466675 307.733337 465.466675 306.266663 C 465.599976 304.93335 464.400024 302.93335 462.666687 301.866669 C 460 300.133331 459.733337 299.200012 460.666687 295.733337 C 462.400024 289.866669 464.533325 287.733337 467.866638 288.799988 L 471.200012 290.133331 Z M 482.666687 289.333313 C 483.06665 290 482.266663 290.666687 480.799988 290.666687 L 476.133362 291.466675 C 474.93335 291.866669 474 291.600006 474 290.93335 C 474 288.533325 481.333313 287.200012 482.666687 289.333313 Z M 463.333313 305.466675 C 463.333313 306.266663 462.799988 306.399994 462 306 C 461.333313 305.600006 460.666687 304.533325 460.666687 303.866669 C 460.666687 303.06665 461.333313 302.93335 462 303.333313 C 462.799988 303.733337 463.333313 304.799988 463.333313 305.466675 Z"/>
        <path id="path42" fill="#000000" stroke="none" d="M 472.666687 273.333313 C 472.666687 274 473.333313 274.666687 474.133362 274.666687 C 474.799988 274.666687 475.06665 274 474.666687 273.333313 C 474.266663 272.533325 473.599976 272 473.200012 272 C 472.93335 272 472.666687 272.533325 472.666687 273.333313 Z"/>
        <path id="path43" fill="#000000" stroke="none" d="M 480.266663 300 C 480.666687 301.466675 481.466675 302.666687 482.133362 302.666687 C 483.599976 302.666687 483.599976 302.266663 482.533325 299.466675 C 481.333313 296.399994 479.466675 296.799988 480.266663 300 Z"/>
        <path id="path44" fill="#000000" stroke="none" d="M 474 300.533325 C 474 301.600006 474.666687 302.93335 475.333313 303.333313 C 476.133362 303.733337 476.666687 303.200012 476.666687 302.133331 C 476.666687 301.06665 476.133362 299.733337 475.333313 299.333313 C 474.666687 298.93335 474 299.466675 474 300.533325 Z"/>
        <path id="path45" fill="#000000" stroke="none" d="M 453.600006 274.399994 C 452.399994 274.666687 451.600006 275.466675 452 276.133331 C 453.066681 277.733337 458 277.733337 458 276.133331 C 458 274.399994 456.400024 273.733337 453.600006 274.399994 Z"/>
        <path id="path46" fill="#000000" stroke="none" d="M 488.666687 281.333313 C 488.666687 282 489.333313 282.666687 490.133362 282.666687 C 490.799988 282.666687 491.06665 282 490.666687 281.333313 C 490.266663 280.533325 489.599976 280 489.200012 280 C 488.93335 280 488.666687 280.533325 488.666687 281.333313 Z"/>
        <path id="path47" fill="#000000" stroke="none" d="M 561.599976 289.600006 C 560.266663 294.133331 560.400024 294.666687 562.666687 294.666687 C 564.799988 294.666687 565.333313 298.266663 563.466675 301.06665 C 562.533325 302.666687 561.599976 302.533325 558.266663 300.799988 C 552 297.600006 547.599976 298.133331 543.333313 302.666687 C 541.333313 304.799988 538.400024 306.666687 536.799988 306.666687 C 530 306.666687 523.06665 314 525.06665 319.200012 C 525.599976 320.399994 524 322.533325 521.200012 324.666687 C 517.200012 327.733337 516.533325 328.93335 516.93335 333.06665 C 517.200012 336.666687 518.133362 338.399994 520.400024 339.333313 C 524.266663 341.06665 524.133362 342.399994 519.733337 342.93335 C 517.866638 343.200012 515.06665 344.93335 513.599976 346.93335 C 511.200012 350.133331 511.200012 350.93335 512.666687 354.666687 C 514.133362 358.133331 514 359.06665 512.133362 361.200012 C 510.533325 362.93335 510 365.466675 510.266663 368.799988 C 510.533325 372.93335 511.466675 374.399994 514.400024 375.733337 C 517.333313 377.200012 517.733337 377.866669 516.666687 380 C 514.799988 383.466675 515.06665 386.666656 517.200012 390.93335 C 518.266663 393.06665 518.799988 394.666656 518.400024 394.666656 C 515.733337 394.666656 501.06665 385.333344 497.333313 381.06665 C 493.333313 376.799988 492.666687 375.06665 492.666687 369.600006 C 492.666687 362.266663 499.06665 350.666687 505.866638 345.600006 C 511.200012 341.733337 511.200012 339.200012 505.866638 342.266663 C 499.866638 345.733337 491.599976 358 489.866638 366.266663 C 486.666687 380.399994 492.93335 394.93335 506.799988 405.866669 C 519.866638 416 531.733337 419.06665 566.666687 421.333344 C 590.666687 422.799988 603.466675 421.466675 620 415.733337 C 644.266663 407.200012 652.799988 400.266663 661.200012 382.666656 C 670.533325 362.799988 668.799988 347.466675 656.400024 341.06665 C 652 338.799988 651.599976 338.133331 652.266663 334.266663 C 653.599976 325.733337 644.533325 319.733337 636.533325 324 C 633.599976 325.600006 633.466675 325.06665 635.599976 319.200012 C 636.799988 315.733337 638 314.666687 641.06665 314.399994 C 644.93335 314 648.799988 310.266663 647.06665 308.666687 C 646.666687 308.266663 642.93335 307.466675 638.799988 307.06665 C 634.666687 306.666687 630.93335 305.733337 630.533325 305.200012 C 629.333313 303.200012 625.06665 303.866669 624.133362 306.133331 C 622.799988 309.600006 623.200012 310.666687 626.666687 312.266663 C 631.06665 314.266663 630.93335 316 626.400024 316 C 624.266663 316 621.866638 316.533325 620.799988 317.200012 C 619.466675 318.133331 617.733337 317.600006 615.599976 315.866669 C 611.733337 312.93335 606.666687 312.666687 602 315.333313 C 597.466675 317.866669 596.93335 317.866669 596.400024 314.399994 C 595.866638 310 589.333313 307.200012 584.400024 309.06665 C 580.93335 310.399994 580.400024 310.133331 579.333313 307.200012 C 578.666687 305.466675 576.533325 303.333313 574.666687 302.666687 C 570 300.93335 571.733337 297.733337 578.133362 296.666687 C 582.93335 295.866669 583.466675 295.333313 583.06665 292.266663 C 582.666687 289.06665 582.133362 288.799988 575.333313 288.666687 C 571.333313 288.533325 566.666687 288 565.200012 287.466675 C 562.93335 286.666687 562.266663 287.06665 561.599976 289.600006 Z M 580.266663 292.533325 C 580 293.333313 577.599976 294.133331 574.93335 294.399994 C 570.93335 294.799988 570.133362 295.333313 569.733337 298.266663 C 569.466675 300.266663 568.533325 302.133331 567.466675 302.399994 C 566.133362 302.93335 565.866638 302.399994 566.666687 300.533325 C 568.93335 294.93335 568.93335 293.333313 566.93335 293.333313 C 565.733337 293.333313 564.533325 292.799988 564 292.133331 C 563.599976 291.333313 566.93335 290.93335 572 290.93335 C 577.733337 291.06665 580.533325 291.600006 580.266663 292.533325 Z M 556.799988 302.666687 C 558.133362 303.466675 560.266663 306 561.599976 308.399994 L 563.866638 312.666687 L 564.666687 309.333313 C 565.333313 306.666687 566.400024 305.866669 570.400024 305.600006 C 574.666687 305.200012 575.466675 305.600006 576.666687 308.533325 C 577.333313 310.399994 577.599976 312.93335 577.200012 314 C 576.133362 316.533325 576.400024 316.533325 582.400024 313.466675 C 588.133362 310.533325 592.400024 311.200012 593.866638 315.200012 C 595.466675 319.333313 592.799988 323.866669 587.733337 326 C 584.799988 327.200012 583.333313 328.799988 583.333313 330.533325 C 583.333313 332.266663 582.400024 333.333313 581.06665 333.333313 L 575.733337 334.133331 C 573.466675 334.799988 572.666687 334.399994 572.666687 332.93335 C 572.666687 330.666687 567.866638 326.666687 565.200012 326.666687 C 564.266663 326.666687 561.733337 328.133331 559.599976 330 C 555.866638 333.200012 555.466675 333.200012 551.466675 331.200012 C 546.400024 328.666687 546.133362 325.866669 550.799988 324.799988 C 553.733337 324 554.133362 323.333313 553.333313 320.266663 C 552.133362 315.466675 551.866638 315.333313 547.733337 317.333313 C 545.599976 318.266663 541.333313 319.466675 538 319.866669 C 532.666687 320.533325 532 321.06665 531.599976 324.266663 C 531.200012 328.133331 531.333313 328.133331 538.533325 328.533325 C 540 328.666687 541.333313 329.466675 541.599976 330.266663 C 542 331.466675 540.400024 332 536.400024 332 C 531.866638 332 529.733337 332.799988 527.333313 335.333313 C 524.93335 337.866669 523.733337 338.266663 521.866638 337.200012 C 518.266663 335.333313 518.666687 330 522.799988 326.799988 C 524.799988 325.200012 527.200012 324 528.266663 324 C 529.466675 324 530 323.200012 529.599976 322.266663 C 527.06665 315.600006 527.200012 314.666687 530.799988 311.333313 C 534.400024 308 535.733337 307.866669 541.06665 310 C 542.533325 310.666687 543.333313 310.399994 543.333313 309.06665 C 543.333313 303.06665 550.799988 299.466675 556.799988 302.666687 Z M 642.400024 309.200012 C 647.200012 309.466675 644.400024 312 639.333313 312 C 634.533325 312 634 312.399994 634 315.200012 C 634 317.06665 633.333313 318.93335 632.533325 319.466675 C 631.333313 320.133331 631.200012 319.06665 631.866638 315.466675 C 632.666687 311.200012 632.400024 310.666687 630.133362 310.666687 C 627.466675 310.666687 625.466675 308.93335 626.666687 307.733337 C 627.06665 307.333313 630.133362 307.600006 633.733337 308.133331 L 642.400024 309.200012 Z M 612.799988 317.333313 C 614.133362 318.133331 615.333313 319.600006 615.333313 320.666687 C 615.333313 321.733337 616 322.666687 616.666687 322.666687 C 617.466675 322.666687 618 322.133331 618 321.466675 C 618 320.799988 619.866638 319.866669 622.133362 319.333313 C 627.333313 318.133331 631.333313 321.466675 631.333313 326.93335 L 631.333313 330.799988 L 634.799988 328.133331 C 639.733337 324.266663 645.333313 324.533325 648.133362 328.666687 C 650 331.466675 650.133362 332.799988 648.799988 335.466675 C 647.200012 339.200012 647.866638 341.333313 650.666687 341.333313 C 653.866638 341.333313 654.666687 347.733337 652 350.666687 C 650.666687 352.133331 648.799988 353.333313 647.733337 353.333313 C 645.466675 353.333313 645.466675 354.399994 648 356.799988 C 650.400024 359.200012 650.666687 367.466675 648.400024 368.799988 C 647.599976 369.333344 645.06665 370.266663 642.799988 370.799988 C 638.93335 371.733337 638.799988 371.866669 641.733337 372.666656 C 643.599976 373.333344 644.666687 374.666656 644.666687 376.666656 C 644.666687 380.799988 641.733337 383.466675 636 384.533325 C 632.533325 385.200012 631.333313 386.133331 631.333313 388 C 631.333313 389.466675 630 391.466675 628.400024 392.533325 C 624.266663 395.200012 606.799988 398.799988 606.133362 397.06665 C 605.866638 396.399994 604.266663 395.333344 602.533325 394.666656 C 600.133362 393.733337 599.333313 392.399994 599.333313 389.333344 C 599.333313 386.93335 598.266663 384.399994 596.666687 383.06665 C 594.93335 381.466675 594.266663 379.866669 594.93335 377.600006 C 595.466675 375.466675 594.666687 373.200012 592.799988 370.533325 C 590.133362 366.93335 590.133362 366.399994 592 364.533325 C 593.06665 363.466675 594 361.06665 594 359.333344 C 594 355.733337 591.333313 349.333313 589.866638 349.333313 C 589.333313 349.333313 588.666687 346.799988 588.266663 343.600006 L 586.666687 334.133331 C 585.466675 329.600006 587.333313 328 594.400024 328 C 598.400024 328 599.466675 327.466675 599.200012 325.600006 C 598.799988 321.200012 599.333313 320.133331 603.06665 318.133331 C 607.466675 315.733337 609.333313 315.600006 612.799988 317.333313 Z M 551.333313 321.200012 C 551.333313 321.866669 550 322.666687 548.400024 322.93335 C 545.866638 323.200012 545.466675 324 545.733337 327.200012 C 546.133362 329.600006 545.733337 330.666687 544.799988 330.133331 C 544 329.600006 543.333313 328.266663 543.333313 327.200012 C 543.333313 326 541.866638 325.333313 538.666687 325.333313 C 533.200012 325.333313 532.266663 322.666687 537.733337 322.533325 C 539.733337 322.533325 542.533325 322 544 321.333313 C 547.599976 319.733337 551.333313 319.733337 551.333313 321.200012 Z M 596.666687 324 C 596.666687 324.666687 596 325.333313 595.200012 325.333313 C 594.533325 325.333313 594.266663 324.666687 594.666687 324 C 595.06665 323.200012 595.733337 322.666687 596.133362 322.666687 C 596.400024 322.666687 596.666687 323.200012 596.666687 324 Z M 570.133362 334.399994 C 571.200012 337.333313 572 337.600006 576.533325 336.799988 C 584.93335 335.466675 590 342.799988 584.533325 348.533325 C 582.666687 350.666687 583.200012 352.399994 585.333313 351.466675 C 588.133362 350.399994 591.866638 356.533325 590.799988 360.666656 C 590.400024 362.399994 588.799988 364.533325 587.333313 365.333344 C 584.666687 366.799988 584.799988 366.93335 588.666687 370.133331 C 593.466675 374.266663 593.866638 378.799988 589.733337 381.733337 C 586.666687 383.866669 586.666687 383.866669 590.93335 383.866669 C 594.533325 384 595.466675 384.666656 596.133362 387.600006 C 596.666687 389.466675 596.400024 392.133331 595.466675 393.466675 C 593.333313 397.06665 593.599976 397.333344 597.733337 396.533325 C 600.266663 396 602 396.399994 603.200012 397.866669 C 605.06665 400.133331 604 400.533325 591.733337 402 C 586.666687 402.533325 584.666687 402.266663 584.666687 401.200012 C 584.666687 397.733337 580.266663 394.666656 575.333313 394.666656 C 570 394.666656 567.333313 396.533325 567.333313 400.533325 C 567.333313 402.93335 566.666687 403.06665 554 402.266663 C 540 401.466675 530.799988 399.333344 527.200012 396.399994 C 526.133362 395.466675 524.400024 394.666656 523.599976 394.666656 C 521.733337 394.666656 518 387.733337 518 384.133331 C 518 382.666656 519.333313 380.266663 520.93335 378.799988 C 523.06665 376.666656 523.333313 375.866669 521.866638 375.466675 C 512.666687 372.133331 512.666687 372.133331 512.666687 367.600006 C 512.666687 364.133331 513.466675 362.799988 516 361.600006 C 519.200012 360.133331 520.666687 357.333344 518.266663 357.333344 C 517.599976 357.333344 516.400024 355.866669 515.599976 354 C 514.133362 350.93335 514.400024 350.133331 517.333313 347.200012 C 520 344.533325 521.200012 344.133331 523.200012 345.333313 C 527.06665 347.333313 527.733337 347.06665 526.799988 343.466675 C 526.133362 340.93335 526.799988 339.600006 529.466675 337.466675 C 532.93335 334.799988 538 333.733337 539.733337 335.466675 C 540.133362 335.866669 540 337.733337 539.333313 339.466675 C 538 342.93335 538.799988 346.666687 540.93335 346.666687 C 541.733337 346.666687 542 345.333313 541.599976 343.733337 C 541.200012 342.266663 541.733337 339.200012 542.799988 337.06665 C 545.06665 332.666687 550.266663 332 553.599976 335.866669 C 555.733337 338.399994 555.866638 338.266663 560 333.866669 C 564.93335 328.799988 568 328.93335 570.133362 334.399994 Z M 661.866638 349.866669 C 663.466675 352.266663 664.666687 356.399994 664.666687 358.93335 C 664.666687 364.666656 658.799988 374.133331 651.599976 379.733337 L 646.266663 384 L 646.666687 378.666656 C 646.93335 375.06665 648.133362 372.133331 650 370.399994 C 652.533325 368 652.93335 366.533325 652.400024 361.200012 C 651.866638 356 652.266663 354.266663 654.133362 352.533325 C 655.599976 351.200012 656.666687 349.200012 656.666687 347.733337 C 656.666687 344 658.799988 344.799988 661.866638 349.866669 Z M 657.466675 384.266663 C 653.866638 391.600006 650.799988 395.600006 645.06665 400.266663 C 636.533325 407.333344 631.200012 409.06665 636.93335 402.93335 C 638.799988 400.93335 641.733337 396.266663 643.466675 392.399994 C 645.200012 388.533325 647.599976 385.06665 648.799988 384.666656 C 649.866638 384.266663 653.200012 381.733337 656.133362 378.799988 C 658.93335 376 661.599976 373.866669 661.866638 374.133331 C 662.133362 374.399994 660.133362 378.93335 657.466675 384.266663 Z M 497.333313 385.333344 C 506.266663 395.200012 533.866638 404.133331 560.666687 405.866669 L 571.333313 406.533325 C 571.599976 406.666656 568 409.466675 563.333313 412.93335 L 554.666687 419.200012 L 540 416.133331 C 532 414.533325 522.266663 411.733337 518.400024 409.866669 C 509.866638 405.733337 499.200012 395.733337 495.466675 388.266663 C 492.400024 382.266663 493.333313 380.93335 497.333313 385.333344 Z M 642.666687 386.533325 C 641.866638 387.200012 639.599976 388.133331 637.333313 388.533325 L 633.333313 389.333344 L 637.333313 387.466675 C 642 385.06665 644.533325 384.799988 642.666687 386.533325 Z M 642 390.133331 C 642 392.266663 634.799988 402.666656 630.400024 406.93335 C 626.133362 411.06665 618.133362 414.666656 613.333313 414.666656 C 612.666687 414.666656 615.333313 411.466675 619.333313 407.600006 C 623.333313 403.733337 627.333313 399.466675 628.133362 398 C 630 394.533325 642 387.733337 642 390.133331 Z M 579.466675 398.533325 C 583.333313 401.600006 582.93335 402.133331 575.733337 403.06665 C 570.400024 403.733337 570 403.466675 570 400.666656 C 570 397.866669 571.200012 396.93335 575.466675 396.133331 C 576 396.133331 577.733337 397.200012 579.466675 398.533325 Z M 616.533325 407.200012 C 608.400024 415.333344 605.466675 417.200012 600.400024 418.266663 C 594.133362 419.600006 562.533325 419.600006 561.200012 418.266663 C 560.799988 418 562.533325 416.399994 564.93335 414.93335 C 567.333313 413.333344 570.799988 410.666656 572.533325 408.799988 C 575.200012 406 577.06665 405.333344 582.666687 405.333344 C 589.333313 405.333344 615.06665 400.266663 622 397.600006 C 623.866638 396.93335 625.599976 396.533325 626 396.93335 C 626.266663 397.200012 622.133362 401.866669 616.533325 407.200012 Z"/>
        <path id="path48" fill="#000000" stroke="none" d="M 602 332 C 600.533325 333.466675 599.333313 335.866669 599.333313 337.200012 C 599.333313 340.133331 605.599976 345.733337 607.599976 344.533325 C 608.400024 344 607.333313 342.399994 605.333313 340.799988 C 602.133362 338.266663 601.866638 337.466675 603.200012 334.93335 C 604.93335 331.733337 611.06665 330.93335 613.733337 333.600006 C 614.93335 334.799988 615.333313 334.666687 615.333313 333.06665 C 615.333313 328.666687 606 328 602 332 Z"/>
        <path id="path49" fill="#000000" stroke="none" d="M 624.93335 333.733337 C 622.666687 336.399994 622.533325 343.466675 624.533325 345.866669 C 625.466675 347.06665 628 348 630.133362 348 C 636.666687 348 640.93335 340.93335 637.866638 335.200012 C 636.533325 332.666687 635.06665 332 631.333313 332 C 628.533325 332 625.733337 332.799988 624.93335 333.733337 Z M 635.06665 336.799988 C 636.93335 340.133331 635.333313 344 631.733337 344.799988 C 627.200012 346 624 342.666687 625.200012 338.133331 C 625.866638 335.333313 626.93335 334.666687 630 334.666687 C 632.133362 334.666687 634.400024 335.600006 635.06665 336.799988 Z"/>
        <path id="path50" fill="#000000" stroke="none" d="M 599.333313 357.200012 C 596 363.466675 599.733337 370.666656 606.133362 370.666656 C 612.533325 370.666656 615.333313 368.533325 615.333313 363.466675 C 615.333313 357.866669 611.866638 354.666687 605.599976 354.666687 C 602.133362 354.666687 600.400024 355.466675 599.333313 357.200012 Z M 612 361.333344 C 613.06665 366.133331 612 368 608.533325 368 C 604.133362 368 600.666687 365.466675 600.666687 362.133331 C 600.666687 358.133331 601.599976 357.333344 606.799988 357.333344 C 610.533325 357.333344 611.200012 357.866669 612 361.333344 Z"/>
        <path id="path51" fill="#000000" stroke="none" d="M 628.400024 362.266663 C 624.799988 363.200012 625.599976 365.06665 629.733337 365.600006 C 632.533325 365.866669 633.466675 366.799988 633.733337 369.733337 C 634.400024 374.799988 631.866638 377.333344 626.533325 377.333344 C 624 377.333344 622 377.866669 622 378.666656 C 622 380.533325 630.266663 380.266663 632.799988 378.266663 C 639.733337 373.06665 636.133362 360.533325 628.400024 362.266663 Z"/>
        <path id="path52" fill="#000000" stroke="none" d="M 569.06665 346.93335 C 564.400024 349.200012 565.333313 350.266663 571.733337 350.133331 C 576.666687 350 577.333313 350.399994 577.733337 353.06665 C 578 354.799988 577.466675 357.06665 576.533325 358.133331 C 574.400024 360.666656 576 362.133331 578.666687 360 C 579.733337 359.06665 580.666687 356.266663 580.666687 353.866669 C 580.666687 350.266663 579.866638 349.06665 576.666687 347.333313 L 572.400024 345.466675 L 569.06665 346.93335 Z"/>
        <path id="path53" fill="#000000" stroke="none" d="M 540.799988 351.866669 C 537.200012 355.466675 537.333313 358.799988 541.06665 362.399994 C 545.200012 366.266663 549.333313 366.133331 553.466675 362 C 556.533325 358.93335 556.533325 358.399994 554.93335 354.399994 C 553.466675 350.666687 552.400024 350 548.266663 349.600006 C 544.799988 349.333313 542.666687 350 540.799988 351.866669 Z M 552.400024 356.799988 C 552.799988 360.399994 552.266663 361.06665 549.466675 361.600006 C 545.599976 362.399994 540.666687 359.466675 540.666687 356.666656 C 540.666687 354.133331 544.666687 352 548.666687 352.399994 C 551.333313 352.666687 552.133362 353.466675 552.400024 356.799988 Z"/>
        <path id="path54" fill="#000000" stroke="none" d="M 564.666687 370.799988 C 558.666687 373.200012 557.599976 378.799988 562.133362 384.533325 C 564.133362 387.06665 566.133362 388 569.200012 388 C 575.466675 388 578.533325 384.133331 577.599976 377.733337 C 576.266663 370.133331 572.133362 367.866669 564.666687 370.799988 Z M 574.93335 376.93335 C 576.400024 380.533325 576.266663 381.466675 574.533325 383.200012 C 573.466675 384.399994 571.200012 385.333344 569.733337 385.333344 C 562.799988 385.333344 559.06665 375.733337 565.06665 373.333344 C 570 371.333344 573.06665 372.399994 574.93335 376.93335 Z"/>
        <path id="path55" fill="#000000" stroke="none" d="M 536 379.600006 C 533.466675 382.133331 534 390.399994 536.93335 392.266663 C 541.866638 395.333344 549.06665 391.866669 549.06665 386.133331 C 549.06665 378.799988 540.799988 374.666656 536 379.600006 Z M 546.93335 387.06665 C 546.266663 389.200012 540.266663 390.533325 538.400024 388.93335 C 535.733337 386.93335 536.266663 380.266663 539.06665 379.600006 C 541.599976 378.93335 547.733337 384.799988 546.93335 387.06665 Z"/>
        <path id="path56" fill="#000000" stroke="none" d="M 351.333344 316.266663 L 292 337.333313 C 256.933319 350.133331 255.333344 351.06665 255.333344 359.200012 C 255.333344 367.600006 298 392.533325 315.466675 394.266663 C 323.866669 395.06665 346.533325 386.399994 395.066681 363.866669 C 399.600006 361.733337 403.866669 360 404.533325 360 C 407.600006 360 412.666656 354.266663 412.666656 350.533325 C 412.666656 348.399994 412.133331 346.666687 411.466675 346.666687 C 410.933319 346.666687 408.133331 344.533325 405.466675 342 C 396.933319 334 362.266663 314.533325 356.799988 314.799988 C 355.600006 314.799988 353.200012 315.466675 351.333344 316.266663 Z M 365.600006 320.93335 C 378.799988 326.93335 389.066681 333.733337 386.933319 334.799988 C 386 335.466675 383.333344 335.733337 381.200012 335.466675 C 378.399994 335.200012 377.200012 334.266663 376.933319 332 C 376.533325 329.733337 375.733337 329.200012 373.200012 329.733337 C 371.466675 330 369.600006 329.733337 369.200012 329.200012 C 367.866669 326.93335 364.533325 328 363.333344 331.333313 C 362.666656 333.200012 361.200012 334.666687 360.133331 334.666687 C 358 334.666687 356.666656 337.466675 356.666656 342.133331 C 356.666656 344.266663 356.133331 345.200012 355.200012 344.533325 C 354.399994 344.133331 354.133331 342.266663 354.533325 340.533325 C 355.200012 338.133331 354.799988 337.333313 353.066681 337.200012 L 313.466675 337.200012 C 312.799988 337.333313 312.666656 340 313.066681 343.200012 C 313.866669 348.399994 313.600006 349.200012 311.333344 349.600006 C 309.066681 350 309.066681 350.266663 312.266663 353.866669 L 315.600006 357.866669 L 338 354.133331 C 339.866669 353.600006 340.666656 353.600006 339.866669 354 C 338.933319 354.399994 338.533325 356 338.933319 357.333344 C 339.333344 358.93335 338.933319 360 338 360 C 337.066681 360 336.666656 359.06665 337.200012 358 C 338.133331 355.466675 337.733337 355.466675 328.133331 358.666656 C 317.466675 362.266663 314.666656 362 310 357.333344 C 305.066681 352.266663 304.933319 350 309.466675 347.600006 C 311.733337 346.399994 312.533325 345.333313 311.600006 344.799988 C 308.799988 343.200012 304.666656 346.533325 304.666656 350.399994 C 304.666656 352.93335 303.600006 354.399994 301.066681 355.600006 C 296.533325 357.733337 295.866669 357.06665 298.666656 352.799988 C 299.866669 351.06665 300.666656 348.133331 300.399994 346.399994 C 300 343.733337 299.200012 343.333313 294.133331 343.06665 C 284 342.666687 276.933319 348.133331 275.733337 357.200012 C 274.933319 362.533325 275.066681 362.666656 279.066681 362.666656 C 281.333344 362.666656 283.733337 363.466675 284.266663 364.533325 C 286 367.600006 292 368.533325 294.533325 366 C 296.533325 364 296.799988 364 298 366.93335 C 301.333344 375.06665 307.066681 377.466675 315.200012 374.266663 C 320.799988 372 323.333344 373.06665 323.333344 377.600006 C 323.333344 378.93335 324 380 324.666656 380 C 325.466675 380 326 379.333344 326 378.666656 C 326 377.866669 327.466675 377.333344 329.200012 377.333344 C 330.933319 377.333344 332.666656 376.533325 333.066681 375.466675 C 333.466675 374.533325 335.600006 373.333344 337.866669 372.93335 C 342.666656 371.866669 352 364.133331 348.399994 364 C 347.066681 364 346 364.533325 346 365.200012 C 346 366.666656 337.200012 372 334.666656 372 C 333.733337 372 332.666656 372.799988 332.266663 373.600006 C 332 374.533325 331.333344 375.06665 330.933319 374.666656 C 330.533325 374.266663 331.466675 371.866669 333.066681 369.466675 C 334.533325 366.93335 336.133331 365.600006 336.399994 366.399994 C 337.466675 369.733337 339.333344 367.866669 338.533325 364.266663 C 337.866669 361.333344 338 360.93335 339.466675 362.266663 C 341.733337 364.533325 344.399994 364.533325 342.266663 362.399994 C 339.866669 360 340.399994 358.266663 343.333344 359.06665 C 346.266663 359.866669 346.799988 358.666656 344.533325 356.399994 C 342.266663 354.133331 344.666656 348 348.399994 346.533325 C 353.333344 344.666687 355.333344 346 355.333344 351.333313 C 355.333344 355.466675 354.933319 356 352 356 C 347.333344 356 347.733337 359.333344 352.799988 361.866669 C 356 363.466675 357.466675 363.600006 358.799988 362.533325 C 359.866669 361.733337 360.266663 360.399994 359.866669 359.733337 C 359.466675 359.06665 361.866669 355.733337 365.200012 352.399994 C 370.399994 347.333313 371.333344 345.600006 371.333344 341.200012 C 371.333344 337.466675 371.866669 336 373.333344 336 C 376 336 375.866669 337.200012 372.399994 346.266663 C 370.933319 350.533325 368.133331 355.06665 366.399994 356.399994 C 362.666656 359.333344 363.066681 360.266663 368.666656 360.666656 C 372.933319 361.06665 374.666656 359.600006 374.666656 355.333313 C 374.666656 353.733337 375.733337 352.533325 377.333344 352.266663 C 379.600006 351.733337 379.600006 352 378.133331 353.733337 C 377.200012 354.93335 376.666656 356.93335 377.066681 358.266663 C 377.466675 360.266663 377.866669 360.133331 378.933319 357.333344 C 379.733337 355.466675 381.333344 353.06665 382.666656 352 C 385.600006 349.600006 390 340.799988 390 337.333313 C 390 334.666687 390.133331 334.533325 393.733337 336.666687 L 408 347.866669 L 394 354 C 386 358 364.933319 366.799988 336.399994 378 C 315.600006 386.266663 318.666656 386.399994 298.399994 376.266663 C 283.066681 368.533325 278.933319 366.266663 267.333344 358.93335 L 258.799988 353.466675 L 284.666656 342.533325 L 343.200012 321.200012 C 347.333344 319.466675 348.399994 320.666687 345.600006 323.733337 C 344 325.466675 342.133331 326 339.333344 325.600006 C 336.266663 325.200012 335.333344 325.600006 335.333344 327.200012 C 335.333344 328.399994 334.266663 329.333313 332.666656 329.333313 C 331.066681 329.333313 330 330.266663 330 331.466675 C 330 333.06665 330.799988 333.466675 332.933319 332.93335 C 334.799988 332.399994 336.399994 332.93335 337.600006 334.399994 C 339.200012 336.533325 339.466675 336.533325 341.333344 334.133331 C 342.399994 332.799988 342.933319 331.06665 342.399994 330.266663 C 342 329.466675 342.133331 329.333313 342.933319 329.733337 C 343.600006 330.133331 345.200012 328.533325 346.399994 326 C 348.266663 322.133331 349.333344 321.333313 352.666656 321.333313 C 356.399994 321.333313 358.533325 323.866669 355.066681 324.133331 C 353.733337 324.133331 353.733337 324.399994 355.066681 324.93335 C 360 326.93335 354.266663 332.399994 348.133331 331.200012 C 346.266663 330.93335 344.666656 331.200012 344.666656 332 C 344.666656 333.466675 352.533325 333.866669 355.866669 332.533325 C 358.266663 331.600006 358.933319 320 356.666656 320 C 356 320 355.333344 319.333313 355.333344 318.666687 C 355.333344 316.666687 357.333344 317.06665 365.600006 320.93335 Z M 370.133331 332 C 372.133331 332 371.466675 336 369.333344 336.799988 C 366 338.133331 363.466675 336.399994 364.266663 333.333313 C 364.799988 331.600006 365.733337 330.799988 366.933319 331.200012 L 370.133331 332 Z M 375.333344 333.466675 C 375.333344 334.133331 374.799988 334.666687 374 334.666687 C 373.333344 334.666687 372.666656 333.733337 372.666656 332.533325 C 372.666656 331.466675 373.333344 330.93335 374 331.333313 C 374.799988 331.733337 375.333344 332.666687 375.333344 333.466675 Z M 366.799988 339.466675 C 370.133331 338.533325 370.666656 339.600006 369.200012 344.93335 C 368.399994 348 363.333344 349.333313 363.333344 346.666687 C 363.333344 345.866669 364 345.333313 364.799988 345.333313 C 365.466675 345.333313 365.733337 344.666687 365.333344 344 C 364.933319 343.200012 363.066681 342.666687 361.200012 342.666687 C 357.733337 342.666687 356.933319 340.266663 359.600006 337.600006 C 360.799988 336.399994 361.466675 336.399994 362.399994 338.133331 C 363.200012 339.600006 364.666656 340 366.799988 339.466675 Z M 318 341.200012 C 318 346.133331 322.666656 348.399994 330.666656 347.600006 C 334.666656 347.200012 338 347.333313 338 348 C 338 348.533325 339.333344 348.799988 341.066681 348.399994 C 343.866669 347.866669 344 347.866669 341.466675 349.866669 C 338.266663 352.533325 336.666656 352.533325 336.666656 350.133331 C 336.666656 348.799988 335.466675 348.533325 331.066681 349.466675 C 320.399994 351.466675 318.399994 351.06665 316.799988 346.533325 C 314.933319 341.200012 314.933319 336.93335 316.666656 338 C 317.466675 338.399994 318 339.866669 318 341.200012 Z M 380.266663 341.333313 C 379.466675 343.466675 378.133331 345.333313 377.333344 345.333313 C 376.399994 345.333313 376 343.733337 376.399994 341.333313 C 376.799988 338.533325 377.733337 337.333313 379.333344 337.333313 C 381.466675 337.333313 381.600006 337.866669 380.266663 341.333313 Z M 388.666656 338.266663 C 388.666656 340.666687 381.600006 350.666687 380 350.666687 C 377.466675 350.666687 377.466675 348.133331 380 347.200012 C 381.066681 346.666687 381.733337 345.866669 381.333344 345.333313 C 380.933319 344.799988 381.600006 343.600006 382.666656 342.666687 C 383.600006 341.866669 384.133331 340.266663 383.733337 339.200012 C 383.333344 338 384 337.333313 385.866669 337.333313 C 387.466675 337.333313 388.666656 337.733337 388.666656 338.266663 Z M 326.533325 339.866669 C 326.933319 340.533325 326.399994 341.466675 325.200012 341.866669 C 321.600006 343.200012 319.333344 342.799988 319.333344 340.666687 C 319.333344 338.533325 325.333344 337.866669 326.533325 339.866669 Z M 352.666656 340.133331 C 352.666656 341.600006 346.933319 344 343.600006 344 C 341.733337 344 341.600006 343.733337 343.333344 342.666687 C 344.399994 342 344.933319 341.200012 344.533325 340.666687 C 344.133331 340.266663 342.399994 341.200012 340.666656 342.666687 C 338.933319 344.133331 336.666656 345.333313 335.466675 345.333313 C 333.866669 345.200012 334.266663 344.399994 336.933319 342.133331 C 339.466675 339.866669 342.133331 338.93335 346.533325 338.93335 C 349.866669 338.799988 352.666656 339.333313 352.666656 340.133331 Z M 334 341.06665 C 334 343.333313 330.666656 345.333313 326.799988 345.333313 L 322.666656 345.333313 L 326.666656 342.666687 C 330.799988 339.866669 334 339.200012 334 341.06665 Z M 295.600006 353.600006 C 293.200012 358.666656 291.200012 361.333344 289.733337 361.333344 C 288.266663 361.333344 287.333344 360.266663 287.333344 358.799988 C 287.333344 355.600006 296.666656 343.466675 298 344.93335 C 298.666656 345.466675 297.600006 349.466675 295.600006 353.600006 Z M 361.066681 344.93335 C 361.600006 345.333313 361.466675 346.399994 360.799988 347.200012 C 359.466675 348.799988 359.333344 349.333313 359.333344 352.666687 C 359.333344 353.733337 358.666656 354.666687 357.866669 354.666687 C 357.066681 354.666687 356.799988 353.466675 357.466675 351.600006 C 358 350 358.399994 347.600006 358.266663 346.266663 C 358.133331 344 359.466675 343.333313 361.066681 344.93335 Z M 291.333344 346.666687 C 291.333344 347.333313 290.799988 348 290.133331 348 C 289.466675 348 287.600006 350.133331 286 352.666687 C 282.933319 357.733337 279.733337 358.666656 278.399994 355.06665 C 277.866669 353.600006 278.933319 351.733337 282 349.06665 C 286.533325 345.333313 291.333344 344.133331 291.333344 346.666687 Z M 375.733337 350 C 375.066681 351.733337 372.666656 352.93335 372.666656 351.466675 C 372.666656 349.466675 374.533325 346.799988 375.466675 347.333313 C 376 347.733337 376.266663 348.93335 375.733337 350 Z M 364.666656 350.533325 C 364.666656 351.200012 363.733337 352 362.666656 352.533325 C 360.666656 353.200012 360 351.866669 361.600006 350.266663 C 362.799988 348.93335 364.666656 349.06665 364.666656 350.533325 Z M 410 351.866669 C 410 353.733337 406.133331 356 394.399994 361.333344 L 369.333344 372.799988 C 345.066681 384.133331 320.799988 392.666656 318.799988 390.666656 C 316.933319 388.799988 318.799988 387.333344 326 384.799988 C 345.200012 378.266663 376.799988 365.06665 398.666656 354.533325 L 409.733337 349.333313 L 410 351.866669 Z M 316.666656 351.200012 C 316.666656 351.600006 316.133331 352.266663 315.333344 352.666687 C 314.666656 353.06665 314 352.799988 314 352.133331 C 314 351.333313 314.666656 350.666687 315.333344 350.666687 C 316.133331 350.666687 316.666656 350.93335 316.666656 351.200012 Z M 331.333344 353.333313 C 329.200012 354.799988 326 355.06665 326 354 C 326 352.93335 331.866669 350.799988 332.666656 351.600006 C 332.933319 351.866669 332.399994 352.666687 331.333344 353.333313 Z M 320.933319 355.06665 C 317.733337 356.533325 315.866669 355.733337 317.200012 353.600006 C 317.600006 352.799988 319.333344 352.533325 320.933319 353.06665 L 323.866669 353.733337 L 320.933319 355.06665 Z M 271.333344 364.666656 C 272.399994 365.600006 282.399994 370.93335 293.333344 376.533325 C 314 386.93335 316.666656 388.533325 316.666656 390.666656 C 316.666656 392.799988 313.866669 392.266663 303.333344 388.133331 C 285.200012 381.06665 258 363.333344 258 358.533325 C 258 356.133331 258.399994 356.133331 263.733337 359.466675 L 271.333344 364.666656 Z M 304.666656 357.333344 C 304.666656 358 303.733337 358.666656 302.666656 358.666656 C 301.600006 358.666656 300.666656 358 300.666656 357.333344 C 300.666656 356.533325 301.600006 356 302.666656 356 C 303.733337 356 304.666656 356.533325 304.666656 357.333344 Z M 307.333344 359.333344 C 307.333344 360.399994 306.399994 361.333344 305.200012 361.333344 C 303.333344 361.333344 303.333344 360.93335 304.666656 359.333344 L 306.799988 357.333344 C 307.066681 357.333344 307.333344 358.266663 307.333344 359.333344 Z M 283.866669 360.266663 C 282.933319 361.733337 276.666656 361.600006 276.666656 360.133331 C 276.666656 359.466675 278.399994 358.93335 280.666656 358.93335 C 282.799988 359.06665 284.266663 359.600006 283.866669 360.266663 Z M 333.466675 362.533325 C 330.533325 365.866669 316.399994 372.133331 310 372.93335 C 305.333344 373.600006 304.799988 373.333344 300.666656 367.333344 C 298.399994 364 296.666656 360.799988 297.066681 360.533325 C 298.399994 359.06665 305.733337 364 306.399994 366.799988 C 307.066681 369.333344 307.733337 369.600006 312.266663 368.799988 C 315.066681 368.266663 321.200012 365.866669 326 363.600006 C 330.799988 361.200012 334.933319 359.333344 335.200012 359.600006 C 335.466675 359.866669 334.799988 361.06665 333.466675 362.533325 Z M 312.133331 362.799988 C 313.466675 365.06665 310.399994 367.600006 308.533325 365.733337 C 306.933319 364.133331 308 361.333344 310 361.333344 C 310.666656 361.333344 311.600006 362 312.133331 362.799988 Z M 294 364 C 294 364.666656 292 365.200012 289.733337 365.200012 L 285.333344 365.06665 L 293.733337 362.799988 L 294 364 Z M 320.666656 363.866669 C 320.666656 365.466675 315.466675 366.666656 314.666656 365.333344 C 314.266663 364.666656 315.066681 363.866669 316.266663 363.600006 C 320.133331 362.533325 320.666656 362.666656 320.666656 363.866669 Z M 330.133331 371.200012 C 328.666656 374.93335 325.333344 375.866669 324.133331 372.666656 C 323.733337 371.466675 324.799988 370 327.066681 368.799988 C 331.466675 366.533325 331.733337 366.666656 330.133331 371.200012 Z"/>
        <path id="path57" fill="#000000" stroke="none" d="M 348.666656 327.466675 C 348.666656 328.533325 349.333344 329.06665 350 328.666687 C 350.799988 328.266663 351.333344 327.333313 351.333344 326.533325 C 351.333344 325.866669 350.799988 325.333313 350 325.333313 C 349.333344 325.333313 348.666656 326.266663 348.666656 327.466675 Z"/>
        <path id="path58" fill="#000000" stroke="none" d="M 349.333344 349.333313 C 349.733337 350 350.399994 350.666687 350.799988 350.666687 C 351.066681 350.666687 351.333344 350 351.333344 349.333313 C 351.333344 348.533325 350.666656 348 349.866669 348 C 349.200012 348 348.933319 348.533325 349.333344 349.333313 Z"/>
        <path id="path59" fill="#000000" stroke="none" d="M 346.266663 352.266663 C 346.933319 354.266663 350 355.333313 350 353.600006 C 350 352.93335 349.066681 351.866669 347.866669 351.466675 C 346.533325 350.93335 346 351.333313 346.266663 352.266663 Z"/>
        <path id="path60" fill="#000000" stroke="none" d="M 0.666668 328.133331 C 0.666668 330 1.333332 330.666687 2.933334 330.399994 C 6.400002 329.733337 6.800003 325.333313 3.466667 325.333313 C 1.466667 325.333313 0.666668 326.133331 0.666668 328.133331 Z"/>
        <path id="path61" fill="#000000" stroke="none" d="M 172.53334 346.93335 C 167.333328 348.799988 164.53334 350.533325 163.46666 352.799988 C 161.600006 356.93335 161.600006 367.200012 163.46666 397.06665 C 165.199997 424 166 426.266663 176 430.133331 C 180.266663 431.733337 184.266663 432.133331 189.866669 431.600006 C 204.533325 430.266663 208.666656 426.399994 212.533325 410 C 216.133331 394.799988 219.733337 364.533325 218.666656 357.866669 C 217.733337 351.466675 215.733337 349.333313 207.600006 346.266663 C 199.600006 343.06665 182.266663 343.466675 172.53334 346.93335 Z M 205.600006 348.666687 C 209.200012 349.733337 213.333344 351.866669 214.799988 353.466675 C 217.333344 356.266663 217.333344 356.266663 212.799988 360 C 206.533325 365.200012 193.333328 367.600006 181.333328 365.600006 C 172 364.133331 164.666672 359.866669 164.666672 356.133331 C 164.666672 352.93335 166.666672 351.600006 174 349.466675 L 181.333328 347.333313 C 185.199997 346.133331 199.733337 346.93335 205.600006 348.666687 Z M 216.266663 369.600006 C 215.066681 385.06665 209.733337 415.333344 208.133331 416.666656 C 207.200012 417.333344 206.133331 419.466675 205.600006 421.333344 C 204.533325 425.600006 196.133331 429.333344 187.600006 429.333344 C 179.733337 429.333344 170.399994 425.200012 168.800003 421.06665 C 166.933334 416.133331 164.666672 391.733337 164.666672 376.533325 L 164.666672 362.533325 L 168.53334 364.666656 C 175.333328 368.133331 188.800003 369.333344 199.600006 367.333344 C 210.533325 365.466675 214 364.266663 214 362.533325 C 214 361.866669 214.666656 361.333344 215.466675 361.333344 C 216.533325 361.333344 216.799988 364 216.266663 369.600006 Z"/>
        <path id="path62" fill="#000000" stroke="none" d="M 176.399994 415.600006 C 173.600006 416.666656 171.333328 418.399994 171.333328 419.466675 C 171.333328 420.93335 172.53334 420.799988 176.933334 418.533325 C 181.733337 416.133331 184.133331 415.733337 192.933334 416.399994 C 198.666656 416.799988 203.333344 416.666656 203.333344 416 C 203.333344 412.799988 183.733337 412.533325 176.399994 415.600006 Z"/>
        <path id="path63" fill="#000000" stroke="none" d="M 803.333313 356.666656 C 803.333313 358 804.266663 358.666656 805.733337 358.399994 C 808.533325 357.866669 808.266663 355.466675 805.466675 354.93335 C 804.133362 354.666687 803.333313 355.333313 803.333313 356.666656 Z"/>
    </g>
    <text id="text1" xml:space="preserve" x="295" y="132" font-family="PingFang SC" font-size="24" font-weight="600" fill="#000000"></text>
    <text id="-" xml:space="preserve" x="384" y="193" font-family="PingFang SC" font-size="24" font-weight="600" fill="#000000"></text>
    <text id="text2" xml:space="preserve" x="134" y="464" font-family="PingFang SC" font-size="24" font-weight="600" fill="#000000"></text>
    <text id="text3" xml:space="preserve" x="519" y="460" font-family="PingFang SC" font-size="24" font-weight="600" fill="#000000"></text>
</svg>
