<?xml version="1.0" encoding="UTF-8"?>
<!-- Generated by Pixelmator Pro 3.6.12 -->
<svg width="410" height="280" viewBox="0 0 410 280" xmlns="http://www.w3.org/2000/svg">
    <g id="g1">
        <path id="path2" fill="#000000" stroke="none" d="M 11.200001 30.266663 C 10.666666 90.933334 11.200001 244.266663 11.866667 244.933334 C 12.266666 245.466675 12.666666 193.066666 12.666666 128.800003 L 12.666666 11.733337 L 398 13.333344 L 398 268 L 374 268 C 360.799988 268 350 267.600006 350 267.200012 L 354.133331 259.200012 C 358.533325 251.466675 358.666656 245.199997 354.399994 242.800003 C 352.666656 241.866669 352.533325 240.933334 353.866669 236.933334 C 355.733337 231.466675 354.666656 223.600006 351.866669 221.199997 C 348.666656 218.533325 349.600006 214.666656 353.466675 214.666656 L 356.933319 214.666656 L 356 203.600006 C 355.466675 197.600006 354.799988 192.266663 354.399994 191.600006 C 354.133331 191.066666 352.533325 190.666656 350.799988 190.666656 C 348.533325 190.666656 347.066681 189.333344 345.333344 185.333344 C 342.399994 178.800003 338.666656 176.266663 329.466675 174.533325 C 321.733337 172.933334 316.799988 174.533325 310.266663 180.533325 C 304.266663 186 301.466675 198 304.666656 204.133331 C 305.733337 206 305.600006 207.466675 304 209.733337 C 302.799988 211.600006 302.266663 214 302.799988 215.333344 C 303.600006 217.333344 303.200012 217.600006 300.933319 217.066666 C 299.066681 216.533325 296.799988 217.333344 294.533325 219.333344 C 291.466675 222 291.066681 223.066666 291.733337 227.866669 C 292.266663 232.666672 292.133331 233.333328 290.266663 232.800003 C 288.933319 232.399994 283.866669 232 278.799988 231.733337 C 269.733337 231.333328 269.466675 231.466675 267.200012 235.333328 L 257.466675 254.800003 C 252.666656 265.066681 251.600006 269.333344 254 269.333344 C 254.799988 269.333344 255.200012 268.933319 255.066681 268.266663 C 254.666656 266.533325 268.533325 237.199997 270.399994 235.866669 C 271.733337 234.933334 285.866669 235.466675 304.666656 237.199997 C 336.266663 240.133331 349.866669 242.800003 350 246 C 350.133331 246.666672 347.866669 251.866669 345.066681 257.466675 L 340 267.600006 L 326.799988 267.866669 C 319.466675 267.866669 313.333344 268.266663 312.933319 268.666656 C 312.533325 269.066681 331.866669 269.333344 355.733337 269.333344 L 399.333344 269.333344 L 399.466675 192.266663 C 399.733337 90.53334 399.333344 12.799988 398.399994 12 C 398.133331 11.600006 310.799988 11.200012 204.53334 10.933319 L 11.333334 10.533325 L 11.200001 30.266663 Z M 334.133331 178.933334 C 338.266663 180.133331 339.866669 181.600006 342 186.133331 C 344.399994 190.933334 344.533325 192.666656 343.466675 196.933334 C 341.200012 205.333344 335.600006 210.800003 328.666656 211.600006 C 319.733337 212.666656 311.733337 210 309.333344 205.333344 C 304.799988 196.533325 307.733337 185.600006 315.733337 180.666656 C 321.866669 177.066666 326.399994 176.533325 334.133331 178.933334 Z M 351.200012 194.533325 C 354 196.266663 352 200 348.799988 199.066666 C 346 198.399994 345.200012 196 346.933319 194.266663 C 348 193.066666 348.933319 193.066666 351.200012 194.533325 Z M 350.666656 202.666656 C 352.533325 202.666656 354.933319 210.266663 353.466675 211.600006 C 352 213.066666 343.200012 207.466675 344 205.600006 L 344.666656 202.399994 C 344.666656 201.600006 345.600006 201.466675 346.799988 201.866669 L 350.666656 202.666656 Z M 308.933319 215.333344 C 307.333344 218.266663 305.333344 215.600006 306.533325 212.399994 C 307.200012 210.800003 307.866669 210.666656 308.799988 211.600006 C 309.733337 212.533325 309.866669 213.866669 308.933319 215.333344 Z M 347.333344 215.466675 C 347.333344 219.466675 344.933319 219.600006 343.466675 215.600006 C 342.133331 212 342.799988 210.533325 345.333344 211.600006 C 346.399994 212 347.333344 213.733337 347.333344 215.466675 Z M 341.200012 219.199997 C 343.733337 225.466675 343.333344 226.266663 338.933319 223.333344 C 337.200012 222.266663 330.666656 220.266663 324.533325 219.199997 L 312.799988 216.666656 C 311.066681 214.933334 315.600006 214 326.399994 214 L 339.200012 213.866669 L 341.200012 219.199997 Z M 329.333344 223.333344 C 333.333344 224.533325 336.666656 226.133331 336.666656 226.800003 C 336.666656 228.399994 336.266663 228.266663 326.666656 226.133331 C 322.266663 225.066666 314.933319 223.733337 310.266663 223.199997 C 305.733337 222.800003 301.600006 221.733337 301.066681 220.933334 C 299.866669 218.933334 320.133331 220.666656 329.333344 223.333344 Z M 350 223.866669 C 351.733337 227.199997 351.733337 235.466675 350 238.800003 C 347.866669 242.666672 343.733337 239.866669 343.066681 234 C 342.799988 231.333328 343.066681 228.933334 343.600006 228.533325 C 344.133331 228.133331 344.666656 229.066666 344.666656 230.533325 C 344.666656 232.266663 345.600006 233.333328 346.799988 233.333328 C 348.266663 233.333328 348.666656 232.666672 348 230.933334 C 345.066681 223.199997 346.533325 217.466675 350 223.866669 Z M 313.333344 226.666656 C 330.133331 229.066666 334 230.533325 334 234.399994 C 334 237.466675 333.733337 237.600006 328.399994 236.933334 L 309.066681 234.533325 C 295.733337 232.933334 295.600006 232.800003 295.066681 229.066666 C 294.266663 224.399994 294.799988 223.866669 299.200012 224.533325 L 313.333344 226.666656 Z M 340.133331 233.733337 C 340.399994 235.600006 340.133331 237.600006 339.333344 238 C 338.533325 238.533325 338 236.800003 338 233.866669 C 338 228.399994 339.066681 228.399994 340.133331 233.733337 Z M 351.866669 256.266663 C 350.133331 259.733337 348.666656 263.733337 348.666656 265.333344 C 348.666656 267.200012 347.733337 268 345.866669 268 C 344.399994 268 343.333344 267.466675 343.600006 266.933319 C 347.200012 258.133331 353.466675 247.199997 354.133331 248.266663 C 354.666656 249.199997 353.733337 252.666672 351.866669 256.266663 Z"/>
        <path id="path3" fill="#000000" stroke="none" d="M 181.333328 14.799988 C 180.800003 16.266663 179.866669 43.46666 179.46666 66.933334 C 179.333328 71.600006 178.933334 72 175.733337 72 C 170.266663 72 168.399994 73.733337 168.933334 78.133331 C 169.199997 81.199997 170.133331 82.133331 174 82.933334 C 187.333328 86 200.133331 88.266663 214 90.133331 L 277.733337 100 C 297.866669 103.333328 317.333344 104.933334 316.266663 103.066666 C 315.733337 102.266663 310.799988 101.333328 305.066681 100.800003 L 287.333344 98.666672 L 201.600006 85.333328 C 183.733337 82.800003 174.133331 80.133331 182.133331 80 L 312.399994 99.199997 C 315.333344 99.600006 316.666656 99.333328 316.666656 98.133331 C 316.666656 97.066666 314.399994 96.399994 310.399994 96.133331 L 296.666656 94.666672 C 282.399994 92.133331 254.533325 87.733337 244.666672 86.53334 L 181.600006 77.066666 C 178.800003 76.933334 176.266663 76.266663 175.866669 75.733337 C 174.666672 73.866669 184.800003 73.066666 191.333328 74.666672 C 198.133331 76.266663 201.600006 75.600006 198 73.333328 C 196.933334 72.666672 193.199997 71.733337 189.733337 71.333328 L 183.333328 70.399994 L 183.46666 42.399994 C 183.600006 16.533325 183.066666 10.133331 181.333328 14.799988 Z M 178 79.199997 C 178 80.666672 175.46666 81.199997 174.666672 80 C 174.266663 79.333328 174.800003 78.666672 175.866669 78.666672 C 177.066666 78.666672 178 78.933334 178 79.199997 Z"/>
        <path id="path4" fill="#000000" stroke="none" d="M 216.666672 21.333344 C 216.666672 22 217.333328 22.666656 218 22.666656 C 218.800003 22.666656 219.333328 26 219.333328 30 C 219.333328 36.399994 218.933334 37.600006 216.399994 38.53334 C 212.933334 39.866669 214.133331 40.53334 222.399994 42 C 226.266663 42.666672 227.333328 42.399994 227.333328 40.666672 C 227.333328 39.600006 226.133331 38.666672 224.666672 38.666672 C 222.133331 38.666672 221.866669 38 222.266663 30.933319 C 222.666672 24.533325 223.066666 23.333344 225.066666 23.733337 C 226.399994 24 227.333328 23.333344 227.333328 22 C 227.333328 20.533325 225.866669 20 222 20 C 219.066666 20 216.666672 20.533325 216.666672 21.333344 Z"/>
        <path id="path6" fill="#000000" stroke="none" d="M 240.800003 32.133331 C 237.866669 35.333344 237.199997 39.46666 239.199997 42.53334 C 240.266663 44.133331 241.066666 44.266663 243.866669 42.933334 C 245.733337 42.133331 248.266663 41.733337 249.333328 42.266663 C 251.200012 42.933334 251.466675 42 251.066681 36.53334 C 250.666656 30.533325 250.399994 30 247.066666 29.600006 C 244.800003 29.333344 242.666672 30.266663 240.800003 32.133331 Z M 248.666672 34.666656 C 248.666672 36.53334 244.666672 40 242.53334 40 C 239.866669 40 240.266663 37.733337 243.333328 34.666656 C 246 32 248.666672 32.133331 248.666672 34.666656 Z"/>
        <path id="path7" fill="#000000" stroke="none" d="M 256.266663 35.333344 C 255.733337 36.53334 256.133331 37.333328 257.466675 37.333328 C 258.799988 37.333328 259.200012 38.266663 258.533325 40.666672 C 257.333344 45.199997 260.266663 44.933334 262.266663 40.266663 L 263.866669 36.666672 L 264.399994 40.266663 C 264.933319 44.666672 268.666656 45.333328 268.666656 41.199997 C 268.666656 37.199997 271.866669 38.800003 272.399994 43.199997 C 272.666656 45.333328 273.466675 46.53334 274.399994 46.266663 C 276.399994 45.600006 275.733337 38.53334 273.600006 36.399994 C 272.666656 35.600006 268.666656 34.533325 264.533325 34.133331 C 258.399994 33.466675 256.799988 33.600006 256.266663 35.333344 Z"/>
        <path id="path8" fill="#000000" stroke="none" d="M 341.333344 37.199997 C 334.933319 41.066666 332.399994 44.800003 331.733337 51.199997 C 330.666656 60.666672 332.266663 66.399994 336.666656 69.199997 C 340.533325 71.46666 340.533325 71.46666 337.866669 73.866669 C 335.733337 75.600006 335.200012 77.199997 335.866669 80.399994 C 336.666656 84.666672 332.799988 93.333328 330.266663 93.333328 C 329.600006 93.333328 328 90 326.666656 85.866669 C 324.933319 80.399994 324.799988 78 325.866669 76.933334 C 328.133331 74.666672 327.600006 68.266663 325.066681 66.800003 C 323.333344 65.866669 323.200012 65.066666 324.133331 63.733337 C 326.799988 60.399994 327.200012 57.46666 325.200012 55.46666 C 322.266663 52.53334 319.600006 54.266663 315.200012 61.866669 L 308.533325 72.933334 C 306.399994 76.266663 306.133331 77.733337 307.333344 79.866669 C 309.066681 83.333328 311.600006 83.46666 314.533325 80.133331 C 317.200012 77.199997 322 77.866669 322 81.199997 C 322 85.199997 328.533325 97.333328 330.666656 97.333328 C 331.733337 97.333328 332.666656 96.933334 332.666656 96.266663 C 332.799988 95.733337 334.133331 93.600006 335.866669 91.600006 L 338.933319 87.733337 L 339.066681 101.866669 C 339.200012 117.46666 341.066681 123.866669 346.533325 127.333328 C 349.600006 129.333328 350 130.53334 350 137.199997 C 350 148.266663 351.333344 154.666672 353.600006 154.666672 C 355.066681 154.666672 355.333344 153.733337 354.666656 150.53334 C 352.933319 142.933334 351.733337 131.866669 352.533325 131.46666 L 357.200012 131.199997 C 361.066681 131.333328 361.200012 131.600006 363.733337 143.600006 C 365.200012 150.399994 366.799988 156 367.466675 156 C 369.200012 156 368.933319 152.666672 366 139.333328 C 363.466675 127.866669 363.466675 127.199997 365.600006 122.666672 C 367.466675 118.933334 368 114.666672 368 101.733337 C 368 92.800003 368.133331 85.600006 368.266663 85.866669 L 372.266663 97.600006 C 375.466675 107.199997 375.733337 109.199997 374.133331 110.266663 C 372.399994 111.333328 371.600006 118 373.066681 119.600006 C 374.533325 120.933334 380.666656 120.399994 382.666656 118.666672 C 383.733337 117.733337 384.666656 115.866669 384.666656 114.53334 C 384.666656 112.53334 385.333344 112.133331 389.066681 112.933334 C 395.600006 114.133331 395.600006 114.133331 396.266663 112.399994 C 396.666656 111.46666 393.866669 110.53334 388.133331 110 C 379.600006 109.066666 379.466675 108.933334 377.466675 103.866669 C 373.866669 95.066666 372.266663 87.600006 372.533325 81.066666 C 372.666656 76 372.133331 74.53334 369.733337 72.800003 C 367.066681 70.933334 367.066681 70.53334 368.933319 68.399994 C 374.133331 62.399994 374.799988 49.46666 370.266663 43.066666 C 364.799988 35.333344 349.466675 32.133331 341.333344 37.199997 Z M 364.933319 41.733337 C 369.200012 44.800003 370.666656 50.666672 369.600006 59.066666 C 367.866669 72.266663 349.333344 76 337.866669 65.600006 C 334.799988 62.666672 334 60.800003 333.733337 56 C 333.600006 49.333328 334.933319 46 339.200012 42.133331 C 344.933319 36.933334 358.266663 36.800003 364.933319 41.733337 Z M 323.333344 58.666672 C 323.333344 60.666672 319.200012 66.666672 317.866669 66.666672 C 316 66.666672 316.399994 64.133331 319.066681 60.666672 C 321.466675 57.199997 323.333344 56.399994 323.333344 58.666672 Z M 323.066681 69.199997 C 325.866669 70.933334 324.399994 75.333328 320.933319 75.733337 C 317.733337 76.266663 315.866669 73.333328 317.200012 70 C 318 67.733337 320.399994 67.46666 323.066681 69.199997 Z M 314.533325 76.53334 C 313.600006 78.933334 310 79.46666 310 77.199997 C 310 76.399994 310.666656 74.53334 311.466675 73.066666 C 312.799988 70.666672 313.200012 70.53334 314.133331 72.399994 C 314.799988 73.46666 314.933319 75.333328 314.533325 76.53334 Z M 343.333344 76.53334 C 343.333344 77.46666 342.533325 79.066666 341.466675 79.866669 C 338.933319 82 337.200012 79.199997 339.333344 76.666672 C 341.466675 74.133331 343.333344 74.133331 343.333344 76.53334 Z M 362 81.733337 C 367.200012 95.46666 366.533325 117.600006 360.666656 125.333328 C 358.533325 128.266663 357.733337 128.399994 353.200012 127.199997 C 345.466675 125.333328 343.066681 120.933334 342.266663 106.933334 C 341.733337 95.333328 342.799988 86.933334 346.266663 78.266663 C 347.600006 74.800003 348.266663 74.53334 353.600006 74.933334 C 359.466675 75.333328 359.733337 75.46666 362 81.733337 Z M 369.333344 77.46666 C 370 79.199997 369.466675 81.066666 368.133331 82.399994 C 366.266663 84.266663 366 84.133331 364.666656 80.800003 C 362.799988 75.733337 362.933319 74.666672 365.866669 74.666672 C 367.333344 74.666672 368.933319 75.866669 369.333344 77.46666 Z M 382 112.53334 C 382 114.933334 380 117.333328 377.866669 117.333328 C 376.266663 117.333328 375.333344 116.399994 375.333344 114.666672 C 375.333344 112.666672 376.266663 112 378.666656 112 C 380.533325 112 382 112.266663 382 112.53334 Z"/>
        <path id="path10" fill="#000000" stroke="none" d="M 284 40 C 284.533325 40.800003 285.466675 41.066666 286.133331 40.666672 C 288 39.46666 287.600006 38.666672 285.200012 38.666672 C 284.133331 38.666672 283.600006 39.333328 284 40 Z"/>
        <path id="path11" fill="#000000" stroke="none" d="M 294 42.666672 C 294 43.333328 294.533325 44 295.200012 44 C 296 44 296.933319 43.333328 297.333344 42.666672 C 297.733337 41.866669 297.200012 41.333328 296.133331 41.333328 C 294.933319 41.333328 294 41.866669 294 42.666672 Z"/>
        <path id="path12" fill="#000000" stroke="none" d="M 306.799988 43.866669 C 306.266663 44.53334 306.533325 45.46666 307.200012 45.866669 C 307.866669 46.399994 308.799988 46.133331 309.200012 45.46666 C 309.733337 44.800003 309.466675 43.866669 308.799988 43.46666 C 308.133331 42.933334 307.200012 43.199997 306.799988 43.866669 Z"/>
        <path id="path13" fill="#000000" stroke="none" d="M 316 45.333328 C 315.600006 46 316.133331 46.666672 317.200012 46.666672 C 318.399994 46.666672 319.333344 46 319.333344 45.333328 C 319.333344 44.53334 318.799988 44 318.133331 44 C 317.333344 44 316.399994 44.53334 316 45.333328 Z"/>
        <path id="path14" fill="#000000" stroke="none" d="M 206.666672 60.800003 C 204.133331 63.199997 202.800003 65.866669 202.399994 69.866669 C 201.733337 75.333328 201.866669 75.733337 205.866669 77.066666 C 208.133331 77.866669 214.933334 78.933334 220.933334 79.46666 C 230.666672 80.133331 232.266663 80 234.266663 77.866669 C 236.399994 75.333328 237.333328 71.46666 236.933334 65.733337 C 236.53334 61.199997 227.866669 57.333328 218.266663 57.333328 C 211.600006 57.333328 209.733337 57.866669 206.666672 60.800003 Z M 230.53334 63.066666 C 233.199997 64.800003 234 66.53334 234 70 C 234 72.399994 233.46666 74.933334 232.666672 75.333328 C 231.866669 75.733337 231.333328 74.800003 231.333328 73.066666 C 231.333328 71.333328 230.800003 69.333328 230.266663 68.399994 C 228.800003 66 222.53334 64 216.666672 64 C 211.600006 64 209.199997 62.666672 211.066666 60.666672 C 212.666672 59.066666 226.933334 60.666672 230.53334 63.066666 Z M 210.399994 70.53334 C 209.333328 74.933334 209.46666 74.933334 206.800003 73.866669 C 204.800003 73.066666 203.866669 68 205.46666 66.399994 C 205.866669 66 207.333328 65.866669 208.666672 66.266663 C 210.800003 66.800003 211.066666 67.733337 210.399994 70.53334 Z M 216.666672 70.53334 C 216.666672 72.800003 216.133331 74.933334 215.333328 75.333328 C 214.53334 75.866669 214 74.266663 214 71.46666 C 214 68.800003 214.666672 66.666672 215.333328 66.666672 C 216.133331 66.666672 216.666672 68.399994 216.666672 70.53334 Z M 227.066666 69.600006 C 228 70.53334 228.666672 72.53334 228.666672 74.266663 C 228.666672 76.933334 228 77.333328 224 77.333328 C 219.600006 77.333328 219.333328 77.066666 219.333328 72.666672 C 219.333328 68.666672 219.733337 68 222.399994 68 C 224.133331 68 226.133331 68.666672 227.066666 69.600006 Z"/>
        <path id="path15" fill="#000000" stroke="none" d="M 235.866669 79.866669 C 236.53334 80.933334 242.933334 82.399994 251.333344 83.46666 L 290 88.666672 C 300.266663 90.266663 317.333344 91.733337 317.866669 91.199997 C 319.866669 89.333328 313.466675 87.733337 296.533325 86 L 252 80.133331 C 240.399994 78.399994 234.933334 78.266663 235.866669 79.866669 Z"/>
        <path id="path16" fill="#000000" stroke="none" d="M 380.666656 98.399994 C 380.666656 101.333328 395.466675 103.066666 396.399994 100.266663 C 396.666656 99.333328 395.600006 98.666672 393.733337 98.666672 L 385.733337 97.866669 C 382.533325 97.333328 380.666656 97.46666 380.666656 98.399994 Z"/>
        <path id="path17" fill="#000000" stroke="none" d="M 384.666656 106.666672 C 384.666656 107.333328 387.466675 108 390.799988 108 C 394.399994 108 396.533325 107.46666 396 106.666672 C 395.600006 105.866669 392.799988 105.333328 389.866669 105.333328 C 387.066681 105.333328 384.666656 105.866669 384.666656 106.666672 Z"/>
        <path id="path18" fill="#000000" stroke="none" d="M 43.866665 127.600006 C 38.133335 137.066666 32.933334 146.933334 32.133335 149.733337 C 30.933334 154.266663 31.066666 155.066666 34.266666 158.133331 C 36.933334 160.933334 39.333332 161.733337 44.666668 162 C 52.400002 162.53334 57.066666 165.600006 56.400002 169.866669 C 56.133335 172.133331 55.200001 172.533325 51.333332 172.266663 C 48.666668 172 44.933334 172.533325 42.799999 173.333344 C 39.066666 174.666656 39.066666 174.800003 39.599998 184.133331 C 40.133335 192.933334 40 193.466675 37.333332 192.800003 L 24.4 191.333344 C 9.333333 189.866669 11.200001 192.666656 26.666668 194.666656 C 33.599998 195.466675 41.333332 196.800003 43.733334 197.466675 C 58.533333 201.866669 68.533333 204.133331 75.73333 204.800003 L 100.400002 208.266663 L 82.666664 245.466675 L 62.666664 243.199997 C 60 242.666672 59.066666 242.800003 60 243.733337 C 62 245.600006 70.26667 248 75.866669 248.266663 C 78.533333 248.399994 81.199997 249.066666 81.599998 249.733337 C 82.133331 250.666672 79.866669 250.800003 75.199997 250.266663 L 63.333336 249.333328 C 59.599998 249.333328 58.400002 248.666672 57.066666 245.866669 C 55.733334 242.933334 55.866665 241.600006 58 237.600006 C 61.466667 231.333328 61.466667 220.800003 58.133331 214.666656 C 55.066666 208.800003 43.866665 203.733337 36.666668 204.933334 C 28.133335 206.399994 22.799999 210 18.933332 217.066666 C 13.200001 227.600006 14.133333 234.933334 22.4 243.600006 C 25.866667 247.333328 26.133335 248 24.133333 248.800003 C 22.933332 249.199997 20.133333 249.333328 17.866667 248.800003 C 14.933332 248.266663 14 248.533325 14.4 249.733337 C 14.666666 250.533325 17.200001 251.466675 20.133333 251.600006 L 49.866665 254.666672 C 51.200001 254.666672 51.333332 255.066666 50.266666 256.399994 C 49.200001 257.733337 46.799999 257.866669 41.066666 257.200012 C 22.133333 254.800003 14 254.266663 14 255.733337 C 14 256.399994 17.200001 257.333344 21.066668 257.733337 C 29.200001 258.399994 46.266666 261.200012 46.933334 261.866669 L 47.733334 265.200012 C 47.866665 266.666656 48.666668 268 49.466667 268 C 50.400002 268 50.933334 266.399994 50.799999 264.133331 C 50.666668 262 51.333332 259.200012 52.133335 258 C 53.599998 256 54 256.399994 55.200001 260.799988 C 56 263.466675 56.266666 266.266663 55.866665 266.933319 C 55.466667 267.466675 56 268 57.066666 268 C 59.333336 268 59.599998 264.799988 57.733334 259.06665 C 55.466667 251.466675 56.799999 250.933334 72.533333 252.933334 C 88.800003 255.066666 86.666664 256.399994 96.400002 237.333328 C 106 218.533325 108 212.399994 106 208.666656 C 104.26667 205.333344 101.066666 204 95.066666 204 C 90.533333 204 90.400002 202.666656 94.533333 197.733337 C 99.333336 192.133331 100.26667 185.333344 96.800003 181.333344 C 94.800003 178.933334 94.133331 178.533325 94 180.133331 C 94 181.199997 94.666664 182.800003 95.466667 183.600006 C 97.599998 185.733337 95.73333 192 91.333336 197.333344 L 87.466667 202 L 87.333336 190.933334 C 87.333336 182.266663 86.933334 179.733337 85.333336 179.199997 C 81.73333 177.733337 85.866669 174.666656 91.466667 174.666656 C 99.866669 174.666656 102.933334 172.800003 104 167.066666 C 104.400002 164.266663 106 160.133331 107.466667 157.866669 C 110.533333 152.800003 110.800003 145.600006 107.866669 144.399994 C 101.466667 142 95.066666 151.733337 100.400002 156 C 102.933334 158.133331 103.066666 158.933334 101.866669 163.46666 C 99.73333 170.933334 98.400002 172 91.333336 172 C 83.73333 172 82.533333 170.133331 86.800003 164.933334 C 89.73333 161.46666 92.666664 153.733337 92.666664 149.199997 L 90.666664 140.399994 C 87.866669 131.066666 81.333336 126.666672 70.26667 126.666672 C 60.400002 126.666672 54.533333 130.133331 50.266666 138.666672 C 47.333332 144.53334 47.066666 151.46666 49.466667 157.733337 C 50.133335 159.600006 49.466667 160 46.533333 160 C 44.400002 160 41.733334 159.333328 40.666668 158.666672 C 39.066666 157.600006 39.466667 157.333328 42.400002 157.333328 C 45.866665 157.333328 47.733334 154.800003 44.400002 154.53334 C 41.466667 154.399994 34.666668 153.199997 34.400002 152.800003 C 33.733334 152.266663 38.400002 142.53334 41.200001 138.266663 L 45.866665 130.666672 C 53.200001 117.333328 56 113.333328 57.866665 113.333328 L 123.866669 123.333328 C 131.066666 124.399994 137.46666 125.733337 138.133331 126.133331 C 138.800003 126.53334 138.266663 128 136.933334 129.333328 C 135.733337 130.800003 131.066666 139.733337 126.666672 149.333328 L 118.666664 166.666656 L 113.599998 166.666656 C 110.533333 166.666656 108.800003 167.199997 109.333336 168 C 109.73333 168.666656 111.866669 169.333344 114 169.333344 C 116.133331 169.333344 118.26667 170 118.800003 170.800003 C 119.466667 172 117.599998 172.133331 112.133331 171.733337 C 108 171.333344 104.666664 171.600006 104.666664 172.133331 C 104.666664 173.333344 107.866669 174.133331 116.26667 175.066666 L 121.73333 175.733337 L 128.933334 162.933334 C 142.133331 139.199997 145.866669 127.733337 141.46666 124.133331 C 140.53334 123.333328 133.733337 121.733337 126.53334 120.666672 L 97.333336 116.133331 C 71.466667 112 62.400002 110.666672 58.133331 110.666672 C 54.533333 110.666672 53.466667 112 43.866665 127.600006 Z M 81.599998 132.933334 C 85.73333 136.133331 90 144.399994 90 149.199997 C 90 150.666672 88.800003 154.53334 87.333336 157.866669 C 85.199997 162.933334 83.599998 164.533325 78.800003 166.666656 C 73.466667 168.933334 72.26667 168.933334 66 167.333344 C 53.466667 164 48.799999 156.133331 51.866665 143.199997 C 53.066666 138 59.866669 130.933334 64.533333 129.866669 L 69.333336 128.800003 C 72.133331 128.133331 77.599998 129.866669 81.599998 132.933334 Z M 139.866669 133.600006 C 139.066666 136.266663 131.199997 152.666672 125.600006 163.066666 C 124.53334 165.199997 123.333328 166.399994 123.066666 165.733337 C 122.266663 164.399994 138.266663 130.666672 139.733337 130.666672 C 140.399994 130.666672 140.399994 132 139.866669 133.600006 Z M 107.066666 150.933334 C 106.533333 154.800003 102 156 102 152.266663 C 102 149.333328 103.066666 148 105.599998 148 C 106.800003 148 107.333336 149.066666 107.066666 150.933334 Z M 70 172.133331 L 73.333336 174.933334 L 61.199997 173.333344 C 58.933334 173.333344 58.26667 172.800003 58.800003 171.333344 C 60 168.533325 66.133331 168.933334 70 172.133331 Z M 81.066666 173.333344 C 80.26667 176.266663 77.333336 176.933334 75.866669 174.399994 C 74.800003 172.800003 79.066666 169.066666 80.800003 170 C 81.333336 170.399994 81.466667 171.866669 81.066666 173.333344 Z M 61.333336 176.666656 C 74.666664 178 81.466667 179.866669 83.599998 183.199997 C 84.133331 184 84.666664 188.800003 84.666664 193.733337 C 84.666664 201.733337 84.400002 202.800003 82.400002 202.399994 C 80.400002 202 79.866669 200.266663 79.599998 193.600006 C 79.333336 188.533325 79.73333 185.333344 80.666664 185.333344 C 81.333336 185.333344 82 184.800003 82 184.133331 C 82 182.800003 77.199997 181.866669 56.666668 179.600006 C 43.599998 178.133331 41.733334 177.733337 44 176.266663 C 45.599998 175.333344 48.533333 174.933334 51.333332 175.466675 L 61.333336 176.666656 Z M 62.133331 183.199997 C 68.400002 184.133331 74.133331 185.333344 74.933334 185.733337 C 75.73333 186.266663 76.26667 190 76.26667 194.133331 L 76.26667 201.600006 L 70.133331 200.933334 C 64.800003 200.266663 44.799999 195.333344 43.866665 194.399994 L 41.733334 181.333344 L 62.133331 183.199997 Z M 46.133335 209.466675 C 54.533333 212 57.333332 216 57.333332 226 C 57.333332 234.133331 57.066666 234.800003 52 239.866669 C 46.933334 245.199997 46.533333 245.333328 37.599998 245.333328 C 28.666668 245.333328 28.133335 245.066666 23.866667 240.666672 C 21.466667 238 19.066668 234 18.666666 231.600006 C 17.333334 225.066666 21.333334 216.533325 27.733334 211.866669 C 33.466667 207.733337 38 207.066666 46.133335 209.466675 Z M 99.333336 224.266663 C 93.73333 237.466675 85.599998 251.600006 84.933334 249.600006 C 84.26667 247.333328 102.133331 210.800003 102.933334 212.933334 C 103.199997 213.733337 101.599998 218.800003 99.333336 224.266663 Z M 55.066666 249.066666 C 55.466667 251.600006 54.933334 252.133331 53.066666 251.733337 C 51.733334 251.466675 50.533333 249.866669 50.266666 248.266663 C 49.866665 245.733337 50.400002 245.199997 52.266666 245.600006 C 53.599998 245.866669 54.799999 247.466675 55.066666 249.066666 Z M 47.333332 249.333328 C 47.333332 250.133331 43.599998 250.666672 38.799999 250.666672 C 34 250.666672 29.733334 250 29.333332 249.333328 C 28.799999 248.533325 32 248 37.866665 248 C 43.333332 248 47.333332 248.533325 47.333332 249.333328 Z"/>
        <path id="path19" fill="#000000" stroke="none" d="M 76.666664 138.266663 L 77.866669 141.199997 C 79.333336 143.46666 83.866669 142.133331 83.066666 139.600006 C 82.400002 137.866669 76.666664 136.53334 76.666664 138.266663 Z"/>
        <path id="path20" fill="#000000" stroke="none" d="M 46.400002 220.800003 C 45.466667 223.199997 47.866665 226 49.866665 224.800003 C 52.133335 223.333344 51.599998 218.666656 49.333332 218.666656 C 48.133335 218.666656 46.933334 219.600006 46.400002 220.800003 Z"/>
        <path id="path21" fill="#000000" stroke="none" d="M 181.46666 134 C 180.266663 135.733337 179.333328 137.600006 179.333328 138.133331 C 179.333328 138.666672 178.399994 140.133331 177.199997 141.46666 C 175.866669 142.933334 175.600006 144 176.53334 144.53334 C 177.333328 145.066666 179.46666 143.066666 181.46666 140 C 183.46666 137.066666 186 134.666672 187.199997 134.666672 C 189.46666 134.666672 227.199997 139.866669 232 140.800003 L 269.066681 146.666672 C 270.933319 146.666672 269.866669 149.866669 261.866669 166.399994 L 252.533325 186.266663 C 251.333344 189.466675 251.466675 189.466675 241.600006 187.333344 C 238.800003 186.800003 237.866669 187.066666 238.266663 188.266663 C 238.666672 189.199997 240.266663 190.133331 242.133331 190.399994 C 248.399994 191.066666 251.333344 192.133331 251.333344 193.466675 C 251.333344 194.266663 248.933334 194.399994 244.666672 193.866669 C 240.133331 193.199997 238 193.466675 238 194.533325 C 238 195.333344 239.066666 196.133331 240.399994 196.133331 L 247.333328 196.800003 C 255.600006 197.866669 257.333344 196.666656 261.333344 187.733337 L 270.666656 167.333344 C 275.066681 158 276.133331 154.266663 275.733337 150.53334 C 275.066681 146 274.533325 145.46666 269.600006 144.266663 C 264.799988 143.066666 249.333328 140.399994 233.333328 138.133331 L 212.666672 134.933334 C 183.199997 130.266663 183.866669 130.266663 181.46666 134 Z M 264.533325 173.733337 C 259.866669 183.866669 255.600006 192 254.933319 192 C 254.399994 192 254.266663 190.666656 254.666656 188.933334 C 256.399994 183.466675 272 152.53334 272.399994 154 C 272.666656 154.933334 269.066681 163.733337 264.533325 173.733337 Z"/>
        <path id="path22" fill="#000000" stroke="none" d="M 186.666672 148.666672 C 184.399994 149.600006 181.46666 151.733337 180.133331 153.199997 C 178.53334 154.933334 176 156 173.333328 156 C 170.933334 156 167.46666 157.199997 165.46666 158.800003 C 162.133331 161.46666 162 161.866669 162 176.533325 C 162 186.800003 162.53334 192.266663 163.733337 193.866669 C 165.333328 196.133331 165.866669 195.866669 169.733337 189.866669 C 172.133331 186.399994 174 183.066666 174 182.399994 C 174 180.266663 177.46666 181.466675 181.866669 185.333344 C 186.133331 188.933334 186.266663 189.333344 184.666672 194 C 183.46666 197.600006 182.53334 198.533325 180.800003 198 C 179.46666 197.600006 176.266663 198.266663 173.600006 199.333344 C 168.800003 201.333344 168.666672 201.600006 168.666672 208 C 168.666672 215.733337 168.399994 215.866669 154.266663 212.800003 L 145.866669 210.933334 L 140.800003 219.866669 C 132.666672 233.866669 123.333328 252.933334 123.333328 255.733337 C 123.333328 257.200012 124.266663 259.06665 125.333328 260 C 127.866669 262.133331 146 263.600006 146 261.733337 C 146 260.933319 142.133331 260 137.333328 259.733337 C 132.53334 259.466675 127.866669 258.399994 127.066666 257.466675 C 125.600006 256 127.199997 255.866669 136 256.533325 C 147.866669 257.466675 148.666672 255.199997 136.800003 253.733337 C 133.066666 253.333328 129.600006 252.399994 129.199997 251.733337 C 128.266663 250.399994 141.733337 222.666656 145.600006 217.733337 L 148 214.666656 L 163.333328 217.199997 C 171.733337 218.666656 186.133331 220.800003 195.333328 221.866669 C 204.53334 223.066666 216.133331 224.933334 221.333328 226 L 231.600006 228 C 232.133331 228 231.46666 230.266663 230.133331 233.066666 C 223.600006 245.866669 215.333328 263.866669 215.333328 265.333344 C 215.333328 266.266663 214 266.666656 211.733337 266.133331 L 191.333328 262.266663 L 191.333328 256.399994 C 191.333328 244 185.333328 237.733337 172.133331 236.399994 C 158.666672 235.199997 147.333328 244.800003 147.333328 257.466675 C 147.333328 260.933319 148 264.266663 148.666672 264.666656 C 151.600006 266.399994 148.53334 267.600006 142 266.933319 C 138.266663 266.666656 135.333328 266.933319 135.333328 267.600006 C 135.333328 268.399994 139.199997 268.933319 144 268.799988 C 151.199997 268.666656 152.53334 268.399994 151.866669 266.666656 C 150 262.133331 149.733337 254.533325 151.333328 250.800003 C 153.333328 245.866669 162.133331 239.866669 168.666672 239.066666 C 175.066666 238.133331 184.266663 242.666672 186.133331 247.733337 C 188.266663 253.333328 189.066666 259.600006 188 262.266663 C 186.133331 266.533325 186.133331 268 188.133331 268 C 189.333328 268 189.733337 267.466675 189.333328 266.666656 C 188.800003 265.866669 190 265.333344 191.866669 265.333344 C 193.733337 265.333344 195.333328 265.866669 195.333328 266.399994 C 195.333328 267.066681 201.600006 267.466675 209.333328 267.466675 C 217.066666 267.466675 223.333328 266.933319 223.333328 266.399994 C 223.333328 265.733337 224.800003 263.066681 226.53334 260.266663 C 232 252 238.266663 235.199997 237.733337 230.399994 C 237.46666 226.933334 236.666672 225.866669 234.266663 225.600006 C 231.333328 225.199997 231.199997 224.666656 232.133331 219.600006 C 233.46666 212.666656 233.066666 205.199997 231.333328 203.466675 C 229.333328 201.466675 228.53334 203.333344 229.866669 206.933334 C 230.800003 209.600006 229.46666 221.466675 227.866669 223.733337 C 227.733337 224 226.133331 223.733337 224.133331 223.199997 C 220.800003 222.399994 220.666672 222 220.666672 213.866669 C 220.666672 205.866669 220.399994 205.199997 217.333328 204 C 215.333328 203.199997 214 201.733337 214 200 C 214 196.800003 213.600006 196.800003 220.399994 199.199997 C 225.600006 201.066666 225.866669 201.066666 228.933334 197.600006 C 233.333328 192.666656 239.866669 183.866669 240.800003 181.333344 C 242 178.533325 239.733337 174.666656 236.800003 174.666656 C 231.733337 174.666656 227.733337 183.866669 231.333328 187.466675 C 233.46666 189.600006 226.933334 196 222.53334 196 C 218.399994 196 210 191.600006 210 189.333344 C 210 188.666656 211.733337 187.199997 213.866669 186.133331 C 216 184.933334 218.933334 181.600006 220.53334 178.399994 C 225.866669 167.199997 221.199997 155.066666 209.066666 148.800003 C 204 146.266663 192.399994 146.133331 186.666672 148.666672 Z M 197.199997 150.53334 C 197.600006 151.199997 197.333328 153.600006 196.53334 155.866669 C 195.46666 158.800003 194.266663 160 192.133331 160 C 190.399994 160 188.399994 161.46666 187.066666 163.733337 C 184.266663 168.266663 179.600006 172.666656 178.53334 171.600006 C 177.066666 170.133331 179.46666 158.933334 181.733337 156 C 182.933334 154.53334 186.399994 152.399994 189.333328 151.333328 C 195.733337 149.066666 196.266663 149.066666 197.199997 150.53334 Z M 210.800003 153.066666 C 217.333328 158.266663 221.46666 169.600006 219.199997 175.466675 C 218.266663 178.133331 217.066666 178.666656 212.800003 178.666656 C 206.266663 178.666656 204.399994 180.933334 210.266663 181.600006 L 214.666672 182.133331 L 208.133331 185.199997 C 198.53334 189.733337 186 187.466675 181.333328 180.533325 C 179.46666 177.600006 179.600006 177.199997 185.199997 171.600006 C 188.399994 168.399994 192 165.333344 193.199997 164.933334 C 195.866669 163.866669 200.666672 156.133331 200.666672 152.933334 C 200.666672 149.866669 207.066666 149.866669 210.800003 153.066666 Z M 175.866669 159.866669 C 176.266663 160.53334 175.199997 162 173.333328 163.199997 C 169.46666 165.733337 168.933334 168.533325 172.53334 167.333344 C 174.666672 166.666656 174.933334 167.199997 174.666672 171.866669 C 174.53334 174.666656 173.199997 178.800003 171.733337 180.800003 L 168.266663 186.933334 C 167.733337 188.266663 166.800003 189.333344 166 189.333344 C 164.53334 189.333344 164.399994 169.466675 165.866669 164 C 166.399994 162.133331 168.133331 160.399994 170 159.866669 C 174.800003 158.53334 175.066666 158.53334 175.866669 159.866669 Z M 236.666672 182.533325 C 235.866669 184.133331 234.666672 185.066666 233.866669 184.666656 C 232.133331 183.600006 232.399994 180.800003 234.266663 178.933334 C 236.666672 176.533325 238.53334 179.199997 236.666672 182.533325 Z M 209.333328 195.600006 C 210.53334 198.266663 211.066666 200.666656 210.800003 200.933334 C 210.133331 201.600006 187.199997 198.933334 186.399994 198.133331 C 186 197.866669 186.666672 195.866669 187.733337 193.733337 C 189.600006 190.133331 190 190 198.53334 190.399994 C 207.333328 190.933334 207.46666 190.933334 209.333328 195.600006 Z M 192.933334 202.666656 C 207.866669 204.133331 212.666672 205.066666 212.666672 206.800003 C 212.666672 208.533325 205.199997 208.266663 194.666672 206 C 189.46666 204.933334 183.066666 204 180.399994 204 C 177.600006 204 175.333328 203.333344 175.333328 202.666656 C 175.333328 201.066666 176.399994 201.066666 192.933334 202.666656 Z M 200.266663 209.866669 C 207.600006 211.333344 208 211.600006 208.399994 215.733337 C 208.800003 219.733337 208.53334 220 204.399994 220 C 196.666672 220 175.199997 216.266663 173.199997 214.533325 C 172.133331 213.733337 171.333328 211.600006 171.333328 209.733337 L 171.333328 206.533325 L 181.866669 207.466675 C 187.733337 207.866669 196 209.066666 200.266663 209.866669 Z M 217.733337 215.466675 C 217.600006 220.666656 217.199997 221.466675 214.800003 221.066666 C 211.333328 220.533325 210.800003 214 213.866669 210.399994 C 216.800003 207.066666 218 208.666656 217.733337 215.466675 Z M 233.199997 239.199997 C 229.866669 248.800003 221.066666 264.799988 219.733337 263.466675 C 219.333328 263.200012 222.53334 255.866669 226.666672 247.333328 C 234.266663 231.333328 236.933334 228 233.199997 239.199997 Z"/>
        <path id="path23" fill="#000000" stroke="none" d="M 203.600006 157.600006 C 201.733337 159.46666 201.46666 162.666672 203.199997 162.666672 C 203.866669 162.666672 204.800003 161.733337 205.199997 160.666672 C 205.600006 159.46666 206.933334 158.666672 208.133331 158.933334 C 209.333328 159.199997 210.666672 158.53334 210.933334 157.600006 C 211.733337 155.46666 205.733337 155.46666 203.600006 157.600006 Z"/>
        <path id="path24" fill="#000000" stroke="none" d="M 207.333328 166.666656 C 207.333328 170 211.199997 171.733337 212.800003 169.199997 C 213.600006 168 213.199997 166.800003 211.733337 165.600006 C 208.53334 163.333328 207.333328 163.600006 207.333328 166.666656 Z"/>
        <path id="path25" fill="#000000" stroke="none" d="M 306.666656 164.266663 L 299.466675 176.666656 L 295.200012 186.266663 C 290.533325 196.266663 290.133331 202.133331 294 203.333344 C 296.799988 204.266663 299.333344 203.333344 299.333344 201.199997 C 299.333344 200.533325 298.133331 200 296.666656 200 C 295.200012 200 294 199.333344 294 198.533325 C 294 197.733337 295.200012 197.333344 296.666656 197.733337 C 298.133331 198.133331 299.733337 197.866669 300.133331 197.066666 C 300.533325 196.399994 299.733337 195.466675 298.133331 195.066666 C 296.533325 194.666656 295.333344 194 295.333344 193.600006 C 295.333344 191.866669 304.266663 174.533325 309.733337 165.600006 C 315.333344 156.399994 315.866669 156 320.799988 156 C 323.600006 156 328.799988 156.53334 332.266663 157.199997 L 355.333344 160.666672 C 375.733337 163.333328 387.333344 165.333344 390.266663 166.800003 C 392.133331 167.866669 391.866669 169.199997 387.200012 178.133331 C 384.266663 183.866669 379.200012 192.533325 376 197.600006 C 370.266663 206.266663 369.866669 206.666656 364.666656 206.666656 C 357.866669 206.666656 357.600006 209.066666 364.399994 209.600006 C 370.533325 210.133331 370.266663 212.666656 364 212.533325 C 359.466675 212.399994 358 213.600006 360.666656 215.333344 C 361.466675 215.733337 364.799988 215.733337 368.133331 215.199997 C 374.133331 214.399994 374.399994 214.133331 382.666656 201.333344 C 393.200012 185.199997 395.333344 180.133331 395.333344 171.333344 C 395.333344 165.199997 394.933319 164.266663 392.399994 163.46666 C 386.399994 161.866669 325.200012 153.333328 319.333344 153.333328 L 313.333344 153.333328 L 306.666656 164.266663 Z M 385.866669 190.933334 C 378.666656 202.666656 373.733337 208.533325 379.200012 198.666656 L 386.933319 184 C 389.466675 179.066666 390.799988 177.466675 391.066681 179.066666 C 391.333344 180.399994 388.933319 185.733337 385.866669 190.933334 Z"/>
        <path id="path26" fill="#000000" stroke="none" d="M 177.066666 249.466675 C 174.933334 251.600006 176.399994 254.666672 179.333328 254.666672 C 182 254.666672 183.333328 252.399994 182.266663 249.600006 C 181.600006 247.600006 179.066666 247.466675 177.066666 249.466675 Z"/>
        <path id="path27" fill="#000000" stroke="none" d="M 10.133333 257.333344 C 10.4 268.533325 9.333333 268 29.066666 267.733337 L 46.666668 267.466675 L 12.666666 266.533325 L 12.666666 260.933319 C 12.666666 257.866669 12 254.399994 11.333334 253.333328 C 10.4 251.866669 10.133333 252.933334 10.133333 257.333344 Z"/>
        <path id="path28" fill="#000000" stroke="none" d="M 284.666656 258.93335 C 280 261.333344 278.533325 262.799988 278.266663 265.600006 L 277.866669 269.333344 L 300 268.799988 L 290.399994 268.399994 C 279.466675 267.866669 277.600006 265.600006 284.933319 261.866669 C 290.133331 259.200012 301.066681 260.133331 304.933319 263.600006 C 307.333344 265.733337 307.333344 266 305.200012 267.600006 C 302.666656 269.466675 304.266663 269.866669 307.866669 268.533325 C 311.466675 267.200012 310.266663 263.066681 305.333344 260 C 298.266663 255.600006 291.733337 255.333328 284.666656 258.93335 Z"/>
        <path id="path29" fill="#000000" stroke="none" d="M 60.666664 267.866669 C 60.666664 268.399994 77.199997 268.933319 97.333336 268.933319 C 117.466667 269.066681 134 268.533325 134 268 C 134 267.333344 117.466667 266.799988 97.333336 266.799988 C 77.199997 266.799988 60.666664 267.333344 60.666664 267.866669 Z"/>
        <path id="path30" fill="#000000" stroke="none" d="M 154.666672 268 C 154 268.933319 157.733337 269.333344 165.866669 269.200012 C 172.53334 269.066681 177.600006 268.533325 177.199997 267.866669 C 176.266663 266.133331 155.733337 266.399994 154.666672 268 Z"/>
        <path id="path31" fill="#000000" stroke="none" d="M 230.666672 268 L 225.333328 268.933319 L 231.733337 269.200012 C 235.733337 269.200012 237.866669 268.799988 237.333328 268 L 236.266663 266.799988 L 230.666672 268 Z"/>
        <path id="path32" fill="#000000" stroke="none" d="M 180.399994 268.933319 C 181.333328 269.333344 182.53334 269.200012 182.933334 268.799988 C 183.46666 268.399994 182.666672 268 181.199997 268.133331 C 179.733337 268.133331 179.333328 268.533325 180.399994 268.933319 Z"/>
        <path id="path33" fill="#000000" stroke="none" d="M 243.066666 268.933319 C 243.866669 269.200012 245.46666 269.200012 246.399994 268.933319 C 247.199997 268.533325 246.53334 268.266663 244.666672 268.266663 C 242.800003 268.266663 242.133331 268.533325 243.066666 268.933319 Z"/>
        <path id="path34" fill="#000000" stroke="none" d="M 261.733337 268.933319 C 264.133331 269.200012 267.733337 269.200012 269.733337 268.933319 C 271.733337 268.666656 269.733337 268.399994 265.333344 268.399994 C 260.933319 268.399994 259.333344 268.666656 261.733337 268.933319 Z"/>
    </g>
</svg>
