<?xml version="1.0" encoding="UTF-8"?>
<!-- Generated by Pixelmator Pro 3.6.12 -->
<svg width="409" height="278" viewBox="0 0 409 278" xmlns="http://www.w3.org/2000/svg">
    <g id="g1">
        <path id="path2" fill="#000000" stroke="none" d="M 11.333334 10.266663 C 11.333334 10.933319 49.866665 11.200012 97.066666 11.066681 L 182.800003 10.933319 L 182.666672 97.46666 L 119.866669 96.666672 C 42 95.600006 45.733334 94.800003 41.733334 114 C 41.066666 117.600006 40.266666 130 40 141.333328 C 39.466667 162.399994 38.533333 178.533325 37.733334 179.333344 L 11.333334 180.800003 L 11.733334 97.066666 C 11.866667 51.066666 11.6 13.333344 11.066668 13.333344 C 10.4 13.333344 10 70.266663 10 140 L 10 266.666656 L 250.133331 267.333344 C 385.200012 268 397.733337 267.866669 398.533325 266 C 398.933319 264.799988 399.333344 206.800003 399.333344 137.333328 L 399.333344 10.799988 L 357.733337 10.399994 C 264.933319 9.333344 11.333334 9.333344 11.333334 10.266663 Z M 342.266663 12 L 397.866669 12 L 396.666656 267.066681 L 376.399994 266.266663 C 365.200012 265.733337 340.399994 265.333344 321.333344 265.333344 C 289.200012 265.333344 286.533325 265.200012 286.399994 262.933319 L 284.399994 255.199997 C 282.533325 250 282.666656 249.600006 285.600006 246.133331 C 288.933319 242.266663 289.733337 235.066666 287.200012 230.399994 C 285.466675 227.066666 278.266663 224 272.133331 224 C 266.533325 224 260.666656 230.133331 260.666656 236 C 260.666656 240.933334 262.933319 246.666672 265.466675 248.666672 C 267.200012 249.866669 267.333344 251.066666 266 255.866669 C 265.200012 259.066681 264.799988 262.399994 265.200012 263.466675 C 265.866669 265.066681 259.333344 265.333344 224.266663 265.333344 L 182.666672 265.333344 L 182.266663 256.666656 C 182 251.866669 180.666672 244.533325 179.199997 240.399994 L 176.666672 233.066666 L 180 229.066666 C 183.333328 225.199997 184.53334 217.066666 182.266663 214 C 180.266663 211.199997 172.666672 206.666656 170.133331 206.666656 C 161.066666 206.666656 154.800003 214.399994 156 224 C 156.399994 228 157.733337 230.800003 159.600006 232.133331 C 161.066666 233.333328 162 234.933334 161.46666 235.733337 C 160.53334 237.333328 156.666672 257.866669 156.666672 261.600006 C 156.666672 262.933319 157.46666 264 158.53334 264 C 159.733337 264 160.133331 262.933319 159.733337 260.666656 C 159.066666 257.466675 160.933334 247.066666 163.733337 239.066666 C 164.933334 235.333328 165.866669 234.666672 169.600006 234.666672 C 172.399994 234.666672 174.399994 235.466675 175.066666 237.066666 C 176.53334 239.733337 178.800003 250.133331 180 259.066681 L 180.800003 265.333344 L 11.333334 265.333344 L 11.333334 182.666656 L 39.066666 182.666656 L 40.799999 192 L 54.400002 192.266663 C 73.466667 192.533325 73.066666 192.533325 76.666664 195.066666 C 82.933334 199.466675 95.333336 197.066666 95.333336 191.466675 C 95.333336 189.066666 97.466667 188.533325 98.26667 190.800003 C 98.933334 192.800003 171.733337 192.666656 172.399994 190.666656 C 172.800003 189.733337 160.666672 189.333344 137.066666 189.333344 L 101.333336 189.333344 L 99.333336 182.399994 C 97.599998 176.399994 96.533333 174.933334 92.26667 172.933334 C 88.26667 170.933334 86.533333 170.666656 83.199997 171.866669 C 77.73333 173.733337 71.333336 181.066666 71.333336 185.600006 L 71.333336 189.066666 L 57.733334 189.199997 C 48.533333 189.199997 43.733334 188.666656 43.066666 187.600006 C 42.533333 186.666656 42 183.600006 42 180.666656 L 42 175.333344 L 56.799999 175.733337 C 66.400002 176.133331 71.333336 175.733337 70.800003 174.933334 C 70.400002 174.133331 66.533333 173.600006 62.400002 173.600006 C 50.799999 173.466675 46.400002 173.066666 48.933334 172.399994 C 50.400002 172 51.333332 170.533325 51.333332 168.533325 C 51.333332 166.133331 50.666668 165.333344 48.400002 165.333344 C 46.666668 165.333344 44.400002 164.666656 43.333332 163.866669 C 41.866665 162.800003 42.933334 162.666656 47.333332 163.333344 C 58.400002 164.800003 170 165.466675 170 164 C 170 163.199997 167.733337 162.666656 165.066666 162.800003 C 158.53334 163.066666 50.400002 161.199997 46 160.800003 C 40.533333 160.266663 41.599998 155.600006 47.333332 154.666672 C 52.933334 153.733337 131.199997 154.133331 152.399994 155.199997 C 160.53334 155.600006 167.333328 155.46666 167.333328 154.933334 C 167.333328 153.199997 132.53334 152 85.333336 152 L 43.599998 152 L 43.200001 148.399994 C 42 140.266663 43.066666 138.666672 49.066666 138.666672 C 57.866665 138.666672 58.533333 137.600006 58.666664 125.066666 L 58.666664 114 L 52.266666 112.800003 C 46 111.600006 45.866665 111.46666 46.799999 107.46666 C 47.200001 105.199997 48.133335 102.666672 48.933334 102 C 49.733334 101.199997 80.933334 100.666672 137.733337 100.800003 C 226.133331 100.800003 237.600006 101.46666 240.266663 105.733337 C 240.800003 106.666672 241.866669 111.199997 242.666672 115.866669 C 243.46666 120.800003 244.800003 124.666672 245.866669 125.066666 C 247.199997 125.46666 247.46666 124.666672 246.933334 121.866669 L 245.333328 112 C 244.933334 108.666672 243.733337 104.933334 242.800003 103.733337 C 240.133331 100.133331 222.53334 97.333328 203.066666 97.199997 L 186 97.199997 L 185.333328 10.666656 L 342.266663 12 Z M 55.866665 125.066666 C 55.733334 134.399994 54.666668 136 47.866665 136 C 44 136 43.599998 135.600006 43.066666 130.933334 C 42.666668 128.266663 42.666668 123.733337 43.066666 120.933334 L 43.733334 115.866669 L 56 116.666672 L 55.866665 125.066666 Z M 49.333332 168 C 49.733334 168.800003 48.533333 170 46.666668 170.666656 C 42 172.399994 42 172.399994 42 169.333344 C 42 167.333344 42.933334 166.666656 45.200001 166.666656 C 47.066666 166.666656 48.933334 167.333344 49.333332 168 Z M 90.400002 174.800003 C 93.466667 176.533325 95.333336 178.533325 95.333336 180.533325 C 95.333336 181.199997 94 180.533325 92.26667 178.933334 C 90.533333 177.333344 87.866669 176 86.133331 176 C 84.533333 176 83.599998 175.466675 84 174.666656 C 85.066666 172.933334 86.800003 172.933334 90.400002 174.800003 Z M 88 186.666656 C 88 189.066666 83.599998 190.133331 81.73333 188.266663 C 80.933334 187.466675 80.800003 186.266663 81.333336 185.333344 C 82.666664 183.199997 88 184.266663 88 186.666656 Z M 173.733337 211.600006 C 178.800003 214.800003 180.666672 217.333344 180.666672 221.333328 C 180.666672 228.266663 170.133331 233.733337 163.46666 230.266663 C 156.399994 226.800003 157.066666 215.333344 164.53334 211.333344 C 169.066666 208.933334 169.46666 208.933334 173.733337 211.600006 Z M 279.733337 228.800003 C 284.933319 231.466675 286 232.933334 286 237.466675 C 286 243.600006 282 247.066666 274.799988 247.066666 C 267.466675 247.066666 265.200012 245.333328 264 238.399994 C 263.200012 234.266663 263.600006 232.933334 266.533325 230.133331 C 270.399994 226.133331 273.733337 225.866669 279.733337 228.800003 Z M 280.666656 253.199997 C 281.333344 254.666672 282 257.200012 282 258.933319 C 282 260.666656 282.666656 262.799988 283.600006 263.733337 C 284.799988 264.933319 283.200012 265.333344 276.399994 265.333344 L 267.600006 265.333344 L 268.266663 260.266663 C 268.666656 257.600006 269.466675 254.266663 270.133331 252.933334 C 271.866669 249.733337 278.799988 249.866669 280.666656 253.199997 Z"/>
        <path id="path3" fill="#000000" stroke="none" d="M 208.266663 16.933319 C 206.53334 18.533325 207.199997 31.733337 209.066666 32.266663 L 233.333328 32.666672 L 233.066666 26.266663 C 232.800003 16.933319 231.46666 16 219.333328 16 C 213.733337 16 208.666672 16.399994 208.266663 16.933319 Z M 229.733337 25.066681 L 230.133331 30.800003 L 220.399994 30.266663 C 210 29.600006 208.933334 28.666672 210.53334 21.866669 C 211.333328 18.666656 211.866669 18.533325 220.399994 18.933319 L 229.333328 19.333344 L 229.733337 25.066681 Z"/>
        <path id="path4" fill="#000000" stroke="none" d="M 314.266663 26.933319 C 314.666656 35.199997 314.799988 35.333328 318.666656 35.733337 C 320.799988 36 326.399994 35.866669 330.799988 35.333328 C 338.933319 34.53334 339.066681 34.399994 339.866669 30 C 340.399994 27.466675 340.399994 24 339.866669 22.133331 C 339.066681 18.666656 338.799988 18.666656 326.399994 18.666656 L 313.866669 18.666656 L 314.266663 26.933319 Z M 336.399994 26.399994 L 336.799988 32 L 331.733337 32.266663 C 317.066681 32.933334 317.333344 33.066666 317.333344 27.333344 L 317.466675 21.333344 C 317.600006 20.933319 321.866669 20.666656 326.933319 20.799988 L 336 20.799988 L 336.399994 26.399994 Z"/>
        <path id="path5" fill="#000000" stroke="none" d="M 243.066666 40.933334 C 241.066666 41.46666 240.666672 43.066666 240.666672 50 L 240.666672 58.53334 L 265.200012 59.066666 L 264.666656 51.199997 C 264.133331 44.399994 263.600006 43.46666 260.666656 42.666672 C 255.200012 41.199997 245.46666 40.266663 243.066666 40.933334 Z M 260.133331 45.600006 C 260.399994 46 261.200012 48.53334 261.600006 51.199997 L 262.399994 56 L 243.733337 56 L 243.866669 50 C 244 45.866669 244.666672 44 246 43.600006 C 248.399994 43.199997 259.066681 44.666672 260.133331 45.600006 Z"/>
        <path id="path6" fill="#000000" stroke="none" d="M 312.933319 51.333328 L 312.799988 60.133331 L 340 59.333328 L 340 43.333328 L 313.066681 42.53334 L 312.933319 51.333328 Z M 337.600006 50.933334 L 337.866669 55.866669 L 330.933319 56.666672 C 323.066681 57.733337 315.866669 57.199997 316.399994 55.600006 L 316.666656 45.199997 L 337.333344 46 L 337.600006 50.933334 Z"/>
        <path id="path7" fill="#000000" stroke="none" d="M 367.600006 45.066666 C 366.933319 46.933334 367.866669 59.733337 368.799988 60.399994 C 369.066681 60.666672 374.266663 60.53334 380.399994 60.266663 L 391.333344 59.733337 L 391.333344 53.46666 C 391.333344 50.133331 390.799988 46.666672 390.266663 45.733337 C 388.799988 43.46666 368.533325 42.800003 367.600006 45.066666 Z M 388.399994 51.600006 C 388.933319 56.666672 386.666656 58.266663 377.866669 58.53334 L 371.600006 58.666672 L 370.933319 53.733337 C 370.666656 50.933334 370.666656 48.133331 370.933319 47.600006 C 371.333344 47.066666 375.200012 46.666672 379.733337 46.933334 C 388 47.333328 388 47.333328 388.399994 51.600006 Z"/>
        <path id="path8" fill="#000000" stroke="none" d="M 274.399994 94.266663 C 271.066681 94.666672 269.866669 95.600006 269.200012 98.266663 C 267.866669 103.199997 267.866669 126.266663 269.066681 155.600006 L 270 181.333344 L 248.666672 181.333344 L 248.53334 173.600006 C 248.53334 164.933334 246.266663 157.333344 246.133331 165.066666 C 246 170.533325 242.933334 170.266663 242.266663 164.800003 C 241.600006 159.600006 243.600006 158.133331 250.933319 158.533325 C 254.399994 158.666656 258.933319 158.399994 261.066681 157.866669 C 264.533325 157.199997 264.666656 156.800003 264.666656 148.266663 C 264.666656 143.333328 264.133331 138.53334 263.466675 137.46666 C 262 135.199997 248.666672 133.733337 248.666672 135.866669 C 248.666672 136.666672 250 137.333328 251.466675 137.333328 C 254 137.333328 254.266663 137.866669 253.466675 142.266663 L 252.666656 151.600006 C 252.666656 155.866669 252.533325 156 246.666672 156 C 241.46666 156 240.666672 156.399994 239.866669 159.199997 C 239.46666 160.933334 239.333328 164.266663 239.600006 166.800003 C 239.866669 170.266663 240.666672 171.466675 242.933334 171.733337 C 245.199997 172.133331 245.866669 173.199997 246.266663 177.866669 C 246.933334 187.066666 246.399994 188 240.800003 188 C 236.133331 188 235.600006 187.600006 234.800003 183.866669 C 234.399994 181.600006 234 177.066666 234 173.866669 C 234 170.533325 233.333328 168 232.53334 168 C 231.733337 168 231.199997 171.733337 231.46666 178.266663 L 231.733337 188.666656 L 225.600006 188.666656 C 222.133331 188.666656 219.46666 189.333344 219.733337 190 C 219.866669 190.666656 220.800003 191.333344 221.733337 191.600006 C 224.53334 192 225.46666 193.333344 222.933334 193.333344 C 221.733337 193.333344 220.133331 194.533325 219.333328 196 C 218 198.399994 218.266663 198.666656 222.266663 198.666656 C 226.800003 198.533325 231.333328 196.133331 231.333328 193.733337 C 231.333328 191.866669 236 190.666656 242.933334 190.666656 C 247.600006 190.666656 248.53334 190.266663 248.933334 187.600006 L 249.333328 184.666656 L 292.399994 185.066666 C 320.799988 185.199997 335.333344 184.933334 335.333344 184 C 335.333344 183.199997 331.466675 182.666656 326.399994 182.666656 C 289.333344 182.399994 277.733337 182 277.066681 180.933334 C 276.666656 180.266663 280.399994 175.733337 285.333344 170.800003 L 294.266663 162 L 307.066681 161.866669 C 327.333344 161.866669 334.533325 161.466675 333.600006 160.399994 C 333.066681 160 323.866669 159.466675 312.933319 159.333344 L 293.333344 159.066666 L 292.266663 149.199997 C 291.733337 143.733337 291.466675 129.733337 291.600006 118 L 292 96.666672 L 322.666656 96.666672 L 323.066681 120.266663 C 323.200012 134.666672 323.866669 144 324.666656 144 C 325.466675 144 326 134.800003 326 120 L 326 96 L 342.266663 96.133331 C 351.200012 96.266663 359.333344 96.53334 360.266663 96.933334 C 361.333344 97.333328 362 99.866669 362 103.46666 C 362 106.666672 362.666656 109.333328 363.333344 109.333328 C 364.133331 109.333328 364.666656 106.666672 364.666656 103.333328 C 364.666656 96.266663 365.733337 95.600006 374 97.066666 C 379.866669 98 380 98.133331 380.799988 104 L 383.466675 160 L 377.333344 160 C 373.600006 160 371.466675 160.533325 372 161.333344 C 372.399994 162 375.600006 162.666656 378.799988 162.666656 L 384.933319 162.666656 L 384.399994 172.266663 C 384 182 384 182 380 182.399994 C 377.866669 182.666656 375.466675 183.466675 374.666656 184.133331 C 374 184.800003 377.733337 185.333344 384.399994 185.333344 C 390.799988 185.333344 395.333344 184.800003 395.333344 184 C 395.333344 183.199997 393.600006 182.666656 391.333344 182.666656 L 387.333344 182.666656 L 387.333344 167.600006 C 387.333344 159.466675 386.666656 148.666672 386 143.733337 C 385.333344 138.800003 384.399994 126.933334 384 117.199997 C 383.600006 107.600006 382.666656 98.666672 382 97.333328 C 381.333344 96 378.533325 94.666672 375.733337 94.266663 C 369.866669 93.46666 280.799988 93.46666 274.399994 94.266663 Z M 288.666656 124.266663 C 288.666656 139.866669 289.066681 154.800003 289.466675 157.333344 C 290.133331 161.600006 289.466675 162.666656 281.866669 170.399994 C 277.466675 175.066666 273.333344 178.533325 272.933319 178.133331 C 272.533325 177.600006 272 159.733337 271.600006 138.266663 L 271.066681 99.199997 L 275.466675 97.733337 C 278 96.933334 282 96.266663 284.399994 96.133331 L 288.666656 96 L 288.666656 124.266663 Z M 261.733337 147.066666 C 262.133331 154.53334 262 154.666672 258.533325 154.666672 C 255.333344 154.666672 255.066681 154.399994 255.866669 150.53334 L 256.666656 142.399994 C 256.666656 139.333328 257.200012 138.53334 259.066681 138.933334 C 260.799988 139.199997 261.466675 140.933334 261.733337 147.066666 Z"/>
        <path id="path9" fill="#000000" stroke="none" d="M 185.066666 107.600006 C 183.199997 108 181.733337 109.733337 180.800003 112.399994 C 179.199997 117.866669 176.266663 142.666672 177.199997 143.600006 C 179.199997 145.600006 180.53334 141.333328 181.333328 129.600006 C 182.933334 109.333328 181.46666 110.53334 202.266663 110.666672 C 222.800003 110.800003 227.866669 112 230.399994 117.333328 C 232.266663 120.800003 232.133331 121.199997 229.199997 122.53334 C 226.666672 123.733337 225.199997 123.46666 221.600006 121.333328 C 218.666672 119.46666 214.933334 118.666672 209.46666 118.666672 C 195.066666 118.666672 187.333328 126.266663 187.333328 140.53334 C 187.333328 148.800003 189.46666 153.600006 194.666672 157.199997 C 200.133331 160.800003 200.266663 161.466675 196.666672 163.733337 C 194.53334 165.066666 193.066666 164.933334 188.800003 163.199997 C 182.800003 160.800003 181.333328 158.399994 183.600006 154.666672 C 186 150.800003 181.866669 146.53334 176.933334 147.866669 C 172 149.199997 171.733337 155.866669 176.666672 158.266663 C 178.399994 159.066666 180.800003 161.066666 182 162.399994 C 183.066666 163.866669 186.266663 165.733337 188.933334 166.533325 C 193.733337 168.133331 193.733337 168.266663 191.333328 170.666656 C 190 172 187.333328 175.866669 185.333328 179.199997 C 183.333328 182.533325 181.199997 185.333344 180.666672 185.333344 C 178.933334 185.333344 177.733337 177.866669 178.266663 170.666656 C 178.53334 166.666656 178.133331 164.133331 177.333328 164.399994 C 175.46666 164.800003 175.199997 192.133331 176.933334 194.266663 C 178.666672 196.399994 184.133331 196.533325 185.333328 194.666656 C 185.866669 193.733337 187.46666 194.266663 189.733337 195.733337 C 191.733337 197.066666 194.399994 198.666656 195.733337 199.066666 C 199.46666 200.399994 198.800003 209.733337 194.666672 213.866669 C 191.866669 216.666656 191.46666 217.733337 192.666672 220 C 194.53334 223.333328 198.133331 223.466675 202.133331 220.133331 C 205.333328 217.600006 205.333328 217.466675 203.066666 213.600006 C 201.733337 211.333344 200.666672 207.333344 200.666672 204.666656 C 200.666672 200.266663 200.933334 199.733337 203.733337 200.399994 C 205.333328 200.800003 208.800003 200.399994 211.333328 199.600006 L 216 198 L 215.46666 168.399994 L 230.666672 166.266663 C 234.133331 166 234.666672 165.466675 234.666672 162 C 234.666672 158.266663 234.266663 158 230 158 C 226.266663 158 225.333328 158.533325 224.666672 161.333344 C 224.133331 163.866669 222.933334 164.800003 219.600006 165.066666 C 216.133331 165.466675 215.333328 165.066666 215.333328 162.933334 C 215.333328 161.199997 216.53334 160 218.666672 159.466675 C 222.399994 158.533325 230 148.933334 230 145.066666 C 230 141.46666 231.600006 142.133331 237.333328 148 C 240.133331 150.933334 243.733337 153.333328 245.066666 153.333328 C 247.46666 153.333328 247.600006 152.666672 246.800003 145.600006 C 245.46666 133.866669 243.46666 128 239.600006 124.133331 C 237.600006 122.266663 235.333328 118.933334 234.53334 116.800003 C 232.133331 110.133331 226.399994 108.266663 206 107.600006 C 196.133331 107.199997 186.666672 107.199997 185.066666 107.600006 Z M 218 123.199997 C 220.53334 124.133331 223.333328 126.266663 224.266663 128.133331 C 226.399994 132.53334 227.866669 141.333328 226.53334 141.333328 C 225.866669 141.333328 222.133331 138.933334 218.133331 135.866669 C 212.666672 131.733337 210.666672 130.800003 209.866669 132.133331 C 209.333328 133.199997 208.53334 133.600006 208.266663 133.333328 C 206.933334 131.866669 203.333328 124 203.333328 122.666672 C 203.333328 120.800003 212.266663 121.199997 218 123.199997 Z M 203.066666 130.800003 C 205.46666 136.666672 206.266663 137.600006 208.933334 136.933334 C 210.933334 136.399994 214.266663 137.600006 219.600006 140.800003 L 227.199997 145.46666 L 224.399994 149.866669 C 219.866669 156.800003 214.133331 159.333344 206 157.866669 C 198.933334 156.666656 197.066666 154.53334 202.133331 153.333328 C 203.733337 152.933334 205.46666 151.733337 205.733337 150.800003 C 206.266663 149.333328 205.600006 149.199997 203.199997 149.866669 C 194.53334 152.666672 192.800003 152.399994 191.333328 148.666672 C 188.53334 141.066666 190 132.133331 195.066666 126.266663 C 198.266663 122.666672 200 123.600006 203.066666 130.800003 Z M 236.266663 124.800003 C 237.866669 125.199997 239.600006 126.933334 240.133331 128.53334 C 241.600006 132.933334 244.399994 148.666672 243.866669 149.199997 C 243.066666 150.133331 230 136.666672 230 134.800003 C 230 133.333328 230.53334 133.333328 232.399994 135.066666 C 237.066666 139.333328 238.53334 136.53334 234 132 C 232.53334 130.53334 230.800003 129.333328 230 129.333328 C 228.53334 129.333328 228.133331 126.266663 229.600006 124.933334 C 230.666672 123.866669 232.399994 123.733337 236.266663 124.800003 Z M 180.666672 152.53334 C 180.666672 153.600006 180.133331 154.800003 179.600006 155.199997 C 177.866669 156.266663 174.933334 153.733337 175.866669 152.133331 C 177.199997 150 180.666672 150.266663 180.666672 152.53334 Z M 212.399994 179.199997 L 212 196.666656 L 206.800003 197.066666 C 197.066666 197.866669 186 191.600006 186 185.199997 C 186 184.133331 187.866669 180.266663 190.133331 176.933334 C 193.600006 171.600006 194.53334 170.933334 196.800003 172 C 198.53334 173.066666 200.133331 172.933334 202 172 C 204.800003 170.533325 205.600006 166.133331 203.333328 164.666656 C 200 162.533325 202.266663 160.666656 207.333328 161.066666 L 212.800003 161.600006 L 212.399994 179.199997 Z M 232 161.333344 C 232.399994 162 231.866669 162.666656 230.800003 162.666656 C 229.733337 162.666656 228.399994 162 228 161.333344 C 227.600006 160.533325 228.133331 160 229.199997 160 C 230.266663 160 231.600006 160.533325 232 161.333344 Z M 201.46666 166.800003 C 201.866669 167.600006 201.733337 168.800003 201.199997 169.333344 C 199.600006 170.933334 196.133331 168.666656 197.199997 166.800003 C 198.399994 164.933334 200.266663 164.933334 201.46666 166.800003 Z M 183.199997 189.866669 C 184.399994 191.199997 184.399994 192 183.333328 192.666656 C 181.733337 193.600006 178 191.199997 178 189.199997 C 178 187.333344 181.46666 187.866669 183.199997 189.866669 Z M 200.800003 216.666656 C 200.800003 218.399994 195.333328 219.199997 195.333328 217.600006 C 195.333328 216.133331 198 214.666656 199.733337 215.199997 C 200.399994 215.333344 200.800003 216 200.800003 216.666656 Z"/>
        <path id="path10" fill="#000000" stroke="none" d="M 193.199997 138 C 192.666672 139.199997 192.933334 140.800003 193.600006 141.46666 C 195.46666 143.333328 199.600006 141.333328 199.066666 138.800003 C 198.53334 135.866669 194.133331 135.333328 193.199997 138 Z"/>
        <path id="path11" fill="#000000" stroke="none" d="M 143.199997 111.600006 C 140.933334 112.133331 139.333328 119.600006 139.333328 128.933334 C 139.333328 132.53334 140 133.600006 142.933334 134.800003 C 146.133331 136 167.066666 135.46666 168.399994 134 C 168.666672 133.733337 168.933334 129.066666 168.933334 123.733337 C 168.800003 111.600006 167.600006 110.666672 154.800003 110.800003 C 149.600006 110.933334 144.399994 111.199997 143.199997 111.600006 Z M 164.399994 114.933334 C 165.333328 115.866669 166 120 166 124.266663 L 166 132 L 142.266663 132 L 142.800003 123.733337 C 143.199997 119.066666 144.266663 114.933334 145.066666 114.399994 C 147.600006 112.800003 162.666672 113.199997 164.399994 114.933334 Z"/>
        <path id="path12" fill="#000000" stroke="none" d="M 70.533333 112.933334 C 66.933334 113.46666 66.26667 114.133331 65.466667 118.399994 C 64.133331 126.399994 64.533333 135.733337 66.133331 136.800003 C 67.066666 137.333328 73.333336 137.733337 80.26667 137.733337 C 89.73333 137.733337 93.199997 137.199997 94.133331 135.866669 C 96.800003 131.600006 94.400002 115.600006 90.800003 114.266663 C 88 113.199997 74.933334 112.266663 70.533333 112.933334 Z M 86.933334 116.800003 C 90.533333 117.866669 93.066666 123.600006 92.400002 130.133331 L 91.866669 135.199997 L 82 135.066666 C 66.26667 134.800003 67.333336 135.333328 67.333336 129.46666 L 68.133331 120.133331 C 68.933334 116.133331 69.199997 116 76.533333 116 C 80.666664 116 85.333336 116.399994 86.933334 116.800003 Z"/>
        <path id="path13" fill="#000000" stroke="none" d="M 104 113.46666 C 102.533333 115.733337 101.599998 135.600006 102.800003 136.399994 C 105.066666 137.733337 126.666672 138.53334 128.666672 137.333328 C 130.133331 136.399994 130.666672 133.600006 130.666672 126.266663 C 130.666672 112.800003 129.866669 112 115.866669 112 C 109.466667 112 104.400002 112.53334 104 113.46666 Z M 127.333328 118.133331 C 129.199997 122.933334 128.933334 132.800003 127.066666 134.266663 C 126 135.066666 121.199997 135.333328 115.333336 134.800003 L 105.333336 134 L 106.533333 116.666672 C 106.800003 115.866669 111.333336 115.199997 116.533333 115.066666 C 125.733337 114.666672 126.133331 114.800003 127.333328 118.133331 Z"/>
        <path id="path14" fill="#000000" stroke="none" d="M 348.533325 112.800003 C 345.333344 113.733337 343.333344 119.199997 343.333344 126.666672 C 343.333344 131.866669 343.866669 133.733337 346 134.933334 C 349.466675 137.199997 349.333344 138.266663 345.466675 139.199997 C 339.733337 140.666672 338.666656 146.266663 341.866669 159.066666 C 343.466675 165.199997 344.399994 171.199997 344 172.266663 C 343.600006 173.333344 344 178 345.066681 182.533325 C 346.933319 190.266663 346.799988 190.800003 344.533325 192.133331 C 341.866669 193.466675 341.066681 197.333344 343.333344 197.333344 C 344 197.333344 346.399994 195.733337 348.533325 193.600006 C 352.133331 190.399994 352.533325 189.066666 352.933319 180.666656 C 353.066681 175.466675 353.866669 170.933334 354.666656 170.399994 C 356.666656 168.933334 359.333344 169.066666 359.333344 170.666656 C 359.333344 171.466675 358.533325 171.866669 357.733337 171.733337 C 356.399994 171.466675 356 174.533325 355.866669 183.600006 C 355.733337 196.666656 356.399994 199.199997 359.600006 198 C 361.200012 197.333344 361.733337 195.066666 361.733337 188.933334 C 361.733337 184.399994 362.399994 178.933334 363.333344 176.800003 C 364.133331 174.666656 364.399994 171.866669 364 170.533325 C 363.600006 169.199997 363.866669 167.066666 364.533325 165.733337 C 367.466675 160.666656 371.333344 149.066666 371.333344 145.333328 C 371.333344 142.666672 370.266663 140.666672 368.133331 139.333328 C 365.333344 137.46666 365.066681 136.800003 366.266663 133.600006 C 367.866669 129.333328 366.666656 118.800003 364.133331 115.333328 C 362.533325 113.066666 352.933319 111.46666 348.533325 112.800003 Z M 350.799988 124.666672 C 347.866669 126.933334 346 127.199997 346 125.600006 C 346 123.733337 347.600006 122.666672 350.533325 122.666672 C 353.333344 122.800003 353.333344 122.800003 350.799988 124.666672 Z M 364.666656 125.333328 C 364.666656 127.600006 364.266663 127.866669 362.133331 126.666672 C 357.866669 124.53334 357.600006 122.666672 361.200012 122.666672 C 363.733337 122.666672 364.666656 123.333328 364.666656 125.333328 Z M 358.266663 127.866669 C 359.333344 129.199997 361.200012 130.666672 362.133331 130.933334 C 365.200012 132 362.266663 136 358.399994 136 C 354.266663 136 348.399994 133.46666 347.733337 131.333328 C 347.466675 130.266663 353.066681 125.866669 355.333344 125.46666 C 355.733337 125.333328 357.066681 126.399994 358.266663 127.866669 Z M 359.866669 143.333328 C 358.666656 145.199997 357.466675 146.53334 357.333344 146.399994 L 355.466675 142.933334 C 354 140.266663 354.133331 140 358 140 C 362 140 362 140 359.866669 143.333328 Z M 348.933319 148.133331 L 350.799988 156.399994 C 351.600006 159.733337 349.733337 164 347.466675 164 C 346.266663 164 343.333344 152.800003 343.333344 148.266663 C 343.333344 140.933334 347.466675 140.933334 348.933319 148.133331 Z M 368.666656 144.133331 L 365.866669 154.933334 C 363.866669 161.466675 362.533325 163.733337 361.600006 162.800003 C 360 161.199997 365.466675 142.666672 367.466675 142.666672 C 368.133331 142.666672 368.666656 143.333328 368.666656 144.133331 Z M 354 166.800003 C 354 167.466675 353.066681 168 352 168 C 350 168 349.333344 166.399994 350.799988 164.933334 C 351.866669 163.866669 354 165.066666 354 166.800003 Z"/>
        <path id="path15" fill="#000000" stroke="none" d="M 231.333328 150.53334 C 231.333328 153.199997 232 154.666672 233.199997 154.666672 C 234.53334 154.666672 235.066666 153.46666 234.800003 151.066666 C 234.266663 145.866669 231.333328 145.46666 231.333328 150.53334 Z"/>
        <path id="path16" fill="#000000" stroke="none" d="M 336 160 C 336.399994 160.666656 337.333344 161.333344 338.133331 161.333344 C 338.799988 161.333344 339.333344 160.666656 339.333344 160 C 339.333344 159.199997 338.399994 158.666656 337.200012 158.666656 C 336.133331 158.666656 335.600006 159.199997 336 160 Z"/>
        <path id="path17" fill="#000000" stroke="none" d="M 100.666664 176.266663 C 100.666664 176.933334 116.26667 177.333344 135.333328 177.333344 C 158 177.199997 170 176.666656 170 175.866669 C 170 174.933334 158.266663 174.666656 135.333328 174.800003 C 116.26667 175.066666 100.666664 175.733337 100.666664 176.266663 Z"/>
        <path id="path18" fill="#000000" stroke="none" d="M 338.666656 184 C 338.266663 184.666656 338.799988 185.333344 340 185.333344 C 341.200012 185.333344 341.733337 184.666656 341.333344 184 C 340.933319 183.199997 340.266663 182.666656 340 182.666656 C 339.733337 182.666656 339.066681 183.199997 338.666656 184 Z"/>
        <path id="path19" fill="#000000" stroke="none" d="M 367.333344 184 C 367.333344 184.666656 368.266663 185.333344 369.333344 185.333344 C 370.399994 185.333344 371.333344 184.666656 371.333344 184 C 371.333344 183.199997 370.399994 182.666656 369.333344 182.666656 C 368.266663 182.666656 367.333344 183.199997 367.333344 184 Z"/>
        <path id="path20" fill="#000000" stroke="none" d="M 231.600006 205.733337 C 226.933334 208.399994 224.399994 212.933334 224.399994 219.333344 C 224.266663 225.199997 226.266663 229.333328 229.199997 229.333328 C 232.800003 229.466675 234.266663 231.600006 232.800003 234.533325 C 231.199997 237.333328 227.333328 256.933319 227.333328 261.600006 C 227.333328 262.933319 228.266663 264 229.46666 264 C 230.933334 264 231.333328 263.333344 230.800003 261.733337 C 229.733337 259.066681 233.600006 239.333328 236.266663 234.266663 C 237.733337 231.333328 238.933334 230.533325 241.600006 230.933334 C 244.666672 231.333328 245.46666 232.266663 246.933334 238 C 247.866669 241.600006 248.933334 249.066666 249.46666 254.266663 C 250.133331 261.200012 250.933319 264 252.133331 264 C 253.200012 264 254 263.866669 254 263.600006 C 254 258.666656 250.666656 239.066666 249.066666 234.399994 C 247.066666 228.666672 247.066666 228.133331 249.066666 226.133331 C 252.399994 222.800003 253.200012 215.600006 250.799988 210.933334 C 247.600006 204.800003 238 202.266663 231.600006 205.733337 Z M 246.399994 210.399994 C 250.133331 213.600006 249.46666 221.866669 245.199997 225.199997 C 238.266663 230.666672 227.333328 227.466675 227.333328 220 C 227.333328 214.666656 229.733337 209.866669 233.199997 208.266663 C 236.666672 206.533325 243.199997 207.600006 246.399994 210.399994 Z"/>
        <path id="path21" fill="#000000" stroke="none" d="M 198.133331 229.066666 C 194.666672 231.866669 193.600006 234 193.066666 238.800003 C 192.266663 245.466675 194.266663 250.666672 197.46666 250.666672 C 199.46666 250.666672 199.46666 253.600006 197.199997 261.600006 C 196.800003 262.933319 197.199997 264 198 264 C 199.46666 264 199.866669 263.066681 201.199997 256.933319 C 202 253.733337 202.666672 253.333328 207.866669 253.333328 C 213.46666 253.333328 213.866669 253.600006 215.866669 258.666656 C 217.066666 261.600006 218.53334 264 219.333328 264 C 221.066666 264 221.066666 264.266663 218.53334 257.066681 C 216.666672 251.466675 216.666672 250.533325 218.53334 246.800003 C 222 240.133331 221.333328 235.066666 216.133331 229.866669 C 210.266663 224 204.399994 223.733337 198.133331 229.066666 Z M 213.600006 231.466675 C 218.800003 235.466675 219.333328 239.600006 215.199997 246.133331 C 212 251.333328 208.133331 251.866669 200.666672 248.266663 C 193.199997 244.666672 193.46666 235.333328 201.066666 230.666672 C 206.666672 227.199997 208.133331 227.333328 213.600006 231.466675 Z"/>
    </g>
</svg>
