<?xml version="1.0" encoding="UTF-8"?>
<!-- Generated by Pixelmator Pro 3.6.12 -->
<svg width="409" height="279" viewBox="0 0 409 279" xmlns="http://www.w3.org/2000/svg">
    <g id="g1">
        <path id="path2" fill="#000000" stroke="none" d="M 11 139.333328 L 11 268.666656 L 399 268.666656 L 399 11.333344 L 380.066681 11.600006 C 369.533325 11.733337 365.266663 12.133331 370.466675 12.266663 C 379.666656 12.799988 379.933319 12.799988 379.266663 16 C 379 17.866669 379.133331 21.466675 379.533325 24 C 380.466675 28.666656 380.466675 28.666656 387.666656 28.666656 C 391.666656 28.666656 395 28 395 27.333344 C 395 26.533325 392.066681 26 388.333344 26 C 384.733337 26 381.666656 25.333344 381.666656 24.666656 C 381.666656 23.866669 384.733337 23.333344 388.333344 23.333344 C 392.066681 23.333344 395 22.666656 395 22 C 395 21.200012 392.066681 20.666656 388.333344 20.666656 C 381.799988 20.666656 381.666656 20.533325 381.666656 16.666656 L 381.666656 12.666656 L 397.666656 12.666656 L 397.666656 267.600006 L 302.866669 267.200012 C 250.733337 266.933319 207.800003 266.266663 207.53334 265.866669 C 206.600006 264.266663 210.333328 262.399994 215.666672 261.733337 C 223.399994 260.666656 235 255.466675 235 252.933334 C 235 251.733337 234.066666 247.066666 232.866669 242.533325 L 230.866669 234.133331 L 236.199997 229.199997 C 242.46666 223.600006 242.866669 221.866669 238.600006 216.533325 C 230.733337 206.266663 229.666672 204.666656 229.666672 202.266663 C 229.666672 199.199997 225.666672 195.333344 222.600006 195.333344 C 219.266663 195.333344 219.800003 193.333344 223.800003 191.333344 C 225.666672 190.266663 227.800003 188.399994 228.46666 187.066666 C 230.733337 182.800003 232.066666 184.533325 233 192.666656 C 233.53334 197.066666 234.46666 201.066666 235.133331 201.466675 C 235.800003 201.866669 236.333328 203.333344 236.333328 204.800003 C 236.333328 213.733337 242.199997 200.133331 249.133331 175.333344 C 256.066681 150.53334 251.266663 134.666672 235.266663 129.866669 C 230.066666 128.399994 229.266663 128.399994 225.666672 131.066666 C 222.066666 133.733337 221.53334 133.866669 216.199997 132 C 209.666672 129.600006 197.800003 129.46666 188.066666 131.46666 C 171.800003 134.933334 162.866669 154.666672 167.666672 176.266663 C 169.666672 185.199997 170.733337 187.333344 175.133331 191.466675 L 180.333328 196.266663 L 177 198.533325 C 175.133331 199.733337 173.666672 202 173.666672 203.466675 C 173.666672 205.199997 169.800003 210.266663 164.333328 215.866669 C 156.46666 224 154.333328 225.466675 150.199997 225.733337 C 147.399994 226 144.733337 226.399994 144.066666 226.800003 C 143.53334 227.199997 142.600006 226.399994 142.199997 225.066666 L 136.199997 211.733337 C 131.800003 202.399994 131.133331 199.600006 131.399994 193.333344 C 131.666672 187.199997 131.133331 185.466675 129.133331 184 C 126.733337 182.133331 126.866669 181.866669 131.266663 176.933334 C 137 170.533325 139.666672 160.933334 138.733337 149.46666 C 137.933334 139.733337 135.133331 133.866669 128.733337 128 C 124.600006 124.266663 124.066666 122.933334 123.800003 116.53334 C 123.666672 110.133331 123.933334 109.333328 126.333328 109.333328 C 128.333328 109.333328 128.866669 110.133331 128.600006 112.266663 C 128.333328 113.866669 128.866669 115.46666 129.666672 116 C 130.46666 116.53334 131 115.46666 131 113.733337 C 131 112 131.666672 109.866669 132.46666 109.066666 C 133.53334 108 133.53334 107.333328 132.46666 106.800003 C 131.666672 106.266663 131 101.600006 131 95.866669 C 131 88 131.399994 86 133 86 C 134.733337 86 135 88.666672 135 102.133331 C 135 112.399994 135.53334 117.866669 136.333328 117.333328 C 137.133331 116.800003 137.666672 105.866669 137.666672 88.666672 L 137.666672 60.933334 L 154.733337 60 C 171.933334 58.933334 212.733337 59.866669 215 61.333328 C 215.800003 61.866669 216.333328 73.46666 216.333328 89.46666 C 216.333328 104.53334 216.733337 116.53334 217.399994 116.266663 C 217.933334 115.866669 218.199997 103.199997 218.066666 88.133331 C 217.800003 61.066666 217.800003 60.666672 220.600006 60.666672 C 223.266663 60.666672 223.399994 61.066666 222.600006 73.333328 C 222.199997 80.266663 222.333328 93.066666 222.733337 101.600006 C 223.666672 116.933334 223.666672 116.666672 224.333328 88.666672 C 224.866669 64.399994 225.266663 60 227 60 C 228.733337 60 228.866669 62.933334 228.46666 79.733337 C 228.199997 90.666672 228.600006 102.933334 229.133331 107.066666 C 230.066666 113.199997 230.46666 109.333328 231 87.46666 C 231.53334 67.333328 232.066666 60.133331 233.399994 59.600006 C 234.600006 59.199997 235 65.199997 235.266663 86.266663 C 235.399994 105.600006 235.666672 110.800003 236.333328 104.666672 C 236.866669 99.866669 237.399994 87.733337 237.53334 77.600006 L 237.666672 59.333328 L 244.333328 59.333328 C 251.799988 59.333328 251.666656 59.066666 249.399994 68.53334 C 247.933334 74.800003 248.066666 75.733337 250.866669 79.333328 C 253.133331 82.53334 253.399994 83.866669 252.333344 86 C 251.266663 87.866669 251.266663 89.46666 252.333344 91.333328 C 253.399994 93.199997 253.266663 94.666672 252.066681 96.53334 C 250.733337 98.666672 250.733337 100.133331 252.066681 103.866669 C 253.399994 107.333328 253.399994 109.199997 252.200012 111.733337 C 251.266663 114 251 118.133331 251.666656 123.866669 C 252.866669 135.733337 255.399994 135.46666 254.600006 123.600006 C 254.200012 117.600006 254.466675 113.46666 255.666656 111.333328 C 257.133331 108.53334 257.133331 107.46666 255.399994 104.53334 C 251.933319 98.666672 253.799988 96.666672 263 96.666672 C 267.399994 96.666672 271 96.133331 271 95.333328 C 271 94.53334 267.666656 94 263.666656 94 C 255.266663 94 253.933319 92.53334 256.066681 86 C 257.266663 82.53334 257.133331 81.600006 254.733337 79.333328 C 252.333344 77.066666 252.066681 75.866669 252.866669 69.199997 C 253.266663 65.066666 253.933319 61.199997 254.333344 60.800003 C 254.600006 60.266663 259.799988 59.866669 265.933319 60 L 277 60 L 278.066681 67.199997 C 278.866669 72.933334 278.600006 75.066666 276.866669 77.733337 C 275.133331 80.266663 275 81.733337 276.200012 84.266663 C 277.266663 86.53334 277.266663 88.133331 276.066681 90 C 274.866669 92 274.866669 93.199997 276.200012 95.733337 C 277.266663 97.733337 277.533325 100.666672 277 103.199997 C 276.466675 105.600006 276.733337 108.133331 277.399994 109.066666 C 279 111.066666 280.466675 122 279.133331 122 C 275.799988 122 264.333344 136.666672 264.333344 140.800003 C 264.333344 143.866669 270.200012 142.399994 286.333344 135.333328 C 293.933319 132.133331 308.600006 127.066666 309.133331 127.733337 C 309.533325 128 307.933319 131.333328 305.799988 135.066666 C 301 143.333328 293.666656 161.199997 293.666656 164.933334 C 293.666656 168.533325 295.266663 167.733337 306.333344 158.666656 C 315.533325 151.066666 325.799988 139.066666 326.733337 134.666672 C 327 133.600006 327.666656 132.666672 328.200012 132.666672 C 329.533325 132.666672 332.066681 153.199997 330.866669 153.733337 C 326.733337 155.46666 320.866669 160.800003 318.733337 164.666656 C 311.799988 177.600006 304.200012 195.733337 305.266663 196.800003 C 306.066681 197.600006 308.733337 196.399994 312.066681 194 L 318.333344 190 C 318.733337 190 320.600006 188.399994 322.333344 186.266663 C 324.066681 184.266663 325.933319 183.066666 326.466675 183.600006 C 326.866669 184.133331 326.333344 190.666656 325.133331 198.133331 C 323.533325 207.466675 323.266663 212.133331 324.200012 213.066666 C 325.933319 214.800003 326.600006 212.800003 327.533325 204 C 329.799988 182.266663 330.866669 177.600006 333.666656 174.800003 L 336.600006 172 L 333.133331 192.666656 C 330.866669 204.933334 330.466675 212.666656 332.066681 212.666656 C 334.066681 212.666656 341.666656 203.199997 345.933319 195.333344 C 348.333344 190.933334 350.733337 187.333344 351.266663 187.333344 C 351.666656 187.333344 351.799988 195.466675 351.399994 205.333344 C 350.866669 218.399994 351 223.333328 352.200012 223.333328 C 353 223.333328 353.666656 221.866669 353.666656 220 C 353.666656 217.333344 354.333344 216.666656 357 216.666656 C 359 216.666656 360.333344 215.866669 360.333344 214.666656 C 360.333344 213.466675 359.266663 212.800003 357.399994 213.066666 C 352.466675 213.600006 353.399994 208.266663 358.333344 207.199997 C 361.933319 206.399994 361.399994 206 356.066681 205.466675 C 355.133331 205.466675 354.333344 204.133331 354.333344 202.666656 C 354.333344 200.399994 355.133331 200.133331 358.866669 200.399994 C 362.066681 200.800003 363.133331 200.399994 362.733337 199.199997 C 362.466675 198.266663 360.733337 197.466675 358.866669 197.333344 C 355.399994 197.333344 355 196.933334 355 192 C 355 189.333344 355.666656 188.666656 358.466675 188.666656 C 360.333344 188.666656 361.533325 188.133331 361 187.333344 C 360.600006 186.533325 358.733337 186 356.866669 186 C 355.133331 186 353.666656 185.333344 353.666656 184.666656 C 353.666656 183.866669 355.133331 183.333344 357 183.333344 C 358.866669 183.333344 360.333344 182.666656 360.333344 182 C 360.333344 181.199997 358.866669 180.666656 357 180.666656 C 352.466675 180.666656 352.733337 177.199997 357.533325 174.800003 L 361.399994 172.800003 L 363 178.399994 C 363.933319 181.466675 364.866669 194.399994 365.266663 206.933334 C 365.666656 219.600006 366.466675 230 367.133331 230 C 367.799988 230 368.333344 221.466675 368.333344 210.933334 C 368.333344 192.133331 366.333344 176.133331 363.133331 170.266663 C 360.466675 165.333344 361.933319 164.800003 369 168 C 377 171.466675 388.600006 175.333344 391.266663 175.333344 C 393.666656 175.333344 393.399994 163.066666 391 162.266663 C 389.799988 161.866669 389.533325 163.199997 389.933319 167.199997 C 390.200012 170.133331 390.066681 172.666656 389.533325 172.666656 C 389 172.666656 388.333344 169.600006 388.066681 165.866669 C 387.666656 162.266663 386.600006 158.399994 385.666656 157.600006 C 384.333344 156.266663 384.200012 157.333328 384.866669 162.933334 C 385.533325 168.533325 385.399994 170 383.933319 170 C 382.733337 170 381.399994 167.199997 380.466675 162.666656 C 378.466675 153.600006 375.799988 152.666672 377.133331 161.466675 C 378.333344 170 374.866669 168.933334 373.133331 160.266663 C 371.533325 152.133331 369 152 370.200012 160.133331 C 370.866669 165.466675 370.733337 166.133331 369 164.666656 C 367.933319 163.733337 367 160.933334 367 158.533325 C 367 156 366.466675 154 365.666656 154 C 365 154 364.333344 155.733337 364.333344 157.866669 C 364.333344 161.199997 363.933319 161.600006 360.333344 161.466675 C 355.533325 161.333344 355.133331 158.666656 359 153.600006 C 360.866669 151.333328 362.466675 150.53334 364.333344 150.933334 C 365.933319 151.333328 367 150.933334 367 150 C 367 148.933334 368.200012 148.666672 370.600006 149.333328 C 375.533325 150.53334 388.066681 156.53334 389 158.133331 C 390.200012 160 392.333344 159.600006 392.333344 157.333328 C 392.333344 155.199997 374.200012 146 369.933319 146 C 368.333344 146 366.466675 143.866669 364.600006 139.866669 C 362.866669 136.399994 361.799988 133.46666 362.066681 133.199997 C 362.333344 132.933334 367.533325 133.46666 373.666656 134.53334 C 379.799988 135.600006 385.266663 136.266663 385.799988 136 C 386.200012 135.600006 386.333344 133.46666 385.799988 131.066666 C 384.600006 125.600006 377.399994 121.066666 360.333344 115.333328 C 353.399994 112.933334 347 110.133331 346.200012 109.199997 C 345.399994 108.133331 342.733337 106.933334 340.466675 106.53334 C 335.399994 105.46666 335.266663 101.600006 340.066681 100.933334 C 342.333344 100.53334 343.399994 101.199997 343.933319 103.199997 C 344.733337 106.53334 347 106.933334 347 103.866669 C 347 102.666672 347.799988 102 348.733337 102.399994 C 349.533325 102.666672 350.200012 104.266663 349.933319 105.733337 C 349.666656 107.333328 350.200012 108.666672 350.866669 108.666672 C 351.666656 108.666672 352.333344 107.066666 352.333344 105.199997 C 352.333344 99.866669 356.866669 101.600006 357.799988 107.333328 C 358.600006 112 360.600006 110.53334 359.933319 105.733337 C 359.799988 104.53334 360.333344 103.46666 361 103.333328 C 361.799988 103.333328 362.466675 105.333328 362.733337 108 C 363 110.53334 363.666656 112.666672 364.466675 112.666672 C 365.133331 112.666672 365.666656 101.733337 365.666656 86 L 365.666656 59.46666 L 374.066681 59.600006 C 390.466675 60 395 59.46666 395 57.199997 C 395 55.733337 394.333344 55.333328 392.866669 55.866669 C 391.533325 56.399994 359 56.666672 320.466675 56.53334 L 246.333328 56.399994 C 217.933334 56.53334 120.73333 58 97.666664 58.666672 C 81.133331 59.066666 65.933334 58.800003 63.666664 58.266663 C 60.066666 57.199997 59.666664 56.666672 59.666664 51.333328 L 59.666664 45.600006 L 188.333328 45.199997 C 259.133331 45.066666 332.600006 44.399994 351.666656 43.866669 L 390.733337 42.800003 C 393.266663 42.800003 394.866669 42.266663 394.600006 41.46666 C 394.200012 40.53334 389.266663 40.133331 379.933319 40.53334 L 365.666656 40.933334 L 365.666656 27.466675 C 365.666656 19.333344 365.133331 14 364.333344 14 C 363.666656 14 363 15.200012 363 16.799988 C 363 18.399994 362.333344 19.333344 361.399994 18.933319 C 360.466675 18.666656 359.666656 16.799988 359.666656 14.933319 C 359.799988 11.600006 359.266663 11.333344 354.733337 11.333344 C 350.200012 11.333344 349.666656 11.733337 349.666656 14.666656 C 349.666656 16.533325 349 18 348.200012 18 C 347.399994 18 347 16.666656 347.266663 14.933319 L 347.933319 11.733337 L 315.133331 10.933319 C 297.133331 10.399994 221.266663 10 146.733337 10 L 11 10 L 11 139.333328 Z M 69.666664 14.666656 C 69.666664 16.266663 70.199997 18 70.866669 18.666656 C 71.533333 19.466675 71.533333 23.466675 70.866669 28.533325 C 70.199997 33.333328 69.933334 38.266663 70.466667 39.600006 C 71.133331 41.733337 70.333336 42 65.133331 42 C 57 42 54.066666 46 55.799999 54.399994 C 57 59.733337 57.266666 60 63.400002 61.199997 C 69.800003 62.266663 69.933334 62.399994 69.26667 66.53334 L 67 76.266663 C 66.066666 79.46666 65.800003 82.933334 66.466667 84.266663 C 67 85.600006 67.666664 88.399994 67.800003 90.666672 L 69.666664 107.199997 L 64.866669 106.399994 C 60.73333 105.733337 59.666664 106.133331 56.866665 109.46666 C 55.133335 111.600006 53.799999 114 53.666668 114.933334 C 53.666668 117.733337 45.533333 119.199997 41.400002 117.199997 C 39.400002 116.133331 36.866665 115.333328 35.666668 115.333328 C 34.200001 115.333328 33.666668 114.399994 33.933334 112.266663 C 34.599998 107.333328 31.799999 108.133331 30.466667 113.333328 C 29.933334 115.866669 28.200001 118.666672 26.733334 119.46666 C 23.933332 120.933334 23.933332 121.333328 26.200001 111.199997 C 26.200001 110.666672 25.799999 110.133331 25 110 C 24.333334 110 23.133333 112.933334 22.333334 116.53334 C 21 123.066666 17.666666 128.933334 17.666666 124.53334 L 18.866667 118.399994 C 19.666666 115.733337 19.666666 113.733337 18.866667 113.199997 C 15.4 111.066666 25.799999 106 33.666668 106 C 37.799999 106 39.533333 106.933334 42.866665 110.666672 C 47.266666 115.733337 48.333332 116.266663 48.333332 113.46666 C 48.333332 109.866669 39.933334 103.46666 34.333332 102.53334 C 29.933334 102 27.533333 102.53334 22.333334 105.333328 C 15.266666 109.066666 11.933332 112.666672 15.666666 112.666672 C 17.133333 112.666672 17.533333 113.46666 17 115.600006 C 15.799999 120.399994 13.933332 133.333328 14.333334 133.733337 C 14.466667 134 17.266666 131.600006 20.333334 128.666672 C 27.400002 121.866669 35 117.866669 38.866665 118.933334 C 41.133335 119.46666 41.666668 120.399994 41.133335 122.53334 L 39.533333 128.933334 C 38.466667 133.46666 36.733334 133.733337 35 129.600006 C 33.799999 126.666672 33.666668 126.800003 33.133335 132.399994 C 32.866665 134 32.066666 136.133331 31.266666 136.933334 C 30.066666 138.133331 29.666668 137.46666 29.666668 134.266663 C 29.666668 128.666672 27 128.666672 26.866667 134.266663 C 26.6 141.600006 26.333334 142.399994 24.733334 142.933334 C 23.533333 143.333328 23 141.733337 23 137.333328 C 23 134 22.466667 131.46666 21.933332 131.866669 C 21.266666 132.266663 20.733334 136.53334 20.733334 141.333328 C 20.6 146.53334 19.933332 150.933334 19 151.866669 C 17.666666 153.066666 17.533333 151.600006 18.066668 144.933334 C 18.866667 134.53334 16.866667 133.866669 15.666666 144.266663 C 13.666666 163.866669 13.666666 164.133331 15.4 161.600006 C 21.4 152.266663 37 133.733337 37.933334 134.666672 C 38.333332 135.066666 37.799999 139.46666 36.866665 144.399994 C 35.533333 151.333328 33.266666 175.866669 33 185.199997 C 33 188.133331 36.066666 187.066666 37.666668 183.733337 C 39.400002 180.133331 39.533333 180.133331 40.066666 182.933334 C 40.333332 184.666656 39.266666 190.933334 37.799999 196.933334 C 34.066666 212.666656 33.133335 219.333344 34.866665 219.333344 C 35.666668 219.333344 36.599998 217.733337 37 215.733337 L 44.466667 179.199997 C 45.533333 174.666656 46.066666 174.399994 50.066666 174.666656 C 53.266666 174.933334 54.333332 175.600006 54.333332 177.466675 C 54.333332 179.466675 53.533333 179.866669 50.733334 179.600006 C 48.866665 179.333344 46.866665 179.866669 46.333332 180.533325 C 45.799999 181.466675 47 182 49.533333 182 C 53 182 53.666668 182.533325 53.666668 185.333344 C 53.666668 188.133331 53 188.666656 49.666668 188.666656 C 47.533333 188.666656 45.666668 189.199997 45.666668 190 C 45.666668 190.666656 47.533333 191.333344 49.799999 191.333344 C 53.266666 191.333344 53.799999 191.733337 53.400002 194.266663 C 53 196.933334 52.333332 197.199997 48.466667 196.933334 C 43 196.399994 43.266666 199.733337 48.866665 200.399994 C 51.666668 200.800003 52.466667 201.466675 52.066666 203.733337 C 51.666668 206.266663 51 206.533325 47 206.266663 C 41.666668 205.733337 42.866665 208.133331 48.333332 208.933334 C 50.200001 209.066666 51.666668 210.133331 51.666668 211.199997 C 51.666668 212.266663 52.333332 213.333344 53.133335 213.600006 C 54.866665 214.133331 55.400002 209.066666 58.333332 165.333344 C 60.866669 127.600006 60.333336 129.199997 68.199997 134.666672 L 73.533333 138.266663 L 71.666664 143.199997 C 66.599998 156.933334 68.333336 166.933334 77.933334 177.466675 C 81.666664 181.466675 85.400002 184.666656 86.466667 184.666656 C 89.933334 184.666656 88.333336 186.933334 84.466667 187.733337 C 80.199997 188.666656 78.73333 192.133331 79.933334 198.133331 C 80.466667 200.800003 79.400002 203.866669 75.800003 210 C 73.133331 214.399994 71 219.199997 71 220.399994 C 71 221.600006 73.400002 224.399994 76.333336 226.533325 C 80.73333 229.866669 81.26667 230.800003 80.199997 232.933334 C 78.333336 236.399994 81.133331 243.333328 84.199997 243.333328 C 85.533333 243.333328 87.533333 245.733337 89 248.933334 C 91.666664 254.666672 95.400002 258 97.133331 256.266663 C 97.666664 255.733337 96.866669 254 95.26667 252.266663 C 91.400002 248.133331 89.666664 243.066666 88.866669 232.133331 C 88.066666 222.933334 89.800003 204.133331 92.466667 193.333344 L 93.800003 188 L 119 188 L 120.333336 192 C 125.800003 208.933334 119.933334 254 112.333336 254 C 110.199997 254 109.800003 254.666672 110.466667 258.266663 L 111.800003 264.266663 C 112.066666 265.466675 110.599998 266 106.866669 266 C 101.533333 266 101.400002 266 101.666664 260.933319 L 101.666664 254.666672 C 101.26667 252.266663 99.133331 258.533325 99.133331 262.266663 L 99 266 L 12.333334 266 L 12.333334 139.600006 C 12.333334 70 12.6 12.799988 12.866667 12.533325 C 13.133333 12.266663 26.066668 12 41.533333 12 C 69 12 69.666664 12 69.666664 14.666656 Z M 98.866669 12.666656 C 99.133331 12.666656 98.333336 13.733337 97.133331 15.200012 C 95 17.466675 95 18.133331 97.666664 24.799988 C 99.133331 28.799988 100.333336 34.266663 100.333336 36.933334 L 100.333336 42 L 87.666664 42 C 72.599998 42 72.599998 42 74.73333 28.133331 C 76.066666 20.133331 75.933334 18.399994 74.333336 17.200012 C 73.26667 16.399994 72.333336 14.799988 72.333336 13.733337 C 72.333336 12.133331 74.466667 11.866669 85.400002 12.133331 L 98.866669 12.666656 Z M 117.26667 26.266663 C 117.400002 33.866669 117 40.800003 116.599998 41.600006 C 116.066666 42.399994 113 42.800003 108.73333 42.399994 C 102.066666 41.733337 101.933334 41.600006 103.26667 38.53334 C 104.466667 36 104.333336 34.266663 102.73333 30.933334 C 99.933334 24.933319 98.599998 18.399994 99.933334 16.399994 L 101.533333 12.266663 L 117 12.399994 L 117.26667 26.266663 Z M 123.53334 16.133331 C 123.53334 18.533325 122.866669 20 121.666664 20 C 119.800003 20 118.599998 15.866669 119.666664 12.933319 C 120.866669 9.733337 123.53334 12 123.53334 16.133331 Z M 129.666672 16.133331 C 129.666672 19.333344 129.133331 20.666656 128.066666 20.399994 C 124.866669 19.333344 125.133331 11.333344 128.333328 11.333344 C 129 11.333344 129.666672 13.466675 129.666672 16.133331 Z M 136.066666 16.399994 C 136.333328 19.600006 135.933334 20.666656 134.46666 20.666656 C 132.866669 20.666656 132.333328 19.333344 132.333328 15.866669 C 132.333328 9.866669 135.53334 10.266663 136.066666 16.399994 Z M 155.933334 14.399994 L 156.333328 30.133331 L 199 29.600006 L 199 21.333344 C 199 16.799988 199.266663 12.799988 199.53334 12.533325 C 199.800003 12.266663 204.199997 12.133331 209.266663 12.399994 L 218.333328 12.799988 L 217.53334 42 L 201.266663 42.133331 C 186.066666 42.399994 151.933334 42.266663 144.199997 42.133331 C 140.866669 42 140.733337 41.866669 139.53334 27.200012 L 138.600006 12.266663 L 147.399994 12.399994 C 152.866669 12.666656 155.933334 13.466675 155.933334 14.399994 Z M 175.133331 17.200012 C 175.53334 19.866669 175.666672 22.266663 175.266663 22.666656 C 174.866669 23.066681 171 23.333344 166.733337 23.333344 C 159.666672 23.333344 159 23.066681 159 20.266663 L 158.199997 14.533325 C 157.53334 11.866669 157.933334 11.733337 165.933334 12 L 174.333328 12.399994 L 175.133331 17.200012 Z M 196.866669 16.399994 L 195.800003 21.600006 L 178.46666 22.666656 L 177.53334 18 C 177 15.466675 176.733337 13.066681 177 12.666656 C 177.266663 12.266663 182.066666 11.866669 187.53334 11.733337 L 197.800003 11.600006 L 196.866669 16.399994 Z M 223 26.799988 C 223 37.199997 222.600006 42.133331 221.53334 41.733337 C 220.733337 41.46666 220.199997 40.800003 220.199997 40.266663 L 220.333328 25.333344 C 220.333328 16.933319 220.866669 11.333344 221.666672 11.333344 C 222.46666 11.333344 223 17.333344 223 26.799988 Z M 229.399994 26.933319 C 229.133331 36.266663 228.46666 42.666672 227.666672 42.666672 C 226.333328 42.666672 224.333328 13.066681 225.53334 11.866669 L 227.933334 11.333344 C 229.399994 11.333344 229.666672 14.533325 229.399994 26.933319 Z M 236.199997 26.666656 C 235.800003 39.733337 235.399994 42 233.666672 42 C 231.133331 42 230.866669 38.666672 231.933334 21.600006 C 232.46666 13.733337 233.133331 11.333344 234.600006 11.333344 C 236.199997 11.333344 236.46666 13.866669 236.199997 26.666656 Z M 251.799988 16.933319 C 252.733337 20.133331 252.600006 23.066681 251.266663 27.333344 C 250.333328 30.666672 249.800003 35.333328 250.199997 37.600006 L 250.866669 42 L 244.333328 42 C 238.066666 42 237.800003 41.866669 238.199997 38.266663 L 239 12.666656 L 244.733337 12.666656 C 250.066666 12.666656 250.600006 12.933319 251.799988 16.933319 Z M 274.466675 15.066681 C 272.466675 17.333344 272.466675 18 274.333344 22.399994 C 277.666656 30.399994 276.733337 42 272.866669 42 C 271.533325 42 271 40.266663 271 36.399994 C 271 33.333328 270.600006 31.333328 270.066681 31.866669 C 269.399994 32.399994 269 34.800003 269 37.066666 C 269 40 268.333344 41.46666 266.733337 41.733337 C 264.733337 42.133331 264.333344 41.199997 264.333344 37.199997 C 264.333344 31.46666 263.399994 31.600006 262.600006 37.333328 C 262.333344 39.600006 261.266663 41.46666 259.933319 41.733337 C 258.200012 42.133331 257.933319 41.333328 258.600006 37.46666 C 259.133331 34.266663 258.866669 32.666672 257.799988 32.666672 C 257 32.666672 256.333344 34.399994 256.333344 36.53334 C 256.333344 41.46666 254.200012 43.066666 253.266663 38.933334 C 252.333344 35.600006 253.799988 28.533325 256.333344 22.933319 C 257.799988 19.866669 258.866669 19.333344 263.266663 19.333344 C 266.466675 19.333344 268.200012 18.799988 267.666656 18 C 267.133331 17.200012 264.066681 16.799988 260.600006 16.933319 C 255.666656 17.200012 254.333344 16.933319 253.933319 14.933319 C 253.533325 12.933319 254.733337 12.666656 265.133331 12.666656 C 276.333344 12.666656 276.733337 12.799988 274.466675 15.066681 Z M 304.600006 18.666656 L 304.066681 24.666656 L 288.333344 24.666656 L 288.333344 19.333344 C 288.333344 16.399994 287.799988 14 287 14 C 286.200012 14 285.666656 17.866669 285.666656 22.799988 L 285.666656 31.733337 L 324.333344 30 L 324.333344 12.666656 L 345 12.666656 L 344.466675 41.333328 L 278.733337 42 L 279.533325 36.266663 C 280.066681 32.53334 279.666656 28.533325 278.333344 24.799988 C 277.266663 21.600006 276.733337 17.600006 277.133331 15.866669 C 277.933319 12.799988 278.333344 12.666656 291.533325 12.666656 L 305 12.666656 L 304.600006 18.666656 Z M 322.466675 18.266663 L 321.266663 24.133331 L 307 25.600006 L 307 12.666656 L 323.399994 12.666656 L 322.466675 18.266663 Z M 357 15.600006 C 356.733337 20 352.866669 20.266663 352.066681 16 C 351.533325 13.200012 351.933319 12.666656 354.333344 12.666656 C 356.466675 12.666656 357.133331 13.466675 357 15.600006 Z M 349.666656 31.46666 C 349.666656 37.600006 349.133331 42 348.333344 42 C 347.533325 42 347 37.333328 347 30.53334 C 347 23.333344 347.533325 19.466675 348.333344 20 C 349.133331 20.399994 349.666656 25.600006 349.666656 31.46666 Z M 357.399994 30.53334 C 357.666656 36.800003 357.266663 40.133331 356.066681 40.800003 C 353.133331 42.666672 352.333344 40.666672 352.333344 30.53334 C 352.333344 21.733337 352.600006 20.533325 354.733337 20.933319 C 356.600006 21.333344 357.133331 23.066681 357.399994 30.53334 Z M 363.533325 27.600006 C 364.866669 39.066666 364.600006 40.666672 361.666656 40.666672 C 359.266663 40.666672 359 39.733337 359 30.666672 C 359 23.066681 359.399994 20.666656 360.866669 20.666656 C 362.066681 20.666656 362.866669 23.066681 363.533325 27.600006 Z M 123.666672 32 C 123.666672 40.666672 123.399994 42 121.400002 42 C 119.400002 42 119 40.666672 119 32.933334 C 119 23.733337 119.533333 22 122.199997 22 C 123.133331 22 123.666672 25.600006 123.666672 32 Z M 131 33.46666 C 131 42.266663 130.733337 43.46666 128.733337 43.066666 C 126.866669 42.800003 126.199997 41.066666 125.933334 35.066666 C 125.53334 27.333344 127.399994 21.333344 129.800003 22.666656 C 130.46666 23.200012 131 28 131 33.46666 Z M 136.866669 26.933319 C 138.333328 36 137.800003 43.333328 135.800003 43.333328 C 134.333328 43.333328 133.800003 40.800003 133.399994 33.199997 C 133.133331 27.600006 133.266663 22.799988 133.53334 22.533325 C 135 21.066681 136.066666 22.399994 136.866669 26.933319 Z M 197.666672 25.866669 C 197.666672 26.399994 190.333328 26.933319 181.399994 27.200012 C 172.333328 27.333344 163.666672 27.733337 162.066666 28.133331 C 159.800003 28.799988 159 28.399994 159 26.799988 C 159 25.066681 161.666672 24.666656 177.399994 24.399994 C 196.199997 24 197.666672 24.133331 197.666672 25.866669 Z M 300.333344 27.200012 L 306.333344 28.266663 L 290.066681 28.799988 C 289.533325 28.799988 288.866669 28.266663 288.600006 27.466675 C 288.066681 25.733337 291.799988 25.733337 300.333344 27.200012 Z M 321.666656 27.333344 C 321.666656 28 320.200012 28.666656 318.333344 28.666656 C 316.466675 28.666656 315 28 315 27.333344 C 315 26.533325 316.466675 26 318.333344 26 C 320.200012 26 321.666656 26.533325 321.666656 27.333344 Z M 344.333344 60.53334 C 344.333344 62 339.533325 63.333328 334.066681 63.333328 L 329.666656 63.333328 L 329.666656 96.666672 L 337 96.666672 C 345.266663 96.666672 347 98.933334 339.399994 99.600006 C 336.600006 99.866669 334.200012 100.800003 334.200012 101.600006 L 333.799988 104.666672 C 333.799988 105.333328 332.733337 106 331.666656 106 C 330.600006 106 328.066681 108.399994 326.200012 111.333328 L 322.600006 116.800003 L 318.866669 112.399994 C 316.733337 109.866669 315.133331 106.399994 315 104.266663 L 315 100.53334 L 306.066681 100.933334 C 297.133331 101.333328 297 101.333328 297 104.933334 C 297.133331 107.066666 296.733337 108.666672 296.200012 108.666672 C 295.666656 108.666672 292.333344 110.800003 289 113.46666 C 285.533325 116 282.466675 117.866669 282.200012 117.600006 C 281.799988 117.333328 281.266663 112 281 105.866669 L 279.933319 87.333328 C 279.666656 83.333328 280.066681 79.199997 280.733337 78.266663 C 281.399994 77.333328 281.666656 72.800003 281.399994 68 L 280.600006 59.333328 L 312.466675 59.333328 C 330.066681 59.333328 344.333344 59.866669 344.333344 60.53334 Z M 350.333344 68.266663 C 349.799988 73.333328 349.399994 82.666672 349.533325 89.199997 C 349.799988 98.399994 349.533325 100.800003 348.066681 100.399994 C 347.133331 100 346.333344 97.866669 346.466675 95.600006 L 346.733337 75.333328 C 347 61.600006 347.266663 59.333328 349.133331 59.333328 C 351 59.333328 351.133331 60.53334 350.333344 68.266663 Z M 356.600006 63.600006 C 357.933319 72.399994 357.133331 78.666672 354.733337 79.066666 C 352.600006 79.46666 352.333344 78.399994 352.333344 70.266663 C 352.333344 65.199997 352.733337 60.666672 353.266663 60.266663 C 355 58.399994 356.066681 59.46666 356.600006 63.600006 Z M 363.133331 68.666672 C 362.733337 78 362.200012 79.733337 360.200012 78.666672 C 359.533325 78.133331 359 73.600006 359 68.53334 C 359 60.266663 359.266663 59.199997 361.399994 59.600006 C 363.266663 60 363.533325 61.333328 363.133331 68.666672 Z M 92.866669 62 C 98.199997 62 98.466667 62.266663 98.73333 66.133331 L 100.199997 75.600006 C 101.533333 81.199997 100.73333 86 98.73333 86 C 98.066666 86 97.800003 87.199997 98.333336 88.666672 C 98.866669 90.133331 98.333336 92.53334 97.133331 94.133331 C 95.666664 96.266663 95.533333 97.600006 96.599998 99.333328 C 97.800003 101.199997 97.666664 102.266663 96.066666 103.866669 C 94.466667 105.333328 94.199997 107.066666 94.866669 109.600006 C 96.199997 114.53334 99 115.199997 99.133331 110.399994 C 99.133331 103.733337 99.933334 97.066666 100.866669 95.600006 L 103.666664 82.666672 C 104.199997 80.399994 103.666664 75.333328 102.599998 71.333328 C 101.533333 67.333328 100.866669 63.333328 101.133331 62.666672 C 101.533333 61.866669 104.866669 61.333328 108.73333 61.333328 L 115.666664 61.333328 L 115.26667 84 C 115 97.46666 115.400002 108 116.199997 110 L 117.533333 113.333328 L 117.533333 110.266663 C 117.666664 105.46666 120.866669 107.46666 121.400002 112.53334 C 121.800003 116.53334 121.666664 116.800003 118.73333 115.733337 C 112.866669 113.600006 102.066666 115.066666 92.866669 119.333328 C 82.466667 124 80.866669 123.333328 81.666664 114.266663 C 81.800003 111.199997 79.666664 110.133331 78.73333 112.933334 C 77.933334 115.199997 75 112.933334 75 110.133331 C 75 108.933334 74.199997 106.666672 73.133331 105.199997 C 71.400002 103.066666 71.533333 102.399994 73.26667 100.399994 C 75.133331 98.266663 75.133331 98 73.133331 97.199997 C 70.599998 96.266663 70.333336 91.199997 72.73333 88.800003 C 74.066666 87.46666 73.933334 86.933334 72.066666 85.866669 C 69.26667 84.266663 69 78.800003 71.533333 69.333328 C 73.133331 63.066666 73.533333 62.666672 78.466667 61.866669 L 92.866669 62 Z M 121.933334 72.133331 C 121.533333 83.333328 121.26667 84.133331 119.133331 82.666672 C 117.533333 81.733337 117.133331 63.066666 118.599998 61.46666 C 121.26667 58.933334 122.333336 62.266663 121.933334 72.133331 Z M 128.866669 62.800003 C 129.266663 64 129.666672 69.066666 129.666672 74.133331 C 129.666672 82.266663 129.399994 83.333328 127.133331 83.333328 C 123.933334 83.333328 123.53334 81.600006 124.066666 69.866669 C 124.46666 63.333328 125.133331 60.666672 126.333328 60.666672 C 127.266663 60.666672 128.46666 61.600006 128.866669 62.800003 Z M 135 72.666672 C 135 82.666672 134.733337 84.399994 133 83.866669 C 131.399994 83.199997 131 80.666672 131 72.800003 C 131 67.066666 131.399994 62 131.933334 61.600006 C 134.333328 59.199997 135 61.600006 135 72.666672 Z M 344.333344 66.666672 C 344.333344 68.800003 341.666656 69.199997 336.333344 67.733337 L 333 66.800003 L 337 65.866669 C 343.399994 64.399994 344.333344 64.53334 344.333344 66.666672 Z M 335 79.866669 C 335 86.133331 334.466675 91.600006 333.666656 92 C 332.866669 92.53334 332.333344 88.399994 332.333344 80.800003 C 332.333344 73.600006 332.866669 68.666672 333.666656 68.666672 C 334.466675 68.666672 335 73.333328 335 79.866669 Z M 344.333344 79.333328 L 344.333344 88.666672 L 335.933319 88.666672 L 337.666656 73.866669 C 337.666656 71.866669 339.266663 70.800003 343.399994 70.133331 C 343.933319 70.133331 344.333344 74.133331 344.333344 79.333328 Z M 357.666656 90.666672 C 357.666656 99.733337 357.399994 100.666672 355 100.666672 C 352.600006 100.666672 352.333344 99.733337 352.333344 90.666672 C 352.333344 81.600006 352.600006 80.666672 355 80.666672 C 357.399994 80.666672 357.666656 81.600006 357.666656 90.666672 Z M 363.666656 83.733337 C 365 88.933334 363.533325 100 361.533325 100 C 360.200012 100 359.533325 97.46666 359.266663 90.266663 C 359 82.399994 359.266663 80.666672 360.866669 80.666672 C 362.066681 80.666672 363.266663 82 363.666656 83.733337 Z M 121.666664 95.333328 C 121.666664 103.866669 121.26667 106 119.666664 106 C 118.066666 106 117.666664 103.866669 117.666664 95.333328 C 117.666664 86.800003 118.066666 84.666672 119.666664 84.666672 C 121.26667 84.666672 121.666664 86.800003 121.666664 95.333328 Z M 128.600006 87.600006 C 129 88.53334 129.399994 92.666672 129.53334 96.800003 C 129.800003 104.266663 127.53334 108.666672 124.333328 106.666672 C 122.866669 105.733337 122.466667 91.600006 123.800003 88.133331 C 124.733337 85.600006 127.800003 85.333328 128.600006 87.600006 Z M 344.333344 92.53334 C 344.333344 93.333328 343.799988 94.133331 343 94.666672 C 341.266663 95.733337 334.866669 94 335.799988 92.53334 C 336.733337 90.933334 344.333344 90.933334 344.333344 92.53334 Z M 312.066681 105.199997 C 312.466675 106.933334 311.266663 107.333328 305.799988 107.333328 C 301 107.333328 299 106.800003 299 105.600006 C 299 102.666672 300.200012 102.266663 306.066681 102.666672 C 309.933319 102.933334 311.799988 103.733337 312.066681 105.199997 Z M 69.933334 112.133331 C 72.599998 114.133331 76.466667 117.600006 78.333336 120 L 81.666664 124.399994 L 78.199997 129.733337 C 75.133331 134.266663 74.333336 134.933334 72.333336 133.733337 C 70.333336 132.399994 70.066666 130.933334 70.599998 124.399994 C 71.133331 119.333328 70.866669 116.666672 69.933334 116.666672 C 69.133331 116.666672 68.333336 119.46666 68.066666 122.933334 C 67.533333 131.066666 65.26667 131.199997 64.199997 123.333328 C 63.666664 118.933334 63.400002 118.399994 63.133331 121.333328 C 63 125.46666 60.333336 131.066666 60.333336 127.600006 C 60.333336 126.53334 59.400002 123.733337 58.200001 121.333328 C 56.333332 117.333328 56.333332 116.53334 58.333332 112.800003 C 60.866669 107.733337 63.400002 107.600006 69.933334 112.133331 Z M 345 112.666672 C 347.799988 115.600006 348.466675 117.066666 347.399994 118.133331 C 346.333344 119.199997 346.466675 121.46666 347.666656 126.133331 C 349.133331 131.46666 349.133331 132.666672 347.666656 132.666672 C 346.733337 132.666672 345 129.066666 343.799988 124.666672 C 341.133331 115.333328 339 114.133331 339.799988 122.266663 L 340.466675 128 L 335.799988 117.600006 C 335.399994 116.399994 334.466675 115.333328 333.666656 115.333328 C 332.733337 115.333328 332.466675 116.399994 333 118.133331 C 333.666656 120.133331 333.399994 120.800003 332.200012 120.399994 C 329 119.333328 327.666656 115.733337 329.399994 112.133331 C 331.666656 106.933334 339.799988 107.199997 345 112.666672 Z M 315 112.399994 L 317.933319 114.800003 L 313.533325 119.733337 C 307.933319 126 304.600006 126.53334 307.799988 120.53334 C 309.266663 117.600006 309.533325 116 308.466675 114.933334 C 307.533325 114 306.866669 114.266663 306.200012 116.133331 C 303.266663 124.53334 301.533325 127.333328 299.799988 127.333328 C 297.133331 127.333328 297.133331 126.933334 300.466675 120.53334 C 303.266663 114.800003 302.733337 111.600006 299.666656 115.866669 C 298.600006 117.199997 296.733337 120.933334 295.399994 124.133331 C 293.266663 129.333328 290.200012 132.399994 288.733337 130.800003 C 288.466675 130.53334 289.399994 127.866669 290.866669 124.933334 C 292.733337 121.333328 293.133331 119.199997 292.200012 118.666672 C 290.600006 117.600006 291 116.933334 287 125.733337 C 283.933319 132.666672 280.866669 136.399994 279.533325 135.066666 C 279.266663 134.666672 280.200012 132.133331 281.666656 129.46666 C 283.266663 126.933334 284.333344 124 284.066681 123.066666 C 283.399994 121.066666 292.600006 113.733337 298.333344 111.600006 C 304.600006 109.46666 311.666656 109.733337 315 112.399994 Z M 361.666656 118.666672 C 368.866669 120.53334 373.666656 123.333328 373.666656 125.600006 L 374.466675 129.199997 C 375 130.666672 374.600006 131.333328 373.133331 131.333328 C 371.799988 131.333328 370.200012 129.600006 369.533325 127.333328 C 368.733337 125.066666 367.266663 123.333328 366.200012 123.333328 C 364.733337 123.333328 364.600006 123.866669 365.666656 125.866669 C 367.533325 129.333328 367.399994 130 365 130 C 363.799988 130 361.799988 128.266663 360.600006 126 C 359.399994 123.866669 357.533325 122 356.466675 122 C 354.600006 122 351.133331 118.266663 351 116.133331 C 351 115.600006 352.066681 115.46666 353.399994 116 L 361.666656 118.666672 Z M 327.266663 120 C 327.666656 120.399994 327.399994 123.199997 326.600006 126.133331 C 325.799988 129.600006 324.866669 130.933334 324.333344 129.866669 C 323.666656 128.933334 323.533325 127.46666 323.933319 126.53334 C 324.200012 125.733337 323.933319 124.53334 323.133331 124.133331 C 322.333344 123.600006 321.533325 126.933334 320.866669 132.666672 C 320.466675 137.733337 319.399994 142 318.600006 142 C 317.799988 142 317.533325 139.066666 318.066681 134 C 318.600006 129.600006 318.466675 126 317.799988 126 C 316.466675 126 315 133.866669 315 141.600006 C 315 144.666672 314.333344 147.600006 313.533325 148.133331 C 312.333344 148.800003 312.200012 146.800003 312.866669 140.53334 C 313.533325 135.066666 313.399994 132.53334 312.600006 133.333328 C 311.799988 134 310.866669 138.53334 310.466675 143.199997 C 309.933319 148 309.266663 152.266663 308.866669 152.933334 C 307.799988 154.666672 305.266663 154.133331 306.066681 152.266663 C 307.933319 147.066666 308.333344 144.666672 307.266663 144.666672 C 306.600006 144.666672 305.266663 147.46666 304.333344 150.933334 C 303.399994 154.53334 302.066681 158.133331 301.266663 158.933334 C 298.733337 162.399994 298.066681 160.533325 299.933319 154.933334 C 301.933319 149.066666 314.333344 123.866669 316.600006 120.933334 C 317.933319 119.333328 325.933319 118.666672 327.266663 120 Z M 56.466667 123.600006 C 58.466667 127.333328 58.466667 139.066666 56.599998 140.933334 C 55.533333 142 54.866665 140.800003 54.200001 136.933334 C 53.666668 133.866669 52.733334 131.333328 51.933334 131.333328 C 51.266666 131.333328 51 133.066666 51.533333 135.600006 C 53.666668 146.266663 53.933334 150 52.599998 150 C 51.133335 150 49.666668 145.600006 49.666668 140.399994 C 49.666668 138.399994 49.133335 136.399994 48.333332 136 C 46.200001 134.666672 46.733334 146.133331 49 150.53334 C 51.133335 154.53334 50.866665 158 48.466667 158 C 47.799999 158 46.866665 154.399994 46.333332 150 C 45.799999 145.600006 44.733334 141.600006 44.066666 141.199997 C 42.733334 140.266663 43 144.800003 45.133335 160.133331 C 45.666668 163.600006 45.400002 166 44.466667 166.533325 C 43.533333 167.199997 43 165.466675 43 161.466675 C 43 157.866669 42.333332 155.333328 41.533333 155.333328 C 40.466667 155.333328 40.200001 158 40.599998 163.600006 C 41.133335 169.733337 40.733334 173.066666 39.133335 176 L 37 180 L 36.599998 174.800003 C 36.200001 169.733337 36.866665 163.333344 40.866665 138.53334 C 42.866665 125.333328 45.533333 120.666672 51 120.666672 C 53.666668 120.666672 55.400002 121.600006 56.466667 123.600006 Z M 355.533325 132.266663 C 356.600006 136.133331 357 139.600006 356.466675 140 C 354.733337 140.933334 352.733337 137.866669 351.933319 132.666672 L 350.200012 124.666672 C 348.333344 117.866669 353.399994 125.066666 355.533325 132.266663 Z M 333 125.46666 C 333.133331 126.133331 333.799988 128 334.866669 129.733337 C 337.399994 134.399994 335.933319 136.266663 332.600006 132.666672 C 329.399994 129.199997 328.466675 122.666672 331.399994 123.600006 C 332.200012 124 333 124.800003 333 125.46666 Z M 277.666656 131.066666 C 275 136 270.600006 139.333328 268.733337 137.600006 C 268.466675 137.199997 270.600006 134.133331 273.799988 130.800003 C 276.866669 127.333328 279.666656 124.800003 279.933319 125.199997 C 280.200012 125.46666 279.133331 128.133331 277.666656 131.066666 Z M 379.533325 126.800003 C 381.533325 127.600006 382.600006 132.666672 380.866669 132.666672 C 379.799988 132.666672 376.466675 128.399994 376.333344 126.933334 C 376.333344 125.733337 376.866669 125.733337 379.533325 126.800003 Z M 129.933334 134.133331 C 134.733337 140 136.733337 150.933334 135 161.466675 C 132.866669 174.533325 119.666664 185.866669 106.599998 186 C 92.73333 186 80.066666 178.399994 74.73333 166.933334 C 71.533333 160.266663 71.666664 160.133331 76.73333 157.733337 C 79 156.666672 84.066666 152.933334 87.800003 149.600006 C 94.866669 143.199997 96.866669 142.800003 95.533333 148.133331 C 94.466667 152.399994 97.400002 152.266663 99 148 C 99.800003 146 101.26667 144.666672 103 144.666672 C 106.066666 144.666672 106.599998 142.666672 103.666664 141.46666 C 101.933334 140.800003 102.066666 140.133331 104.599998 137.333328 C 108.066666 133.333328 109.133331 133.199997 110.066666 136.666672 C 110.466667 138.133331 111.400002 139.333328 112.066666 139.333328 C 113.666664 139.333328 121.666664 131.333328 121.666664 129.600006 C 121.666664 127.066666 126.199997 129.600006 129.933334 134.133331 Z M 242.333328 137.733337 C 249.933334 144.666672 251 150.266663 247.933334 166.666656 C 245.800003 177.733337 239.133331 199.333344 237.800003 199.333344 C 237.266663 199.333344 236.066666 194.800003 235.133331 189.333344 C 233.800003 181.466675 233.800003 178.266663 235 174.533325 C 237 168.800003 237.399994 154.53334 235.933334 150.266663 C 235.133331 148.133331 235.266663 147.333328 236.733337 147.333328 C 239.133331 147.333328 240.333328 150.133331 240.333328 156.133331 C 240.333328 159.466675 240.866669 160.666656 242.46666 160.666656 C 244.199997 160.666656 244.46666 159.733337 243.933334 156.266663 C 242.600006 148.53334 240.600006 144.800003 237 143.866669 C 234.066666 143.066666 225.666672 136.266663 225.666672 134.53334 C 225.666672 134.133331 227 133.46666 228.600006 132.800003 C 232.46666 131.333328 237.266663 133.066666 242.333328 137.733337 Z M 343 132.53334 C 343 133.199997 346.600006 136.666672 351 140.266663 C 355.399994 143.733337 359 147.066666 359 147.600006 C 359 149.733337 352.466675 155.333328 349.933319 155.333328 C 346.200012 155.333328 342.866669 154 343.666656 152.666672 C 344.200012 151.866669 342.066681 141.733337 339.533325 133.600006 C 339 132.133331 339.533325 131.333328 340.866669 131.333328 C 342.066681 131.333328 343 131.866669 343 132.53334 Z M 215.399994 135.46666 C 228.733337 139.866669 233.666672 146.133331 233.666672 158.533325 C 233.666672 162.533325 233.133331 166.133331 232.600006 166.533325 C 231.266663 167.333344 215.800003 155.46666 209.399994 148.53334 C 206.333328 145.199997 204.333328 141.733337 204.333328 139.733337 C 204.333328 135.733337 201.133331 136.266663 200.600006 140.399994 C 200.333328 142 199.399994 143.333328 198.46666 143.333328 C 196.600006 143.333328 192.066666 134.666672 193.266663 133.46666 C 195.133331 131.733337 207.53334 132.800003 215.399994 135.46666 Z M 192.333328 141.46666 C 195.266663 146.800003 196.066666 147.46666 199.133331 146.800003 C 201.53334 146.399994 203.399994 146.933334 204.866669 148.53334 C 207.800003 151.733337 207.666672 152 202.733337 152 C 200.46666 152 198.333328 152.800003 197.933334 153.733337 C 197.53334 154.933334 198.333328 155.199997 200.866669 154.53334 C 202.866669 154.133331 205.133331 154.399994 206.333328 155.333328 C 207.399994 156.133331 208.866669 156.53334 209.666672 156 C 210.333328 155.600006 213.53334 157.199997 216.733337 159.733337 L 233.399994 171.466675 L 230.199997 177.866669 C 226.733337 185.199997 218.066666 193.199997 211.399994 195.466675 C 208.866669 196.266663 202.46666 196.666656 197.133331 196.399994 C 186.066666 195.866669 178.199997 191.866669 173.666672 184.399994 C 170.333328 178.933334 169 167.466675 170.46666 158.133331 L 171.666672 150.666672 L 177.399994 150.800003 C 184.066666 150.933334 184.46666 148.399994 177.933334 147.333328 L 173.666672 146.666672 L 176.199997 142.800003 C 179 138.666672 183.666672 135.46666 187 135.333328 C 188.199997 135.333328 190.600006 138.133331 192.333328 141.46666 Z M 339.933319 145.333328 C 340.733337 149.733337 341.399994 153.46666 341.133331 153.600006 C 341 153.733337 339.533325 153.600006 337.933319 153.066666 C 335 152.399994 333.799988 150 336.333344 150 C 337.133331 150 337.666656 149.333328 337.666656 148.666672 C 337.666656 147.866669 336.733337 147.333328 335.666656 147.333328 C 333 147.333328 333.133331 146 336.066681 143.866669 C 338.200012 142.133331 338.200012 142.133331 336.066681 142 C 334.600006 142 333.666656 140.933334 333.666656 139.199997 C 333.666656 137.333328 334.333344 136.666672 336.066681 136.933334 C 337.666656 137.199997 338.733337 139.600006 339.933319 145.333328 Z M 363 144.399994 C 363 145.333328 362.466675 145.733337 361.666656 145.333328 C 361 144.933334 360.333344 143.199997 360.333344 141.600006 C 360.333344 139.199997 360.600006 139.066666 361.666656 140.666672 C 362.333344 141.733337 363 143.46666 363 144.399994 Z M 56.066666 157.600006 C 55.799999 161.600006 55.133335 162.800003 52.733334 163.066666 C 49.799999 163.466675 49.799999 163.466675 52.066666 158.133331 C 54.866665 151.333328 56.599998 151.199997 56.066666 157.600006 Z M 341.399994 156.133331 C 345 157.199997 345.266663 159.333344 341.666656 160.266663 C 340.200012 160.666656 338.466675 162.933334 337.666656 165.466675 C 335.933319 170.533325 333.399994 171.600006 333.933319 166.933334 C 334.733337 160.666656 331.799988 162.933334 329.933319 170 C 328.333344 176.933334 323.933319 183.466675 322.333344 181.733337 C 321.933319 181.333344 323.133331 176.933334 325.133331 172.133331 C 327 167.199997 328.333344 162.800003 327.799988 162.399994 C 327.399994 161.866669 326.733337 161.866669 326.333344 162.266663 C 325.399994 163.199997 318.866669 180.399994 318.066681 184.266663 C 317.399994 187.199997 311.399994 192.133331 310.066681 190.933334 C 309.799988 190.533325 312.866669 183.600006 317 175.466675 C 323.266663 163.199997 325.266663 160.399994 329.399994 158.266663 C 334.866669 155.333328 337 155.066666 341.399994 156.133331 Z M 353.399994 161.600006 C 353.133331 163.866669 352.200012 165.333344 351 165.333344 C 349.399994 165.333344 349 167.333344 349 174.933334 C 349 184.666656 347.666656 188.800003 346.466675 183.199997 C 346.066681 181.466675 345.799988 178.133331 346.066681 176 C 346.200012 173.733337 345.799988 171.866669 345.133331 171.600006 C 343 170.800003 340.333344 181.066666 340.333344 190.666656 C 340.333344 197.733337 339.666656 200.800003 337.666656 203.333344 C 336.333344 205.199997 334.866669 206.266663 334.466675 205.866669 C 334.066681 205.466675 334.600006 200.666656 335.533325 195.199997 C 338.333344 180.133331 341.666656 164.133331 342.066681 164 L 347 160.933334 C 353.133331 157.199997 353.933319 157.199997 353.399994 161.600006 Z M 54.733334 168.666656 C 54.466667 170.266663 53.933334 171.466675 53.400002 171.333344 L 49.133335 171.333344 C 46.599998 171.333344 46.066666 170.800003 46.599998 168.666656 C 47.133335 166.800003 48.466667 166 51.266666 166 C 54.466667 166 55.133335 166.533325 54.733334 168.666656 Z M 359 169.333344 C 359 170.399994 358.466675 171.600006 357.666656 172 C 356.866669 172.533325 356.333344 171.333344 356.333344 169.333344 C 356.333344 167.333344 356.866669 166.133331 357.666656 166.666656 C 358.466675 167.066666 359 168.266663 359 169.333344 Z M 353.266663 170.266663 C 352.866669 171.333344 352.466675 170.933334 352.466675 169.466675 C 352.333344 168 352.733337 167.199997 353.133331 167.733337 C 353.533325 168.133331 353.666656 169.333344 353.266663 170.266663 Z M 128.066666 189.600006 C 128.333328 191.199997 127.800003 193.866669 126.866669 195.600006 C 125.399994 198.399994 125.133331 198.266663 123.53334 192.666656 L 121.666664 186.266663 C 121.666664 186 123 186 124.733337 186.266663 C 126.600006 186.533325 127.800003 187.733337 128.066666 189.600006 Z M 345.133331 192.133331 C 343.933319 195.466675 341.933319 193.066666 342.733337 189.199997 C 343.266663 186.133331 343.533325 186 344.600006 187.866669 C 345.266663 189.199997 345.533325 191.066666 345.133331 192.133331 Z M 88.73333 195.066666 C 87.800003 201.199997 87.533333 201.466675 85 199.333344 C 82.333336 197.066666 82.466667 191.733337 85.26667 190.133331 C 88.73333 188.266663 89.533333 189.466675 88.73333 195.066666 Z M 183 203.866669 C 181.266663 209.333344 179.800003 209.866669 177.666672 205.866669 C 175.933334 202.800003 176.199997 202.266663 180.600006 200 C 184.600006 198 184.866669 198.266663 183 203.866669 Z M 221.53334 214.933334 L 231 248.399994 C 232.066666 252.800003 232.066666 252.933334 226.066666 255.600006 C 212.600006 261.600006 192.066666 261.466675 178.46666 255.600006 C 173.933334 253.600006 172.600006 252.266663 173.133331 250.399994 C 174.733337 243.733337 177.933334 231.733337 182.46666 216.266663 L 187.53334 199.333344 L 196.866669 200.133331 C 202.333328 200.533325 207.800003 200.266663 209.666672 199.600006 C 211.53334 198.800003 213.666672 198.133331 214.600006 198.133331 C 215.399994 198 218.46666 205.600006 221.53334 214.933334 Z M 225.399994 199.600006 C 227.666672 201.866669 227.399994 205.333344 225 207.333344 C 222.46666 209.466675 222.066666 209.199997 221 202.933334 C 219.933334 197.733337 221.933334 196.133331 225.399994 199.600006 Z M 133 212.266663 C 137.399994 221.333344 139.266663 226.933334 139.133331 230.399994 C 138.866669 239.466675 143.800003 243.866669 149.53334 239.733337 C 151.133331 238.666672 152.866669 238.133331 153.666672 238.666672 C 155.666672 239.866669 159.399994 233.066666 158.46666 229.600006 C 157.933334 227.066666 159.266663 224.933334 166.066666 218.266663 C 172.866669 211.733337 175.133331 210.266663 177.53334 210.933334 C 181 211.866669 181 211.466675 175.666672 228.666672 C 173.666672 234.933334 171.399994 243.199997 170.600006 247.066666 C 169 255.333328 170.066666 256.666656 181.266663 260 C 185 261.200012 188.46666 262.933319 188.866669 264 C 189.53334 265.733337 184.46666 266 153 266 L 115.400002 266.266663 C 113 267.333344 114.066666 259.600006 117 255.066666 C 122.199997 247.333328 124.46666 236.533325 125 217.333344 L 125.666672 199.600006 C 125.800003 198 127.666672 201.199997 133 212.266663 Z M 85.800003 215.466675 C 85.400002 226.800003 84.73333 229.866669 83.133331 227.733337 C 82.73333 227.066666 80.73333 225.600006 78.73333 224.266663 C 74.066666 221.333344 74.066666 219.600006 79.133331 210.533325 C 84.866669 200.533325 86.466667 201.600006 85.800003 215.466675 Z M 234.199997 216.266663 L 237.933334 221.733337 L 234.866669 225.866669 C 233.133331 228.133331 231.266663 229.866669 230.600006 229.600006 C 229.933334 229.466675 228.199997 225.466675 226.733337 220.800003 C 224.600006 213.866669 224.46666 212.133331 225.933334 211.199997 C 228.600006 209.466675 229.933334 210.399994 234.199997 216.266663 Z M 148.333328 233.199997 C 148.333328 237.199997 146.199997 238.800003 143.666672 236.666672 C 141 234.399994 141.133331 231.600006 144.066666 230.933334 C 148.066666 229.866669 148.333328 230 148.333328 233.199997 Z M 156.333328 231.866669 C 156.333328 232.800003 155.399994 234.399994 154.333328 235.333328 C 152.733337 236.666672 152.333328 236.533325 152.333328 234.399994 C 152.333328 232.933334 152.733337 231.333328 153.266663 230.933334 C 154.733337 229.333328 156.333328 229.866669 156.333328 231.866669 Z M 85.666664 236.133331 C 85.666664 238.933334 85.133331 240.533325 84.333336 240 C 82.066666 238.666672 82.866669 231.333328 85.26667 231.333328 C 85.533333 231.333328 85.666664 233.466675 85.666664 236.133331 Z M 205 264.666656 C 205.53334 265.466675 203 266 198.333328 266 C 193.666672 266 191.133331 265.466675 191.666672 264.666656 C 192.066666 263.866669 195.133331 263.333344 198.333328 263.333344 C 201.53334 263.333344 204.600006 263.866669 205 264.666656 Z"/>
        <path id="path5" fill="#000000" stroke="none" d="M 43.799999 223.199997 C 43.400002 223.866669 43.400002 225.333328 43.799999 226.533325 C 44.333332 228 43 230.266663 39.666668 233.199997 C 36.733334 236 35.400002 238 36.200001 238.666672 C 37 239.066666 37.666668 239.199997 37.666668 238.800003 C 37.666668 238.533325 39.133335 239.466675 40.866665 241.066666 C 42.599998 242.666672 43.799999 244.666672 43.400002 245.600006 C 42.466667 248.133331 35 247.866669 35 245.333328 C 35 244.266663 34.466667 243.333328 33.666668 243.333328 C 33 243.333328 32.333332 244.399994 32.333332 245.733337 C 32.333332 248.800003 29.799999 251.333328 26.733334 251.333328 C 23.533333 251.333328 23.533333 245.333328 26.6 244.133331 C 28.599998 243.333328 28.599998 243.066666 27 242 C 25.933332 241.199997 23.666666 240.666672 22.066668 240.666672 C 19 240.666672 18.333334 238.800003 19.799999 234.800003 C 20.866667 232.133331 24.866667 232 27 234.666672 C 29.666668 237.866669 30.866665 237.066666 31.266666 231.600006 C 31.666668 227.066666 31.933334 226.666672 35.400002 227.066666 C 37.799999 227.333328 38.866665 226.933334 38.333332 226.133331 C 37.933334 225.333328 35.799999 224.666672 33.533333 224.666672 C 29.933334 224.666672 29.133335 225.733337 29.533333 229.600006 C 29.799999 231.733337 27.400002 233.066666 26.333334 231.333328 C 25.133333 229.466675 21 229.600006 19.266666 231.733337 C 18.466667 232.533325 17.533333 234.933334 17 236.933334 C 16.200001 240 16.6 240.800003 19.533333 242.133331 C 22.066668 243.333328 22.866667 244.533325 22.333334 246.133331 C 20.333334 252.133331 29.133335 257.200012 32.066666 251.733337 C 32.866665 250.399994 34.200001 249.866669 35.666668 250.399994 C 39.933334 252.133331 44.466667 249.866669 45.266666 245.866669 C 45.666668 243.733337 46.599998 241.600006 47.133335 241.199997 C 47.799999 240.800003 48.333332 239.199997 48.200001 237.600006 L 48.200001 234.666672 L 46.200001 237.600006 C 45 239.199997 43.266666 240.133331 42.200001 239.733337 C 39.933334 238.933334 39.666668 235.333328 42.066666 235.199997 C 44.466667 235.199997 49.933334 227.733337 49.400002 225.066666 C 48.866665 222.399994 45 221.199997 43.799999 223.199997 Z"/>
        <path id="path6" fill="#000000" stroke="none" d="M 65.666664 235.866669 C 65.666664 237.733337 65.133331 239.466675 64.333336 240 C 63.666664 240.399994 63.400002 241.600006 63.933334 242.666672 C 64.333336 243.733337 63.933334 244.666672 63 244.666672 C 60.333336 244.666672 57.799999 248.133331 59.133331 250.133331 C 60.066666 251.600006 61.26667 250.800003 64.599998 246.666672 L 69.133331 240.666672 L 70.199997 237.733337 C 71.400002 234.933334 70.199997 232.666672 67.533333 232.666672 C 66.466667 232.666672 65.666664 234 65.666664 235.866669 Z"/>
        <path id="path7" fill="#000000" stroke="none" d="M 52.333332 243.866669 C 52.333332 246.266663 51.533333 247.199997 49.400002 247.600006 C 47.133335 247.866669 46.200001 249.066666 45.933334 251.600006 C 45.666668 253.733337 46.066666 255.333328 46.866665 255.333328 C 47.666668 255.333328 48.333332 257.066681 48.333332 259.200012 C 48.333332 263.600006 52.466667 266 55.533333 263.466675 C 56.333332 262.799988 58.333332 262.399994 59.933334 262.799988 C 63.800003 263.866669 68.73333 261.066681 67.800003 258.399994 C 67.26667 257.066681 68.066666 255.600006 69.666664 254.399994 C 71.133331 253.333328 72.333336 251.333328 72.333336 249.866669 C 72.333336 248 71.400002 247.333328 68.333336 247.333328 C 66.199997 247.333328 64.333336 247.866669 64.333336 248.666672 C 64.333336 249.333328 65.533333 250 67 250 C 70.866669 250 70.333336 252.399994 66.333336 253.466675 C 63.666664 254.133331 63.26667 254.666672 64.466667 256.133331 C 65.26667 257.066681 65.533333 258.533325 65 259.333344 C 63.533333 261.733337 60.73333 260.799988 59.800003 257.600006 C 59 254.666672 59 254.666672 55.799999 258.666656 C 52.866665 262.266663 52.466667 262.399994 51.666668 260.266663 C 51 258.799988 51.533333 256.799988 53.133335 255.066666 C 55.666668 252.266663 55.666668 252.266663 52.200001 253.066666 C 48.200001 254.133331 46.866665 253.199997 47.933334 250.533325 C 48.333332 249.466675 50.333332 248.666672 52.466667 248.666672 C 55.933334 248.666672 56.200001 248.399994 55 246.133331 C 53.400002 243.066666 55 241.600006 58.466667 242.933334 C 60.066666 243.466675 60.466667 243.333328 59.800003 242.266663 C 59.26667 241.333328 57.400002 240.666672 55.533333 240.666672 C 53 240.666672 52.333332 241.333328 52.333332 243.866669 Z"/>
        <path id="path8" fill="#000000" stroke="none" d="M 82.73333 15.066681 C 79.933334 15.333344 77.666664 16 77.666664 16.799988 C 77.666664 18.399994 87.933334 18.399994 89 16.799988 C 90.066666 15.066681 88.466667 14.533325 82.73333 15.066681 Z"/>
        <path id="path9" fill="#000000" stroke="none" d="M 77.133331 28.133331 C 75.800003 31.46666 76.199997 40.666672 77.666664 40.666672 C 78.466667 40.666672 79 39.600006 79 38.266663 L 79.800003 30.933334 C 80.73333 26 78.73333 23.866669 77.133331 28.133331 Z"/>
        <path id="path10" fill="#000000" stroke="none" d="M 91.133331 29.600006 C 91.133331 30.933334 91.666664 33.199997 92.333336 34.666672 C 93.26667 36.800003 93.533333 36.399994 93.533333 32.266663 C 93.666664 29.600006 93.133331 27.333344 92.333336 27.333344 C 91.666664 27.333344 91 28.399994 91.133331 29.600006 Z"/>
        <path id="path11" fill="#000000" stroke="none" d="M 83 32.666672 C 83 34.800003 83.666664 36.666672 84.333336 36.666672 C 85.133331 36.666672 85.666664 34.800003 85.666664 32.666672 C 85.666664 30.399994 85.133331 28.666656 84.333336 28.666656 C 83.666664 28.666656 83 30.399994 83 32.666672 Z"/>
        <path id="path12" fill="#000000" stroke="none" d="M 295.533325 61.866669 C 291.533325 62.666672 291.399994 62.800003 290.866669 71.333328 C 290.200012 83.600006 290.600006 94.133331 291.933319 95.46666 C 293.399994 96.933334 318.466675 97.600006 319.933319 96.266663 C 321.799988 94.399994 321.266663 65.066666 319.266663 63.066666 C 317.533325 61.333328 302.733337 60.666672 295.533325 61.866669 Z M 315.666656 64.53334 C 316.066681 65.199997 315.933319 66 315.399994 66.266663 C 313.266663 67.333328 295 65.733337 295 64.53334 C 295 62.933334 314.600006 62.933334 315.666656 64.53334 Z M 295.266663 80.399994 L 294.733337 92 L 304.200012 91.866669 C 310.600006 91.866669 314.200012 92.399994 315.133331 93.600006 C 316.333344 95.066666 314.733337 95.333328 306.466675 95.333328 C 297.266663 95.333328 296.200012 95.066666 294.200012 92.133331 C 292.466675 89.46666 292.333344 86.800003 293.133331 78 C 294.333344 64 295.799988 65.600006 295.266663 80.399994 Z M 319 80.133331 C 319 86.266663 318.466675 91.333328 317.799988 91.333328 C 316.600006 91.333328 315.133331 71.46666 316.066681 68.666672 C 316.333344 67.866669 317.133331 67.600006 317.799988 68.133331 C 318.466675 68.53334 319 73.866669 319 80.133331 Z M 313 79.333328 L 313 89.333328 L 299.399994 88.800003 C 297.533325 88.666672 297.133331 80 298.466675 72.800003 C 299.399994 68.666672 299.533325 68.53334 306.200012 68.933334 L 313 69.333328 L 313 79.333328 Z"/>
        <path id="path13" fill="#000000" stroke="none" d="M 91.533333 73.46666 C 91.933334 74.53334 91.933334 77.866669 91.533333 80.800003 L 90.599998 86 L 83.26667 86 C 78.066666 86 76.199997 86.399994 77.26667 87.46666 C 77.933334 88.133331 81.800003 88.666672 85.800003 88.399994 L 93 88 L 93.400002 79.600006 C 93.666664 74 93.26667 71.333328 92.199997 71.333328 C 91.400002 71.333328 91.133331 72.266663 91.533333 73.46666 Z"/>
        <path id="path14" fill="#000000" stroke="none" d="M 82.199997 76.800003 C 81.800003 77.600006 82.066666 78.933334 82.866669 79.733337 C 83.933334 80.800003 84.333336 80.399994 84.333336 78.266663 C 84.333336 75.066666 83.666664 74.53334 82.199997 76.800003 Z"/>
        <path id="path15" fill="#000000" stroke="none" d="M 75.933334 78.399994 C 74.466667 82.266663 74.73333 84.133331 76.466667 82.399994 C 77.26667 81.600006 77.666664 79.866669 77.400002 78.53334 C 77 76.133331 76.866669 76.133331 75.933334 78.399994 Z"/>
        <path id="path16" fill="#000000" stroke="none" d="M 79 98 C 79 98.666672 82.066666 99.333328 85.666664 99.333328 C 89.400002 99.333328 92.333336 98.666672 92.333336 98 C 92.333336 97.199997 89.400002 96.666672 85.666664 96.666672 C 82.066666 96.666672 79 97.199997 79 98 Z"/>
        <path id="path17" fill="#000000" stroke="none" d="M 76.333336 106.266663 C 76.333336 106.933334 77.666664 107.46666 79.400002 107.46666 C 87.26667 108 91.666664 107.600006 91.400002 106.800003 C 90.866669 105.46666 76.333336 105.066666 76.333336 106.266663 Z"/>
        <path id="path18" fill="#000000" stroke="none" d="M 84.333336 114 C 84.333336 114.666672 85 115.333328 85.666664 115.333328 C 86.466667 115.333328 87 114.666672 87 114 C 87 113.199997 86.466667 112.666672 85.666664 112.666672 C 85 112.666672 84.333336 113.199997 84.333336 114 Z"/>
        <path id="path19" fill="#000000" stroke="none" d="M 120.333336 137.866669 C 118.73333 141.066666 120.73333 142.666672 123 140 C 123.933334 138.933334 125.800003 138 127.133331 138 C 128.600006 138 129.666672 137.333328 129.666672 136.666672 C 129.666672 134.133331 121.800003 135.199997 120.333336 137.866669 Z"/>
        <path id="path20" fill="#000000" stroke="none" d="M 124.066666 150.53334 C 122.466667 154.133331 123.53334 158.666656 125.666672 157.333328 C 126.333328 156.933334 127 154.933334 127 152.933334 L 127 149.333328 L 129.53334 152.53334 C 132.333328 156.266663 134.600006 154.266663 132.333328 150 C 130.333328 146.266663 125.933334 146.666672 124.066666 150.53334 Z"/>
        <path id="path21" fill="#000000" stroke="none" d="M 102.599998 155.066666 C 100.066666 157.733337 99.533333 164 101.666664 165.333344 C 102.466667 165.733337 103 164.933334 103 163.333344 C 103 159.866669 105.26667 155.333328 107.133331 155.333328 C 107.800003 155.333328 109 156.800003 109.666664 158.666656 C 111 162.133331 113.666664 163.199997 113.666664 160.266663 C 113.666664 157.333328 109.666664 152.666672 107.133331 152.666672 C 105.800003 152.666672 103.800003 153.733337 102.599998 155.066666 Z"/>
        <path id="path22" fill="#000000" stroke="none" d="M 85.933334 171.733337 C 84.73333 173.199997 84.599998 174 85.666664 174.666656 C 87.666664 175.866669 88.73333 174.800003 88.066666 171.866669 C 87.666664 169.866669 87.533333 169.733337 85.933334 171.733337 Z"/>
        <path id="path23" fill="#000000" stroke="none" d="M 91.533333 172 C 90.333336 174.933334 91.666664 175.866669 93.533333 173.466675 C 94.599998 172.133331 94.73333 171.333344 93.666664 170.666656 C 93 170.266663 91.933334 170.800003 91.533333 172 Z"/>
        <path id="path24" fill="#000000" stroke="none" d="M 118.333336 172.800003 C 115.400002 174.666656 113.133331 175.199997 109.800003 174.666656 C 106.466667 174 105.533333 174.266663 105.933334 175.600006 C 107.400002 179.866669 123.800003 176.533325 125.399994 171.600006 C 126.066666 169.333344 123 169.733337 118.333336 172.800003 Z"/>
        <path id="path25" fill="#000000" stroke="none" d="M 174.199997 164.399994 C 172.199997 165.600006 171.266663 172.399994 173 172.933334 C 173.800003 173.199997 174.46666 172 174.733337 170.266663 C 175.399994 166.266663 177.399994 166.533325 179.266663 170.933334 L 180.866669 174.666656 L 181.399994 170.933334 C 182.066666 165.199997 178.333328 161.733337 174.199997 164.399994 Z"/>
        <path id="path26" fill="#000000" stroke="none" d="M 196.46666 171.199997 C 194.600006 174.533325 194.600006 176.666656 196.46666 176.666656 C 197.266663 176.666656 198.199997 175.466675 198.600006 174 C 199.53334 170.533325 202.199997 171.199997 202.733337 175.066666 C 203.399994 179.733337 205.933334 178.399994 205.399994 173.600006 C 205.133331 170.133331 204.333328 169.199997 201.399994 168.933334 C 199 168.666656 197.399994 169.333344 196.46666 171.199997 Z"/>
        <path id="path27" fill="#000000" stroke="none" d="M 213 181.066666 C 212.46666 182.399994 212.333328 183.866669 212.866669 184.266663 C 214.199997 185.600006 215.266663 183.733337 214.600006 181.066666 C 214.066666 178.800003 214.066666 178.800003 213 181.066666 Z"/>
        <path id="path28" fill="#000000" stroke="none" d="M 218.600006 181.600006 C 217 183.066666 217.666672 186 219.53334 186 C 221.133331 186 223 183.333344 223 181.199997 C 223 180.266663 219.53334 180.533325 218.600006 181.600006 Z"/>
        <path id="path29" fill="#000000" stroke="none" d="M 180.600006 185.600006 C 181.133331 188.533325 186.46666 191.333344 191.800003 191.333344 C 197.666672 191.333344 204.866669 188.666656 203.266663 187.066666 C 202.46666 186.266663 201 186.266663 199.266663 187.199997 C 194.733337 189.600006 187.266663 188.933334 184.733337 186 C 181.933334 182.666656 179.933334 182.533325 180.600006 185.600006 Z"/>
        <path id="path30" fill="#000000" stroke="none" d="M 384.066681 62.800003 C 383.666656 63.199997 381.399994 63.600006 379.133331 63.600006 L 375 63.733337 L 375 75.333328 C 375 81.733337 375.399994 89.733337 375.799988 93.199997 L 376.733337 99.333328 L 385.799988 99.333328 C 391 99.333328 395 98.800003 395 98 C 395 97.199997 392.066681 96.666672 388.333344 96.666672 C 384.733337 96.666672 381.666656 96 381.666656 95.333328 C 381.666656 94.53334 384.733337 94 388.333344 94 C 392.066681 94 395 93.333328 395 92.666672 C 395 91.866669 392.333344 91.333328 389 91.333328 L 382.866669 91.333328 L 383.666656 70.666672 L 389.399994 71.066666 C 392.466675 71.199997 395 70.800003 395 70.133331 C 395 68.933334 388.600006 67.333328 383.399994 67.333328 C 381.533325 67.333328 380.600006 66.800003 381 66 C 381.399994 65.199997 384.733337 64.666672 388.466675 64.666672 C 392.066681 64.666672 395 64 395 63.333328 C 395 62 385.399994 61.46666 384.066681 62.800003 Z M 381.666656 81.199997 C 381.666656 90.800003 380.200012 97.066666 378.600006 95.333328 C 377.533325 94.266663 376.200012 69.866669 377.133331 68.53334 C 377.666656 67.733337 378.600006 67.733337 379.799988 68.800003 C 381.133331 69.866669 381.666656 73.46666 381.666656 81.199997 Z"/>
        <path id="path31" fill="#000000" stroke="none" d="M 195 64.53334 C 191.266663 65.600006 188.066666 70.800003 188.866669 74.399994 C 189.133331 75.733337 187.800003 78.266663 185.53334 80.53334 C 180.46666 85.733337 180.333328 91.600006 185.133331 95.866669 C 188.600006 98.800003 188.733337 98.933334 187.133331 107.600006 C 185.666672 115.866669 186.333328 128.666672 188.199997 128.666672 C 188.733337 128.666672 188.866669 124.800003 188.600006 120 C 188.333328 115.199997 188.733337 108.53334 189.53334 105.199997 C 190.733337 100.53334 190.733337 98.133331 189.53334 94.666672 C 188.333328 91.333328 188.199997 89.066666 189.266663 85.733337 C 190.600006 81.600006 190.866669 81.46666 191.666672 84.266663 C 192.866669 88 197.133331 88.266663 198.333328 84.666672 C 200.066666 79.066666 201.933334 83.733337 201.133331 91.46666 C 200.333328 97.733337 200.733337 100.399994 203 105.199997 C 204.46666 108.53334 205.666672 113.066666 205.666672 115.333328 C 205.666672 120 209.800003 128.933334 210.733337 126.266663 C 211 125.333328 210.333328 122.133331 209.133331 119.066666 C 206.46666 112.53334 205.133331 94.266663 207.133331 91.866669 C 208.866669 89.866669 206.066666 79.333328 203.800003 79.333328 C 203 79.333328 203.933334 78 205.800003 76.266663 C 209.800003 72.933334 211.266663 68.800003 209.399994 65.46666 C 208.199997 63.199997 201.399994 62.800003 195 64.53334 Z M 201.133331 73.199997 C 200.46666 75.866669 199.399994 76.666672 196.46666 76.666672 C 190.199997 76.666672 189.53334 69.600006 195.53334 67.333328 C 199.399994 65.866669 202.199997 68.800003 201.133331 73.199997 Z M 206.46666 68.133331 L 205.666672 72.266663 C 205.666672 75.199997 204.866669 74.133331 203.800003 69.600006 C 203.133331 66.800003 203.399994 66 205.133331 66 C 206.600006 66 207 66.666672 206.46666 68.133331 Z M 197.666672 79.866669 C 197.666672 80.800003 196.866669 82.399994 195.800003 83.199997 C 194.333328 84.399994 193.800003 84.133331 193.266663 82.133331 C 192.866669 80.666672 193 79.199997 193.399994 78.800003 C 194.866669 77.333328 197.666672 78 197.666672 79.866669 Z M 185.800003 91.733337 C 183.53334 94 182.600006 89.333328 184.600006 85.733337 L 186.333328 82.666672 L 186.733337 86.53334 C 187 88.666672 186.600006 90.933334 185.800003 91.733337 Z M 205.266663 90.266663 C 204.866669 91.333328 204.46666 90.933334 204.46666 89.46666 C 204.333328 88 204.733337 87.199997 205.133331 87.733337 C 205.53334 88.133331 205.666672 89.333328 205.266663 90.266663 Z"/>
        <path id="path32" fill="#000000" stroke="none" d="M 144.333328 67.866669 C 144.333328 69.600006 143.399994 71.733337 142.333328 72.666672 C 141.133331 73.600006 140.333328 76.133331 140.46666 78.53334 C 140.733337 80.800003 140.333328 84 139.800003 85.733337 C 139.133331 87.600006 139.53334 90.399994 140.733337 93.066666 C 141.800003 95.46666 143.133331 102 143.666672 107.600006 L 144.600006 118 L 141.133331 118 C 136.733337 118 135.266663 121.333328 138.199997 124.53334 C 139.53334 126 140.333328 127.866669 140.199997 128.933334 L 140.199997 134.53334 C 140.46666 140.399994 142.066666 137.46666 142.199997 130.933334 L 142.333328 125.333328 L 168.199997 124.53334 L 169.133331 131.333328 C 170.199997 139.333328 171.666672 139.066666 171.133331 130.800003 C 170.866669 126.399994 171.399994 124.800003 173 124.133331 C 176.600006 122.800003 175 117.333328 171 117.066666 L 166.600006 116.800003 C 166.066666 116.666672 166.199997 115.46666 167.133331 113.866669 C 167.933334 112.266663 169.133331 107.199997 169.800003 102.399994 C 170.46666 97.600006 171.933334 92.53334 173 90.933334 C 174.333328 89.066666 175 84.933334 175 79.066666 C 175 70.666672 174.733337 69.866669 171.800003 68.666672 C 170.066666 68 168.199997 66.933334 167.800003 66.266663 C 167.399994 65.600006 161.933334 64.933334 155.666672 64.933334 C 144.733337 64.800003 144.333328 64.933334 144.333328 67.866669 Z M 154.199997 68 C 157 69.866669 157.399994 69.866669 159 68 C 161.266663 65.199997 163.800003 65.46666 168.333328 68.933334 C 172.066666 71.600006 172.333328 72.53334 172.333328 80.266663 C 172.333328 84.933334 171.800003 88.666672 171 88.666672 C 170.333328 88.666672 169.666672 89.866669 169.666672 91.333328 C 169.666672 96.266663 166.733337 100.800003 164.066666 99.866669 C 162.066666 99.333328 161.133331 100 159.933334 103.199997 C 158.199997 108 156.333328 108.53334 155.399994 104.666672 C 154.866669 102.800003 153.933334 102.133331 152.199997 102.666672 C 150.333328 103.333328 149.800003 102.666672 149.399994 99.733337 C 149.133331 97.46666 148.199997 96 147 96 C 145.933334 96 144.866669 94.666672 144.600006 92.933334 C 144.333328 91.333328 143.53334 90 142.866669 90 C 141 90 141.399994 85.46666 143.666672 82.53334 C 146.199997 79.199997 146.199997 78 143.399994 78 C 141.399994 77.866669 141.53334 77.46666 144.333328 75.066666 C 146.199997 73.600006 147.53334 71.733337 147.266663 70.933334 C 146.600006 68.933334 148.066666 66 149.666672 66 C 150.46666 66 152.46666 66.933334 154.199997 68 Z M 149.53334 106 C 150.066666 106.399994 149.800003 109.066666 148.866669 112 C 147.800003 115.199997 147.133331 116.266663 147.133331 114.53334 L 146.333328 105.199997 C 145.666672 99.733337 145.800003 99.199997 147 102 C 147.800003 103.733337 148.866669 105.600006 149.53334 106 Z M 167 104.133331 C 167 106.53334 163.800003 115.333328 163 115.333328 C 161.399994 115.333328 160.733337 107.733337 161.933334 105.46666 C 163.133331 103.46666 167 102.399994 167 104.133331 Z M 156.066666 113.066666 C 155.133331 114.933334 154.333328 115.333328 153.933334 114.266663 C 153.133331 111.733337 154.733337 108.399994 156.333328 109.333328 C 157.266663 109.866669 157.133331 111.199997 156.066666 113.066666 Z M 151.800003 117.600006 C 150.333328 119.066666 149.266663 116.800003 150.333328 114.399994 C 151.399994 112.133331 151.399994 112.133331 151.933334 114.399994 C 152.333328 115.733337 152.199997 117.199997 151.800003 117.600006 Z M 160.333328 116.800003 C 160.333328 117.46666 159.399994 118 158.333328 118 C 157.133331 118 156.733337 117.199997 157.133331 116 C 157.933334 114 160.333328 114.53334 160.333328 116.800003 Z M 172.333328 120.53334 C 172.333328 121.866669 142.333328 123.866669 140.333328 122.666672 C 139.53334 122.133331 139.266663 121.333328 139.666672 120.666672 C 140.600006 119.066666 172.333328 119.066666 172.333328 120.53334 Z"/>
        <path id="path33" fill="#000000" stroke="none" d="M 161.266663 70.933334 C 159.666672 72.53334 158.600006 72.800003 157.53334 71.733337 C 155.800003 70 151 71.066666 150.866669 73.199997 C 150.600006 76.399994 149.933334 81.46666 149 86.133331 C 148.199997 90.266663 148.46666 91.066666 151.666672 93.199997 C 153.666672 94.53334 157 95.333328 159.399994 95.066666 L 163.666672 94.666672 L 165.266663 83.333328 C 167.399994 68.666672 166.46666 65.733337 161.266663 70.933334 Z M 163.266663 84.933334 C 161.800003 86.399994 152.333328 84.933334 152.333328 83.199997 C 152.333328 82.53334 153.133331 82 154.199997 82 C 155.800003 82 155.933334 81.066666 154.866669 77.733337 L 153.666672 73.066666 C 153.666672 72.800003 155.266663 73.46666 157.266663 74.399994 C 160.199997 75.733337 161 75.600006 162.199997 73.600006 C 163.399994 71.733337 163.800003 72.399994 164.066666 77.46666 C 164.333328 80.933334 163.933334 84.266663 163.266663 84.933334 Z M 158.733337 88.133331 C 162.46666 89.199997 162.600006 92.666672 158.866669 92.666672 C 155.53334 92.666672 151 90.399994 151 88.666672 C 151 87.199997 154.199997 86.933334 158.733337 88.133331 Z"/>
        <path id="path34" fill="#000000" stroke="none" d="M 159.666672 82 C 160.066666 82.666672 160.733337 83.333328 161.133331 83.333328 L 161.666672 82 C 161.666672 81.199997 161 80.666672 160.199997 80.666672 C 159.53334 80.666672 159.266663 81.199997 159.666672 82 Z"/>
        <path id="path35" fill="#000000" stroke="none" d="M 271.266663 68.266663 C 271.933319 77.866669 271.399994 78.933334 266.066681 78.666672 C 261 78.266663 261 78.266663 260.600006 72.133331 C 260.333344 68.800003 259.666656 66 258.866669 66 C 257.533325 66 257.266663 71.733337 258.466675 77.46666 C 259.133331 81.066666 259.666656 81.333328 265.666656 81.600006 C 272.066681 81.866669 272.066681 81.866669 273.399994 76.666672 C 274.733337 71.199997 274.066681 64.666672 272.200012 64.666672 C 271.533325 64.666672 271.133331 66.266663 271.266663 68.266663 Z"/>
        <path id="path36" fill="#000000" stroke="none" d="M 264.333344 71.333328 C 264.333344 72.800003 265 74 265.666656 74 C 266.466675 74 267 72.800003 267 71.333328 C 267 69.866669 266.466675 68.666672 265.666656 68.666672 C 265 68.666672 264.333344 69.866669 264.333344 71.333328 Z"/>
        <path id="path37" fill="#000000" stroke="none" d="M 381.666656 106.53334 C 381.666656 111.333328 383.666656 112.666672 391.399994 112.666672 C 396.866669 112.666672 395.799988 110.266663 390.066681 109.733337 C 386.466675 109.46666 384.866669 108.666672 384.600006 106.933334 C 384.200012 104.933334 384.866669 104.666672 389.533325 105.46666 C 392.866669 106 395 105.866669 395 104.933334 C 395 103.46666 390.600006 102 385.399994 102 C 382.066681 102 381.666656 102.53334 381.666656 106.53334 Z"/>
        <path id="path38" fill="#000000" stroke="none" d="M 264.333344 107.46666 L 258.333344 108.266663 L 266.066681 108.399994 C 270.200012 108.53334 273.666656 108.399994 273.666656 108.133331 C 273.666656 106.933334 269.933319 106.666672 264.333344 107.46666 Z"/>
        <path id="path39" fill="#000000" stroke="none" d="M 258.466675 117.066666 C 257.799988 119.866669 257.666656 122.53334 258.200012 122.933334 C 259.799988 124.53334 260.466675 122.266663 260.066681 117.199997 L 259.533325 112 L 258.466675 117.066666 Z"/>
        <path id="path40" fill="#000000" stroke="none" d="M 267 115.333328 C 267 116.800003 267.666656 118 268.333344 118 C 269.133331 118 269.666656 116.800003 269.666656 115.333328 C 269.666656 113.866669 269.133331 112.666672 268.333344 112.666672 C 267.666656 112.666672 267 113.866669 267 115.333328 Z"/>
        <path id="path41" fill="#000000" stroke="none" d="M 193.666672 119.199997 C 193.666672 120 194.333328 120.933334 195 121.333328 C 195.800003 121.733337 196.333328 121.199997 196.333328 120.133331 C 196.333328 118.933334 195.800003 118 195 118 C 194.333328 118 193.666672 118.53334 193.666672 119.199997 Z"/>
        <path id="path42" fill="#000000" stroke="none" d="M 200.333328 119.866669 C 200.333328 120.933334 201 122.266663 201.666672 122.666672 C 202.46666 123.066666 203 122.266663 203 120.800003 C 203 119.199997 202.46666 118 201.666672 118 C 201 118 200.333328 118.800003 200.333328 119.866669 Z"/>
        <path id="path43" fill="#000000" stroke="none" d="M 148.066666 130.53334 C 147.133331 134.933334 147.666672 135.333328 154.199997 135.333328 C 160.866669 135.333328 163.399994 133.866669 162.733337 130.53334 C 162.46666 128.53334 160.866669 127.866669 155.53334 127.600006 C 149.133331 127.199997 148.600006 127.46666 148.066666 130.53334 Z M 159.666672 131.333328 C 159.266663 132 156.733337 132.666672 154.199997 132.666672 C 151.399994 132.666672 149.800003 132.133331 150.333328 131.333328 C 150.733337 130.53334 153.266663 130 155.800003 130 C 158.600006 130 160.199997 130.53334 159.666672 131.333328 Z"/>
        <path id="path44" fill="#000000" stroke="none" d="M 291.933319 226.933334 C 290.200012 228.533325 291 232.666672 293 232.666672 C 294.200012 232.666672 296.466675 234 298.066681 235.600006 C 299.799988 237.333328 301.799988 238.666672 302.733337 238.666672 C 303.666656 238.666672 304.200012 239.199997 304.066681 240 C 303.799988 240.666672 301.799988 241.199997 299.533325 240.933334 C 297.133331 240.666672 294.733337 241.333328 293.799988 242.533325 C 291.399994 245.466675 292.600006 250.399994 296.066681 252 C 298.466675 253.066666 298.866669 254 298.200012 256.933319 C 297.533325 260.533325 297.666656 260.666656 302.200012 260.666656 C 305 260.666656 307.933319 259.733337 309.399994 258.266663 C 311.266663 256.399994 312.333344 256.133331 314.200012 257.200012 C 317.799988 259.466675 322.200012 253.466675 321.133331 247.600006 C 320.733337 245.199997 321 241.733337 321.666656 240.133331 C 323.266663 235.600006 319.799988 230.800003 315.533325 231.866669 C 313.933319 232.266663 312.066681 232.133331 311.666656 231.333328 C 310.200012 228.933334 305.399994 229.866669 304.733337 232.666672 C 303.933319 235.733337 301.666656 236.266663 301.666656 233.333328 C 301.666656 232.266663 301 231.333328 300.200012 231.333328 C 299.533325 231.333328 299.266663 230.666672 299.666656 230 C 300.066681 229.199997 299.533325 228.666672 298.466675 228.666672 C 297.266663 228.666672 296.333344 228 296.333344 227.333328 C 296.333344 225.866669 293.266663 225.466675 291.933319 226.933334 Z M 310.600006 234.666672 C 311.533325 237.333328 310.333344 238.533325 307.799988 237.600006 C 306.600006 237.066666 306.066681 235.866669 306.466675 234.666672 C 307.533325 232.133331 309.533325 232.133331 310.600006 234.666672 Z M 318.600006 235.466675 C 321 237.866669 319 241.866669 315.133331 242.266663 C 311 242.800003 311.133331 245.333328 315.399994 245.333328 C 317.533325 245.333328 318.466675 246.266663 318.733337 248.666672 C 318.866669 250.533325 318.466675 252.933334 317.666656 254 C 316.466675 255.733337 315.666656 255.199997 312.333344 251.333328 L 308.466675 246.666672 L 308.733337 251.866669 C 309 256.399994 308.600006 257.200012 305.266663 258.266663 C 300.200012 260 299.266663 258.666656 302.066681 253.866669 C 305 248.533325 305 246.399994 301.933319 249.066666 C 298.733337 252 296.733337 251.866669 295.133331 248.800003 C 293.133331 245.066666 296.466675 242.800003 302.866669 243.733337 C 307.266663 244.266663 308.200012 244 308.733337 241.733337 C 309.133331 240.266663 310.066681 239.466675 310.866669 240 C 311.666656 240.399994 312.333344 240 312.333344 239.066666 C 312.333344 237.199997 314.866669 234 316.333344 234 L 318.600006 235.466675 Z"/>
        <path id="path45" fill="#000000" stroke="none" d="M 343.933319 228.266663 C 343.399994 228.666672 343 230.533325 343 232.266663 C 343 234.800003 342.466675 235.333328 340.466675 234.666672 C 339 234.266663 337.533325 234.533325 337 235.333328 C 336.600006 236 337.399994 236.666672 338.866669 236.666672 C 340.333344 236.666672 341.933319 237.199997 342.333344 238 C 344.066681 240.800003 345.666656 239.199997 345.666656 234.533325 C 345.666656 229.866669 345.799988 229.866669 350.600006 230.266663 C 356.866669 230.800003 357.799988 234 353.666656 239.600006 C 352.066681 241.733337 351 243.733337 351.399994 244.133331 C 351.666656 244.399994 354.333344 243.333328 357.399994 241.733337 C 363.799988 238.133331 366.600006 239.466675 365.133331 245.333328 C 364.200012 248.800003 363.933319 248.933334 357.933319 248 C 351.799988 247.066666 351.799988 247.066666 354.066681 249.600006 C 357.266663 253.199997 356.866669 256.399994 353.133331 258.266663 C 347.799988 260.666656 345.666656 258.933319 347 253.466675 C 348.333344 247.466675 346.466675 245.866669 344.466675 251.333328 C 342.866669 256.133331 339.933319 257.466675 335.533325 255.600006 C 331.266663 253.600006 331.533325 251.866669 336.733337 249.199997 L 341.666656 246 C 342.066681 245.466675 343.266663 244.800003 344.333344 244.399994 C 345.666656 243.866669 344.200012 242.800003 340.600006 241.333328 C 336.200012 239.466675 334.733337 238.133331 334.066681 235.199997 C 333.533325 232.533325 332.466675 231.333328 330.866669 231.333328 C 329.399994 231.333328 328.333344 232 328.333344 232.800003 C 328.333344 235.333328 332.866669 242 334.600006 242 C 335.533325 242 336.333344 242.533325 336.333344 243.333328 C 336.333344 244 335.799988 244.666672 335 244.666672 C 334.333344 244.666672 334.066681 245.466675 334.466675 246.533325 C 334.866669 247.733337 334.066681 248.800003 332.466675 249.333328 C 325.399994 251.466675 333.799988 260.533325 341.133331 258.799988 C 343.133331 258.266663 344.333344 258.533325 344.333344 259.466675 C 344.333344 261.600006 356.333344 260.133331 357.799988 257.866669 C 358.466675 256.799988 358.733337 254.933334 358.466675 253.600006 C 357.933319 251.600006 358.466675 251.199997 360.466675 251.733337 C 362.200012 252.133331 364.200012 251.466675 365.799988 249.866669 C 371.933319 243.733337 365.399994 232.399994 359.133331 238.266663 C 357.666656 239.733337 357.533325 239.199997 358.333344 235.600006 C 359.533325 229.600006 357.399994 227.333328 350.333344 227.333328 C 347.266663 227.333328 344.333344 227.733337 343.933319 228.266663 Z"/>
    </g>
</svg>
