<?xml version="1.0" encoding="UTF-8"?>
<!-- Generated by Pixelmator Pro 3.6.12 -->
<svg width="408" height="280" viewBox="0 0 408 280" xmlns="http://www.w3.org/2000/svg">
    <g id="g1">
        <path id="path2" fill="#000000" stroke="none" d="M 13.066668 11.466675 C 10.799999 12.133331 10.666666 16 10.4 66.399994 C 9.866667 204.133331 10 234.933334 10.933332 235.466675 C 11.6 235.866669 12 185.866669 12 124.53334 L 12 12.933319 L 396 14.666656 L 396 268 L 312.399994 267.600006 C 232.133331 267.200012 228.133331 267.066681 217.066666 264.266663 C 207.066666 261.866669 195.199997 257.466675 182.666672 251.600006 C 178.399994 249.600006 170.933334 244.266663 166.800003 240.399994 C 165.066666 238.666672 163.199997 237.333328 162.53334 237.333328 C 162 237.333328 160.399994 233.866669 159.199997 229.600006 C 154.53334 213.733337 153.066666 211.600006 142.53334 206.266663 C 138.133331 204 135.866669 201.600006 132.800003 196.133331 C 129.199997 189.199997 129.066666 188.399994 130.53334 182.800003 C 132.800003 174.399994 135.199997 171.066666 142.266663 166.933334 C 156.133331 158.666672 159.733337 154.933334 161.333328 147.199997 C 163.066666 138.933334 166.933334 135.066666 178.666672 129.600006 C 185.600006 126.399994 186.933334 126.133331 204 126.53334 C 300.133331 128.800003 393.333344 128.933334 393.333344 126.800003 C 393.333344 126 364.799988 125.46666 325.066681 125.46666 C 241.46666 125.46666 184.266663 123.600006 176.666672 120.800003 C 166.666672 117.199997 157.733337 112.133331 151.333328 106.666672 C 143.066666 99.600006 134.800003 88.933334 132.133331 82.133331 C 130.933334 79.066666 127.46666 72 124.266663 66.266663 C 118.400002 56 112.533333 50.666672 108.933334 52.933334 C 107.333336 54 97.199997 54.800003 86 54.666672 C 78.133331 54.666672 76.533333 55.866669 71.466667 64.666672 C 62.800003 79.600006 44.266666 102.133331 24.133335 122 C 13.6 132.399994 11.866667 134.666672 14.666666 134.666672 C 16.666666 134.666672 39.866665 110.666672 51.599998 96.666672 C 65.466667 80 64.533333 81.199997 72.666664 68.666672 C 76.666664 62.399994 80.666664 57.333328 81.599998 57.333328 C 82.400002 57.333328 85.066666 58 87.466667 58.933334 C 91.199997 60.266663 92.26667 60.133331 94.400002 58.266663 C 96.26667 56.53334 97.73333 56.266663 100.133331 57.066666 C 102.133331 57.866669 104.533333 57.733337 106.26667 56.933334 C 111.866669 54.399994 115.066666 56.800003 121.600006 68.266663 C 124.933334 74.399994 128.666672 81.46666 129.733337 84.133331 C 132.399994 90.800003 140.399994 100.800003 148.53334 108.133331 C 154.399994 113.333328 169.46666 121.866669 177.866669 124.666672 C 180 125.333328 179.333328 126 173.866669 128.666672 C 162.933334 133.866669 160.266663 137.333328 158 148.800003 C 157.199997 153.066666 154.399994 155.600006 139.866669 164.800003 C 126.800003 173.199997 123.333328 185.866669 130.399994 198.666656 C 133.199997 203.866669 135.600006 206.133331 141.066666 208.933334 C 149.866669 213.466675 152.666672 216.800003 154.666672 225.733337 C 155.600006 229.466675 157.066666 234 157.866669 235.466675 C 160 239.466675 172.53334 249.866669 179.066666 253.066666 C 195.600006 261.066681 208 265.733337 216 267.066681 C 217.866669 267.333344 199.46666 267.733337 175.333328 267.866669 L 131.199997 268 L 131.866669 257.866669 C 131.866669 256.133331 133.199997 254.666672 134.666672 254.266663 C 137.46666 253.600006 138.399994 247.733337 136.266663 244.266663 C 135.600006 243.333328 135.866669 237.733337 136.800003 231.733337 C 137.866669 225.866669 138.266663 220.399994 137.866669 219.866669 C 137.46666 219.199997 135.199997 218.666656 132.800003 218.666656 C 127.066666 218.666656 117.199997 225.066666 112.133331 232 C 108.26667 237.333328 107.73333 237.600006 100.800003 237.733337 C 95.466667 238 92.400002 238.800003 89.333336 241.066666 C 84.666664 244.666672 83.066666 244.266663 85.199997 240.266663 C 87.066666 236.666672 87.066666 226 85.199997 222.266663 C 81.066666 214.399994 67.599998 208 60.533333 210.666656 C 58.933334 211.333344 57.199997 211.466675 56.800003 211.066666 C 55.866665 210 45.333332 216.933334 45.333332 218.533325 C 45.333332 219.333344 44 220.266663 42.400002 220.666656 L 26.400002 227.733337 C 13.6 233.733337 13.466667 233.866669 14.266666 237.866669 C 15.200001 242.533325 19.866667 252.800003 24.666668 260.666656 C 26.533333 263.600006 28 266.399994 28 266.933319 C 28 267.600006 24.400002 268 20 268 L 12 268 L 12 255.333328 C 12 247.733337 11.466667 242.666672 10.666666 242.666672 C 9.200001 242.666672 8.799999 261.333344 10.133333 266.399994 L 10.933332 269.333344 L 42.533333 269.066681 C 59.866669 268.933319 69.333336 268.533325 63.73333 268.399994 L 53.466667 267.866669 L 54.666668 264.533325 C 55.466667 262.666656 56 259.733337 56 257.866669 C 56 256.133331 56.400002 254.666672 57.066666 254.533325 L 64.666664 254.133331 C 68.400002 254 72.26667 253.466675 73.333336 252.933334 C 75.199997 252 75.333336 253.066666 74.933334 260.666656 L 74.400002 269.333344 L 142.133331 269.600006 C 219.199997 269.866669 218.800003 269.866669 220.133331 267.733337 C 220.933334 266.533325 221.733337 266.666656 223.46666 268.133331 C 225.333328 269.733337 238.933334 270 311.200012 270 L 396.666656 270 L 397.333344 144 C 397.733337 74.666672 397.733337 16.666656 397.466675 14.933319 L 397.066681 12 L 218 12 C 119.599998 12 33.733334 11.733337 27.200001 11.333344 C 20.666666 11.066681 14.266666 11.066681 13.066668 11.466675 Z M 72.933334 214.800003 C 76.933334 216.266663 81.333336 220.399994 81.333336 222.533325 C 81.333336 223.199997 80 224.266663 78.400002 224.800003 C 76.666664 225.199997 71.599998 227.333344 67.066666 229.466675 C 62.533333 231.600006 58.133331 233.333328 57.333336 233.333328 C 56.666664 233.333328 56 234.133331 56 235.066666 C 56 237.333328 58.666664 240 61.066666 240 C 64.933334 240 72.26667 235.466675 73.466667 232.399994 C 74.533333 229.333328 77.333336 228.133331 77.333336 230.666672 C 77.333336 231.333328 78.533333 232 79.866669 232 C 83.866669 232 84.400002 234.133331 81.466667 239.866669 C 77.199997 248.133331 73.066666 250.666672 63.466667 250.666672 C 49.333332 250.666672 42.799999 243.600006 44.400002 229.733337 C 45.200001 222.800003 51.466667 215.199997 57.199997 214.266663 C 64.133331 213.199997 69.199997 213.333344 72.933334 214.800003 Z M 128.266663 223.600006 L 122.53334 227.600006 C 120.399994 229.466675 118.133331 230.666672 117.73333 230.133331 C 116.800003 229.199997 116.533333 229.333328 123.199997 224.933334 C 126.133331 222.933334 128.800003 221.733337 129.199997 222.266663 C 129.600006 222.666656 129.199997 223.333344 128.266663 223.600006 Z M 41.333332 227.066666 C 41.333332 229.600006 40.266666 230.533325 36.266666 231.733337 C 33.466667 232.666672 28.266666 234.800003 24.666668 236.666672 C 18.133333 240.266663 16.4 240.266663 17.733334 236.800003 C 18.266666 235.333328 38.799999 224.133331 41.066666 224 L 41.333332 227.066666 Z M 134 229.600006 C 132.266663 241.466675 131.866669 242.666672 128.266663 244.266663 C 123.866669 246.399994 122.666672 251.733337 126 254.133331 C 127.600006 255.333328 128.399994 257.866669 128.53334 262 L 128.666672 268 L 81.866669 268 L 82.400002 260.933319 C 82.666664 257.200012 83.466667 253.333328 84.133331 252.399994 C 86.400002 249.866669 99.866669 243.733337 105.199997 243.066666 L 110.400002 242.399994 L 109.599998 254.533325 C 109.199997 262.133331 109.466667 266.666656 110.26667 266.666656 C 111.599998 266.666656 113.333336 254.666672 113.333336 245.066666 C 113.333336 240.800003 114.26667 238.933334 118.800003 234.533325 C 124.266663 229.066666 131.600006 224 133.733337 224 C 134.399994 224 134.53334 226.533325 134 229.600006 Z M 41.333332 237.333328 C 41.333332 238.933334 40.666668 239.600006 39.599998 239.199997 C 38.666668 238.933334 34.266666 240.399994 30 242.666672 C 20.533333 247.333328 20 247.466675 20 244.133331 C 20 242.399994 22.133333 240.800003 27.066666 238.800003 L 36.666668 234.800003 C 40 233.333328 41.333332 234.133331 41.333332 237.333328 Z M 98 241.199997 C 97.199997 241.866669 95.199997 242.666672 93.333336 243.199997 C 90.533333 243.866669 90.666664 243.600006 94 242 C 98.666664 239.733337 99.599998 239.600006 98 241.199997 Z M 43.333332 244.266663 C 44.133335 245.866669 46.799999 248.666672 49.333332 250.399994 C 54.400002 253.733337 54.400002 255.066666 49.466667 255.333328 C 45.733334 255.466675 42.400002 259.600006 42.933334 263.333344 C 43.200001 265.200012 44.666668 266.266663 48 266.799988 C 50.933334 267.333344 48.400002 267.600006 41.200001 267.733337 C 30.400002 267.866669 29.733334 267.733337 30 265.066681 C 30.133335 263.466675 31.466667 261.733337 33.066666 261.200012 C 37.333332 259.600006 36.666668 258.399994 31.733334 258.93335 C 26 259.466675 25.866665 256.133331 31.466667 254.133331 C 33.733334 253.333328 37.066666 251.600006 38.799999 250.399994 C 43.333332 247.199997 39.466667 247.466675 32.133335 250.666672 C 25.333332 253.866669 22.666666 254 22.666666 251.466675 C 22.666666 249.733337 37.466667 241.466675 40.666668 241.333328 C 41.466667 241.333328 42.666668 242.666672 43.333332 244.266663 Z M 134.266663 249.866669 C 133.199997 252.666672 126.666672 252.666672 126.666672 250 C 126.666672 247.600006 132.133331 245.066666 133.866669 246.666672 C 134.53334 247.333328 134.666672 248.800003 134.266663 249.866669 Z M 52.400002 258.266663 C 53.466667 260.133331 50.799999 265.333344 48.666668 265.333344 C 45.466667 265.333344 44.533333 261.200012 47.333332 259.200012 C 50.133335 257.06665 51.599998 256.93335 52.400002 258.266663 Z M 79.599998 262.666656 C 79.466667 265.600006 78.800003 268 78 268 C 77.199997 268 76.800003 265.866669 77.066666 262.666656 C 77.333336 259.733337 78.133331 257.333344 78.666664 257.333344 C 79.199997 257.333344 79.599998 259.733337 79.599998 262.666656 Z"/>
        <path id="path3" fill="#000000" stroke="none" d="M 345.333344 22.533325 C 345.333344 27.466675 347.066681 30.666656 348.399994 28.399994 C 349.333344 26.666656 347.733337 17.333344 346.533325 17.333344 C 345.866669 17.333344 345.333344 19.733337 345.333344 22.533325 Z"/>
        <path id="path5" fill="#000000" stroke="none" d="M 367.866669 22.933319 L 364.399994 28.933319 C 363.333344 30.533325 363.066681 32.133331 363.733337 32.533325 C 365.066681 33.333344 372 23.866669 372 21.333344 C 372 18.933319 369.466675 19.866669 367.866669 22.933319 Z"/>
        <path id="path6" fill="#000000" stroke="none" d="M 310.666656 23.600006 C 310.666656 24.266663 314.266663 26.399994 318.799988 28.666656 C 323.200012 30.799988 327.466675 33.600006 328.133331 34.933319 C 329.466675 37.46666 333.333344 38.266663 333.333344 36.133331 C 333.333344 34.133331 325.600006 28.266663 319.066681 25.333344 C 312.533325 22.533325 310.666656 22.133331 310.666656 23.600006 Z"/>
        <path id="path7" fill="#000000" stroke="none" d="M 338.533325 37.733337 C 332.799988 41.600006 330.666656 45.733337 330.666656 53.333328 C 330.799988 63.199997 339.600006 70.666672 351.066681 70.666672 C 355.733337 70.666672 357.866669 69.866669 361.866669 66.266663 C 366.133331 62.666672 367.066681 60.933334 367.600006 55.46666 C 368.533325 47.600006 365.600006 41.199997 359.333344 37.333328 C 353.333344 33.600006 344.266663 33.866669 338.533325 37.733337 Z M 357.066681 39.600006 C 364.399994 44.399994 366.666656 51.46666 363.466675 59.199997 C 359.466675 68.933334 347.066681 70.53334 338 62.399994 C 331.200012 56.53334 331.733337 48.399994 339.333344 40.53334 C 342.799988 36.933334 352.133331 36.53334 357.066681 39.600006 Z"/>
        <path id="path8" fill="#000000" stroke="none" d="M 377.733337 37.733337 C 374.666656 39.333328 372 41.46666 372 42.266663 C 372 43.199997 372.399994 44 372.933319 44 C 374.799988 44 385.333344 37.199997 385.333344 36 C 385.333344 34.133331 384.133331 34.399994 377.733337 37.733337 Z"/>
        <path id="path10" fill="#000000" stroke="none" d="M 289.333344 43.866669 C 289.333344 44.53334 296.133331 46 304.399994 47.333328 L 320 49.866669 C 320.399994 49.866669 320.933319 49.46666 321.333344 48.800003 C 321.733337 48 318.133331 46.800003 313.333344 45.866669 C 300.666656 43.600006 289.333344 42.666672 289.333344 43.866669 Z"/>
        <path id="path11" fill="#000000" stroke="none" d="M 374.666656 58.266663 C 374.666656 59.733337 389.200012 61.866669 390.399994 60.666672 C 391.733337 59.333328 389.466675 58.53334 382.133331 57.733337 C 377.466675 57.199997 374.666656 57.46666 374.666656 58.266663 Z"/>
        <path id="path12" fill="#000000" stroke="none" d="M 313.333344 70.933334 C 295.866669 80.53334 266 96 265.066681 96 C 264.399994 96 264 96.53334 264 97.333328 C 264 99.866669 267.333344 98.53334 284.666656 89.600006 C 313.733337 74.399994 325.333344 67.866669 325.333344 66.53334 C 325.333344 64.53334 323.866669 65.066666 313.333344 70.933334 Z"/>
        <path id="path13" fill="#000000" stroke="none" d="M 76.400002 78.666672 C 74.666664 82.266663 73.333336 85.866669 73.333336 86.53334 C 73.333336 87.199997 72.133331 89.866669 70.666664 92.53334 C 68.800003 95.46666 68.400002 97.46666 69.333336 98 C 70.666664 98.800003 81.333336 77.600006 81.333336 73.866669 C 81.333336 70.266663 79.333336 72.133331 76.400002 78.666672 Z"/>
        <path id="path14" fill="#000000" stroke="none" d="M 106.400002 75.46666 C 106 75.866669 106.400002 77.733337 107.199997 79.733337 L 111.466667 88.933334 C 114 94.53334 116 96.266663 116 92.933334 C 116 91.199997 108.26667 74.666672 107.466667 74.666672 L 106.400002 75.46666 Z"/>
        <path id="path15" fill="#000000" stroke="none" d="M 340.133331 77.600006 L 334.133331 93.199997 C 331.333344 100.133331 329.733337 106.266663 330.266663 106.800003 C 331.200012 107.733337 344 78.53334 344 75.46666 C 344 73.333328 341.200012 74.933334 340.133331 77.600006 Z"/>
        <path id="path16" fill="#000000" stroke="none" d="M 94 80.800003 C 93.599998 83.46666 93.466667 86 94 86.399994 C 95.199997 87.600006 97.333336 83.866669 97.333336 80.399994 C 97.333336 75.46666 95.066666 75.733337 94 80.800003 Z"/>
        <path id="path17" fill="#000000" stroke="none" d="M 366.933319 86 C 369.866669 91.600006 372.666656 95.733337 373.333344 95.333328 C 374.666656 94.53334 374.133331 92.800003 368.933319 82.933334 C 366.933319 79.199997 364.533325 76 363.466675 76 C 362.266663 76 363.466675 79.333328 366.933319 86 Z"/>
        <path id="path18" fill="#000000" stroke="none" d="M 43.866665 135.066666 C 40.933334 137.066666 39.066666 139.46666 38.666668 142 C 38.133335 145.333328 36.933334 146.266663 31.733334 148 C 24.533333 150.266663 23.466667 151.733337 25.866665 156.133331 C 34.533333 172.666656 39.333332 181.066666 41.466667 183.466675 C 44.666668 186.933334 44.666668 189.466675 41.333332 196 C 38.666668 201.333344 37.733334 208 39.733334 208 C 41.333332 208 50.799999 200.933334 53.866665 197.466675 C 58.533333 192.266663 54.799999 192.666656 49.333332 198 C 46.400002 200.800003 43.733334 202.800003 43.200001 202.399994 C 42.799999 201.866669 43.466667 198.933334 44.799999 195.866669 L 47.333332 190.266663 L 56.666664 191.199997 C 68.26667 192.266663 77.866669 193.466675 78.26667 193.866669 L 79.73333 202.399994 C 80.400002 206.933334 81.199997 210.933334 81.599998 211.333344 C 83.333336 213.066666 87.199997 209.733337 90.933334 203.199997 C 94.26667 197.199997 95.466667 196 98.666664 196 C 100.800003 196 102.666664 195.066666 103.199997 193.866669 C 103.866669 192.133331 103.333336 191.866669 100.666664 192.533325 C 95.73333 193.733337 94 192.266663 96.800003 189.199997 C 98 187.733337 98.666664 186.266663 98.133331 185.600006 C 97.599998 185.066666 95.73333 186.266663 94.133331 188.266663 C 92.533333 190.399994 90.533333 192 89.599998 192 C 87.466667 192 87.599998 190.666656 90.133331 187.866669 C 91.466667 186.399994 91.73333 185.333344 90.800003 184.800003 C 90 184.266663 88.400002 185.466675 87.199997 187.333344 C 85.466667 189.866669 83.866669 190.666656 80.133331 190.666656 L 75.333336 190.533325 L 79.066666 187.866669 C 81.066666 186.399994 82.400002 184.533325 81.866669 183.866669 C 81.466667 183.199997 79.199997 184.133331 76.933334 185.866669 C 71.866669 189.600006 67.866669 190.666656 67.066666 188.266663 C 66.666664 187.466675 67.066666 186.666656 67.866669 186.666656 C 68.666664 186.666656 69.333336 186 69.333336 185.333344 C 69.333336 183.199997 66.800003 183.866669 64.400002 186.666656 C 61.866669 189.600006 59.199997 190 56 188 C 54.533333 187.066666 54.799999 186.533325 57.73333 185.466675 C 59.73333 184.666656 61.333336 183.466675 61.333336 182.666656 C 61.333336 180.533325 58.800003 181.066666 53.733334 184.666656 C 47.733334 188.666656 44.799999 187.466675 50 183.199997 C 54.533333 179.600006 53.733334 177.333344 49.066666 180.533325 C 45.333332 183.199997 44 183.199997 44 180.666656 C 44 179.600006 45.200001 178.133331 46.666668 177.333344 C 48.133335 176.533325 49.066666 175.199997 48.533333 174.533325 C 48 173.733337 46.533333 174 44.400002 175.466675 C 41.599998 177.199997 40.799999 177.333344 39.866665 175.866669 C 38 172.933334 38.400002 172 42.266666 170.533325 C 44.666668 169.600006 45.333332 168.800003 44.400002 167.866669 C 43.333332 166.800003 42 166.933334 40 168 C 37.599998 169.333344 36.799999 169.199997 35.866665 167.866669 C 34.133335 165.066666 34.400002 164.666656 38.933334 162.933334 C 44.400002 160.933334 42.799999 159.199997 37.200001 161.199997 C 33.866665 162.399994 32.666668 162.266663 31.733334 161.066666 C 31.200001 160 31.466667 158.800003 32.533333 158 L 36.933334 154.933334 C 39.200001 153.333328 39.066666 153.333328 36.400002 154 L 30.666668 155.46666 C 27.200001 156.53334 26.933334 152.666672 30.400002 151.46666 L 35.733334 149.333328 C 38.266666 148.266663 38.933334 148.53334 40 151.333328 C 40.666668 153.066666 42.666668 155.866669 44.533333 157.46666 C 46.400002 159.066666 47.466667 161.199997 47.066666 162.266663 C 46.666668 163.333328 47.599998 165.333344 49.066666 166.666656 C 50.533333 168.133331 52.133335 171.066666 52.666668 173.199997 C 54 179.466675 56 179.600006 61.199997 173.600006 C 65.066666 169.066666 66.933334 168 70.666664 167.866669 C 77.866669 167.733337 88.533333 171.199997 89.066666 174 C 89.466667 175.466675 88.933334 176.133331 87.73333 175.733337 C 86.800003 175.333344 85.333336 176 84.533333 177.066666 C 82.533333 179.733337 75.066666 178.266663 68.666664 174 C 64.666664 171.199997 63.866669 170.933334 64.26667 172.933334 C 64.533333 174.133331 66.666664 176.399994 69.199997 177.866669 C 73.599998 180.399994 76.533333 180.666656 92.533333 180.133331 C 95.866669 180 98.666664 180.800003 100.400002 182.266663 C 103.866669 185.333344 109.333336 197.066666 109.333336 201.333344 C 109.333336 206 111.599998 208 116.800003 208 C 121.066666 208 122.666672 206.266663 122.666672 201.733337 C 122.666672 200.533325 123.733337 198.800003 125.066666 197.866669 C 128.399994 195.466675 125.600006 191.466675 120 190.666656 C 116.26667 190.133331 115.333336 189.199997 114.400002 185.866669 C 112.800003 179.733337 105.333336 173.733337 98 172.533325 C 94.533333 172.133331 91.466667 170.933334 91.066666 169.866669 C 90.800003 168.933334 87.199997 167.466675 83.199997 166.666656 C 77.333336 165.466675 75.599998 164.399994 74 161.333328 C 71.599998 156.666672 67.199997 157.333328 64.933334 162.53334 C 64.133331 164.399994 61.866669 167.866669 59.866669 170.266663 L 56.26667 174.533325 L 55.333332 171.066666 C 54.933334 169.199997 55.200001 166.933334 55.866665 166.266663 C 56.666664 165.466675 57.333336 163.733337 57.333336 162.399994 C 57.333336 160.800003 58.400002 160 60.400002 160 C 62.26667 160 63.466667 159.066666 63.73333 157.600006 L 64.666664 150 C 65.599998 143.066666 63.333336 138.800003 56.666664 135.066666 C 50 131.333328 49.466667 131.333328 43.866665 135.066666 Z M 58.400002 138.666672 C 59.199997 138.666672 60 139.866669 60 141.333328 C 60 142.933334 59.066666 144 57.73333 144 C 56.533333 144 56 144.399994 56.533333 144.933334 C 57.066666 145.46666 58.533333 146 59.73333 146 C 63.066666 146 63.333336 151.333328 60.133331 154.53334 C 54.533333 160.133331 45.466667 157.066666 42.666668 148.666672 C 40.799999 142.800003 41.866665 139.199997 46.266666 136.800003 C 49.200001 135.333328 50.266666 135.333328 53.200001 136.800003 C 55.066666 137.866669 57.466667 138.666672 58.400002 138.666672 Z M 54.400002 162.933334 C 53.599998 165.333344 50.666668 165.733337 50.666668 163.46666 C 50.666668 162.266663 51.599998 161.333328 52.799999 161.333328 C 54 161.333328 54.666668 162 54.400002 162.933334 Z M 72 163.333328 C 72 164.399994 71.199997 165.333344 70.133331 165.333344 C 67.866669 165.333344 66.400002 163.46666 67.599998 162.133331 C 69.199997 160.53334 72 161.333328 72 163.333328 Z M 105.73333 179.066666 C 109.199997 181.466675 112.666664 187.466675 115.199997 195.600006 C 115.866669 197.866669 115.599998 198.666656 114.26667 198.666656 C 113.199997 198.666656 111.066666 195.600006 109.466667 191.600006 C 105.866669 182.933334 102.666664 179.066666 98.133331 177.866669 C 96.26667 177.466675 94.666664 176.533325 94.666664 175.866669 C 94.666664 174 101.466667 176 105.73333 179.066666 Z M 91.73333 195.333344 C 92.133331 195.733337 89.199997 201.199997 86.400002 205.199997 C 85.066666 207.066666 83.866669 208.266663 83.599998 207.866669 C 83.333336 207.600006 82.666664 204.266663 82.26667 200.399994 L 81.466667 193.466675 L 91.73333 195.333344 Z M 122.666672 194.666656 C 122.666672 195.333344 121.866669 196 120.800003 196 C 119.73333 196 118.400002 195.333344 118 194.666656 C 117.599998 193.866669 118.400002 193.333344 119.866669 193.333344 C 121.46666 193.333344 122.666672 193.866669 122.666672 194.666656 Z M 120 202.533325 C 120 204.666656 117.466667 205.600006 114.666664 204.666656 C 110.666664 203.333344 111.466667 201.333344 116 201.333344 C 118.26667 201.333344 120 201.866669 120 202.533325 Z"/>
        <path id="path19" fill="#000000" stroke="none" d="M 45.333332 146.133331 C 45.333332 148.666672 49.200001 150.133331 51.599998 148.53334 C 54.933334 146.53334 54.133335 145.066666 49.733334 144.666672 C 46.666668 144.399994 45.333332 144.933334 45.333332 146.133331 Z"/>
        <path id="path20" fill="#000000" stroke="none" d="M 373.733337 133.066666 C 364.666656 133.46666 362 136 370.399994 136.133331 L 380.399994 136.399994 C 383.333344 136.53334 385.333344 136 385.333344 135.199997 C 385.333344 132.933334 383.200012 132.666672 373.733337 133.066666 Z"/>
        <path id="path21" fill="#000000" stroke="none" d="M 188.666672 134.666672 C 188.133331 135.46666 190 136 193.600006 136.133331 L 204.399994 136.666672 C 208 137.066666 209.333328 136.800003 208.933334 135.600006 C 208.266663 133.600006 189.866669 132.666672 188.666672 134.666672 Z"/>
        <path id="path22" fill="#000000" stroke="none" d="M 271.733337 134.266663 C 268.933319 134.53334 266.666656 135.46666 266.666656 136.266663 C 266.666656 137.199997 270.933319 137.46666 279.733337 136.800003 L 295.066681 136 C 296.399994 136 297.066681 135.333328 296.666656 134.666672 C 295.866669 133.333328 282.266663 133.199997 271.733337 134.266663 Z"/>
        <path id="path23" fill="#000000" stroke="none" d="M 184.800003 139.600006 C 182.933334 141.46666 184.266663 142.666672 188.133331 142.666672 C 190.666672 142.666672 192 142.133331 191.733337 141.066666 C 191.066666 139.333328 186.133331 138.266663 184.800003 139.600006 Z"/>
        <path id="path24" fill="#000000" stroke="none" d="M 285.333344 140.666672 C 285.333344 142.800003 287.600006 143.199997 291.200012 141.866669 C 294.666656 140.53334 293.600006 138.666672 289.333344 138.666672 C 286.666656 138.666672 285.333344 139.333328 285.333344 140.666672 Z"/>
        <path id="path25" fill="#000000" stroke="none" d="M 377.066681 139.600006 C 373.200012 140.53334 374.266663 142.933334 378.399994 142.399994 C 380.399994 142.133331 381.866669 141.46666 381.733337 140.666672 C 381.466675 139.066666 380.133331 138.800003 377.066681 139.600006 Z"/>
        <path id="path26" fill="#000000" stroke="none" d="M 337.333344 143.866669 C 335.600006 147.333328 335.733337 152.399994 337.866669 161.333328 C 339.333344 167.066666 339.866669 168.133331 340.666656 166 L 343.466675 159.066666 C 344.533325 156.800003 345.333344 151.866669 345.333344 148.133331 C 345.333344 141.733337 345.066681 141.333328 342 141.333328 C 340.133331 141.333328 338.133331 142.399994 337.333344 143.866669 Z M 343.066681 149.333328 L 341.866669 157.199997 C 340.666656 162.399994 338.666656 158 338.666656 150.266663 C 338.666656 144.800003 339.066681 143.866669 341.066681 144.266663 C 342.799988 144.666672 343.200012 145.866669 343.066681 149.333328 Z"/>
        <path id="path27" fill="#000000" stroke="none" d="M 179.333328 146.666672 C 178.266663 148.266663 182 149.866669 184 148.666672 C 184.800003 148.266663 185.066666 147.199997 184.666672 146.53334 C 183.600006 144.933334 180.399994 144.933334 179.333328 146.666672 Z"/>
        <path id="path28" fill="#000000" stroke="none" d="M 292 147.46666 C 292 148.53334 292.666656 149.066666 293.333344 148.666672 C 294.133331 148.266663 294.666656 147.333328 294.666656 146.53334 C 294.666656 145.866669 294.133331 145.333328 293.333344 145.333328 C 292.666656 145.333328 292 146.266663 292 147.46666 Z"/>
        <path id="path29" fill="#000000" stroke="none" d="M 250.666656 147.600006 C 249.600006 148 247.733337 149.066666 246.666672 150 C 245.600006 150.933334 241.733337 151.600006 238.266663 151.600006 C 230 151.600006 228.266663 153.333328 226 164.399994 C 223.600006 175.733337 219.600006 184.933334 214.666672 190 C 209.866669 195.066666 208 199.866669 208 207.733337 C 208 216.399994 213.866669 225.866669 216.53334 221.466675 C 216.933334 220.933334 216.133331 219.333344 214.666672 218 C 212.133331 215.733337 212.133331 215.333344 214.133331 212.266663 C 217.600006 206.933334 222.933334 202.933334 229.199997 200.800003 C 236.933334 198 238.666672 199.466675 233.066666 204 C 230.266663 206.266663 227.733337 210 226.666672 213.600006 C 225.733337 216.800003 224.133331 220.266663 223.199997 221.333344 C 221.600006 223.333344 220.933334 226.666656 221.199997 230.933334 C 221.333328 234.133331 228.266663 234.133331 231.066666 230.933334 C 234.266663 227.466675 234 221.199997 230.666672 220.399994 C 226.933334 219.466675 227.333328 215.733337 231.600006 210.399994 L 235.600006 205.466675 C 235.866669 205.066666 238.53334 204.666656 241.600006 204.533325 C 245.600006 204.266663 248 203.333344 250 201.066666 C 252.266663 198.399994 253.866669 198 261.333344 198 C 269.866669 198 278.666656 195.466675 278.666656 193.199997 C 278.666656 192.533325 279.600006 192 280.666656 192 C 283.066681 192 286 197.199997 284.399994 198.800003 C 282.266663 200.933334 262.399994 205.333344 254.799988 205.333344 C 249.066681 205.333344 247.866669 205.733337 249.066681 206.933334 C 250 207.866669 252.799988 208.533325 255.333344 208.399994 C 260.533325 208.266663 261.066681 208.933334 257.733337 211.333344 C 256 212.666656 255.600006 214.933334 255.600006 221.733337 C 255.866669 231.733337 255.466675 232 243.333328 230.533325 C 236.133331 229.600006 234.800003 230 236.933334 232.133331 C 238.933334 234.133331 256.933319 234.533325 268.266663 232.800003 C 277.066681 231.333328 283.466675 228.800003 298 220.800003 C 303.200012 218 315.866669 206.533325 316.666656 204 C 318.133331 199.199997 315.733337 198.133331 313.866669 202.533325 C 312.799988 204.933334 311.466675 206.533325 310.799988 206.133331 C 310.133331 205.733337 309.333344 206.533325 308.933319 208 C 307.733337 212.800003 304.933319 211.066666 305.466675 205.866669 C 305.466675 204.933334 301.200012 202.133331 295.733337 199.733337 C 291.466675 197.866669 291.200012 196.933334 294 194.666656 C 296.133331 192.933334 296.799988 189.333344 294.933319 189.333344 C 294.399994 189.333344 293.200012 190.533325 292.266663 192 C 291.333344 193.466675 290 194.666656 289.333344 194.666656 C 288.533325 194.666656 288.933319 193.199997 290.133331 191.466675 C 291.200012 189.600006 292.133331 187.600006 291.866669 187.066666 C 291.466675 185.333344 298.666656 182.399994 304.799988 181.600006 C 309.200012 181.199997 310.933319 181.600006 313.200012 183.866669 C 315.333344 186 315.733337 187.333344 314.799988 189.199997 C 312.666656 193.066666 316.666656 197.600006 321.733337 197.066666 C 325.733337 196.666656 326 196.266663 326 191.466675 C 326 186.800003 325.600006 186.133331 322.133331 185.199997 C 320.133331 184.666656 317.333344 183.199997 316 182 C 312 178.399994 301.466675 177.466675 295.733337 180.266663 C 289.733337 183.199997 289.333344 183.199997 289.333344 180.666656 C 289.333344 179.600006 291.600006 176.533325 294.399994 174 C 298.266663 170.266663 300.133331 169.466675 303.066681 170 C 307.333344 170.666656 316 177.199997 316 179.600006 C 316 180.533325 316.933319 181.333344 318 181.333344 C 323.466675 181.333344 316.266663 171.866669 308.399994 168.533325 C 303.600006 166.399994 292 166 292 167.866669 C 292 168.533325 292.799988 169.466675 293.733337 169.733337 C 294.933319 170.266663 294.799988 170.800003 293.333344 171.866669 C 290 174.266663 289.333344 173.600006 289.333344 167.866669 C 289.333344 162.933334 288.533325 161.46666 283.066681 156 C 278 150.933334 275.200012 149.333328 269.600006 148.133331 C 262.266663 146.53334 254.133331 146.399994 250.666656 147.600006 Z M 259.866669 150.666672 C 261.333344 150.666672 261.333344 151.066666 260 152.53334 C 259.200012 153.600006 257.733337 154.133331 256.666656 153.866669 C 255.600006 153.46666 253.466675 155.199997 251.600006 158 C 249.733337 160.666672 246.133331 164.399994 243.46666 166.133331 L 238.666672 169.466675 L 238.666672 166.533325 C 238.666672 159.600006 249.733337 148.53334 255.333344 150 L 259.866669 150.666672 Z M 273.466675 152.133331 C 276.133331 153.46666 276.133331 153.600006 273.866669 156.133331 C 271.866669 158.399994 271.866669 158.666672 273.733337 158.666672 C 274.933319 158.666672 276.266663 158 276.666656 157.333328 C 278.133331 154.933334 279.866669 155.866669 283.333344 160.933334 C 288.133331 168 288 178.399994 283.200012 184.800003 C 278.799988 190.533325 277.200012 190.666656 278.799988 185.066666 C 280.533325 178.933334 278.666656 178 271.200012 181.333344 L 264.666656 184.266663 L 269.600006 188.533325 C 274.266663 192.533325 274.399994 192.933334 271.866669 194.399994 C 268 196.933334 257.866669 196.266663 250.533325 193.199997 C 243.733337 190.133331 239.600006 185.333344 238.133331 177.866669 C 237.333328 174.266663 237.733337 173.466675 243.600006 169.333344 C 247.066666 166.800003 251.066681 163.333328 252.399994 161.733337 C 253.733337 160 256 158.666672 257.333344 158.666672 C 258.666656 158.666672 260.933319 156.800003 262.266663 154.666672 C 264.799988 150.399994 268.666656 149.46666 273.466675 152.133331 Z M 240.53334 154.53334 C 240.933334 155.199997 239.333328 157.199997 236.800003 159.199997 C 231.199997 163.333328 225.333328 178.666656 229.199997 178.666656 C 229.866669 178.666656 230.800003 176 231.199997 172.800003 C 231.733337 169.600006 232.933334 166 233.866669 164.666656 C 235.199997 162.666672 235.46666 164 235.199997 172.533325 C 234.933334 182.399994 234.800003 183.066666 230.53334 186.800003 C 226.266663 190.666656 219.333328 194.666656 217.199997 194.666656 C 216.53334 194.666656 217.866669 191.866669 220 188.399994 C 222.266663 184.933334 224.666672 179.600006 225.46666 176.666656 C 230.933334 154.666672 230.933334 154.800003 234.53334 154.266663 L 238.933334 153.46666 C 239.46666 153.46666 240.133331 153.866669 240.53334 154.53334 Z M 275.466675 184.800003 L 274.666656 188.399994 C 274.666656 189.199997 273.733337 188.933334 272.533325 187.733337 C 270.133331 185.333344 271.066681 182.666656 274.266663 182.666656 C 275.600006 182.666656 276 183.466675 275.466675 184.800003 Z M 239.333328 188.933334 C 240.933334 191.333344 241.199997 192.666656 240.266663 193.066666 C 239.333328 193.333344 238.666672 194.399994 238.666672 195.466675 C 238.666672 196.800003 237.066666 197.333344 233.066666 197.333344 C 228.800003 197.333344 225.733337 198.399994 221.066666 201.600006 C 217.46666 204 214.266663 207.066666 213.866669 208.266663 C 212.53334 212.800003 210.53334 210.666656 210.933334 205.199997 C 211.333328 199.866669 211.46666 199.600006 218.933334 196.800003 C 223.199997 195.333344 228.53334 192.133331 230.933334 189.733337 C 233.333328 187.333344 235.733337 185.466675 236.133331 185.333344 C 236.666672 185.333344 238.133331 186.933334 239.333328 188.933334 Z M 288.666656 186.666656 C 289.866669 188.666656 286.533325 192.399994 285.066681 190.933334 C 283.733337 189.600006 285.066681 185.333344 286.666656 185.333344 C 287.333344 185.333344 288.266663 186 288.666656 186.666656 Z M 323.733337 191.733337 C 324.133331 193.866669 323.466675 194.666656 321.466675 194.666656 C 318.266663 194.666656 316.799988 192.666656 317.866669 189.866669 C 319.066681 186.800003 323.200012 188.133331 323.733337 191.733337 Z M 247.199997 195.466675 C 250 196.533325 249.866669 199.600006 247.066666 200.533325 C 243.733337 201.600006 242 200.933334 242.399994 198.933334 C 242.666672 198.133331 242 197.333344 241.066666 197.333344 C 239.866669 197.333344 239.866669 196.933334 241.333328 196 C 243.733337 194.533325 244.399994 194.399994 247.199997 195.466675 Z M 292.933319 201.333344 C 296 201.333344 302.666656 208.266663 302.666656 211.333344 C 302.666656 216.666656 282.133331 227.733337 266.933319 230.533325 C 260.266663 231.866669 258.666656 230.133331 258.666656 221.333344 C 258.666656 211.600006 261.066681 208.933334 273.200012 205.466675 C 279.200012 203.733337 284.399994 201.733337 284.799988 201.066666 C 285.333344 200.399994 286.933319 200.133331 288.533325 200.533325 L 292.933319 201.333344 Z M 230 224 C 231.600006 226.666656 229.199997 230.666672 225.866669 230.666672 C 222.266663 230.666672 222.266663 230.666672 224 226.133331 C 225.333328 222.666656 228.53334 221.600006 230 224 Z"/>
        <path id="path30" fill="#000000" stroke="none" d="M 255.733337 162.933334 C 253.600006 163.600006 252 164.800003 252 165.600006 C 252 166.399994 252.933319 166.533325 254.133331 166.133331 C 255.333344 165.733337 257.733337 165.333344 259.466675 165.333344 C 261.466675 165.333344 262.666656 164.533325 262.666656 163.333328 C 262.666656 161.066666 260.933319 160.933334 255.733337 162.933334 Z"/>
        <path id="path31" fill="#000000" stroke="none" d="M 274.266663 166.133331 C 272.799988 167.600006 273.200012 172 274.666656 172 C 275.466675 172 276 171.066666 276 170 C 276 168.399994 276.933319 168.133331 279.466675 168.800003 C 282.133331 169.466675 282.799988 169.199997 282.399994 167.866669 C 281.733337 165.866669 275.866669 164.666656 274.266663 166.133331 Z"/>
        <path id="path32" fill="#000000" stroke="none" d="M 258.399994 172.133331 C 255.733337 173.600006 255.066681 180 257.466675 180 C 258.266663 180 258.666656 179.199997 258.266663 178.133331 C 257.066681 175.066666 260.799988 172.666656 263.333344 174.666656 C 266 176.933334 267.600006 175.333344 265.333344 172.666656 C 263.466675 170.399994 261.600006 170.133331 258.399994 172.133331 Z"/>
        <path id="path33" fill="#000000" stroke="none" d="M 247.600006 187.600006 C 247.066666 188 246.666672 189.066666 246.666672 189.866669 C 246.666672 190.666656 247.333328 190.533325 248.266663 189.600006 C 249.066681 188.800003 249.466675 187.733337 249.200012 187.333344 C 248.799988 186.933334 248 187.066666 247.600006 187.600006 Z"/>
        <path id="path34" fill="#000000" stroke="none" d="M 251.333344 189.333344 C 250.933319 190 251.066681 190.666656 251.866669 190.666656 C 252.533325 190.666656 253.600006 190 254 189.333344 C 254.399994 188.533325 254.266663 188 253.466675 188 C 252.799988 188 251.733337 188.533325 251.333344 189.333344 Z"/>
        <path id="path35" fill="#000000" stroke="none" d="M 365.600006 152.399994 C 362.133331 154 356.666656 164.800003 355.200012 173.066666 L 354.266663 178 L 358.799988 174 C 367.600006 166.399994 372.133331 159.866669 371.733337 155.600006 C 371.333344 150.933334 369.866669 150.266663 365.600006 152.399994 Z M 369.333344 156.266663 C 369.333344 157.066666 367.333344 160.666672 365.066681 164.266663 C 360.933319 170.266663 358.666656 172.133331 358.666656 169.466675 C 358.666656 167.733337 362.799988 158.266663 364.266663 156.266663 C 366 154.266663 369.333344 154.133331 369.333344 156.266663 Z"/>
        <path id="path36" fill="#000000" stroke="none" d="M 176.666672 167.199997 C 171.333328 171.066666 177.866669 176 188.53334 176 C 192.399994 176 195.46666 176.933334 197.866669 178.800003 C 203.066666 182.800003 204 180.666656 198.933334 176.266663 C 190.800003 169.199997 189.066666 167.866669 185.866669 166.533325 C 181.333328 164.933334 179.600006 165.066666 176.666672 167.199997 Z M 187.066666 169.866669 C 190.266663 172.266663 189.866669 173.333344 185.866669 173.333344 C 181.600006 173.333344 177.066666 170.933334 178 169.199997 C 179.199997 167.466675 184.266663 167.733337 187.066666 169.866669 Z"/>
        <path id="path37" fill="#000000" stroke="none" d="M 355.066681 194.399994 C 348.266663 201.333344 337.200012 207.333344 327.733337 209.466675 C 320.133331 211.066666 317.333344 213.333344 322.666656 213.333344 C 326.533325 213.333344 340.533325 208.533325 345.600006 205.333344 C 349.066681 203.333344 351.333344 202.800003 356.133331 203.466675 C 361.333344 204.133331 362.666656 203.866669 366.533325 200.666656 C 369.733337 197.866669 370.666656 196.133331 370.399994 193.466675 C 370 190.533325 369.200012 190 365.066681 189.600006 C 360.933319 189.199997 359.466675 190 355.066681 194.399994 Z M 367.600006 192.933334 C 368.666656 195.733337 362.266663 201.333344 357.866669 201.333344 C 353.200012 201.333344 353.866669 198.266663 359.600006 194.266663 C 365.466675 190.133331 366.399994 189.866669 367.600006 192.933334 Z"/>
        <path id="path38" fill="#000000" stroke="none" d="M 167.866669 193.466675 C 161.333328 200 169.866669 203.866669 179.866669 198.800003 C 182.800003 197.199997 186.800003 196 188.666672 196 C 194.266663 196 192.399994 194 184.933334 192.266663 C 175.066666 190 171.066666 190.266663 167.866669 193.466675 Z M 180.53334 194.533325 C 180.933334 195.199997 178.666672 196.666656 175.333328 197.733337 C 168.800003 200 165.600006 198.399994 170 195.066666 C 172.800003 193.066666 179.46666 192.666656 180.53334 194.533325 Z"/>
        <path id="path39" fill="#000000" stroke="none" d="M 350 213.466675 C 343.733337 219.199997 336.799988 221.600006 320.399994 223.466675 C 315.733337 223.866669 312.399994 224.933334 312.799988 225.600006 C 313.733337 227.066666 327.866669 225.733337 337.066681 223.199997 C 343.200012 221.466675 344.399994 221.466675 346.799988 223.199997 C 350 225.466675 352.266663 224.933334 358.399994 220.399994 C 361.733337 217.866669 362.666656 216.266663 362.666656 212.533325 C 362.666656 208.533325 362.266663 208 359.333344 208 C 357.200012 208 353.733337 210.133331 350 213.466675 Z M 360.799988 212.266663 C 362 214.133331 354.133331 221.333344 350.933319 221.333344 C 346.399994 221.333344 346.799988 219.733337 352.133331 215.199997 C 358 210.266663 359.333344 209.866669 360.799988 212.266663 Z"/>
        <path id="path40" fill="#000000" stroke="none" d="M 375.600006 232.800003 C 374 234.399994 376.133331 236 380.133331 236 C 382.666656 236 384 235.333328 384 234 C 384 232 377.333344 231.066666 375.600006 232.800003 Z"/>
        <path id="path41" fill="#000000" stroke="none" d="M 380.266663 240.266663 C 380.933319 242.266663 384 242.666672 384.133331 240.666672 C 384.133331 239.866669 383.200012 239.066666 381.866669 238.933334 C 380.533325 238.533325 379.866669 239.066666 380.266663 240.266663 Z"/>
        <path id="path42" fill="#000000" stroke="none" d="M 220.666672 246.533325 C 222.399994 248.133331 239.066666 248.800003 240 247.199997 C 240.399994 246.533325 235.866669 245.866669 230 245.600006 C 223.066666 245.333328 219.866669 245.600006 220.666672 246.533325 Z"/>
        <path id="path43" fill="#000000" stroke="none" d="M 327.333344 250.666672 C 327.733337 251.333328 333.200012 252 339.466675 252 C 346.666656 252 350.533325 251.466675 350 250.666672 C 349.600006 249.866669 344.133331 249.333328 337.866669 249.333328 C 330.666656 249.333328 326.799988 249.866669 327.333344 250.666672 Z"/>
        <path id="path44" fill="#000000" stroke="none" d="M 226.666672 251.866669 C 226.666672 253.199997 233.333328 254.399994 235.733337 253.600006 C 236.666672 253.333328 237.066666 252.533325 236.53334 251.866669 C 235.600006 250.266663 226.666672 250.266663 226.666672 251.866669 Z"/>
        <path id="path45" fill="#000000" stroke="none" d="M 334.666656 257.333344 C 334.666656 258 336.133331 258.666656 338 258.666656 C 339.866669 258.666656 341.333344 258 341.333344 257.333344 C 341.333344 256.533325 339.866669 256 338 256 C 336.133331 256 334.666656 256.533325 334.666656 257.333344 Z"/>
    </g>
</svg>
