<?xml version="1.0" encoding="UTF-8"?>
<!-- Generated by Pixelmator Pro 3.6.12 -->
<svg width="409" height="278" viewBox="0 0 409 278" xmlns="http://www.w3.org/2000/svg">
    <g id="g1">
        <path id="path2" fill="#000000" stroke="none" d="M 9.666666 137.666672 C 9.666666 239 10.066668 265.933319 11.4 266.333344 C 12.200001 266.600006 99.533333 267.133331 205.399994 267.266663 L 397.666656 267.666656 L 397.533325 263 C 397.266663 259 397.133331 258.866669 396.733337 261.933319 C 396.200012 265.533325 395.933319 265.666656 387.533325 265.666656 L 378.866669 265.666656 L 383.399994 261.666656 C 385.933319 259.533325 389.399994 255.666672 391.133331 253 C 392.866669 250.466675 395.133331 248.333328 396.066681 248.333328 C 396.866669 248.333328 397.666656 246.733337 397.666656 244.733337 C 397.666656 241.399994 397.533325 241.399994 392.733337 247 L 382.866669 257.666656 C 380.200012 260.333344 377.799988 263.266663 377.533325 264.066681 C 377.133331 265.266663 371.933319 265.666656 357.799988 265.399994 L 338.466675 265 L 377.799988 225.399994 L 387.399994 225.800003 C 393.133331 226.199997 397.133331 225.800003 397.266663 225 C 397.533325 224.066666 377.799988 223.666672 339.933319 223.666672 C 282.200012 223.533325 271 223.933334 271 225.666672 C 271 226.066666 285.266663 226.466675 302.733337 226.333328 C 320.066681 226.199997 334.866669 226.333328 335.399994 226.600006 C 335.933319 227 331 232.600006 324.466675 239.266663 C 317.799988 245.933334 312.733337 251.933334 313.266663 252.600006 C 313.666656 253.399994 319.799988 248.199997 326.866669 241.133331 C 333.933319 234.066666 340.600006 227.666672 341.666656 227 C 343.533325 225.800003 369.266663 225.399994 371.266663 226.600006 C 371.933319 226.866669 364.200012 235.133331 354.333344 245 C 344.466675 254.866669 336.333344 263.533325 336.333344 264.333344 C 336.333344 265.266663 310.733337 265.666656 256.333344 265.666656 L 176.46666 265.666656 L 174.333328 258.333344 C 171.666672 249.533325 168.866669 248.333328 170.199997 256.600006 C 170.733337 259.666656 171.800003 263 172.600006 263.933319 C 173.666672 265.399994 168.333328 265.666656 143.266663 265.666656 L 112.599998 265.666656 L 122.600006 235 C 126.333328 225.533325 126.733337 225 130.46666 225.266663 C 142.066666 226.066666 152.066666 226.066666 154.733337 225.133331 C 157.53334 224.199997 158.066666 224.866669 161.266663 232.199997 C 163.133331 236.733337 165.53334 240.333328 166.600006 240.333328 C 169 240.333328 168.866669 240.066666 164.199997 230.866669 C 161.933334 226.333328 160.333328 222.600006 160.600006 222.466675 L 166.333328 218.066666 C 171.266663 214.333344 171.933334 214.199997 175.666672 215.800003 C 177.933334 216.733337 181.800003 217.533325 184.46666 217.666656 C 189.399994 217.666656 203.399994 213.399994 206.333328 211 C 208.46666 209.266663 209.666672 210.600006 209.666672 214.733337 C 209.666672 219.266663 193.53334 234.866669 184.066666 239.533325 C 177.800003 242.600006 175.266663 243.133331 166.866669 242.733337 L 157.133331 242.333328 L 156.199997 237.666672 C 155 232.199997 151.933334 229.666672 146.333328 229.666672 C 139.666672 229.666672 135 234.866669 135 242.066666 C 135 249 137.666672 252.066666 144.733337 253.266663 C 148.866669 253.933334 150.066666 253.399994 153.666672 249.933334 C 157.53334 245.933334 158.199997 245.800003 168.066666 245.933334 C 175.53334 245.933334 179.666672 245.399994 183 243.666672 C 191 239.666672 200.733337 232.199997 206.733337 225.399994 C 211.266663 220.333344 213.53334 219 216.733337 219 C 219.800003 219 222.199997 217.533325 226.46666 213.133331 L 232.199997 207.133331 L 232.866669 214.733337 C 234.066666 225.800003 235.800003 234.866669 238.866669 245.133331 C 241.399994 253.533325 242.066666 254.600006 247.266663 257.266663 C 250.466675 259 255 260.733337 257.266663 261.133331 C 261.399994 261.933319 261.799988 261.666656 263.666656 257.266663 C 266.600006 250.333328 266.200012 247.800003 261.133331 238.600006 C 258.600006 234.066666 255.666656 226.733337 254.466675 222.333344 C 250.200012 206.866669 243.800003 192.199997 240.066666 189 C 238.066666 187.266663 236.333328 185.533325 236.333328 185.133331 C 236.333328 184.733337 243.53334 184.333344 252.200012 184.333344 C 261.399994 184.333344 268.466675 183.800003 269 183 C 270.066681 181.266663 269.799988 181.266663 248.866669 181.666656 L 231.266663 181.933334 L 230.333328 176.466675 C 229.800003 173.533325 228.199997 169.533325 226.866669 167.666656 C 224.066666 164.199997 223.666672 154.866669 226.333328 155 C 227.133331 155.133331 227.399994 156.333328 227.266663 157.933334 C 227 159.666656 228.600006 162.466675 231.933334 165.933334 C 238.866669 173.133331 240.733337 173.933334 245.266663 172.199997 C 247.266663 171.399994 251.666656 170.733337 254.866669 170.866669 C 258.066681 171 262.333344 170.733337 264.466675 170.333344 C 268.066681 169.533325 268.333344 169 268.333344 163.533325 C 268.333344 158.46666 267.799988 157.399994 265.133331 156.46666 C 261.533325 155 259.933319 151.933334 261.799988 150.066666 C 262.600006 149.266663 263.533325 145.266663 263.933319 141.133331 C 264.333344 137 265.133331 133.266663 265.799988 132.866669 C 266.333344 132.600006 268.600006 133.399994 270.733337 134.600006 C 274.200012 136.733337 274.466675 137.399994 273.266663 140.333328 C 272.600006 142.199997 271.666656 151.266663 271.399994 160.466675 C 270.733337 176.866669 270.733337 177.533325 274.333344 184.866669 C 276.333344 189 278.466675 192.333344 279.133331 192.333344 C 279.799988 192.333344 280.200012 194.199997 280.066681 196.600006 C 279.533325 203.133331 283.533325 204.600006 298.066681 203.666656 C 304.600006 203.133331 311.799988 201.933334 314.066681 201 C 319.933319 198.600006 324.600006 193.266663 324.333344 189.399994 C 323.799988 182.866669 323.933319 182.600006 330.733337 183.666656 L 337.399994 185 C 337.666656 185.266663 335.799988 188.333344 333.133331 191.800003 C 328.866669 197.399994 328.466675 198.333344 330.200012 200.199997 C 331.266663 201.399994 332.733337 204.066666 333.533325 206.066666 C 334.733337 209.133331 335.533325 209.666656 338.066681 208.866669 C 339.666656 208.466675 341.933319 207.266663 343 206.333344 C 344.066681 205.399994 346.866669 203.666656 349.133331 202.600006 C 352.333344 201 354.200012 198.199997 357 191.800003 C 360.333344 184.066666 361.133331 183.133331 364.866669 182.733337 C 368.600006 182.333344 369.133331 181.800003 370.200012 176.600006 C 371.933319 168.066666 369.799988 164.333344 363.133331 164.333344 C 357.133331 164.333344 352.333344 167.800003 346.333344 176.199997 C 342.466675 181.933334 339.533325 182.733337 330.200012 180.866669 L 326.333344 180.199997 L 326.733337 160.600006 C 327.266663 137.800003 326.066681 133.399994 317.799988 127.399994 C 314.733337 125.266663 312.066681 121.933334 311.399994 119.666672 C 310.466675 116.600006 309.266663 115.53334 305.666656 114.733337 C 299.799988 113.53334 291 115.800003 291 118.46666 C 291 121.800003 286.733337 127.133331 281.266663 130.600006 C 276.066681 133.933334 275.933319 133.933334 271.533325 131.53334 L 267 129.133331 L 270.466675 125.53334 C 275.799988 119.933334 278.066681 105.53334 275.133331 95.266663 C 274.066681 91.800003 274.200012 90.733337 275.799988 90.066666 C 277 89.666672 277.666656 87.399994 277.666656 83.666672 C 277.666656 79 277 77.266663 273.799988 74.600006 C 268.466675 70.199997 261.133331 68.866669 256.866669 71.666672 C 255.133331 72.733337 253.666656 74.199997 253.666656 74.733337 C 253.666656 75.266663 250.200012 75.666672 245.933334 75.800003 C 233.933334 75.933334 228.600006 77.399994 223 82.46666 C 213.800003 90.866669 209.666672 108.333328 214.333328 119.399994 C 215.399994 121.933334 219.399994 126.733337 223.133331 130.066666 L 230.066666 136.066666 L 227 140.199997 C 222.866669 146.066666 216.333328 167.666656 216.333328 175.399994 L 216.333328 181.933334 L 200.333328 181.399994 C 191.53334 181.266663 184.333328 181.399994 184.333328 181.800003 C 184.333328 183.666656 189.133331 184.333344 204.066666 184.333344 C 219.53334 184.466675 219.666672 184.466675 215.53334 186.733337 L 202.600006 195.399994 C 195.266663 200.733337 192.46666 201.933334 186.199997 202.600006 C 179 203.399994 178.600006 203.266663 179.666672 200.866669 C 181.53334 196.333344 182.066666 177.266663 180.46666 171.266663 C 178.333328 163.399994 165.399994 150.46666 157.399994 148.199997 C 149.399994 145.933334 132.866669 145.800003 125.399994 147.933334 C 121.933334 149 116.333336 151.800003 113 154.333328 C 109.666664 156.866669 105.533333 159 103.800003 159 C 99.400002 159 92.333336 164.199997 89.133331 169.666656 C 86.599998 173.933334 86.333336 177.266663 85.666664 209.399994 C 85.26667 228.733337 85.400002 244.866669 85.933334 245.266663 C 87.933334 246.466675 93.666664 238.466675 100.466667 225.133331 L 107.933334 211.133331 C 108.199997 210.733337 109.26667 211.800003 110.466667 213.399994 C 111.533333 215 115 217.666656 118.066666 219.133331 L 123.933334 222.199997 C 124.333328 222.466675 119.53334 235.666672 117.666664 239.666672 C 114.73333 245.800003 109.666664 263.133331 110.333336 264.333344 C 110.866669 265.133331 95.400002 265.666656 68.066666 265.666656 L 25 265.666656 L 25.666668 258.733337 C 26.066666 254.866669 27 250.733337 27.666668 249.533325 C 28.466667 248.333328 36.066666 242.199997 44.599998 235.800003 C 60.199997 224.333328 60.333336 224.333328 68.466667 224.333328 C 74.333336 224.333328 76.466667 223.933334 75.933334 222.600006 C 75.400002 220.733337 70.066666 220.733337 43.400002 222.199997 L 25.666668 223.266663 L 25.666668 219.933334 C 25.666668 217.133331 26.466667 216.600006 32.066666 215.800003 C 35.533333 215.266663 47.666668 214.600006 59 214.066666 C 70.333336 213.666656 79.933334 213.133331 80.199997 212.866669 C 82.199997 211 76.199997 210.733337 54.333332 211.800003 C 40.733334 212.466675 29.666668 212.600006 29.666668 212.066666 C 29.666668 209.933334 37.799999 201.933334 50.066666 192.199997 L 63.26667 181.666656 L 73.133331 181.666656 C 80.199997 181.666656 83 181.133331 83 179.933334 C 83 178.866669 80.066666 178.199997 73.533333 178.066666 C 63.26667 177.800003 64.466667 177.133331 45.133335 192.333344 C 38.333332 197.666656 29.666668 206.199997 26.599998 210.733337 C 23.133335 215.533325 23.133335 216.066666 23 240.733337 L 22.733334 265.799988 L 11.666666 265 L 12.333334 10.733337 L 205.800003 11.666656 C 343.533325 12.333344 399.133331 12.200012 398.466675 11.133331 C 397.799988 10.200012 340.200012 9.666656 203.666672 9.666656 L 9.666666 9.666656 L 9.666666 137.666672 Z M 271 76.600006 C 275.533325 79.933334 276.600006 86.46666 272.866669 87.933334 C 269.533325 89.133331 268.066681 85.53334 270.733337 82.46666 C 272.866669 80.066666 272.866669 80.066666 268.466675 81 C 265.399994 81.666672 264.333344 81.53334 264.866669 80.46666 C 265.533325 79.53334 264.600006 79 262.733337 79 C 261 79 258.866669 78.46666 257.799988 77.800003 C 256.066681 76.733337 256.066681 76.199997 257.666656 74.333328 C 259.933319 71.53334 265.533325 72.46666 271 76.600006 Z M 249.533325 78.866669 C 250.600006 79 248.866669 80.866669 245.933334 83 C 240.46666 86.866669 238.866669 89.666672 241.800003 89.666672 C 242.600006 89.666672 245.399994 87.800003 247.933319 85.53334 C 251 82.866669 253.666656 81.666672 255.799988 81.933334 C 260.333344 82.46666 260.200012 84.600006 255.266663 87.666672 C 251.399994 90.199997 249.533325 93.666672 252.200012 93.666672 C 252.733337 93.666672 255.533325 91.800003 258.333344 89.666672 C 264.066681 85.133331 265.399994 84.733337 266.600006 87.933334 C 267.133331 89.399994 266.066681 91.399994 263.133331 93.933334 C 257.266663 99.133331 259.266663 101.399994 265.399994 96.333328 C 268.866669 93.53334 270.466675 92.866669 271.266663 94.066666 C 273 96.733337 272.466675 98.600006 268.866669 103 C 264.466675 108.066666 265.666656 109.933334 270.466675 105.53334 L 274.066681 102.333328 L 273.399994 108.46666 C 272.200012 118.733337 268.600006 124.46666 259.666656 129.800003 C 252.200012 134.333328 251.133331 134.600006 242.600006 134.066666 C 232.866669 133.53334 229.266663 131.933334 222.066666 125 C 216.333328 119.53334 214.333328 110.600006 216.46666 100.600006 C 217.666672 94.866669 219.266663 91.800003 223.933334 86.733337 C 227.266663 83.266663 230.866669 80.333328 232.066666 80.333328 C 233.666672 80.333328 233.666672 80.733337 231.800003 83.266663 C 228.333328 88.066666 227.933334 89.800003 229.399994 91.266663 C 230.46666 92.333328 231.266663 91.800003 232.199997 89.399994 C 233.800003 85.133331 242.600006 77.800003 245.53334 78.333328 L 249.533325 78.866669 Z M 307.133331 119 C 312.333344 121.800003 310.066681 125.666672 298.866669 132.733337 L 295.133331 135.133331 L 293.133331 131.133331 C 291.399994 127.800003 291.266663 126.46666 292.600006 123.399994 C 293.533325 121.399994 294.866669 119.266663 295.666656 118.733337 C 297.666656 117.266663 304.066681 117.399994 307.133331 119 Z M 313 129.53334 C 312.066681 131.133331 302.600006 136.333328 300.733337 136.333328 C 299.266663 136.333328 307.133331 129.800003 310.333344 128.46666 C 313.399994 127.133331 314.333344 127.53334 313 129.53334 Z M 290.200012 131.800003 C 291.399994 135 291.133331 135.53334 289 133.666672 C 286.733337 131.800003 286.333344 129.666672 288.200012 129.666672 C 288.866669 129.666672 289.799988 130.600006 290.200012 131.800003 Z M 322.733337 138.733337 C 324.600006 145 324.600006 170.866669 322.733337 178.333344 C 321.399994 183.666656 318.333344 188.333344 316.066681 188.333344 C 313.133331 188.333344 315.933319 156.733337 319.933319 145.933334 C 321.133331 142.866669 321.799988 140.066666 321.533325 139.666672 C 318.066681 136.199997 312.200012 161.133331 312.200012 179.133331 L 312.200012 190.733337 L 306.333344 192.199997 C 295.399994 195 288.066681 193.399994 294.866669 189.666656 C 301.799988 186.066666 302.066681 184.733337 299.666656 159.666656 C 299.133331 153.933334 299.399994 150.199997 301 146.733337 C 302.066681 143.933334 302.866669 141.266663 302.733337 140.733337 C 302.466675 140.199997 305.533325 137.933334 309.533325 135.53334 C 318.066681 130.333328 320.466675 131 322.733337 138.733337 Z M 261.933319 140.733337 C 261.533325 146.066666 260.866669 147.399994 258.200012 148.333328 C 254.600006 149.800003 254.066681 151.666672 257 152.866669 C 260.333344 154.066666 259.399994 157.666672 255.666656 157.666672 C 252.866669 157.666672 252.333344 158.333328 252.333344 161.666656 C 252.333344 165.399994 249.399994 168.333344 245.800003 168.333344 C 243.399994 168.333344 251.666656 145.53334 257 137.53334 C 261.266663 131 262.733337 132.066666 261.933319 140.733337 Z M 287.799988 147 C 287.533325 152.600006 286.600006 159.666656 285.799988 162.466675 L 282.866669 176.066666 C 281.399994 183.933334 281.399994 184.600006 284.200012 187.533325 C 286.200012 189.666656 286.733337 191 285.666656 191.666656 C 283.533325 193 276.600006 184.866669 275 179.266663 C 273.266663 173 273.266663 161 275 149 C 276.066681 141.933334 277.266663 138.866669 279.933319 136.066666 C 283.266663 132.600006 283.666656 132.46666 285.933319 134.600006 C 288.066681 136.46666 288.333344 138.333328 287.799988 147 Z M 235.53334 144.866669 C 235.933334 149.53334 237.53334 156.733337 238.866669 160.866669 C 240.199997 165 240.866669 168.733337 240.333328 169 C 239.666672 169.399994 237.133331 167.133331 234.46666 164.066666 C 230.199997 158.733337 229.933334 158.066666 231.800003 155.399994 C 234.46666 151.266663 234.199997 149.266663 231 150.333328 C 229.53334 150.733337 228.333328 150.733337 228.333328 150.066666 C 228.333328 147.933334 232.866669 136.333328 233.800003 136.333328 C 234.199997 136.333328 235 140.199997 235.53334 144.866669 Z M 248.600006 137.666672 C 253.133331 137.666672 253.799988 137.933334 252.466675 139.53334 C 250.333344 142.066666 240.46666 143.666672 238.733337 141.933334 C 236.733337 139.933334 238.600006 135.933334 241.133331 136.866669 C 242.333328 137.266663 245.666672 137.666672 248.600006 137.666672 Z M 299 142.066666 C 299 145.800003 296.733337 148.333328 293.399994 148.333328 C 291.666656 148.333328 291 147.266663 291 144.600006 C 291 139.933334 291.799988 139 295.933319 139 C 298.200012 139 299 139.800003 299 142.066666 Z M 149.133331 149.800003 C 149.53334 150.600006 147.666672 154.46666 144.866669 158.600006 C 139.800003 165.933334 139.800003 165.933334 137.666672 163 L 135.399994 160.066666 L 129.666672 170.866669 C 129.666672 174.733337 106.599998 199 104.73333 197.133331 C 102.73333 195.133331 102.866669 180.733337 104.866669 173.666656 C 108.466667 161.266663 113.666664 155.53334 125.399994 150.866669 C 132.333328 148.199997 147.666672 147.53334 149.133331 149.800003 Z M 159.666672 152.46666 C 166.066666 155.53334 173.933334 164.199997 177.133331 171.800003 C 179.399994 177 179.399994 188.199997 177.266663 196.733337 C 175.800003 202.733337 172.733337 204.333344 162.733337 204.333344 L 156.066666 204.333344 L 157 209.933334 C 157.53334 213.133331 158.600006 216.333344 159.266663 217.266663 C 161.399994 219.933334 153.133331 223.133331 143.800003 223.133331 C 133.266663 223.133331 119.53334 217.933334 113 211.399994 C 105.400002 203.800003 105.533333 202.866669 117.26667 191.133331 C 123.133331 185.266663 129.53334 177.266663 131.933334 172.866669 C 135.933334 165.533325 136.199997 165.266663 137.399994 168.199997 C 138.46666 171.266663 138.600006 171.133331 144.066666 164.866669 C 147.133331 161.266663 150.46666 156.333328 151.266663 153.933334 L 153.266663 149.666672 L 159.666672 152.46666 Z M 296.866669 157.933334 L 297.666656 174.066666 C 297.666656 182.199997 297.266663 183.399994 294.066681 186.466675 L 290.466675 189.800003 L 288.066681 186.733337 C 286.066681 184.199997 285.799988 182.199997 286.333344 175.666656 C 288.333344 154.46666 295 143.133331 296.866669 157.933334 Z M 265.666656 163.666656 C 265.666656 166.199997 264.733337 167.133331 261.399994 168.066666 C 255.799988 169.533325 255 169.133331 255 164.333344 C 255 161 255.533325 160.466675 259.399994 160.066666 C 265 159.399994 265.666656 159.800003 265.666656 163.666656 Z M 105.533333 163.933334 L 99.400002 170.600006 C 97 173 94.466667 177.266663 93.800003 179.933334 C 91.933334 186.333344 91.933334 201.666656 93.666664 201.666656 C 94.466667 201.666656 95 198.199997 95 193.933334 C 95 186.600006 98.066666 174.466675 100.199997 173.133331 C 100.73333 172.733337 100.866669 177.533325 100.599998 183.666656 C 100.199997 192.066666 100.466667 195.800003 102.199997 199.133331 C 105.26667 205.266663 104.866669 210.600006 100.599998 219 C 94.066666 231.933334 89.400002 239 88.199997 238.199997 C 87 237.533325 87.666664 197.933334 89.133331 183 C 89.666664 178.199997 90.866669 172.733337 91.800003 170.866669 C 94.199997 166.199997 100.199997 161.800003 104.199997 161.666656 C 107 161.666656 107.133331 161.933334 105.533333 163.933334 Z M 227 175.933334 L 227.800003 179.666656 C 228.600006 181.533325 227.933334 181.800003 224.199997 181.399994 C 219 180.866669 218.333328 179.133331 219.666672 169.933334 L 220.600006 163.800003 L 223.800003 169 C 225.53334 171.933334 227 175 227 175.933334 Z M 367 167.800003 C 367 168.199997 365.933319 170.199997 364.466675 172.066666 L 355.933319 187 C 351 196.199997 348.733337 199 343.666656 202.199997 C 336.866669 206.333344 335.533325 205.933334 334.200012 199.399994 C 333.533325 195.666656 334.200012 194.333344 341.133331 186.600006 L 353.799988 172.466675 C 357.533325 168.199997 359.533325 167 362.733337 167 C 365.133331 167 367 167.399994 367 167.800003 Z M 367.533325 178.066666 C 366.600006 180.466675 364.333344 181.133331 364.333344 179.133331 C 364.333344 176.199997 366.066681 173.533325 367.266663 174.733337 C 367.933319 175.399994 368.066681 176.866669 367.533325 178.066666 Z M 237.933334 191.399994 C 242.333328 195.933334 247.799988 208.600006 251.799988 223.933334 C 252.866669 228.199997 255.933319 235.533325 258.466675 240.066666 C 262.200012 247 262.866669 249.399994 262.200012 253.133331 C 261.799988 255.666672 260.866669 258.066681 260.200012 258.466675 C 259.533325 258.866669 255.799988 257.666656 251.799988 255.800003 C 247 253.533325 244.199997 251.266663 243.266663 248.733337 C 240.866669 242.600006 236.733337 223.133331 235.266663 210.733337 C 233.399994 195.533325 232.333328 193.666656 225.666672 193.666656 C 222.866669 193.666656 220.066666 193 219.666672 192.333344 C 217.800003 189.399994 215.399994 191.399994 211.666672 198.866669 C 206.333328 209.399994 200.866669 212.600006 187 213.266663 C 175.53334 213.933334 172.600006 212.733337 174.866669 208.600006 C 176.066666 206.333344 177.53334 205.933334 183.399994 205.933334 C 192.733337 206.066666 203.266663 200.866669 213.133331 191.266663 C 215.933334 188.600006 220.600006 187.133331 227.266663 187.133331 C 232.733337 187 234.199997 187.666656 237.933334 191.399994 Z M 321.666656 190.600006 C 321.666656 191.933334 316.066681 197.666656 314.733337 197.666656 C 312.866669 197.666656 313.533325 195.133331 316.333344 192.333344 C 319 189.666656 321.666656 188.866669 321.666656 190.600006 Z M 311 197.266663 C 311 199.933334 309 200.466675 297.399994 200.733337 C 286.200012 201 283 200.199997 283 197.266663 C 283 196.066666 287.133331 195.666656 297 195.666656 C 307.133331 195.666656 311 196.066666 311 197.266663 Z M 217.133331 198.333344 C 216.733337 199.533325 217.133331 200.333344 218.199997 200.333344 C 219.266663 200.333344 220.333328 199.399994 220.866669 198.333344 C 222.066666 195.133331 229.266663 195.800003 230.066666 199.133331 C 231.133331 202.866669 225.53334 211.666656 220.066666 215 C 215 218.066666 214.199997 217.666656 212.199997 211.266663 C 211 206.866669 211.133331 205.666656 213.666672 201.266663 C 216.600006 196.333344 218.600006 194.600006 217.133331 198.333344 Z M 170.199997 209.933334 C 167.133331 213.800003 164.066666 216.333344 162.866669 216.333344 C 162.066666 216.333344 159 209.266663 159 207.533325 C 159 207.266663 162.066666 207 165.933334 207 L 172.733337 207 L 170.199997 209.933334 Z M 53.133335 226.066666 L 25.666668 245.800003 L 25.666668 225.800003 L 33.933334 225.399994 C 56.333336 224.333328 55.800003 224.333328 53.133335 226.066666 Z M 151.53334 234.466675 C 152.733337 235.533325 153.666672 237.533325 153.666672 238.866669 C 153.666672 240.733337 152.866669 241.133331 149.666672 240.600006 C 147.266663 240.199997 145.666672 240.600006 145.666672 241.533325 C 145.666672 242.333328 146.733337 243 148.066666 243 C 149.266663 243 151.266663 243.666672 152.333328 244.333328 C 154.066666 245.533325 153.933334 245.933334 151.800003 247.666672 C 142.600006 254.733337 132.866669 243.666672 141 235.666672 C 144.733337 231.800003 148.600006 231.399994 151.53334 234.466675 Z"/>
        <path id="path3" fill="#000000" stroke="none" d="M 242.866669 97.53334 C 239 100.733337 240.46666 102.733337 244.866669 100.333328 C 246.733337 99.399994 249.133331 99 250.200012 99.399994 C 251.533325 99.933334 252.333344 99.53334 252.333344 98.46666 C 252.333344 96.733337 249.666656 95 247 95 C 246.46666 95 244.600006 96.199997 242.866669 97.53334 Z"/>
        <path id="path4" fill="#000000" stroke="none" d="M 219.399994 98.866669 C 217.399994 102.066666 219.399994 103.800003 221.666672 101 C 222.733337 99.666672 224.46666 99.266663 226.066666 99.800003 C 227.933334 100.333328 228.46666 100.066666 228.066666 98.866669 C 227.133331 95.800003 221.266663 95.933334 219.399994 98.866669 Z"/>
        <path id="path5" fill="#000000" stroke="none" d="M 242.46666 109.133331 C 241.133331 112.733337 241.53334 115 243.666672 115 C 244.733337 115 245.666672 113.800003 245.666672 112.333328 C 245.666672 110.866669 246.199997 109.666672 246.866669 109.666672 C 247.533325 109.666672 248.333344 110.866669 248.733337 112.333328 C 249.399994 115.133331 252.333344 116.066666 252.333344 113.53334 C 252.333344 108.066666 244.333328 104.333328 242.46666 109.133331 Z"/>
        <path id="path6" fill="#000000" stroke="none" d="M 222.600006 109.266663 C 221.266663 110.600006 221.53334 116.333328 222.866669 116.333328 C 223.53334 116.333328 224.333328 115 224.733337 113.399994 C 225.53334 110.600006 225.666672 110.600006 228.066666 112.733337 C 231.133331 115.53334 232.333328 115.666672 232.333328 113 C 232.333328 109.800003 224.866669 106.866669 222.600006 109.266663 Z"/>
        <path id="path7" fill="#000000" stroke="none" d="M 243.933334 125.800003 C 242.46666 126.600006 239.399994 126.866669 236.733337 126.333328 C 233.133331 125.666672 232.199997 125.933334 232.600006 127.266663 C 233.53334 129.933334 246.46666 129.399994 249.266663 126.600006 C 251.399994 124.46666 251.399994 124.333328 249 124.333328 C 247.533325 124.333328 245.266663 125 243.933334 125.800003 Z"/>
        <path id="path8" fill="#000000" stroke="none" d="M 155.133331 166.466675 C 152.733337 169.533325 151.266663 175 152.866669 175 C 153.133331 175 154.733337 172.866669 156.199997 170.199997 C 158.733337 165.933334 159.53334 165.399994 163.133331 166.199997 C 166.066666 166.733337 167 166.466675 166.733337 165.266663 C 166.333328 164.466675 164.333328 163.533325 162.066666 163.266663 C 158.866669 163 157.266663 163.666656 155.133331 166.466675 Z"/>
        <path id="path9" fill="#000000" stroke="none" d="M 162.600006 178.466675 C 160.600006 180.466675 161.666672 185.399994 164.199997 186.066666 C 167.800003 187 169.933334 185.133331 169.399994 181.533325 C 169 178.333344 164.600006 176.466675 162.600006 178.466675 Z"/>
        <path id="path10" fill="#000000" stroke="none" d="M 143 194.333344 C 143 195.399994 143.666672 196.333344 144.333328 196.333344 C 145.133331 196.333344 145.666672 195.399994 145.666672 194.333344 C 145.666672 193.266663 145.133331 192.333344 144.333328 192.333344 C 143.666672 192.333344 143 193.266663 143 194.333344 Z"/>
        <path id="path11" fill="#000000" stroke="none" d="M 136.333328 195.666656 C 136.333328 196.733337 137.266663 197.666656 138.333328 197.666656 C 139.399994 197.666656 140.333328 196.733337 140.333328 195.666656 C 140.333328 194.600006 139.399994 193.666656 138.333328 193.666656 C 137.266663 193.666656 136.333328 194.600006 136.333328 195.666656 Z"/>
        <path id="path12" fill="#000000" stroke="none" d="M 397.666656 20.200012 L 397 27.266663 L 377.933319 27.133331 C 367.399994 27 358.066681 26.600006 357.133331 26.200012 C 355.799988 25.666656 331.133331 26.866669 303.266663 28.866669 C 300.866669 29.133331 298.200012 29.933319 297.266663 30.866669 C 294.733337 33.399994 295.133331 66.46666 297.666656 71.666672 L 299.666656 75.666672 L 398.333344 75.666672 L 398.333344 49 L 388.066681 49.399994 C 376.600006 49.933334 375.533325 49 380.866669 43.666672 C 384.733337 39.800003 390.600006 38.066666 392.733337 40.199997 C 394.866669 42.333328 397.666656 42.066666 397.666656 39.666672 C 397.666656 38.600006 396.733337 37.666672 395.666656 37.666672 C 394.600006 37.666672 393.666656 37 393.666656 36.199997 C 393.666656 35.399994 394.600006 35 395.666656 35.53334 C 396.733337 35.933334 397.666656 35.53334 397.666656 34.600006 C 397.666656 32.066666 387.799988 31.933334 383 34.333328 C 378.600006 36.600006 373.666656 43.53334 373.666656 47.266663 C 373.666656 48.600006 372.733337 49.666672 371.666656 49.666672 C 370.600006 49.666672 369.399994 51 369 52.600006 C 366.466675 64.199997 365.933319 68.199997 366.600006 70.733337 C 367.266663 73.399994 366.866669 73.666672 360.600006 73.666672 L 354.066681 73.666672 L 353.933319 66.46666 C 353.933319 57.800003 352.200012 54.333328 347 51.666672 C 344.333344 50.333328 343 48.600006 343 46.600006 C 343 42.866669 334.333344 33.666672 330.866669 33.666672 C 326.466675 33.666672 319.266663 37.266663 317.666656 40.333328 C 316.733337 41.933334 316.333344 45.133331 316.600006 47.266663 C 317.133331 50.333328 316.600006 51.399994 314.333344 52.333328 C 310.066681 53.933334 308.333344 56.733337 306.733337 65.133331 C 304.866669 74.600006 305.133331 73.933334 302.600006 72.866669 C 299.266663 71.666672 297.266663 59.933334 297.933319 46.066666 C 298.333344 39.266663 298.866669 33.266663 299.266663 33 C 301.933319 30.333344 375 28.333344 392.066681 30.466675 C 398.733337 31.266663 399.399994 30.333344 398.733337 20.200012 L 398.200012 13 L 397.666656 20.200012 Z M 389 36.333328 C 385.399994 37.933334 383.266663 37.933334 385.666656 36.333328 C 386.733337 35.666672 388.600006 35.133331 389.666656 35.133331 C 391 35.133331 390.733337 35.53334 389 36.333328 Z M 337 41.53334 C 339 44.46666 340.333344 47.666672 340.066681 48.600006 C 339.666656 49.666672 338.466675 48.600006 337.266663 46.066666 C 332.600006 37.266663 324.066681 37.399994 322.466675 46.333328 C 321.533325 51.399994 319 51.53334 319 46.600006 C 319.133331 43.133331 321.266663 40.066666 325 37.933334 C 329.933319 35.133331 333.133331 36.066666 337 41.53334 Z M 333.666656 45.53334 C 335.666656 49.399994 335.399994 49.666672 330.600006 49.666672 C 325.266663 49.666672 324.466675 49 325.266663 45.53334 C 326.200012 42.199997 331.799988 42.199997 333.666656 45.53334 Z M 397.399994 63 L 397 72.600006 L 379 73.800003 L 379 52.46666 L 387.399994 52.066666 C 391.933319 51.800003 396.200012 52.066666 396.733337 52.46666 C 397.266663 52.866669 397.666656 57.666672 397.399994 63 Z M 344.733337 54.333328 C 350.200012 56.600006 351 58.333328 351 67.133331 L 351 73.666672 L 320.733337 73.666672 L 318.866669 65.933334 C 316.066681 54.46666 316.066681 54.46666 323.666656 53.53334 C 335.533325 52.199997 339.933319 52.333328 344.733337 54.333328 Z M 376.333344 63.933334 C 376.333344 73.399994 376.200012 73.800003 373.399994 73.399994 C 370.733337 73 370.333344 72.066666 369.933319 65.399994 C 369.533325 56.866669 371.266663 52.066666 374.333344 53.133331 C 375.799988 53.800003 376.333344 56.333328 376.333344 63.933334 Z M 314.866669 61.266663 C 318.066681 74.199997 318.066681 73.666672 313.799988 73.666672 C 308.600006 73.666672 307.933319 72.199997 309.666656 65.399994 C 312.466675 54.333328 313 53.933334 314.866669 61.266663 Z"/>
        <path id="path14" fill="#000000" stroke="none" d="M 155 27 C 153.133331 27.533325 149 28.066681 145.933334 28.200012 L 140.066666 28.333344 L 141 38.600006 C 141.53334 44.199997 142.066666 66.866669 142.46666 88.866669 C 142.866669 124.199997 143.53334 138.600006 144.733337 139.933334 L 183.800003 141.133331 C 209.266663 141.666672 221.933334 141.53334 221 140.600006 C 219.800003 139.399994 185 137.800003 158.733337 137.666672 L 147.133331 137.666672 L 146.46666 133.266663 C 146.066666 131 145.53334 107 145.266663 80.066666 L 144.866669 31.266663 L 154.199997 30.733337 C 169.266663 29.799988 226.600006 30.200012 227.800003 31.266663 C 228.333328 31.800003 228.733337 41 228.866669 51.666672 C 229 66.199997 229.399994 71 230.733337 71 C 231.933334 71 232.333328 67.266663 232.333328 56.46666 C 232.333328 38.066666 231.266663 29.933319 228.46666 28.466675 C 226.066666 27.133331 200.866669 26.333344 181.666672 27 C 174.733337 27.133331 166.600006 27 163.666672 26.600006 C 160.733337 26.200012 156.866669 26.333344 155 27 Z"/>
        <path id="path16" fill="#000000" stroke="none" d="M 164.066666 43.133331 C 160.333328 44.46666 159.53334 47.266663 161.133331 51.53334 C 161.666672 53 162.600006 53.266663 165.266663 52.199997 C 167 51.53334 170.333328 51 172.46666 51 C 176.066666 51 176.333328 51.266663 174.866669 53.800003 C 173.399994 56.600006 173.800003 61.933334 175.666672 67.933334 C 176.600006 70.733337 176.199997 71 172.199997 71 C 169.666672 71 165.933334 70.066666 163.800003 69 C 159.399994 66.600006 159.666672 66.600006 158.46666 71.266663 C 157.666672 74.600006 158.066666 75 162.733337 76.46666 C 165.666672 77.266663 171 77.666672 175.133331 77.133331 L 190.733337 75.933334 C 198.600006 75.53334 199 75.666672 199 78.600006 C 199 81.266663 199.666672 81.666672 203.800003 81.666672 C 208.066666 81.666672 208.46666 81.399994 208.199997 77.933334 L 208.066666 68.600006 C 208.333328 63.933334 208.733337 63 211 63 C 212.733337 63 213.666672 62.066666 213.666672 60.46666 C 213.666672 58.333328 212.46666 57.666672 207.800003 57 C 199.800003 55.800003 197.133331 56.46666 196.600006 60.066666 C 196.199997 62.333328 196.866669 63 198.866669 63 C 202.866669 63 202.46666 67.53334 198.333328 69.399994 C 196.46666 70.333328 193.399994 71 191.666672 71 C 188.600006 71 188.600006 70.866669 190.600006 66.866669 C 191.933334 64.199997 192.333328 61 191.800003 57.933334 C 190.066666 47 189.933334 47.666672 195 48.066666 C 197.53334 48.333328 201 49.399994 202.46666 50.333328 C 205.800003 52.46666 207 51.800003 207 47.666672 C 207 43.800003 198.600006 40.866669 191.399994 42.333328 C 185 43.53334 182.600006 43.666672 174.333328 42.600006 C 170.600006 42.066666 166.066666 42.333328 164.066666 43.133331 Z M 183.800003 57 C 184.733337 61 183.53334 67 181.666672 67 C 180.866669 67 180.333328 63.933334 180.333328 60.333328 C 180.333328 53.266663 182.333328 51.399994 183.800003 57 Z"/>
        <path id="path17" fill="#000000" stroke="none" d="M 298.733337 80.333328 C 296.333344 81 295.533325 82.333328 294.733337 87 C 293.133331 98.199997 293.399994 107 295.666656 107 C 297.266663 107 297.666656 105.133331 297.666656 97.933334 C 297.666656 82.733337 297.533325 83 310.733337 83 L 322.200012 83 L 318.600006 86.733337 C 316.466675 88.866669 315 91.933334 315 94.066666 C 315 96.199997 313.933319 98.066666 312.333344 99 C 309.666656 100.46666 306.333344 110.066666 307.666656 112.333328 C 309.399994 115.133331 311 113.53334 311 109.133331 C 311 105.800003 311.933319 103.800003 314.466675 101.800003 C 318.066681 99 321.666656 98.066666 321.666656 99.933334 L 319.666656 104.333328 C 317.399994 108.199997 317 118.46666 319 119.666672 C 319.799988 120.199997 320.200012 121.53334 320.066681 122.733337 C 319.666656 124.866669 322.733337 125 358.333344 124.600006 L 397 124.333328 L 397 144.199997 C 397 155.266663 397.399994 165.533325 397.933319 167.266663 C 398.333344 169 398.600006 153.800003 398.600006 133.666672 L 398.333344 97 L 387 96.866669 C 369.399994 96.600006 368.066681 96.46666 369 94.866669 C 369.533325 94.066666 375.399994 93.666672 384.066681 93.800003 L 398.333344 94.066666 L 398.733337 87.133331 C 399.133331 81.399994 398.866669 80.333328 396.733337 80.066666 C 391.133331 79.399994 301.666656 79.666672 298.733337 80.333328 Z M 391.666656 82.733337 C 396.200012 83.53334 397 84.199997 397 87 L 397 90.333328 L 366.066681 91.133331 L 364.600006 98.066666 C 362.733337 107 361.133331 119.266663 361.533325 121.266663 C 361.666656 122.46666 359.933319 123 356.333344 123 C 351.133331 123 349.399994 121.399994 352.466675 119.53334 C 354.866669 118.066666 352.733337 107.399994 349 102.46666 C 347.133331 100.066666 345.666656 97.266663 345.666656 96.199997 C 345.666656 95.133331 344.466675 91.933334 343.133331 89.266663 C 341.266663 85.666672 341 84.066666 342.066681 83.666672 C 343 83.266663 350.600006 82.866669 359 82.600006 L 380.333344 82.066666 C 383.666656 81.933334 388.733337 82.199997 391.666656 82.733337 Z M 339.666656 88.733337 C 342.600006 94.600006 342.066681 97.800003 339 92.733337 C 334.466675 85.266663 325.266663 84.866669 321.799988 91.933334 C 319.399994 96.733337 317.666656 97.53334 317.666656 93.933334 C 317.666656 92.600006 319 90.199997 320.733337 88.600006 C 327.533325 82.199997 336.466675 82.199997 339.666656 88.733337 Z M 335.533325 92.199997 C 337.666656 94.46666 337.399994 94.600006 330.733337 95.399994 C 327 95.933334 323.533325 95.933334 323.133331 95.666672 C 322.866669 95.266663 323.666656 93.800003 325 92.333328 C 328.066681 89 332.600006 88.866669 335.533325 92.199997 Z M 345.399994 104.066666 C 350.733337 110.066666 352.066681 114.46666 349.533325 118.866669 C 347.666656 122.066666 346.733337 122.333328 338.333344 122.600006 C 325.133331 123 323.399994 122.46666 321.666656 117 C 320.466675 113.53334 320.466675 111.133331 321.666656 107.666672 C 325.266663 96.733337 337.133331 95 345.399994 104.066666 Z M 371.533325 110.199997 C 372.200012 115.800003 372.466675 120.600006 372.200012 120.866669 L 364.066681 123.133331 L 366.600006 101.933334 C 367.933319 96.066666 370.333344 99.933334 371.533325 110.199997 Z M 397 110.199997 C 397 115.933334 396.600006 120.866669 396.200012 121.133331 C 395.133331 121.800003 376.333344 122.199997 375.799988 121.53334 L 373.533325 100.46666 L 395.666656 99.666672 C 396.466675 99.800003 397 104.333328 397 110.199997 Z"/>
        <path id="path18" fill="#000000" stroke="none" d="M 374.733337 173.933334 L 363.799988 194.733337 C 360.466675 199.933334 360.466675 200.333344 362.333344 205.800003 C 363.533325 208.866669 364.200012 211.533325 363.933319 211.800003 C 363.666656 212.066666 339.933319 212.600006 311 213.133331 C 282.066681 213.533325 257.799988 214.466675 257 215.133331 C 255.399994 216.733337 253.133331 216.600006 291.666656 216.466675 C 344.066681 216.199997 399 214.733337 399 213.533325 C 399 212.866669 392.066681 212.333344 383.533325 212.333344 C 375.133331 212.333344 368.466675 211.800003 368.866669 211.266663 C 369.133331 210.733337 372.200012 208.866669 375.533325 207.133331 C 381.399994 204.333344 381.799988 203.666656 384.466675 194.333344 C 386.866669 186.199997 387.933319 184.333344 390.600006 183.666656 C 392.466675 183.266663 395.133331 183.266663 396.600006 183.800003 C 398.600006 184.333344 399.133331 184.066666 398.600006 182.866669 C 398.333344 181.800003 397.399994 181.133331 396.600006 181.266663 C 395.933319 181.399994 395 178.466675 394.733337 174.866669 C 393.933319 167 392.466675 165.666656 384.733337 165.666656 C 379.133331 165.666656 379 165.800003 374.733337 173.933334 Z M 389.666656 170.733337 C 389.666656 172.066666 389.133331 173.666656 388.466675 174.333344 C 387 176.066666 380.333344 195.666656 380.333344 198.333344 C 380.333344 200.199997 369.266663 208.333344 366.866669 208.333344 C 366.333344 208.333344 365.533325 206.733337 365.133331 204.600006 C 364.466675 201.933334 365.799988 198.066666 370.466675 189 C 380.333344 169.800003 381.399994 168.333344 385.799988 168.333344 C 388.600006 168.333344 389.666656 169 389.666656 170.733337 Z M 391.799988 179.800003 C 391.399994 180.866669 390.466675 181.399994 389.666656 181 C 388.733337 180.466675 388.866669 179.133331 389.933319 177.266663 C 391.533325 174.066666 393.133331 176.199997 391.799988 179.800003 Z"/>
        <path id="path19" fill="#000000" stroke="none" d="M 398.200012 197.666656 C 398.200012 204.600006 398.333344 207.533325 398.600006 203.933334 C 398.866669 200.466675 398.866669 194.866669 398.600006 191.266663 C 398.333344 187.800003 398.200012 190.733337 398.200012 197.666656 Z"/>
        <path id="path20" fill="#000000" stroke="none" d="M 397.799988 219.800003 C 397.799988 221.266663 398.200012 221.666656 398.600006 220.600006 C 399 219.666656 398.866669 218.466675 398.466675 218.066666 C 398.066681 217.533325 397.666656 218.333344 397.799988 219.800003 Z"/>
        <path id="path21" fill="#000000" stroke="none" d="M 105 224.333328 C 105.400002 225 108.199997 225.666672 111 225.666672 C 113.800003 225.666672 116.599998 225 117 224.333328 C 117.533333 223.533325 115.26667 223 111 223 C 106.73333 223 104.466667 223.533325 105 224.333328 Z"/>
        <path id="path22" fill="#000000" stroke="none" d="M 261.666656 225.666672 C 261.666656 226.333328 262.466675 227 263.533325 227 C 264.600006 227 265.933319 226.333328 266.333344 225.666672 C 266.733337 224.866669 265.933319 224.333328 264.466675 224.333328 C 262.866669 224.333328 261.666656 224.866669 261.666656 225.666672 Z"/>
        <path id="path23" fill="#000000" stroke="none" d="M 71 238.466675 C 64.73333 243.266663 59.400002 248.066666 59.26667 249.266663 C 58.599998 251.666672 61.800003 250.199997 67.533333 245.133331 C 69.666664 243.133331 71.800003 241.666672 72.199997 241.666672 L 78.866669 236.466675 C 88.866669 227.800003 82.866669 229.399994 71 238.466675 Z"/>
        <path id="path24" fill="#000000" stroke="none" d="M 396.333344 234.199997 C 396.333344 236.066666 397 237.933334 397.666656 238.333328 C 398.466675 238.866669 399 237.399994 399 235.133331 C 399 232.866669 398.466675 231 397.666656 231 C 397 231 396.333344 232.466675 396.333344 234.199997 Z"/>
        <path id="path25" fill="#000000" stroke="none" d="M 52.333332 253.666672 C 52.333332 254.333328 53 255 53.666668 255 C 54.466667 255 55 254.333328 55 253.666672 C 55 252.866669 54.466667 252.333328 53.666668 252.333328 C 53 252.333328 52.333332 252.866669 52.333332 253.666672 Z"/>
        <path id="path26" fill="#000000" stroke="none" d="M 309.666656 255 C 309.666656 255.666672 310.333344 256.333344 311 256.333344 C 311.799988 256.333344 312.333344 255.666672 312.333344 255 C 312.333344 254.199997 311.799988 253.666672 311 253.666672 C 310.333344 253.666672 309.666656 254.199997 309.666656 255 Z"/>
    </g>
</svg>
